<svg xmlns="http://www.w3.org/2000/svg" xmlns:xlink="http://www.w3.org/1999/xlink" width="328" height="344" viewBox="0 0 328 344">
  <defs>
    <clipPath id="clip-path">
      <rect id="Rectángulo_35337" data-name="Rectángulo 35337" width="210.936" height="192.564" fill="none"/>
    </clipPath>
  </defs>
  <g id="Grupo_84092" data-name="Grupo 84092" transform="translate(-987 -795)">
    <rect id="Rectángulo_35326" data-name="Rectángulo 35326" width="328" height="344" rx="20" transform="translate(987 795)" fill="#81d4fa"/>
    <g id="Grupo_84091" data-name="Grupo 84091" transform="translate(1044.064 851.968)">
      <g id="Grupo_84090" data-name="Grupo 84090" clip-path="url(#clip-path)">
        <path id="Trazado_160930" data-name="Trazado 160930" d="M141.909,16.023A16.023,16.023,0,1,1,125.886,0a16.024,16.024,0,0,1,16.023,16.023" transform="translate(-20.41)" fill="#fff"/>
        <path id="Trazado_160931" data-name="Trazado 160931" d="M134.421,43.561l-5.384,94.253c-.016.317-.431.568-.937.568s-.921-.252-.936-.568l-5.385-94.253a34.935,34.935,0,0,0,6.319.566,35.029,35.029,0,0,0,6.324-.566" transform="translate(-22.623 -8.093)" fill="#7e5ee3"/>
        <path id="Trazado_160932" data-name="Trazado 160932" d="M123.109,128.522h-1.9l-.892-.227c-1.287-.33-2.57-.655-3.841-.984-14.18-3.684-26.666-7.66-26.666-17.269,0-5.945,4.771-9.732,11.772-12.626a76.329,76.329,0,0,0,7.352,2.613c2.056.627,4.322,1.265,7.119,2,.239.065.471.125.709.184a95.745,95.745,0,0,0-12.1,3.874c-5.589,2.375-5.654,3.943-5.654,3.96-3.5,6.021,8.662,12.406,19.292,16.652,1.326.53,2.623,1.023,3.868,1.483h.006c.319.119.633.233.941.346" transform="translate(-16.684 -18.097)" fill="#fff"/>
        <path id="Trazado_160933" data-name="Trazado 160933" d="M152.518,73.365c0,5.545-4.155,9.213-10.393,12.037-2.088-.817-4.512-1.624-7.352-2.462-2.343-.686-4.8-1.342-7.12-1.942l-.692-.178a86.416,86.416,0,0,0,10.706-3.495c5.588-2.375,5.653-3.944,5.653-3.96,2.418-4.09-6.346-7.476-17.014-10.647-3.105-.931-6.379-1.834-9.576-2.732-.313-.092-.627-.178-.947-.265q-.778-.219-1.541-.438c-1.25-.352-2.516-.72-3.766-1.093l-1.2-.357c-.081-.027-.162-.049-.243-.076-.233-.07-.471-.146-.7-.216-.416-.125-.822-.255-1.228-.384-.281-.092-.557-.179-.827-.27l-.682-.222c-.665-.227-1.3-.449-1.92-.671a14.514,14.514,0,0,1-7.52,1.823c-5.242,0-9.495-2.083-9.495-4.647,0-2.093,2.846-3.868,6.747-4.442a18.6,18.6,0,0,1,2.748-.2c.151,0,.3.006.454.011.1,0,.195-.011.3-.011a19.7,19.7,0,0,1,7.6,1.391c4.712,1.936,11.215,3.6,17.5,5.2,15.689,4,30.512,7.779,30.512,18.248" transform="translate(-16.1 -9.015)" fill="#fff"/>
        <path id="Trazado_160934" data-name="Trazado 160934" d="M154.843,103.467c0,9.608-12.486,13.585-26.671,17.268-1.266.331-2.548.655-3.836.985l-.888.227H121.54c.309-.114.628-.227.947-.346h0c1.239-.46,2.537-.953,3.863-1.483,10.63-4.247,22.793-10.631,19.292-16.652,0-.016-.065-1.585-5.654-3.96a95.947,95.947,0,0,0-12.1-3.873c-1.926-.508-3.89-1.011-5.837-1.51-1.683-.427-3.355-.854-4.994-1.287-2.418-.633-4.777-1.282-7.022-1.97a68.746,68.746,0,0,1-8.1-2.964C95.7,85.084,91.547,81.416,91.547,75.871c0-6.811,6.281-10.793,14.991-13.844,3.349,1.093,7.223,2.191,11.025,3.251-10.576,3.154-19.221,6.53-16.819,10.593,0,.016.065,1.584,5.654,3.96a86.181,86.181,0,0,0,10.706,3.5c2.364.649,4.809,1.271,7.227,1.887q1.794.454,3.56.909c2.408.627,4.766,1.255,7.023,1.92a83.39,83.39,0,0,1,8.168,2.8c6.99,2.9,11.761,6.687,11.761,12.627" transform="translate(-17.007 -11.523)" fill="#fff"/>
        <path id="Trazado_160935" data-name="Trazado 160935" d="M165.7,53.17c0,2.564-4.252,4.647-9.495,4.647a14.513,14.513,0,0,1-7.519-1.823c-.617.222-1.26.444-1.926.671-3.3-1.109-6.871-2.1-10.556-3.061a99.255,99.255,0,0,0,11.653-3.684,19.706,19.706,0,0,1,7.6-1.391c.1,0,.2.011.3.011.151-.006.3-.011.454-.011a18.6,18.6,0,0,1,2.749.2c3.9.573,6.746,2.348,6.746,4.442" transform="translate(-25.303 -9.015)" fill="#fff"/>
        <path id="Trazado_160936" data-name="Trazado 160936" d="M52.9,2.016h48.245a19.7,19.7,0,0,0-4.354,6.028H52.9a3.014,3.014,0,0,1,0-6.028" transform="translate(-9.268 -0.375)" fill="#7e5ee3"/>
        <path id="Trazado_160937" data-name="Trazado 160937" d="M197.447,5.029a3.011,3.011,0,0,1-3.013,3.013H150.591a19.7,19.7,0,0,0-4.355-6.027h48.2a3.011,3.011,0,0,1,3.013,3.013" transform="translate(-27.167 -0.375)" fill="#7e5ee3"/>
        <path id="Trazado_160938" data-name="Trazado 160938" d="M66.2,11.325H98.618a19.7,19.7,0,0,0-1.185,6.027H66.2a3.013,3.013,0,1,1,0-6.027" transform="translate(-11.738 -2.104)" fill="#7e5ee3"/>
        <path id="Trazado_160939" data-name="Trazado 160939" d="M187.762,14.338a3.011,3.011,0,0,1-3.013,3.013H153.561a19.708,19.708,0,0,0-1.185-6.027h32.373a3.011,3.011,0,0,1,3.013,3.013" transform="translate(-28.308 -2.104)" fill="#7e5ee3"/>
        <path id="Trazado_160940" data-name="Trazado 160940" d="M99.9,20.634a19.708,19.708,0,0,0,1.185,6.027h-21.6a3.013,3.013,0,0,1,0-6.027Z" transform="translate(-14.208 -3.833)" fill="#7e5ee3"/>
        <path id="Trazado_160941" data-name="Trazado 160941" d="M176.937,23.647a3.014,3.014,0,0,1-3.013,3.013H152.376a19.708,19.708,0,0,0,1.185-6.027h20.363a3.011,3.011,0,0,1,3.013,3.013" transform="translate(-28.308 -3.833)" fill="#7e5ee3"/>
        <path id="Trazado_160942" data-name="Trazado 160942" d="M108.562,35.968H92.787a3.016,3.016,0,0,1,0-6.032H104.2a19.732,19.732,0,0,0,4.36,6.032" transform="translate(-16.678 -5.561)" fill="#7e5ee3"/>
        <path id="Trazado_160943" data-name="Trazado 160943" d="M164.969,32.954a3.018,3.018,0,0,1-3.013,3.013H146.229a19.663,19.663,0,0,0,4.361-6.032h11.366a3.009,3.009,0,0,1,3.013,3.018" transform="translate(-27.166 -5.561)" fill="#7e5ee3"/>
        <path id="Trazado_160944" data-name="Trazado 160944" d="M65.158,86.247A14.265,14.265,0,1,1,79.423,71.982,14.281,14.281,0,0,1,65.158,86.247m0-27.448A13.183,13.183,0,1,0,78.341,71.982,13.2,13.2,0,0,0,65.158,58.8" transform="translate(-9.455 -10.722)" fill="#7e5ee3"/>
        <path id="Trazado_160945" data-name="Trazado 160945" d="M189.021,86.247a14.265,14.265,0,1,1,14.265-14.265,14.281,14.281,0,0,1-14.265,14.265m0-27.448A13.183,13.183,0,1,0,202.2,71.982,13.2,13.2,0,0,0,189.021,58.8" transform="translate(-32.466 -10.722)" fill="#7e5ee3"/>
        <path id="Trazado_160946" data-name="Trazado 160946" d="M135.583,16.044H129.6V10.065h-3.7v5.979h-5.978v3.7h5.978V25.72h3.7V19.742h5.979Z" transform="translate(-22.28 -1.87)" fill="#7e5ee3"/>
        <path id="Trazado_160947" data-name="Trazado 160947" d="M18.964,188.609H6.359v5.175H16.413V198.7H6.359v9.39H0v-24.4H18.964Z" transform="translate(0 -34.126)" fill="#fff"/>
        <path id="Trazado_160948" data-name="Trazado 160948" d="M25.834,208.091l8.576-24.4h7.615l8.54,24.4H44.022l-4.769-15.675-1.072-3.844h-.074l-1,3.807-4.88,15.711Zm5.582-9.833H44.984v4.325H31.416Z" transform="translate(-4.799 -34.126)" fill="#fff"/>
        <path id="Trazado_160949" data-name="Trazado 160949" d="M75.435,183.693a10.183,10.183,0,0,1,6.783,2.052A6.791,6.791,0,0,1,84.64,191.2a6.921,6.921,0,0,1-2.4,5.693,10.438,10.438,0,0,1-6.765,1.959l-.591.332H70.038v8.91H63.79v-24.4Zm-.888,10.979a4.381,4.381,0,0,0,2.772-.739,2.85,2.85,0,0,0,.925-2.366,2.806,2.806,0,0,0-.925-2.329,4.381,4.381,0,0,0-2.772-.739h-4.51v6.173ZM78.282,196l7.8,12.089H79.058L72.81,197.409Z" transform="translate(-11.851 -34.126)" fill="#fff"/>
        <path id="Trazado_160950" data-name="Trazado 160950" d="M127.4,183.692v24.4h-5.619v-11.2l.185-7.5h-.074l-6.025,18.706h-5.139L104.7,189.385h-.074l.185,7.5v11.2H99.158v-24.4h9.057l3.844,12.422,1.368,5.174h.074l1.4-5.138,3.808-12.458Z" transform="translate(-18.421 -34.126)" fill="#fff"/>
        <path id="Trazado_160951" data-name="Trazado 160951" d="M141.427,208.091l8.576-24.4h7.615l8.54,24.4h-6.543l-4.768-15.675-1.073-3.844H153.7l-1,3.807-4.88,15.711Zm5.582-9.833h13.567v4.325H147.009Z" transform="translate(-26.274 -34.126)" fill="#fff"/>
        <path id="Trazado_160952" data-name="Trazado 160952" d="M199.683,201.02a9.759,9.759,0,0,1-2.255,4.2,9.245,9.245,0,0,1-3.7,2.4,14.1,14.1,0,0,1-4.731.758,12.986,12.986,0,0,1-6.4-1.5,10.053,10.053,0,0,1-4.14-4.306,16.6,16.6,0,0,1,0-13.53,10.069,10.069,0,0,1,4.14-4.307,12.906,12.906,0,0,1,6.359-1.5,14.663,14.663,0,0,1,4.7.721,9.178,9.178,0,0,1,3.622,2.2,8.345,8.345,0,0,1,2.107,3.808l-5.583,2.255a5.148,5.148,0,0,0-1.681-3.142,4.853,4.853,0,0,0-2.939-.85,5.3,5.3,0,0,0-3.013.85,5.36,5.36,0,0,0-1.959,2.532,11.184,11.184,0,0,0-.684,4.2,12.111,12.111,0,0,0,.629,4.177,5.044,5.044,0,0,0,1.9,2.55,5.561,5.561,0,0,0,3.16.851,4.706,4.706,0,0,0,3.014-.98,5.052,5.052,0,0,0,1.681-3.013Z" transform="translate(-32.887 -34.041)" fill="#fff"/>
        <rect id="Rectángulo_35335" data-name="Rectángulo 35335" width="6.359" height="24.399" transform="translate(173.673 149.566)" fill="#fff"/>
        <path id="Trazado_160953" data-name="Trazado 160953" d="M228.69,208.091l8.576-24.4h7.615l8.54,24.4h-6.543l-4.769-15.675-1.072-3.844h-.074l-1,3.807-4.88,15.711Zm5.581-9.833h13.567v4.325H234.271Z" transform="translate(-42.485 -34.126)" fill="#fff"/>
        <path id="Trazado_160954" data-name="Trazado 160954" d="M48.605,231.865v2.721H46.828v-2.743l-2.973-4.937h1.887l2.052,3.412,2.052-3.412H51.59Z" transform="translate(-8.147 -42.154)" fill="#7e5ee3"/>
        <path id="Trazado_160955" data-name="Trazado 160955" d="M56.667,234.171a3.823,3.823,0,0,1-1.5-1.421,4.085,4.085,0,0,1,0-4.07,3.823,3.823,0,0,1,1.5-1.421,4.75,4.75,0,0,1,4.307,0,3.918,3.918,0,0,1,0,6.912,4.75,4.75,0,0,1-4.307,0m3.386-1.311a2.249,2.249,0,0,0,.861-.872,2.746,2.746,0,0,0,0-2.545,2.251,2.251,0,0,0-.861-.873,2.58,2.58,0,0,0-2.459,0,2.245,2.245,0,0,0-.861.873,2.746,2.746,0,0,0,0,2.545,2.243,2.243,0,0,0,.861.872,2.574,2.574,0,0,0,2.459,0" transform="translate(-10.147 -42.123)" fill="#7e5ee3"/>
        <path id="Trazado_160956" data-name="Trazado 160956" d="M68.77,233.806a3.5,3.5,0,0,1-.916-2.6v-4.3h1.777v4.236q0,2.063,1.711,2.062a1.6,1.6,0,0,0,1.273-.5,2.319,2.319,0,0,0,.439-1.563V226.9h1.755v4.3a3.632,3.632,0,0,1-6.039,2.6" transform="translate(-12.606 -42.154)" fill="#7e5ee3"/>
        <path id="Trazado_160957" data-name="Trazado 160957" d="M84.793,234.585l-1.481-2.139H81.677v2.139H79.9V226.9h3.324a4.276,4.276,0,0,1,1.773.34,2.743,2.743,0,0,1,1.151,3.922,2.6,2.6,0,0,1-1.168.949l1.723,2.469Zm-.449-5.886a1.868,1.868,0,0,0-1.218-.346H81.677v2.677h1.449a1.849,1.849,0,0,0,1.218-.35,1.385,1.385,0,0,0,0-1.981" transform="translate(-14.844 -42.154)" fill="#7e5ee3"/>
        <path id="Trazado_160958" data-name="Trazado 160958" d="M97.706,228.353H95.248v-1.448h6.694v1.448H99.484v6.232H97.706Z" transform="translate(-17.695 -42.154)" fill="#7e5ee3"/>
        <path id="Trazado_160959" data-name="Trazado 160959" d="M110.345,232.939h-3.565l-.681,1.646h-1.821L107.7,226.9h1.756l3.434,7.681h-1.865Zm-.559-1.349-1.218-2.94-1.218,2.94Z" transform="translate(-19.372 -42.154)" fill="#7e5ee3"/>
        <path id="Trazado_160960" data-name="Trazado 160960" d="M122.131,230.6h1.624v3.115a4.624,4.624,0,0,1-1.449.725,5.614,5.614,0,0,1-1.657.252,4.486,4.486,0,0,1-2.15-.511,3.8,3.8,0,0,1-1.5-1.415,4.126,4.126,0,0,1,0-4.092,3.788,3.788,0,0,1,1.509-1.416,4.586,4.586,0,0,1,2.172-.51,4.748,4.748,0,0,1,1.833.34,3.62,3.62,0,0,1,1.382.987l-1.141,1.054a2.638,2.638,0,0,0-1.986-.866,2.7,2.7,0,0,0-1.305.307,2.205,2.205,0,0,0-.889.866,2.726,2.726,0,0,0,0,2.557,2.252,2.252,0,0,0,.883.872,2.618,2.618,0,0,0,1.289.313,2.885,2.885,0,0,0,1.383-.329Z" transform="translate(-21.635 -42.124)" fill="#7e5ee3"/>
        <path id="Trazado_160961" data-name="Trazado 160961" d="M128.789,226.905h1.777v6.232h3.851v1.449h-5.629Z" transform="translate(-23.926 -42.154)" fill="#7e5ee3"/>
        <rect id="Rectángulo_35336" data-name="Rectángulo 35336" width="1.778" height="7.681" transform="translate(112.587 184.751)" fill="#7e5ee3"/>
        <path id="Trazado_160962" data-name="Trazado 160962" d="M151.087,226.905v7.681h-1.459l-3.829-4.663v4.663h-1.755v-7.681h1.47l3.819,4.663v-4.663Z" transform="translate(-26.76 -42.154)" fill="#7e5ee3"/>
        <path id="Trazado_160963" data-name="Trazado 160963" d="M162.225,233.159v1.427h-5.947V226.9h5.8v1.427h-4.038V230h3.565v1.383h-3.565v1.777Z" transform="translate(-29.033 -42.154)" fill="#7e5ee3"/>
        <path id="Trazado_160964" data-name="Trazado 160964" d="M178.872,226.905v7.681h-1.777v-3.149h-3.489v3.149h-1.777v-7.681h1.777v3.028h3.489v-3.028Z" transform="translate(-31.922 -42.154)" fill="#7e5ee3"/>
        <path id="Trazado_160965" data-name="Trazado 160965" d="M190.01,233.159v1.427h-5.947V226.9h5.8v1.427H185.83V230H189.4v1.383H185.83v1.777Z" transform="translate(-34.195 -42.154)" fill="#7e5ee3"/>
        <path id="Trazado_160966" data-name="Trazado 160966" d="M199.347,234.585l-1.482-2.139h-1.634v2.139h-1.778V226.9h3.324a4.274,4.274,0,0,1,1.773.34,2.538,2.538,0,0,1,1.563,2.447,2.5,2.5,0,0,1-1.58,2.424l1.722,2.469Zm-.45-5.886a1.868,1.868,0,0,0-1.218-.346h-1.448v2.677h1.448a1.849,1.849,0,0,0,1.218-.35,1.385,1.385,0,0,0,0-1.981" transform="translate(-36.125 -42.154)" fill="#7e5ee3"/>
        <path id="Trazado_160967" data-name="Trazado 160967" d="M211.651,233.159v1.427H205.7V226.9h5.8v1.427h-4.038V230h3.565v1.383h-3.565v1.777Z" transform="translate(-38.215 -42.154)" fill="#7e5ee3"/>
        <path id="Trazado_160968" data-name="Trazado 160968" d="M64.278,69.657v9.009H62.193V71.33h-1.8V69.657Z" transform="translate(-11.219 -12.941)" fill="#fff"/>
        <path id="Trazado_160969" data-name="Trazado 160969" d="M73.164,70.619a4.7,4.7,0,0,1,1.068,3.314,5.6,5.6,0,0,1-.572,2.625,3.9,3.9,0,0,1-1.615,1.661,4.97,4.97,0,0,1-2.407.566,5.792,5.792,0,0,1-1.377-.16,3.725,3.725,0,0,1-1.12-.457l.773-1.532a2.914,2.914,0,0,0,1.685.45,2.44,2.44,0,0,0,1.815-.675,2.826,2.826,0,0,0,.721-1.95,3.026,3.026,0,0,1-2.239.811,3.506,3.506,0,0,1-1.57-.348,2.747,2.747,0,0,1-1.12-.984,2.656,2.656,0,0,1-.412-1.474,2.807,2.807,0,0,1,.451-1.583,2.942,2.942,0,0,1,1.229-1.049,4.007,4.007,0,0,1,1.731-.367,3.84,3.84,0,0,1,2.961,1.152m-1.693,2.715a1.316,1.316,0,0,0,.013-1.937,1.671,1.671,0,0,0-1.151-.373,1.61,1.61,0,0,0-1.088.36,1.224,1.224,0,0,0-.419.979,1.243,1.243,0,0,0,.419.984,1.848,1.848,0,0,0,2.226-.013" transform="translate(-12.409 -12.905)" fill="#fff"/>
        <path id="Trazado_160970" data-name="Trazado 160970" d="M191.02,74.207a2.428,2.428,0,0,1,.63,1.706,2.694,2.694,0,0,1-.411,1.448,2.869,2.869,0,0,1-1.255,1.062,4.821,4.821,0,0,1-2.067.4,7.07,7.07,0,0,1-1.872-.252,4.8,4.8,0,0,1-1.563-.714l.811-1.6a3.9,3.9,0,0,0,1.19.6,4.577,4.577,0,0,0,1.383.213,2.189,2.189,0,0,0,1.235-.3.971.971,0,0,0,.45-.856q0-1.108-1.685-1.107h-.953V73.429l1.853-2.1h-3.836V69.658h6.307v1.351l-2.034,2.316a3.041,3.041,0,0,1,1.815.882" transform="translate(-34.273 -12.941)" fill="#fff"/>
        <path id="Trazado_160971" data-name="Trazado 160971" d="M197.853,69.657v9.009h-2.085V71.33h-1.8V69.657Z" transform="translate(-36.034 -12.941)" fill="#fff"/>
      </g>
    </g>
  </g>
</svg>
