<svg id="Grupo_84087" data-name="Grupo 84087" xmlns="http://www.w3.org/2000/svg" xmlns:xlink="http://www.w3.org/1999/xlink" width="273.581" height="277.73" viewBox="0 0 273.581 277.73">
  <defs>
    <clipPath id="clip-path">
      <rect id="Rectángulo_35322" data-name="Rectángulo 35322" width="273.581" height="277.73" fill="none"/>
    </clipPath>
    <clipPath id="clip-path-3">
      <rect id="Rectángulo_35292" data-name="Rectángulo 35292" width="109.353" height="54.875" fill="none"/>
    </clipPath>
    <clipPath id="clip-path-4">
      <rect id="Rectángulo_35293" data-name="Rectángulo 35293" width="53.051" height="50.62" fill="none"/>
    </clipPath>
    <clipPath id="clip-path-5">
      <rect id="Rectángulo_35294" data-name="Rectángulo 35294" width="32.073" height="18.518" fill="none"/>
    </clipPath>
    <clipPath id="clip-path-6">
      <rect id="Rectángulo_35295" data-name="Rectángulo 35295" width="36.427" height="23.707" fill="none"/>
    </clipPath>
    <clipPath id="clip-path-7">
      <path id="Trazado_160793" data-name="Trazado 160793" d="M220.369,47.847a1.2,1.2,0,0,1-.236-.208,1.179,1.179,0,0,1-.416-.52c-.353-.534-.277-.867-.277-1.936,0-.277.042-.506.277-.624a.438.438,0,0,1,.416-.035.372.372,0,0,1,.236.1c2.046,1.228,12.987,7.416,13.25,7.68a1.615,1.615,0,0,1,.555.832,3.816,3.816,0,0,1,.132,1.658.588.588,0,0,1-.035.243c-.035.1-.035.173-.1.208a.27.27,0,0,1-.138.139.426.426,0,0,1-.21.082c-.42,0-1.89-.951-13.457-7.623M192.321,29.033c-2.157,1.547-1.97,4.8-1.9,7.194.038,1.109-.4,136-.312,137.886a16.127,16.127,0,0,0,1.734,6.153,18.384,18.384,0,0,0,3.836,5.12,29.985,29.985,0,0,0,5.5,3.427c6.668,3.616-9.789-5.417,46.383,26.833.316.182,8.568,4.933,8.88,5.051,3.811,1.612,6.57-.761,6.57-4.982,0-.078.224-108.015.243-109.422.034-5.467.173-10.961.1-16.428-.035-3.635-.139-7.229-.069-10.892a33.318,33.318,0,0,0-.069-4.564,17.525,17.525,0,0,0-6.153-10.864,26.313,26.313,0,0,0-3.878-2.387c-2.144-1.207-4.218-2.456-6.291-3.663-7.146-4.183-14.257-8.068-23.726-13.625-17.288-10.288-16.046-8.9-20.541-11.793-2.371-1.535-5.351-3.788-7.984-3.788a3.853,3.853,0,0,0-2.325.742" transform="translate(-190.096 -28.291)" fill="none"/>
    </clipPath>
    <linearGradient id="linear-gradient" x1="-0.402" y1="1.342" x2="-0.399" y2="1.342" gradientUnits="objectBoundingBox">
      <stop offset="0" stop-color="#937ed6"/>
      <stop offset="0.417" stop-color="#7aafcb"/>
      <stop offset="1" stop-color="#ec8bb0"/>
    </linearGradient>
    <clipPath id="clip-path-9">
      <rect id="Rectángulo_35298" data-name="Rectángulo 35298" width="74.382" height="158.706" fill="none"/>
    </clipPath>
    <clipPath id="clip-path-10">
      <rect id="Rectángulo_35299" data-name="Rectángulo 35299" width="14.779" height="11.156" fill="none"/>
    </clipPath>
    <clipPath id="clip-path-12">
      <rect id="Rectángulo_35301" data-name="Rectángulo 35301" width="59.036" height="39.488" fill="none"/>
    </clipPath>
    <clipPath id="clip-path-13">
      <rect id="Rectángulo_35302" data-name="Rectángulo 35302" width="14.779" height="11.157" fill="none"/>
    </clipPath>
    <clipPath id="clip-path-16">
      <rect id="Rectángulo_35305" data-name="Rectángulo 35305" width="32.517" height="13.176" fill="none"/>
    </clipPath>
    <clipPath id="clip-path-17">
      <rect id="Rectángulo_35306" data-name="Rectángulo 35306" width="32.436" height="15.307" fill="none"/>
    </clipPath>
    <clipPath id="clip-path-18">
      <rect id="Rectángulo_35307" data-name="Rectángulo 35307" width="28.298" height="13.001" fill="none"/>
    </clipPath>
    <clipPath id="clip-path-19">
      <rect id="Rectángulo_35308" data-name="Rectángulo 35308" width="25.194" height="21.055" fill="none"/>
    </clipPath>
    <clipPath id="clip-path-20">
      <rect id="Rectángulo_35309" data-name="Rectángulo 35309" width="39.709" height="67.404" fill="none"/>
    </clipPath>
    <clipPath id="clip-path-21">
      <rect id="Rectángulo_35310" data-name="Rectángulo 35310" width="14.185" height="21.252" fill="none"/>
    </clipPath>
    <clipPath id="clip-path-22">
      <rect id="Rectángulo_35311" data-name="Rectángulo 35311" width="16.409" height="18.951" fill="none"/>
    </clipPath>
    <clipPath id="clip-path-23">
      <rect id="Rectángulo_35312" data-name="Rectángulo 35312" width="99.429" height="156.806" fill="none"/>
    </clipPath>
    <clipPath id="clip-path-27">
      <rect id="Rectángulo_35316" data-name="Rectángulo 35316" width="22.533" height="29.939" fill="none"/>
    </clipPath>
    <clipPath id="clip-path-28">
      <rect id="Rectángulo_35317" data-name="Rectángulo 35317" width="0.506" height="1.942" fill="none"/>
    </clipPath>
    <clipPath id="clip-path-29">
      <rect id="Rectángulo_35318" data-name="Rectángulo 35318" width="9.844" height="9.698" fill="none"/>
    </clipPath>
    <clipPath id="clip-path-30">
      <rect id="Rectángulo_35319" data-name="Rectángulo 35319" width="48.571" height="52.793" fill="none"/>
    </clipPath>
    <clipPath id="clip-path-31">
      <rect id="Rectángulo_35320" data-name="Rectángulo 35320" width="5.408" height="29.227" fill="none"/>
    </clipPath>
  </defs>
  <g id="Grupo_84086" data-name="Grupo 84086" clip-path="url(#clip-path)">
    <g id="Grupo_84012" data-name="Grupo 84012">
      <g id="Grupo_84011" data-name="Grupo 84011" clip-path="url(#clip-path)">
        <path id="Trazado_160739" data-name="Trazado 160739" d="M146.648,236.58a3.312,3.312,0,0,0-1.495-2.606,1.066,1.066,0,0,0-.994-.081l-1.018.6a1.813,1.813,0,0,1,.273-1.041,1.051,1.051,0,0,1,.331-.293,1.08,1.08,0,0,1,.39-.137,2.324,2.324,0,0,1,1.712.794,4.987,4.987,0,0,1,1.277,2.257,2.462,2.462,0,0,1-.17,1.916,1.088,1.088,0,0,1-.316.289,1.045,1.045,0,0,1-.4.147,1.7,1.7,0,0,1-1.032-.276l1.016-.6a.969.969,0,0,0,.407-.69,1.867,1.867,0,0,0,.019-.277" transform="translate(-43.84 -71.365)" fill="#ff73b5"/>
        <path id="Trazado_160740" data-name="Trazado 160740" d="M144.007,231.1q3.714-2.193,7.429-4.388a2.848,2.848,0,0,1,3.389.367,3,3,0,0,1-.6,4.826l0,0q-3.661,2.159-7.32,4.324l0-.006a1.088,1.088,0,0,0,.316-.289,2.465,2.465,0,0,0,.171-1.916,5,5,0,0,0-1.278-2.257,2.324,2.324,0,0,0-1.712-.794,1.072,1.072,0,0,0-.389.137Z" transform="translate(-44.105 -69.315)" fill="#d2448d"/>
        <path id="Trazado_160741" data-name="Trazado 160741" d="M120.318,220.239a2.473,2.473,0,0,1-.171,1.916,1.112,1.112,0,0,1-.318.289,1.039,1.039,0,0,1-.4.147,1.712,1.712,0,0,1-1.033-.278l1.016-.6a.912.912,0,0,0,.373-.529,3.075,3.075,0,0,0-1.055-2.761,1.722,1.722,0,0,0-.744-.429.864.864,0,0,0-.635.064c-.34.2-.677.4-1.016.6a1.8,1.8,0,0,1,.271-1.037,1.057,1.057,0,0,1,.332-.293,1.074,1.074,0,0,1,.39-.137,2.32,2.32,0,0,1,1.712.794,4.991,4.991,0,0,1,1.279,2.257" transform="translate(-35.63 -66.515)" fill="#ff73b5"/>
        <path id="Trazado_160742" data-name="Trazado 160742" d="M124.613,210.889l.014-.008a2.841,2.841,0,0,1,3.389.368,3,3,0,0,1-.493,4.764c-.039.024-.078.046-.117.067q-3.652,2.163-7.309,4.321l0-.006a1.111,1.111,0,0,0,.318-.289,2.473,2.473,0,0,0,.171-1.916,4.991,4.991,0,0,0-1.279-2.257,2.32,2.32,0,0,0-1.712-.794,1.075,1.075,0,0,0-.39.137l0-.006q3.708-2.193,7.415-4.38" transform="translate(-35.894 -64.465)" fill="#d2448d"/>
        <path id="Trazado_160743" data-name="Trazado 160743" d="M91.048,228.511Q99.1,223.756,107.142,219c.339-.2.677-.4,1.016-.6a.864.864,0,0,1,.635-.064,1.715,1.715,0,0,1,.744.429,3.075,3.075,0,0,1,1.055,2.761.911.911,0,0,1-.373.529l-1.016.6q-8.047,4.754-16.093,9.505l0,0a6.267,6.267,0,0,0-2.3,2.156,2.446,2.446,0,0,0-.051,2.479,6.124,6.124,0,0,0,2.35,2.25l0,0,.744.44,0,0a16.542,16.542,0,0,0,9.3,1.847,15.1,15.1,0,0,0,6.458-1.833v0a.222.222,0,0,1,.029-.018q8.044-4.754,16.091-9.5l1.018-.6a1.068,1.068,0,0,1,.995.081,3.312,3.312,0,0,1,1.495,2.606,1.966,1.966,0,0,1-.019.277.971.971,0,0,1-.407.69l-1.016.6q-8.047,4.752-16.094,9.505v0c-5.17,3.11-13.668,3.358-19.4.3a9.793,9.793,0,0,0-.332-2.422,1.021,1.021,0,0,0-.649-.766,1.348,1.348,0,0,0-.982.157L89,241.205a7.639,7.639,0,0,1-2.683-5.6c0-3.07,2.117-5.585,4.728-7.1Z" transform="translate(-26.437 -66.861)" fill="#a68efe"/>
        <path id="Trazado_160744" data-name="Trazado 160744" d="M12.583,257.486l.035-.022h0c.161-.094.32-.189.481-.284l2.916-1.722c.207-.123.413-.246.62-.367a.274.274,0,0,1,.123-.034,2,2,0,0,1,1.45,1.53.744.744,0,0,1-.258.686l0,0-2.613,1.545q-.733.432-1.468.867h0a1.307,1.307,0,0,0-.485.859V261a3.82,3.82,0,0,1-1.743,3.091l0,0-6.056,3.576,0,0c-1.5.873-3.067,2.366-3.067,4.16s1.547,3.279,3.067,4.159l0,0c.2.119.4.236.6.355l0,0a17.618,17.618,0,0,0,10.653,1.87,15.621,15.621,0,0,0,5.94-1.87l0,0,36.568-21.6.61-.361v0a.435.435,0,0,1,.217-.071c.6-.036,1.3.914,1.315,1.67a.692.692,0,0,1-.238.6l-.041.024c-.2.121-.405.24-.607.359h0q-18.283,10.8-36.564,21.6l0,0c-5.184,3.118-13.862,3.154-19.108,0l0,0c-.2-.119-.4-.234-.6-.351v0c-2.637-1.529-4.735-4.149-4.259-7.252a8.15,8.15,0,0,1,4.228-5.5.256.256,0,0,0,.031-.019h0l6.057-3.578,0,0a1.313,1.313,0,0,0,.485-.861v-.454a3.869,3.869,0,0,1,1.481-2.914,2.728,2.728,0,0,1,.229-.153" transform="translate(0 -77.89)" fill="#bbcddf"/>
        <path id="Trazado_160745" data-name="Trazado 160745" d="M91.9,250.7a9.793,9.793,0,0,1,.332,2.422l-4.384,2.588,0,0a.655.655,0,0,0,.192-.171,1.5,1.5,0,0,0,.11-1.174,3.054,3.054,0,0,0-.783-1.387,1.412,1.412,0,0,0-1.049-.488.665.665,0,0,0-.24.083l0,0,2.85-1.684,1.344-.792a1.35,1.35,0,0,1,.983-.157,1.021,1.021,0,0,1,.649.766" transform="translate(-26.364 -76.536)" fill="#8140ff"/>
        <path id="Trazado_160746" data-name="Trazado 160746" d="M85.549,254.535a1.124,1.124,0,0,1,.166-.648.687.687,0,0,1,.444-.262,1.411,1.411,0,0,1,1.049.488,3.054,3.054,0,0,1,.783,1.387,1.494,1.494,0,0,1-.11,1.173.665.665,0,0,1-.192.171.642.642,0,0,1-.252.092,1.066,1.066,0,0,1-.632-.177c.2-.119.405-.238.607-.359l.04-.024a.691.691,0,0,0,.239-.6c-.015-.755-.71-1.706-1.315-1.67a.434.434,0,0,0-.217.071h0l-.61.36" transform="translate(-26.201 -77.676)" fill="#a68efe"/>
        <path id="Trazado_160747" data-name="Trazado 160747" d="M33.682,259.082a3.994,3.994,0,0,1-2.257,3.221c-3.505,2.069-9.548,1.7-12.133-.946v-.409a1.309,1.309,0,0,1,.485-.859h0c.488-.29.979-.579,1.467-.867a11.947,11.947,0,0,0,10.176-.379,3.966,3.966,0,0,0,2.257-3.219Z" transform="translate(-5.909 -78.29)" fill="#8140ff"/>
        <path id="Trazado_160748" data-name="Trazado 160748" d="M33.467,251.332a3.3,3.3,0,0,1,1.08,2.331,3.969,3.969,0,0,1-2.257,3.219,11.947,11.947,0,0,1-10.176.379q1.3-.773,2.613-1.545h0a6.3,6.3,0,0,0,4.984-.355,2.289,2.289,0,0,0,1.1-1.216,1.365,1.365,0,0,0,.091-.547v-2.16a1.843,1.843,0,0,0-.833-1.494,4.3,4.3,0,0,0-1.52-.72,8.782,8.782,0,0,1,4.916,2.108" transform="translate(-6.773 -76.33)" fill="#a68efe"/>
        <path id="Trazado_160749" data-name="Trazado 160749" d="M28.84,249.125a4.336,4.336,0,0,1,1.52.72,1.85,1.85,0,0,1,.834,1.494A2.094,2.094,0,0,1,30,253a6.108,6.108,0,0,1-6.11-.24,1.9,1.9,0,0,1-.834-1.408,2.056,2.056,0,0,1,1.193-1.75,4.882,4.882,0,0,1,1.156-.478,6.707,6.707,0,0,1,3.432,0" transform="translate(-7.062 -76.232)" fill="#f6ba28"/>
        <path id="Trazado_160750" data-name="Trazado 160750" d="M17.809,253.781a3.406,3.406,0,0,1,1.433-2.764,9.238,9.238,0,0,1,4.558-1.794,4.847,4.847,0,0,0-1.155.479,2.053,2.053,0,0,0-1.193,1.75v2.211a1.382,1.382,0,0,0,.019.234l-2.916,1.721a3.167,3.167,0,0,1-.746-1.836" transform="translate(-5.453 -76.33)" fill="#a68efe"/>
        <path id="Trazado_160751" data-name="Trazado 160751" d="M31.194,254.574a1.389,1.389,0,0,1-.091.547,2.293,2.293,0,0,1-1.1,1.216,6.3,6.3,0,0,1-4.984.355h0v0a.743.743,0,0,0,.257-.686,2,2,0,0,0-1.45-1.53.263.263,0,0,0-.122.035c-.207.12-.413.243-.62.366a1.388,1.388,0,0,1-.019-.234v-2.212a1.89,1.89,0,0,0,.833,1.408,6.1,6.1,0,0,0,6.109.241,2.092,2.092,0,0,0,1.19-1.663Z" transform="translate(-7.063 -77.307)" fill="#f2a305"/>
        <path id="Trazado_160752" data-name="Trazado 160752" d="M18.075,257.915l0,0a.315.315,0,0,0-.035.022,2.735,2.735,0,0,0-.229.153v-2.3a3.175,3.175,0,0,0,.746,1.836c-.161.1-.32.191-.481.284" transform="translate(-5.454 -78.343)" fill="#8140ff"/>
        <g id="Grupo_84001" data-name="Grupo 84001" transform="translate(2.32 147.952)" style="mix-blend-mode: multiply;isolation: isolate">
          <g id="Grupo_84000" data-name="Grupo 84000">
            <g id="Grupo_83999" data-name="Grupo 83999" clip-path="url(#clip-path-3)">
              <path id="Trazado_160753" data-name="Trazado 160753" d="M133.332,239.132a1.052,1.052,0,0,1-1.346.529,1.509,1.509,0,0,0-1.409.249c-5.178,3-10.369,5.969-15.544,8.97a18,18,0,0,1-6.266,2.135,24.4,24.4,0,0,1-3.192.357c-2.171.058-6.565-.4-9.268-1.855a6.43,6.43,0,0,1,.7.1,21.357,21.357,0,0,0,6.459.9,23.783,23.783,0,0,0,10.077-2.266c1.6-.792,3.118-1.763,4.669-2.66q6.977-4.036,13.952-8.076c.123-.071.261-.117.477-.212.24.629.475,1.241.71,1.855Z" transform="translate(-31.816 -220.63)" fill="#c5bed1"/>
              <path id="Trazado_160754" data-name="Trazado 160754" d="M66.036,256.012l.432,1.112c-.269.1-.524.3-.707.248a1.708,1.708,0,0,0-1.4.394q-17.514,10.1-35.019,20.213a22.21,22.21,0,0,1-7,2.842,22.877,22.877,0,0,1-7.238.23,12.189,12.189,0,0,1-3.113-.687c1.034.087,1.867.093,2.674.239a15.546,15.546,0,0,0,6.154-.177,24.717,24.717,0,0,0,7.329-2.579c9.126-5.351,18.314-10.6,27.478-15.886q4.849-2.8,9.7-5.6c.214-.123.445-.217.723-.35" transform="translate(-5.99 -226.361)" fill="#c5bed1"/>
              <path id="Trazado_160755" data-name="Trazado 160755" d="M112.388,221.4c.219.713.4,1.307.579,1.881-.572.681-1.209.536-1.874.259-1.465.842-2.925,1.675-4.382,2.516q-5.559,3.207-11.114,6.421a11.248,11.248,0,0,0-1.582,1.036,4.359,4.359,0,0,0-1.64,2.357,3.4,3.4,0,0,1,1.375-3.638,36.429,36.429,0,0,1,3.3-2.053q7.42-4.3,14.857-8.57c.114-.067.243-.107.481-.209" transform="translate(-30.585 -215.759)" fill="#c5bed1"/>
              <path id="Trazado_160756" data-name="Trazado 160756" d="M36.088,257.534a20.662,20.662,0,0,1-.019,2.346,3.327,3.327,0,0,1-1.258,2.083,8.744,8.744,0,0,1-4.219,1.85,9.962,9.962,0,0,1-3.272.113,23.049,23.049,0,0,1-.051-3.291,13.811,13.811,0,0,0,3.917-.3,16.048,16.048,0,0,0,2.54-.916,4.814,4.814,0,0,0,2.142-1.937l.221.054" transform="translate(-10.662 -226.81)" fill="#c5bed1"/>
              <path id="Trazado_160757" data-name="Trazado 160757" d="M15.457,260.549a1.284,1.284,0,0,0-1.04,1.382,3.965,3.965,0,0,1-2.2,3.5c-1.7.971-3.381,1.97-5.083,2.932-1.552.877-3.039,1.81-3.784,3.564a3.3,3.3,0,0,1,1.12-2.493,11.074,11.074,0,0,1,1.975-1.513c1.924-1.157,3.885-2.253,5.831-3.374.126-.072.257-.136.379-.213.932-.581.977-.76.388-1.758.333-.516.677-1.064,1.039-1.6a4.558,4.558,0,0,1,1.571-1.468c1.168-.653,2.32-1.334,3.569-2.055l.552,1.083-2.765,1.675c.513,1.245.994,2.409,1.5,3.637a3.425,3.425,0,0,1-2.057-.583c-.18-.1-.26-.417-.338-.649-.23-.682-.436-1.371-.653-2.064" transform="translate(-3.345 -226.801)" fill="#c5bed1"/>
              <path id="Trazado_160758" data-name="Trazado 160758" d="M122.1,220.761v-1.967c.345-.207.741-.453,1.145-.687,1.626-.945,3.248-1.9,4.885-2.823.848-.48,1.731-.9,2.089-2.013a2.853,2.853,0,0,1-1.271,3.706c-.927.563-1.879,1.086-2.819,1.626q-1.835,1.053-3.673,2.1a1.554,1.554,0,0,1-.355.057" transform="translate(-39.715 -213.27)" fill="#c5bed1"/>
              <path id="Trazado_160759" data-name="Trazado 160759" d="M148.692,236.678c.377-.648.1-1.331.066-2.039.633-.369,1.251-.734,1.873-1.093,1.407-.814,2.813-1.63,4.226-2.434.836-.476,1.72-.889,2.078-1.968a2.6,2.6,0,0,1-.751,3.266,11.52,11.52,0,0,1-1.273.821c-1.715,1-3.432,2-5.159,2.984a8.724,8.724,0,0,1-1.081.441Z" transform="translate(-47.854 -218.131)" fill="#c5bed1"/>
              <path id="Trazado_160760" data-name="Trazado 160760" d="M32.643,253.018a7.55,7.55,0,0,1,.784.506,1.573,1.573,0,0,1-.039,2.6,5.17,5.17,0,0,1-2.181.925,6.344,6.344,0,0,1-1.188.113c-.644.017-1.288,0-1.994,0v-2.1c1.752-.165,3.575-.248,4.619-2.051" transform="translate(-10.903 -225.444)" fill="#c5bed1"/>
            </g>
          </g>
        </g>
        <path id="Trazado_160761" data-name="Trazado 160761" d="M161.374,112.49c.033.4-.067,1.263,0,1.7.05.293.134.185.3-.025a3.841,3.841,0,0,0,.485-.585,3.475,3.475,0,0,0,.083-1.271c-.008-.6.008-2.383,0-2.55-.033-.418.109-1.872-.092-1.881-.059,0-.142.117-.21.209-.694.85-.568-.133-.568,4.406m-4.991-.811c.008.176-.008.351-.017.527-.008.352.017.711.017,1.054.019.188-.024,3.242-.008,3.335.084.452.569.117,1.12-.017a.743.743,0,0,0,.468-.217.578.578,0,0,0,.1-.5,5.262,5.262,0,0,1,.017-.527c.017-.352-.008-.719-.017-1.062,0-.084.008-2.341.008-2.425.017-.51.067-.995-.1-1.1-.184-.125-.594.109-1.011.21a1.691,1.691,0,0,0-.293.083.522.522,0,0,0-.284.343,1.213,1.213,0,0,0,0,.3m-1.438-.192c-.184-.176-.618-.042-.81-.033-.157.015-.785-.06-.928.267-.059.1-.033.134-.042.828,0,.034-.008,4.44,0,4.473.084.435.552.25.912.225a3.788,3.788,0,0,0,.527-.017.543.543,0,0,0,.4-.242c.077-.166.021-4.11.042-4.381.017-.527.067-.97-.1-1.12m4.264,4.138c.058.368.292.134.685-.083.409-.225.635-.3.677-.786a4.347,4.347,0,0,0-.017-.66c-.025-.384,0-.786.008-1.17.017-.685-.025-1.764-.008-2.358.008-.351.067-.995-.1-1.07-.108-.051-.334.126-.585.267-.613.321-.743.378-.66,1.446.033.5-.034.811-.008,2.325.025,1.488-.042,1.814.008,2.09m-8.636-4.2a1.447,1.447,0,0,0-.385-.034.377.377,0,0,0-.259.151c-.067.1-.051,0-.051,3.144.008,1.78-.033,1.947.008,2.157.084.493.61.326,1.2.426a.938.938,0,0,0,.376.034.4.4,0,0,0,.268-.151c.058-.1.042,0,.042-3.144-.008-1.973.017-1.48.008-1.9,0-.819-.5-.561-1.2-.685m-3.7,1.346c.006.148-.03,3.19-.017,3.319.075.535.627.443,1.1.644a.7.7,0,0,0,.376.1.3.3,0,0,0,.217-.184.733.733,0,0,0,0-.3,2.638,2.638,0,0,1,.025-.518,9.04,9.04,0,0,0-.033-1.07c-.017-.409.008-.8.017-1.2s-.008-.828,0-1.213c.017-.786.1-1.129-.3-1.321-.176-.083-.527-.117-.794-.234a.76.76,0,0,0-.368-.1.3.3,0,0,0-.225.184.617.617,0,0,0,.008.3,3.661,3.661,0,0,1-.025.527c-.025.343.017.711.025,1.07m-2.015-3.127c-.176-.117-.377-.259-.468-.059-.017.042-.017,5.2-.008,5.259.05.51.451.535.861.811.176.108.384.267.468.058a.447.447,0,0,0,.017-.184c-.008-.1,0-4.1,0-4.189a3.475,3.475,0,0,0-.05-1.1c-.142-.326-.46-.359-.819-.6m-2.148-1.455a1.069,1.069,0,0,1-.017.334c-.017.117.008,4.021.008,4.23-.025.644-.025.744.318,1.137a3.054,3.054,0,0,0,.309.343.291.291,0,0,0,.092.108.128.128,0,0,0,.126-.017c.05-.058.008-.184-.008-.284a1.049,1.049,0,0,1,.017-.334c.017-.109-.008-4.03,0-4.222.025-.8-.059-.836-.326-1.145a2.308,2.308,0,0,0-.184-.21.858.858,0,0,1-.117-.133c-.033-.034-.059-.084-.092-.1a.114.114,0,0,0-.134.017c-.05.05-.008.176.009.276m-.728,3.294a5.758,5.758,0,0,0,.217,1.079,5.259,5.259,0,0,0,.046-1.16,8.765,8.765,0,0,0-.03-1.1c-.017-.493.035-1.938.051-2.532a3.673,3.673,0,0,0-.109-1.1c-.083-.5-.142-.769-.176-.5v-1.455h.042a4.5,4.5,0,0,0,2.107,3.562c3.938,2.977,11.562,3.118,15.751.6,2.006-1.154,3.076-2.709,3.076-4.28v1.446c-.008-.017-.042.025-.058.05-.025.042-.008.042,0,.058.008.034-.025.092-.042.142a.652.652,0,0,0-.042.159,3.073,3.073,0,0,0-.126.61c-.01.129-.024,5.487,0,5.535.017.008.05-.033.058-.059.025-.033.008-.042.008-.058a.285.285,0,0,1,.042-.142.6.6,0,0,0,.033-.159,3.749,3.749,0,0,0,.125-.493,3.927,3.927,0,0,1-.275,1.789,5.963,5.963,0,0,1-2.8,2.951c-5.56,3.211-14.639,1.789-17.172-2.065a4.461,4.461,0,0,1-.728-2.876" transform="translate(-43.484 -32.035)" fill="#d94693"/>
        <path id="Trazado_160762" data-name="Trazado 160762" d="M159.9,106.208c-4.189,2.516-11.813,2.375-15.75-.6a4.157,4.157,0,0,1-1.5-5.785,6.211,6.211,0,0,1,2.425-2.173c4.816-2.709,12.1-2.149,15.743.61,3.289,2.5,2.686,5.877-.92,7.951" transform="translate(-43.502 -29.365)" fill="#ef529c"/>
        <path id="Trazado_160763" data-name="Trazado 160763" d="M172.091,112.322a3.727,3.727,0,0,1-.126.493.6.6,0,0,1-.033.159.29.29,0,0,0-.042.142c0,.017.017.025-.008.058-.008.025-.042.067-.059.059-.021-.044-.01-5.391,0-5.535a3.124,3.124,0,0,1,.126-.61.643.643,0,0,1,.042-.159c.017-.05.051-.109.042-.142-.008-.017-.025-.017,0-.058.085-.127.058-.582.058,5.593" transform="translate(-52.621 -32.67)" fill="#b52a71"/>
        <path id="Trazado_160764" data-name="Trazado 160764" d="M169.927,115.634c-.067-.435.033-1.3,0-1.7,0-4.538-.126-3.556.569-4.406.067-.092.15-.21.209-.21.2.008.058,1.463.092,1.881.008.167-.008,1.948,0,2.55a3.454,3.454,0,0,1-.083,1.27,3.813,3.813,0,0,1-.485.586c-.167.209-.251.318-.3.025" transform="translate(-52.036 -33.482)" fill="#b52a71"/>
        <path id="Trazado_160765" data-name="Trazado 160765" d="M167.492,117.7c-.393.217-.627.452-.685.084-.051-.276.017-.6-.008-2.09-.025-1.513.042-1.822.008-2.324-.083-1.069.047-1.127.66-1.446.25-.142.477-.318.585-.268.167.076.109.719.1,1.07-.017.593.025,1.672.008,2.357-.008.384-.033.786-.008,1.17a4.348,4.348,0,0,1,.017.66c-.042.485-.268.561-.677.786" transform="translate(-51.081 -34.194)" fill="#b52a71"/>
        <path id="Trazado_160766" data-name="Trazado 160766" d="M162.717,114.9c.008-.176.025-.351.017-.527a1.212,1.212,0,0,1,0-.3.521.521,0,0,1,.284-.343,1.738,1.738,0,0,1,.293-.084c.418-.1.828-.334,1.011-.209.167.109.117.594.1,1.1,0,.083-.008,2.341-.008,2.425.008.343.033.71.017,1.061-.008.176-.025.343-.017.527a.579.579,0,0,1-.1.5.747.747,0,0,1-.468.217c-.552.134-1.037.468-1.12.017-.017-.1.031-3.115.008-3.335,0-.343-.025-.7-.017-1.054" transform="translate(-49.835 -34.732)" fill="#b52a71"/>
        <path id="Trazado_160767" data-name="Trazado 160767" d="M159.012,120.249c-.359.025-.828.209-.912-.225-.008-.034,0-4.44,0-4.473.008-.694-.017-.727.042-.828.144-.331.814-.256.928-.268.193-.008.627-.142.811.034.167.151.117.593.1,1.12-.019.248.033,4.219-.042,4.38a.541.541,0,0,1-.4.243,3.787,3.787,0,0,1-.527.017" transform="translate(-48.42 -35.037)" fill="#b52a71"/>
        <path id="Trazado_160768" data-name="Trazado 160768" d="M149.271,139.931v11.621c-5.184-.008-11.654-1.48-15.232-5.209a7.121,7.121,0,0,1-2.207-4.857v-11.63a6.121,6.121,0,0,0,.586,2.542c1.915,4.189,7.574,6.387,12.1,7.14a30.721,30.721,0,0,0,4.757.393" transform="translate(-40.376 -39.771)" fill="#edb2d1"/>
        <path id="Trazado_160769" data-name="Trazado 160769" d="M153.412,114.545a.377.377,0,0,1,.259-.151,1.472,1.472,0,0,1,.384.033c.7.126,1.2-.134,1.2.685.008.418-.017-.075-.008,1.9,0,3.143.017,3.043-.042,3.143a.392.392,0,0,1-.268.151.951.951,0,0,1-.376-.033c-.586-.1-1.112.067-1.2-.427-.042-.209,0-.376-.008-2.157,0-3.143-.017-3.043.05-3.143" transform="translate(-46.967 -35.034)" fill="#b52a71"/>
        <path id="Trazado_160770" data-name="Trazado 160770" d="M150.092,119.427c-.468-.2-1.02-.108-1.1-.643-.012-.128.023-3.168.017-3.319-.008-.359-.05-.728-.025-1.07a3.563,3.563,0,0,0,.025-.527.62.62,0,0,1-.008-.3.3.3,0,0,1,.226-.183.752.752,0,0,1,.368.1c.268.117.619.151.794.234.4.192.318.535.3,1.321-.008.384.008.8,0,1.213s-.033.793-.017,1.2a9.185,9.185,0,0,1,.033,1.07,2.646,2.646,0,0,0-.025.519.73.73,0,0,1,0,.3.3.3,0,0,1-.218.185.707.707,0,0,1-.376-.1" transform="translate(-45.628 -34.725)" fill="#b52a71"/>
        <path id="Trazado_160771" data-name="Trazado 160771" d="M145.443,111.749c.092-.2.293-.058.468.058.359.243.677.276.819.6a3.47,3.47,0,0,1,.05,1.1c0,.083-.008,4.088,0,4.188a.447.447,0,0,1-.017.184c-.083.21-.293.051-.468-.058-.409-.275-.811-.3-.861-.811-.008-.058-.008-5.217.008-5.258" transform="translate(-44.541 -34.195)" fill="#b52a71"/>
        <path id="Trazado_160772" data-name="Trazado 160772" d="M143,109.979a1.071,1.071,0,0,0,.017-.334c-.017-.1-.058-.225-.008-.276a.114.114,0,0,1,.134-.017c.033.017.058.067.092.1a.983.983,0,0,0,.117.134,2.106,2.106,0,0,1,.184.209c.268.309.351.343.326,1.145-.008.192.017,4.113,0,4.222a1.07,1.07,0,0,0-.017.334c.017.1.058.225.008.284a.128.128,0,0,1-.125.017.287.287,0,0,1-.092-.109,3.189,3.189,0,0,1-.309-.343c-.343-.393-.343-.493-.318-1.137,0-.209-.025-4.113-.008-4.23" transform="translate(-43.791 -33.487)" fill="#b52a71"/>
        <path id="Trazado_160773" data-name="Trazado 160773" d="M142.2,113.213a5.744,5.744,0,0,1-.217-1.079v-5.317c.033-.268.092,0,.176.5a3.7,3.7,0,0,1,.108,1.1c-.09,3.212,0,2.5-.022,3.63a5.323,5.323,0,0,1-.045,1.16" transform="translate(-43.484 -32.683)" fill="#b52a71"/>
        <path id="Trazado_160774" data-name="Trazado 160774" d="M131.831,117.845c0-4.515,3.046-8.129,7.042-10.2-.008.142,0,.934,0,1.917,0,1.183-.009,2.436,0,2.86a4.58,4.58,0,0,0,.728,2.875c2.533,3.854,11.612,5.276,17.172,2.065a5.966,5.966,0,0,0,2.8-2.951c.417-.986.25-1.325.293-6.763,3.9,1.956,6.855,5.551,7.006,9.848.606,8.495-16.948,13.952-29.027,7.959a12.127,12.127,0,0,1-4.54-3.553,7.018,7.018,0,0,1-1.471-4.055" transform="translate(-40.376 -32.968)" fill="#ef529c"/>
        <path id="Trazado_160775" data-name="Trazado 160775" d="M134.038,144.044c3.578,3.729,10.049,5.2,15.232,5.209V137.632a30.63,30.63,0,0,1-4.757-.393c-4.523-.752-10.183-2.951-12.1-7.139a6.145,6.145,0,0,1-.586-2.542v-5.209A7.018,7.018,0,0,0,133.3,126.4a12.137,12.137,0,0,0,4.54,3.553c11.637,5.773,29.035.914,29.035-7.591V144.3c0,4.071-2.241,8.126-6.747,10.726-8.787,5.075-23.367,2.943-27.363-6.253a11.2,11.2,0,0,1-.937-4.472v-5.117a7.122,7.122,0,0,0,2.207,4.857" transform="translate(-40.376 -37.472)" fill="#d94693"/>
        <g id="Grupo_84004" data-name="Grupo 84004" transform="translate(95.248 72.744)" style="mix-blend-mode: multiply;isolation: isolate">
          <g id="Grupo_84003" data-name="Grupo 84003">
            <g id="Grupo_84002" data-name="Grupo 84002" clip-path="url(#clip-path-4)">
              <path id="Trazado_160776" data-name="Trazado 160776" d="M168.566,134.85c2.29.158,4.253.255,6.207.438a26.849,26.849,0,0,1,8.239,2.171A17,17,0,0,1,189.6,143.1c1.142,1.485.925,3.052-.3,4.673a17.707,17.707,0,0,1-11.272,6.779,53.434,53.434,0,0,1-8.288.837c-4.763.132-9.533.109-14.3.012a30.717,30.717,0,0,1-10.967-1.979c-2.543-1.024-4.959-2.267-6.568-4.626a10.347,10.347,0,0,1-.607-1.362c3.785,1.437,7.3,2.271,11.24,1.382V126.924c5.847-.873,11.2-2.515,15.58-6.366l.026-.024a1.779,1.779,0,0,0-1.427-3.054c-.645.069-1.277.146-1.91.166-3.4.108-6.789.772-10.185.837a3.161,3.161,0,0,1-.855-.268c0-2.376.043-5.024.043-7.5,3.858.356,11.246-1.168,11.687-5.851l.039,1.934s1.011.575,1.413.814a11.312,11.312,0,0,1,5.6,9.8c.054,5,.013,8.839.013,17.438" transform="translate(-137.298 -104.86)" fill="#b0a7c2"/>
            </g>
          </g>
        </g>
        <path id="Trazado_160777" data-name="Trazado 160777" d="M94.614,106c.019,2.556.039,5.076.058,7.632.42,3.7-2.236,8.593-5.568,10.516l-9.992,5.77a22.187,22.187,0,0,0-7.126,6.556L69.2,140.479V119.418a12.415,12.415,0,0,1,5.612-9.723q7.143-4.122,14.289-8.248c3.431-1.977,6.183,0,5.51,4.551" transform="translate(-21.195 -30.836)" fill="#d2448d"/>
        <path id="Trazado_160778" data-name="Trazado 160778" d="M90.423,99.525a3.988,3.988,0,0,0-3.9.428Q79.375,104.08,72.23,108.2a12.415,12.415,0,0,0-5.612,9.724v21.06l-5.856-3.38V114.541a12.414,12.414,0,0,1,5.612-9.72q7.148-4.123,14.289-8.248a3.948,3.948,0,0,1,3.967-.393l5.793,3.345" transform="translate(-18.609 -29.343)" fill="#ff73b5"/>
        <path id="Trazado_160779" data-name="Trazado 160779" d="M88.744,109.317c-.511.3-.8,1.089-.408,1.242l.293.124-1.052,1.66,1.761.744,1.053-1.66.293.124c.345.162.889-.375.991-.831.055-.236-.007-.42-.16-.479l-2.348-.992a.472.472,0,0,0-.422.067m-3.515,3.8c-.52.3-.785,1.086-.416,1.242l.172.073-6.114,9.644a4.029,4.029,0,0,0-.687,2.058v1.963l-1,1.581c-.321.491-.2.988.259.841a1.135,1.135,0,0,0,.572-.49l1-1.58,1.963-1.134a5.025,5.025,0,0,0,1.66-1.647l6.114-9.644.172.073a.478.478,0,0,0,.415-.067c.53-.306.779-1.088.416-1.242l-4.11-1.737a.482.482,0,0,0-.415.067m.587,1.666,1.734.735c.211.087.211.427,0,.756s-.548.528-.759.438l-.592-.25c-.211-.089-.555.11-.766.442l-1.257,1.983.294.123c.229.1.229.468,0,.83s-.6.576-.83.479l-.293-.124-.931,1.469.293.124c.23.1.23.468,0,.83s-.6.576-.83.479l-.293-.123-1.319,2.08c-.245.387-.651.575-.835.391-.135-.133-.1-.429.074-.71Z" transform="translate(-23.584 -33.452)" fill="#efdae6"/>
        <g id="Grupo_84007" data-name="Grupo 84007" transform="translate(34.965 124.15)" style="mix-blend-mode: multiply;isolation: isolate">
          <g id="Grupo_84006" data-name="Grupo 84006">
            <g id="Grupo_84005" data-name="Grupo 84005" clip-path="url(#clip-path-5)">
              <path id="Trazado_160780" data-name="Trazado 160780" d="M77.778,181.674c6.263,3.616,6.263,9.478,0,13.094s-16.416,3.616-22.679,0-6.263-9.478,0-13.094,16.416-3.616,22.679,0" transform="translate(-50.401 -178.961)" fill="#b0a7c2"/>
            </g>
          </g>
        </g>
        <path id="Trazado_160781" data-name="Trazado 160781" d="M87.389,182.821c0-2.557,0,1.178,0,3.725a5.588,5.588,0,0,1-1.859,3.942c-3.083,3.03-8.661,4.062-13.044,3.792h0a15,15,0,0,0,3.812-4.674h0c3.228-.335,6.935-1.459,9.231-3.713a.158.158,0,0,1,.119-.058c.049.008.08.069.08.176v.379a5.537,5.537,0,0,0,1.657-3.569" transform="translate(-22.201 -55.73)" fill="#d2448d"/>
        <path id="Trazado_160782" data-name="Trazado 160782" d="M78.259,180.046c-.119-.226-.238-.452-.357-.678l11.147,1.725c0,.021,0,.9,0,.934l-10.62-1.643c-.053-.113-.109-.226-.168-.336Z" transform="translate(-23.859 -54.935)" fill="#d2448d"/>
        <path id="Trazado_160783" data-name="Trazado 160783" d="M78.658,180.831l10.62,1.643a5.534,5.534,0,0,1-1.657,3.569v-.379c0-.107-.031-.167-.08-.175-.07,0,.855.133-8.112-1.254a8.311,8.311,0,0,0-.772-3.4" transform="translate(-24.091 -55.383)" fill="#ff73b5"/>
        <path id="Trazado_160784" data-name="Trazado 160784" d="M79.223,185.736l8.111,1.254a.159.159,0,0,0-.119.058c-2.3,2.254-6,3.378-9.231,3.713h0a10.707,10.707,0,0,0,1.24-5.025" transform="translate(-23.884 -56.886)" fill="#ff73b5"/>
        <path id="Trazado_160785" data-name="Trazado 160785" d="M45.129,191.92c6.527,3.688,16.8-.151,20.307-7.46a9.606,9.606,0,0,0,.524-7.725c-.117-.292-.012-.083.135.2q-.107-.24-.228-.47h0c1.342,2.555.788,1.5,1.417,2.694h0c2.11,3.967.477,8.753-2.653,12.07-6.349,6.736-17.644,7.2-21.188.484q-.688-1.309-1.375-2.617A8.386,8.386,0,0,0,45.1,192.24l-.139-.264c-.03-.057-.031-.089-.01-.1l0,0c.03-.015.094.006.174.05" transform="translate(-12.884 -54.046)" fill="#8140ff"/>
        <path id="Trazado_160786" data-name="Trazado 160786" d="M46.229,191.924c22.094-16.108,20.887-15.277,20.956-15.277a.647.647,0,0,0,.049.141,9.61,9.61,0,0,1-.524,7.726c-3.523,7.342-13.8,11.134-20.307,7.46-.08-.045-.144-.064-.174-.05" transform="translate(-14.159 -54.1)" fill="#a68efe"/>
        <path id="Trazado_160787" data-name="Trazado 160787" d="M44.838,190.546l.139.264a8.287,8.287,0,0,1-3.309-3.707l21-15.306a8.3,8.3,0,0,1,3.309,3.708l-.139-.265a.375.375,0,0,0-.045-.076c-.071,0-20.871,15.243-20.96,15.28-.02.013-.019.046.01.1" transform="translate(-12.762 -52.616)" fill="#8140ff"/>
        <path id="Trazado_160788" data-name="Trazado 160788" d="M82.894,172.917c2.138,1.193,4.077,3.1,4.11,5.531l-11.148-1.725q-.531-1.007-1.059-2.015h0a8.36,8.36,0,0,0-3.081-3.238,1.326,1.326,0,0,0-.492-.623h0a20.65,20.65,0,0,1,11.669,2.069" transform="translate(-21.814 -52.291)" fill="#ff73b5"/>
        <path id="Trazado_160789" data-name="Trazado 160789" d="M61.957,170.855a1.32,1.32,0,0,1,.54.654l-21,15.306a8.245,8.245,0,0,1-.376-.774Z" transform="translate(-12.596 -52.328)" fill="#8140ff"/>
        <path id="Trazado_160790" data-name="Trazado 160790" d="M61.7,170.228,40.867,185.413a9.605,9.605,0,0,1,.524-7.725c3.523-7.342,13.805-11.136,20.308-7.46" transform="translate(-12.337 -51.7)" fill="#a68efe"/>
        <g id="Grupo_84010" data-name="Grupo 84010" transform="translate(28.763 118.801)" style="mix-blend-mode: multiply;isolation: isolate">
          <g id="Grupo_84009" data-name="Grupo 84009">
            <g id="Grupo_84008" data-name="Grupo 84008" clip-path="url(#clip-path-6)">
              <path id="Trazado_160791" data-name="Trazado 160791" d="M43.078,190.581a11.268,11.268,0,0,0,1.374,1.206c.343.271.531.368.521.327s.033-.156,0-.241c.118.043.353.144.432.185A11.335,11.335,0,0,0,49.7,193.28a14.163,14.163,0,0,0,6.029-.714c6.766-2.076,12.33-8.9,10.5-15.119-.013-.046-.351-.927-.339-.984,1.452,2.764,1.878,3.356,2.2,4.942.793.6,1.546,1.181,2.327,1.77.01.008.018.019.029.024.576.219.751.767,1.021,1.238.08.139.166.276.25.413a.75.75,0,0,1,.094.162,3.334,3.334,0,0,1,.171,1.408c-.017.121.015.2,0,.367a11.512,11.512,0,0,0,4.255-2.579c.3-.222.173.215.2.506a2.666,2.666,0,0,0,.293-.334,5.72,5.72,0,0,0,1.35-2.816,2.458,2.458,0,0,1,.016-.429c0,4.424.049,4.443-.326,5.41-1.306,3.364-5.857,5.255-9.462,5.8-.731.111-1.464.225-2.2.271-.71.044-2.409.029-2.565.013-.784-.081-.693.573-3.332,1.952a16.563,16.563,0,0,1-6.68,1.933,12.226,12.226,0,0,1-5.847-.972,8.984,8.984,0,0,1-3.975-3.381c-.314-.616-1.238-2.358-1.562-2.968.018-.018.913,1.406.932,1.387" transform="translate(-41.671 -172.847)" fill="#c5bed1"/>
              <path id="Trazado_160792" data-name="Trazado 160792" d="M62.467,171.25l.254.443L41.756,186.976c-.182-.082-.218-.248-.295-.382.2-.219,20.514-15.058,21.006-15.344" transform="translate(-41.461 -171.25)" fill="#c5bed1"/>
            </g>
          </g>
        </g>
      </g>
    </g>
    <g id="Grupo_84014" data-name="Grupo 84014" transform="translate(131.875 19.626)">
      <g id="Grupo_84013" data-name="Grupo 84013" clip-path="url(#clip-path-7)">
        <rect id="Rectángulo_35297" data-name="Rectángulo 35297" width="186.712" height="191.352" transform="matrix(0.726, -0.688, 0.688, 0.726, -96.945, 91.733)" fill="url(#linear-gradient)"/>
      </g>
    </g>
    <g id="Grupo_84085" data-name="Grupo 84085">
      <g id="Grupo_84084" data-name="Grupo 84084" clip-path="url(#clip-path)">
        <path id="Trazado_160794" data-name="Trazado 160794" d="M233.988,51.994C247.871,60,247.3,59.443,247.614,60.4a.562.562,0,0,1,.1.311,4.7,4.7,0,0,1,.035,1.141c-14.15-8.184-12.867-7.4-13.177-7.712a2.011,2.011,0,0,1-.588-1.349Z" transform="translate(-71.664 -15.924)" fill="#3f4f5d"/>
        <path id="Trazado_160795" data-name="Trazado 160795" d="M233.08,51.679a.373.373,0,0,1,.242.1l.173.1a4.056,4.056,0,0,0,.069,1.279,2.187,2.187,0,0,0,.9,1.177l12.8,7.4a1.231,1.231,0,0,1-.034.45c-.035.1-.035.173-.1.207a.271.271,0,0,1-.139.139c-.173.087-.11.069-.415.069-.069-.035-.173-.069-.242-.1-13.284-7.667-13.455-7.615-13.66-8.231-.365-.547-.277-.961-.277-1.937a.952.952,0,0,1,.1-.484.493.493,0,0,1,.588-.173" transform="translate(-71.171 -15.816)" fill="#5d6571"/>
        <path id="Trazado_160796" data-name="Trazado 160796" d="M198.7,23.771c-2.616-1.534-4.955-1.563-6.64-.692,10.232-5.769,10.035-5.994,11.413-6.156a7.805,7.805,0,0,1,5.049,1.211l57.548,33.235c4.816,2.7,9.442,9.97,9.442,16.393-.333,149.515-.257,140.2-.416,141.621a6.32,6.32,0,0,1-2.663,4.358c-12.357,7.041-9.5,5.594-8.923,5.014,1.349-1.314,1.868-3.631,1.9-5.5L265.692,73.4c0-5.868-3.979-13.2-9.442-16.393Z" transform="translate(-58.823 -5.167)" fill="#8140ff"/>
        <path id="Trazado_160797" data-name="Trazado 160797" d="M254.873,59.493,197.326,26.258c-4.1-2.4-6.606-.657-6.675-.657-2,.887-2.8,3.836-2.8,6.121-.346,169.312-.277,135.168-.277,139.856,0,5.816,3.842,13.054,9.407,16.393l57.582,33.235c4.876,2.858,9.358.93,9.476-5.465l.277-139.856c0-5.839-3.951-13.179-9.441-16.393m7.608,45.789c-.1,7.109.054-15.52-.242,109.423,0,4.28-2.8,6.568-6.571,4.98-.738-.3-46.281-26.6-46.965-27.01-2.767-1.66-5.43-3.32-8.3-4.876a29.91,29.91,0,0,1-5.5-3.424,18.434,18.434,0,0,1-3.839-5.119,16.086,16.086,0,0,1-1.729-6.155c-.085-1.738.017-.993.033-7.148h0c0-81.6.27-109.295.242-115.243-.145-12.733.148-12.017.035-15.493-.055-1.942-.2-4.056.726-5.81a3.8,3.8,0,0,1,2.42-1.972c2.728-.909,6.656,2.078,9.061,3.631,2.525,1.625,5.257,3.009,7.92,4.461,6.318,3.414,10.647,6.337,25.246,14.595,15.442,8.8,13.552,7.859,17.4,10.029,2.69,1.449,4.463,2.475,6.433,4.98a19.131,19.131,0,0,1,2.7,4.737c1.154,3.175,1.043,4.824.968,8.093-.069,3.666.035,7.263.069,10.894.069,5.465-.069,10.963-.1,16.427" transform="translate(-57.446 -7.653)" fill="#a68efe"/>
        <g id="Grupo_84017" data-name="Grupo 84017" transform="translate(199.199 57.167)" style="mix-blend-mode: multiply;isolation: isolate">
          <g id="Grupo_84016" data-name="Grupo 84016">
            <g id="Grupo_84015" data-name="Grupo 84015" clip-path="url(#clip-path-9)">
              <path id="Trazado_160798" data-name="Trazado 160798" d="M361.525,203.19V226.1c-12.182-.028-24.371.083-36.553-.069a20.262,20.262,0,0,0-11,3.025c-1.754,1.038-19.4,11.267-19.771,11.44-2.447,1.128-4.726.62-7.055-.763,9.365,2.9,7.416-12.154,7.416-12.154,0-11.586.249-133.679.25-134.1,0,0,7.118,1.186,8.852-11.065,1.353,1.97.971,14.652.971,14.652l-.208,89.782s12.945.264,19.75.153a31.913,31.913,0,0,1,17,4.537c.042.028,9,5.12,20.354,11.662" transform="translate(-287.143 -82.405)" fill="#b0a7c2"/>
            </g>
          </g>
        </g>
        <path id="Trazado_160799" data-name="Trazado 160799" d="M343.561,131.929q-3.382,1.949-6.767,3.9c1.138-.706,1.837-2.16,1.837-4.2v-11.4a14.52,14.52,0,0,0-6.569-11.378q-8.361-4.83-16.725-9.658c-1.779-1.025-3.389-1.142-4.571-.5q3.387-1.966,6.781-3.92c1.19-.685,2.833-.586,4.645.461q8.36,4.831,16.725,9.658a14.52,14.52,0,0,1,6.569,11.379v11.4c0,2.093-.735,3.564-1.925,4.253" transform="translate(-95.179 -28.895)" fill="#d2448d"/>
        <path id="Trazado_160800" data-name="Trazado 160800" d="M337.7,122.921c-.009,3.086-.019,6.126-.028,9.212.635,5.146-2.571,7.306-6.489,5.039l-14.244-8.222a6.764,6.764,0,0,0-5.237-.647l-3.814,1.088V104.739c0-4.18,2.934-5.89,6.57-3.8q8.361,4.83,16.725,9.658c3.9,2.253,7.014,7.982,6.517,12.319" transform="translate(-94.296 -30.642)" fill="#ff73b5"/>
        <path id="Trazado_160801" data-name="Trazado 160801" d="M322.005,115.805c-.488-.282-.884-.114-.884.374v7.961a1.835,1.835,0,0,0,.884,1.4l9.73,5.617c.488.282.884.115.884-.374V123.7a1.835,1.835,0,0,0-.884-1.4l-6.546-3.779-.273-.613a1.947,1.947,0,0,0-.759-.866Zm4.865,5.462a5.5,5.5,0,0,1,2.654,4.186c0,1.464-1.188,1.967-2.654,1.121a5.507,5.507,0,0,1-2.654-4.185c0-1.465,1.189-1.967,2.654-1.122m0,.885c-.243-.141-.442-.057-.442.187v.884l-.884-.511c-.244-.14-.443-.056-.443.187a.917.917,0,0,0,.443.7l.884.511v.885a.918.918,0,0,0,.442.7c.244.141.443.057.443-.187v-.884l.885.511c.243.141.442.057.442-.187a.919.919,0,0,0-.442-.7l-.885-.511v-.884a.92.92,0,0,0-.443-.7" transform="translate(-98.35 -35.426)" fill="#fcffff"/>
        <g id="Grupo_84020" data-name="Grupo 84020" transform="translate(138.892 117.49)" opacity="0.69">
          <g id="Grupo_84019" data-name="Grupo 84019">
            <g id="Grupo_84018" data-name="Grupo 84018" clip-path="url(#clip-path-10)">
              <path id="Trazado_160802" data-name="Trazado 160802" d="M212.718,180.164l-10.235-5.909a4.712,4.712,0,0,1-2.271-3.583c0-1.255,1.017-1.684,2.271-.96l10.235,5.909a4.71,4.71,0,0,1,2.272,3.583c0,1.255-1.017,1.684-2.272.96" transform="translate(-200.211 -169.36)" fill="#fcfcfc"/>
            </g>
          </g>
        </g>
        <g id="Grupo_84023" data-name="Grupo 84023" transform="translate(138.892 123.872)" opacity="0.69">
          <g id="Grupo_84022" data-name="Grupo 84022">
            <g id="Grupo_84021" data-name="Grupo 84021" clip-path="url(#clip-path-10)">
              <path id="Trazado_160803" data-name="Trazado 160803" d="M212.718,189.364l-10.235-5.909a4.712,4.712,0,0,1-2.271-3.583c0-1.255,1.017-1.684,2.271-.96l10.235,5.909a4.71,4.71,0,0,1,2.272,3.583c0,1.255-1.017,1.684-2.272.96" transform="translate(-200.211 -178.56)" fill="#fcfcfc"/>
            </g>
          </g>
        </g>
        <g id="Grupo_84026" data-name="Grupo 84026" transform="translate(138.762 103.299)" opacity="0.69">
          <g id="Grupo_84025" data-name="Grupo 84025">
            <g id="Grupo_84024" data-name="Grupo 84024" clip-path="url(#clip-path-12)">
              <path id="Trazado_160804" data-name="Trazado 160804" d="M254.383,187.667,204.7,158.984c-2.583-1.492-4.678-4.8-4.678-7.379s2.094-3.469,4.678-1.977l49.681,28.683c2.583,1.492,4.678,4.8,4.678,7.378s-2.094,3.469-4.678,1.977" transform="translate(-200.024 -148.904)" fill="#fcfcfc"/>
            </g>
          </g>
        </g>
        <g id="Grupo_84029" data-name="Grupo 84029" transform="translate(138.892 149.229)" opacity="0.69">
          <g id="Grupo_84028" data-name="Grupo 84028">
            <g id="Grupo_84027" data-name="Grupo 84027" clip-path="url(#clip-path-13)">
              <path id="Trazado_160805" data-name="Trazado 160805" d="M212.718,225.916l-10.235-5.908a4.714,4.714,0,0,1-2.271-3.584c0-1.254,1.017-1.684,2.271-.959l10.235,5.908a4.711,4.711,0,0,1,2.272,3.584c0,1.254-1.017,1.684-2.272.959" transform="translate(-200.211 -215.112)" fill="#fcfcfc"/>
            </g>
          </g>
        </g>
        <g id="Grupo_84032" data-name="Grupo 84032" transform="translate(138.892 155.612)" opacity="0.69">
          <g id="Grupo_84031" data-name="Grupo 84031">
            <g id="Grupo_84030" data-name="Grupo 84030" clip-path="url(#clip-path-13)">
              <path id="Trazado_160806" data-name="Trazado 160806" d="M212.718,235.117l-10.235-5.909a4.712,4.712,0,0,1-2.271-3.583c0-1.255,1.017-1.684,2.271-.96l10.235,5.909a4.71,4.71,0,0,1,2.272,3.583c0,1.255-1.017,1.684-2.272.96" transform="translate(-200.211 -224.312)" fill="#fcfcfc"/>
            </g>
          </g>
        </g>
        <g id="Grupo_84035" data-name="Grupo 84035" transform="translate(138.762 135.038)" opacity="0.69">
          <g id="Grupo_84034" data-name="Grupo 84034">
            <g id="Grupo_84033" data-name="Grupo 84033" clip-path="url(#clip-path-12)">
              <path id="Trazado_160807" data-name="Trazado 160807" d="M254.383,233.42,204.7,204.737c-2.583-1.492-4.678-4.8-4.678-7.378s2.094-3.469,4.678-1.977l49.681,28.683c2.583,1.492,4.678,4.8,4.678,7.379s-2.094,3.469-4.678,1.977" transform="translate(-200.024 -194.656)" fill="#fcfcfc"/>
            </g>
          </g>
        </g>
        <path id="Trazado_160808" data-name="Trazado 160808" d="M270.26,348.464c-7.622-1.183-7.4-1.085-7.621-1.265a.929.929,0,0,1-.251-.495,7.15,7.15,0,0,1-.271-2.375,26.813,26.813,0,0,1,1.872-9.714,4.487,4.487,0,0,1,.445-.7c.151-.2.3-.352.545-.321v-.008c8.66,1.338,7.461,1.152,7.575,1.172a6.951,6.951,0,1,1-2.294,13.71" transform="translate(-80.279 -102.166)" fill="#a68efe"/>
        <path id="Trazado_160809" data-name="Trazado 160809" d="M251.95,331.876l7.412,1.149v.008c-.25-.031-.4.125-.546.321a4.582,4.582,0,0,0-.445.7,26.8,26.8,0,0,0-1.872,9.714,7.131,7.131,0,0,0,.271,2.375.934.934,0,0,0,.251.495.5.5,0,0,0,.216.109c0,.024-7.55-1.156-7.575-1.161a6.952,6.952,0,1,1,2.287-13.714" transform="translate(-74.661 -101.61)" fill="#8140ff"/>
        <g id="Grupo_84038" data-name="Grupo 84038" transform="translate(170.724 235.718)" style="mix-blend-mode: multiply;isolation: isolate">
          <g id="Grupo_84037" data-name="Grupo 84037">
            <g id="Grupo_84036" data-name="Grupo 84036" clip-path="url(#clip-path-16)">
              <path id="Trazado_160810" data-name="Trazado 160810" d="M272.408,339.784c1.113,1.193,1.377,3.412,1.011,5.272a5.807,5.807,0,0,0,.653.247c4.027,1.016,6.3,3.747,2.846,6.067a9.74,9.74,0,0,1-3.807,1.379,17.266,17.266,0,0,1-5.935-.107c-4.327-.724-11.442-1.694-15.888-2.574a6.331,6.331,0,0,1-3.462-1.849,1.517,1.517,0,0,1-.406-.517,6.252,6.252,0,0,0-1.324-2.185c.26.037.52.1.78.105a4.037,4.037,0,0,0,1.323-.017,7.863,7.863,0,0,1,3.65.123c11.655,1.714,12.556,2.153,13.456,1.822a12.716,12.716,0,0,0,6.223-4.766,4.578,4.578,0,0,0,.88-3" transform="translate(-246.096 -339.784)" fill="#b0a7c2"/>
            </g>
          </g>
        </g>
        <path id="Trazado_160811" data-name="Trazado 160811" d="M291.993,343.924v.008a.425.425,0,0,1,.259.016.809.809,0,0,1,.359.317,4.846,4.846,0,0,1,.441.708,26.87,26.87,0,0,1,1.861,9.687,7.186,7.186,0,0,1-.267,2.368.943.943,0,0,1-.247.495.456.456,0,0,1-.3.132v.012q-3.691.568-7.381,1.141a6.95,6.95,0,1,1-2.244-13.718c.042-.015-.09.02,7.517-1.165" transform="translate(-85.321 -105.332)" fill="#f6ba28"/>
        <path id="Trazado_160812" data-name="Trazado 160812" d="M307.585,355.938l-7.563,1.172V357.1a.453.453,0,0,0,.3-.132.939.939,0,0,0,.248-.495,7.186,7.186,0,0,0,.267-2.368,26.886,26.886,0,0,0-1.861-9.687,4.905,4.905,0,0,0-.441-.708.812.812,0,0,0-.36-.318.428.428,0,0,0-.259-.015v-.008c11.165-1.718,6.429-1.029,7.632-1.18a6.95,6.95,0,1,1,2.039,13.749" transform="translate(-91.242 -104.778)" fill="#f2a305"/>
        <g id="Grupo_84041" data-name="Grupo 84041" transform="translate(194.828 240.79)" style="mix-blend-mode: multiply;isolation: isolate">
          <g id="Grupo_84040" data-name="Grupo 84040">
            <g id="Grupo_84039" data-name="Grupo 84039" clip-path="url(#clip-path-17)">
              <path id="Trazado_160813" data-name="Trazado 160813" d="M307.348,347.1a7.048,7.048,0,0,1,.775,5.192,10.2,10.2,0,0,1,4.1,1.84,2.366,2.366,0,0,1-.01,3.941,9.14,9.14,0,0,1-4.574,1.849c-18.271,2.861-15.4,2.543-19.853,2.391-.37-.012-4.506-.524-5.478-2.747a3.856,3.856,0,0,0-1.469-1.989c.231-.088.311-.152.373-.137a7.074,7.074,0,0,0,4.562-.723,4.04,4.04,0,0,0,.837-.431,6.891,6.891,0,0,1,3.342-1.118c5.415-.8,11.556-1.823,12.183-1.868a3.087,3.087,0,0,0,1.852-.819c2.751-2.369,2.734-3.4,3.359-5.383" transform="translate(-280.841 -347.095)" fill="#b0a7c2"/>
            </g>
          </g>
        </g>
        <path id="Trazado_160814" data-name="Trazado 160814" d="M252.718,370.788c-7.859-4.534-4.937-2.864-5.617-3.242-1.106-.685-1.447-2.189-1.354-3.594.326-4.882,5.3-10.069,8.321-8.437.031.015.058.035.089.05l5.358,3.1a6.952,6.952,0,1,1-6.8,12.128" transform="translate(-75.261 -108.79)" fill="#d2448d"/>
        <path id="Trazado_160815" data-name="Trazado 160815" d="M238.28,362.708a6.952,6.952,0,1,1,7.157-11.919q2.641,1.52,5.285,3.048a2.89,2.89,0,0,0-2.144-.166c-2.878.758-5.927,4.84-6.178,8.6-.093,1.4.248,2.909,1.354,3.594q-2.739-1.579-5.474-3.161" transform="translate(-71.914 -107.113)" fill="#ff73b5"/>
        <g id="Grupo_84044" data-name="Grupo 84044" transform="translate(164.63 252.597)" style="mix-blend-mode: multiply;isolation: isolate">
          <g id="Grupo_84043" data-name="Grupo 84043">
            <g id="Grupo_84042" data-name="Grupo 84042" clip-path="url(#clip-path-18)">
              <path id="Trazado_160816" data-name="Trazado 160816" d="M237.565,365.611a6.271,6.271,0,0,1,.64.28c3.241,1.863,6.509,3.684,9.7,5.625a4.312,4.312,0,0,0,3.59.475,12.623,12.623,0,0,0,6.922-4.789,5.982,5.982,0,0,0,1.134-3.088,2.828,2.828,0,0,1,.382.478c1.365,3.106-.03,3.771,1.1,4.384,2.828,1.538,5.965,3.2,3.921,5.638a5.556,5.556,0,0,1-2.5,1.63,14.042,14.042,0,0,1-10.126-.148,16.178,16.178,0,0,1-1.994-1.054c-10.925-6.281-9.832-5.65-11.16-6.654-.764-.578-.673-2-1.86-2.527l.252-.252" transform="translate(-237.312 -364.115)" fill="#b0a7c2"/>
            </g>
          </g>
        </g>
        <path id="Trazado_160817" data-name="Trazado 160817" d="M274.091,370.345c1.768-1.906,4.794-1.358,7.014.108a8.67,8.67,0,0,1,4.027,6.7,4.024,4.024,0,0,1-1.1,2.9l0,0q-1.961,1.961-3.927,3.922l0,0a6.947,6.947,0,1,1-9.8-9.846q1.892-1.9,3.787-3.791Z" transform="translate(-82.155 -113.052)" fill="#a68efe"/>
        <path id="Trazado_160818" data-name="Trazado 160818" d="M280.648,364.22a6.951,6.951,0,1,1,9.88,9.78q-1.955,1.956-3.915,3.919l0,0a4.025,4.025,0,0,0,1.1-2.9,8.672,8.672,0,0,0-4.027-6.7c-2.216-1.464-5.245-2.017-7.014-.108l0,0,3.981-3.981" transform="translate(-84.735 -110.911)" fill="#8140ff"/>
        <g id="Grupo_84047" data-name="Grupo 84047" transform="translate(187.615 254.488)" style="mix-blend-mode: multiply;isolation: isolate">
          <g id="Grupo_84046" data-name="Grupo 84046">
            <g id="Grupo_84045" data-name="Grupo 84045" clip-path="url(#clip-path-19)">
              <path id="Trazado_160819" data-name="Trazado 160819" d="M270.444,382.745c2.725.614,4.853-.327,6.868-1.634a11.618,11.618,0,0,0,3.628-3.638,4.084,4.084,0,0,1,.6-.721c2.262-2.271,4.513-4.554,6.808-6.794a3.407,3.407,0,0,0,1.147-2.574,4.922,4.922,0,0,1,.082-.544,6.777,6.777,0,0,1,.923,5.313c.226.078.42.158.62.213a7.767,7.767,0,0,1,3.663,1.82,2.277,2.277,0,0,1,.028,3.539c-2.662,2.628-5.293,5.286-7.941,7.928a6.347,6.347,0,0,1-2.761,1.553,13.928,13.928,0,0,1-9.836-.436,11.289,11.289,0,0,1-1.852-1.262.772.772,0,0,1-.248-.281,10.744,10.744,0,0,0-.627-1.351,9.117,9.117,0,0,0-1.1-1.132" transform="translate(-270.444 -366.841)" fill="#b0a7c2"/>
            </g>
          </g>
        </g>
        <g id="Grupo_84050" data-name="Grupo 84050" transform="translate(156.443 57.838)" opacity="0.69">
          <g id="Grupo_84049" data-name="Grupo 84049">
            <g id="Grupo_84048" data-name="Grupo 84048" clip-path="url(#clip-path-20)">
              <path id="Trazado_160820" data-name="Trazado 160820" d="M259.576,149.9l-28.423-16.41c-3.117-1.8-5.643-5.784-5.643-8.9V86.631c0-3.117,2.526-4.185,5.643-2.385l28.423,16.41c3.116,1.8,5.643,5.784,5.643,8.9v37.96c0,3.116-2.527,4.185-5.643,2.385" transform="translate(-225.51 -83.372)" fill="#fcfcfc"/>
            </g>
          </g>
        </g>
        <g id="Grupo_84053" data-name="Grupo 84053" transform="translate(138.982 63.816)" opacity="0.69">
          <g id="Grupo_84052" data-name="Grupo 84052">
            <g id="Grupo_84051" data-name="Grupo 84051" clip-path="url(#clip-path-21)">
              <path id="Trazado_160821" data-name="Trazado 160821" d="M209.166,112.412l-3.465-2c-2.96-1.709-5.36-5.494-5.36-8.454V95.085c0-2.96,2.4-3.974,5.36-2.265l3.465,2c2.96,1.709,5.36,5.494,5.36,8.454v6.872c0,2.96-2.4,3.974-5.36,2.265" transform="translate(-200.341 -91.99)" fill="#fcfcfc"/>
            </g>
          </g>
        </g>
        <g id="Grupo_84056" data-name="Grupo 84056" transform="translate(166.265 79.183)" opacity="0.93">
          <g id="Grupo_84055" data-name="Grupo 84055">
            <g id="Grupo_84054" data-name="Grupo 84054" clip-path="url(#clip-path-22)">
              <path id="Trazado_160822" data-name="Trazado 160822" d="M256.077,128.352c0,4.531-3.673,6.084-8.2,3.468s-8.2-8.411-8.2-12.942,3.673-6.084,8.2-3.468,8.2,8.41,8.2,12.942" transform="translate(-239.668 -114.141)" fill="#fcfcfc"/>
            </g>
          </g>
        </g>
        <path id="Trazado_160823" data-name="Trazado 160823" d="M229.334,236.007l2.855,57.238-12.731,3.076V237.433Z" transform="translate(-67.213 -72.282)" fill="#d2448d"/>
        <path id="Trazado_160824" data-name="Trazado 160824" d="M221.032,233.994l-9.876,1.426-2.471,5.7-16.332-9.43c.071-.354.141-.707.212-1.061l15.338,8.856q1.03-2.378,2.062-4.755c.781-.114,4.215-.61,8.237-1.192q-2.829-1.632-5.658-3.267l.591-.841c2.185,1.26.494.284,7.9,4.561" transform="translate(-58.912 -70.269)" fill="#ff73b5"/>
        <path id="Trazado_160825" data-name="Trazado 160825" d="M220.154,230.645l5.658,3.267-8.237,1.191-.372-.261Z" transform="translate(-66.523 -70.64)" fill="#ef529c"/>
        <path id="Trazado_160826" data-name="Trazado 160826" d="M197.029,166.169c5.329,3.113,10.769,9.785,12.228,15.111,6.053,22.132,5.607,20.407,5.607,20.507.744,2.673-.645,6.026-2.548,8.12l-1.6-.922,1.434-2.04c.576-.822.3-2.169-.156-3.138h0a3.386,3.386,0,0,0-.06-1.188c0-.136-5.606-20.411-5.606-20.51-1.183-4.36-5.99-10.473-10.817-13.3-1.024-.6-1.1-.641-3.022-1.767a8.316,8.316,0,0,0-3.84-1.323c-.658.023-.892.252-1.025.608a4.716,4.716,0,0,0,.117,2.515q.778,2.9,1.556,5.8a13.218,13.218,0,0,0-2.973-2.327h0c-.239-.136-.475-.272-.713-.406a.019.019,0,0,1-.009-.006c-.073-.043-.147-.086-.219-.131q-.285-1.058-.568-2.115c0-.119-1.277-3.906,1.017-5.963,2.175-1.949,5.642-.768,8.166.707,2.668,1.557,2.1,1.227,3.019,1.763l.006,0h0" transform="translate(-56.496 -49.822)" fill="#8140ff"/>
        <path id="Trazado_160827" data-name="Trazado 160827" d="M217.106,238.062V296.95l-5.326,7.349,2.855-60.534Z" transform="translate(-64.862 -72.912)" fill="#bb426a"/>
        <path id="Trazado_160828" data-name="Trazado 160828" d="M216.253,236.957q-1.03,2.378-2.062,4.755l-1.306-.755,3-4.261Z" transform="translate(-65.201 -72.493)" fill="#ef529c"/>
        <path id="Trazado_160829" data-name="Trazado 160829" d="M209.643,222.56c.106,2.11-1.069,3.469-3.036,2.8-2.223-.76-4.391-3.891-4.53-6.645-.106-2.112,1.067-3.471,3.036-2.8,2.231.761,4.393,3.9,4.531,6.646" transform="translate(-61.888 -66.075)" fill="#e8e6ff"/>
        <path id="Trazado_160830" data-name="Trazado 160830" d="M204.075,213.556q.565-.329,1.129-.653c3.105-1.766,8.295,4.2,7.809,8.865a2.96,2.96,0,0,1-1.382,2.422h0l-1.053.606a3.016,3.016,0,0,0,1.256-2.343c.488-4.654-4.634-10.558-7.761-8.9" transform="translate(-62.502 -65.109)" fill="#b5a4e8"/>
        <path id="Trazado_160831" data-name="Trazado 160831" d="M199.461,229.741a8.054,8.054,0,0,1,1.888,5.134l-7.566-4.368c-.175-3.567,3.061-4.013,5.678-.766" transform="translate(-59.348 -69.691)" fill="#e8e6ff"/>
        <path id="Trazado_160832" data-name="Trazado 160832" d="M206.626,225.2c-4.527-1.86-6.854-9.573-3.31-11.344,3.118-1.655,8.25,4.244,7.761,8.9-.276,2.594-2.407,3.285-4.451,2.445m-4.7-7.152c.139,2.753,2.306,5.885,4.53,6.645,1.967.671,3.142-.689,3.036-2.8-.137-2.747-2.3-5.885-4.53-6.646-1.969-.671-3.143.688-3.036,2.8" transform="translate(-61.742 -65.411)" fill="#b5a4e8"/>
        <path id="Trazado_160833" data-name="Trazado 160833" d="M197.861,200.811a9.013,9.013,0,0,1,1.65,6.006,2.749,2.749,0,0,1-3.244,2.475h0c.048-.237.1-.475.142-.713a1.92,1.92,0,0,0,1.264-1.1,5.509,5.509,0,0,0-.23-4.092h0a21.311,21.311,0,0,0,.421-2.579" transform="translate(-60.11 -61.503)" fill="#b5a4e8"/>
        <path id="Trazado_160834" data-name="Trazado 160834" d="M200.033,207.36h0c-.347.2-.7.4-1.043.6a2.844,2.844,0,0,0,1.222-2.065,9.012,9.012,0,0,0-1.65-6v0a17.262,17.262,0,0,0,.068-2.077,9.857,9.857,0,0,1,2.8,7.127,2.945,2.945,0,0,1-1.394,2.418" transform="translate(-60.814 -60.585)" fill="#b5a4e8"/>
        <path id="Trazado_160835" data-name="Trazado 160835" d="M187.962,270.352q-.206,4.353-.411,8.7-5.007-2.892-10.017-5.782-.28,5.943-.56,11.888l-7.333-4.234q.28-5.945.562-11.888l-10.017-5.783q.206-4.353.411-8.7,5.007,2.891,10.017,5.783l.56-11.891,7.333,4.234q-.28,5.946-.562,11.889,5.01,2.891,10.017,5.782" transform="translate(-49.061 -76.092)" fill="#f6ba28"/>
        <path id="Trazado_160836" data-name="Trazado 160836" d="M193.766,240.422l1.086-.557a1.689,1.689,0,0,1,1.152-.091c1.915.454,3.732,3.792,2.944,5.729a1.692,1.692,0,0,1-.746.882l-1.086.559,0,0c1.857-.964.735-5.025-1.539-6.332a1.877,1.877,0,0,0-1.806-.184Z" transform="translate(-59.345 -73.418)" fill="#e59e41"/>
        <path id="Trazado_160837" data-name="Trazado 160837" d="M198.244,246.623a1.838,1.838,0,0,1-.166.872h0a1.868,1.868,0,0,1-.786-.357l.954-.515" transform="translate(-60.424 -75.533)" fill="#ef529c"/>
        <path id="Trazado_160838" data-name="Trazado 160838" d="M197.5,204.528a5.51,5.51,0,0,1,.23,4.092,1.92,1.92,0,0,1-1.264,1.1q.517-2.6,1.033-5.189Z" transform="translate(-60.172 -62.641)" fill="#e8e6ff"/>
        <path id="Trazado_160839" data-name="Trazado 160839" d="M197.605,247.723c-.284.587-.992.835-1.85.218l1.065-.574a1.866,1.866,0,0,0,.785.357" transform="translate(-59.954 -75.761)" fill="#e59e41"/>
        <path id="Trazado_160840" data-name="Trazado 160840" d="M194.252,241.663c-.714.085-.984.783-.944,1.5l-.764.413a4.509,4.509,0,0,1-.1-1.181c.1-1.684,1.332-2.343,2.726-1.541,2.164,1.244,3.129,4.7,1.965,6-.861.973-2.237.381-3.164-.6.258-.137.514-.276.772-.417.851.613,1.564.376,1.85-.217h0c.719-1.486-.928-4.131-2.336-3.961" transform="translate(-58.936 -73.662)" fill="#ebd863"/>
        <path id="Trazado_160841" data-name="Trazado 160841" d="M196.878,224.717a2.594,2.594,0,0,1,1.519-.295c2.987.266,6.421,4.91,6.334,8.679a4.041,4.041,0,0,1-.561,2.1c-.243-.142-.488-.282-.731-.423.844-3.763-2.892-9.371-6.214-9.677a2.614,2.614,0,0,0-1.511.287l1.163-.672" transform="translate(-59.942 -68.731)" fill="#b5a4e8"/>
        <path id="Trazado_160842" data-name="Trazado 160842" d="M196.9,188.954c-.676-2.13-1.3-2.914-.79-2.255,20.383,25.354,18.963,23.473,19.4,24.4.45.955.737,2.309.156,3.138l-7.972,11.34c-.1-.055-.2-.112-.3-.17l7.569-10.768c.78-1.107.055-3.143-.882-4.307Z" transform="translate(-60.005 -57.111)" fill="#b5a4e8"/>
        <path id="Trazado_160843" data-name="Trazado 160843" d="M195.259,243.086a1.824,1.824,0,0,1,.169-.9,1.937,1.937,0,0,1,.807.376l-.975.527" transform="translate(-59.802 -74.174)" fill="#ef529c"/>
        <path id="Trazado_160844" data-name="Trazado 160844" d="M192.291,198.989h0c-.071,1.606-.33,2.479-1.389,7.8h0c-2.409-1.908-3.511-5.286-2.952-7.209.513-1.765,2.319-2.2,4.341-.592" transform="translate(-57.52 -60.639)" fill="#e8e6ff"/>
        <path id="Trazado_160845" data-name="Trazado 160845" d="M194.778,243.079q-.544.295-1.085.586c-.05-.9.4-1.617,1.254-1.489a1.82,1.82,0,0,0-.169.9" transform="translate(-59.322 -74.167)" fill="#e59e41"/>
        <path id="Trazado_160846" data-name="Trazado 160846" d="M196.865,227.127c-1.94-.792-3.343.391-3.229,2.718l-.316-.184a4.009,4.009,0,0,1,1.648-3.97l.006,0a2.619,2.619,0,0,1,1.511-.287c3.324.307,7.056,5.919,6.214,9.678l-1.5-.864a8.121,8.121,0,0,0-4.337-7.086" transform="translate(-59.202 -69.03)" fill="#b5a4e8"/>
        <path id="Trazado_160847" data-name="Trazado 160847" d="M198.858,210.321c.156,4.812,5.217,9.581,8.226,7.575l1.052-.607h0a2.957,2.957,0,0,0,1.381-2.422c.495-4.74-4.756-10.6-7.808-8.865-.18.1-1.1.636-1.176.679a3.882,3.882,0,0,0-1.675,3.641m-5.734,8.518-.466-.268q1.25-6.285,2.5-12.574h0c1.306.146,1.917-.349,3.065-1.013h0c2.487-1.29,1.535-6.461-1.4-9.546a19.478,19.478,0,0,0-.925-5.386l17.182,21.375c.93,1.156,1.66,3.2.882,4.308L206.394,226.5l-3.159-1.824a4.037,4.037,0,0,0,.561-2.1c.088-3.824-3.39-8.416-6.334-8.678a2.615,2.615,0,0,0-1.519.294c-.387.224-.776.45-1.163.672l-.006,0a4.011,4.011,0,0,0-1.648,3.969" transform="translate(-59.006 -58.207)" fill="#cfc6f5"/>
        <path id="Trazado_160848" data-name="Trazado 160848" d="M155.8,220.482l-.022.012a2.1,2.1,0,0,1-.9.277c-.3.01-.484-.1-.628-.469a3.725,3.725,0,0,1-.033-1.951q.637-3.109,1.272-6.22l18.908,10.917c-1.664,8.377-1.478,7.333-1.478,7.433-.93,4.712,2.316,7.243,5.827,5.353h0a.087.087,0,0,1,.016-.009c.713.752,1.817,1.405,2.737.925l0,0,1.086-.558a1.7,1.7,0,0,0,.745-.883c.789-1.938-1.029-5.275-2.943-5.729a1.69,1.69,0,0,0-1.151.091c-.364.185-.725.372-1.087.557h0a1.945,1.945,0,0,0-.919,1.726,4.219,4.219,0,0,0,.1,1.181h0c-.579.289-.888.324-1.084.253-.287-.1-.408-.653-.44-.96-.094-.875-.015-.857,1.36-7.783l16.332,9.43-2.856,60.534-47.862-27.634,2.855-60.535,7.069,4.083h0q-.744,3.63-1.487,7.261c-.948,4.679,2.3,7.254,5.879,5.435h0c.035-.017.036-.019.08-.04.977,1.06,2.047,1.357,2.785.982h0c.1-.052.989-.515,1.087-.558a1.962,1.962,0,0,0,.92-1.764c.109-2.273-1.76-4.714-3.372-4.9a1.594,1.594,0,0,0-.893.141l-1.087.558c-.93.473-1.046,1.785-.828,2.837m26.423,45.71q.206-4.35.411-8.7l-10.017-5.783q.28-5.943.562-11.888l-7.333-4.233q-.279,5.945-.561,11.89l-10.016-5.783q-.206,4.35-.41,8.7l10.016,5.784q-.28,5.945-.562,11.888l7.333,4.233q.28-5.945.559-11.888l10.017,5.782" transform="translate(-43.731 -63.229)" fill="#ef529c"/>
        <path id="Trazado_160849" data-name="Trazado 160849" d="M192.843,196.08a3.21,3.21,0,0,0-3.1-.239l1.145-.66a2.724,2.724,0,0,1,1.813-.266q.093.582.144,1.165Z" transform="translate(-58.113 -59.681)" fill="#b5a4e8"/>
        <path id="Trazado_160850" data-name="Trazado 160850" d="M171.728,209.481q-1.588-.915-3.173-1.832c9.983-14.2,15.29-21.73,15.293-21.735a16.5,16.5,0,0,1,2.364,6.26h0c-1.221-.23-1.737.219-2.957.925h0a3.32,3.32,0,0,0-1.515,2.112c-.707,2.7.966,6.307,3.21,8.18-.029.151-.06.3-.091.454-1.025-1.579-2.853-3.361-4.672-3.526a2.6,2.6,0,0,0-1.507.289c-.006,0-1.181.68-1.251.724a3.7,3.7,0,0,0-1.6,3.2,9.4,9.4,0,0,0,2.455,6.156l-.117.1a6.383,6.383,0,0,0-3.748-2.285,2.552,2.552,0,0,0-1.52.305c-.839.484-1.15.665-1.167.673" transform="translate(-51.624 -56.94)" fill="#cfc6f5"/>
        <path id="Trazado_160851" data-name="Trazado 160851" d="M187.085,216.8q-.164.833-.332,1.669c-.61,1.223-1.911,1.364-3.172.74-3.641-1.8-5.579-8.235-2.669-9.3,2.47-.918,6.121,3.277,6.172,6.895" transform="translate(-54.976 -64.249)" fill="#e8e6ff"/>
        <path id="Trazado_160852" data-name="Trazado 160852" d="M180.212,224.031,180,225.091l-18.908-10.916q.106-.532.216-1.059l.993.572h0q1.3.75,2.6,1.5h0l15.307,8.837" transform="translate(-49.338 -65.272)" fill="#ff73b5"/>
        <path id="Trazado_160853" data-name="Trazado 160853" d="M190.694,206.427c-2.244-1.872-3.917-5.478-3.211-8.18A3.325,3.325,0,0,1,189,196.135h0c1.414-.816,3,.239,3.1.239a15.03,15.03,0,0,1,.04,1.951h0c-2.039-1.621-3.833-1.156-4.341.593-.565,1.945.575,5.326,2.953,7.209h0l-.06.3" transform="translate(-57.371 -59.976)" fill="#b5a4e8"/>
        <path id="Trazado_160854" data-name="Trazado 160854" d="M182.521,221.619c1.372,1.544,3.131,2.514,4.778,2.2q-.28,1.41-.561,2.818-1.108-.641-2.219-1.281a11.067,11.067,0,0,0-2.116-3.63Z" transform="translate(-55.865 -67.875)" fill="#cfc6f5"/>
        <path id="Trazado_160855" data-name="Trazado 160855" d="M184.132,206.671c1.833.168,3.662,1.969,4.672,3.528q-.2,1.029-.409,2.06a11.122,11.122,0,0,0-1.4-2.262,6.72,6.72,0,0,0-4.03-2.645,2.62,2.62,0,0,0-1.514.287c1.154-.667,1.6-1.064,2.685-.968" transform="translate(-55.572 -63.293)" fill="#b5a4e8"/>
        <path id="Trazado_160856" data-name="Trazado 160856" d="M184.061,222.165c1.261.624,2.562.483,3.172-.741l-.343,1.721c-2.3.441-4.57-1.58-5.825-3.61l.176-.108a7.339,7.339,0,0,0,2.82,2.738" transform="translate(-55.455 -67.204)" fill="#b5a4e8"/>
        <path id="Trazado_160857" data-name="Trazado 160857" d="M180.617,215.818l-.176.108a8.814,8.814,0,0,1-1.409-4.744c.065-1.979,1.217-3.71,3.189-3.528a6.717,6.717,0,0,1,4.029,2.645,11.054,11.054,0,0,1,1.4,2.262q-.357,1.794-.715,3.587c-.043-3.034-2.59-6.463-4.928-6.95-2.779-.572-3.58,3.084-1.4,6.621" transform="translate(-54.831 -63.594)" fill="#b5a4e8"/>
        <path id="Trazado_160858" data-name="Trazado 160858" d="M164.319,196.261l9.1,5.255c-.2.282-.395.562-.591.842l-7.836-4.524-1.889,4.355q.607-2.966,1.213-5.928Z" transform="translate(-49.954 -60.109)" fill="#ff73b5"/>
        <path id="Trazado_160859" data-name="Trazado 160859" d="M165.827,198.528l7.836,4.524c-.937,1.333-3.94,5.612-5.943,8.461l-1.365-.787c0-1.647.206,5.113-.528-12.2" transform="translate(-50.788 -60.803)" fill="#ef529c"/>
        <path id="Trazado_160860" data-name="Trazado 160860" d="M174.3,218.776a2.56,2.56,0,0,1,1.52-.306,6.381,6.381,0,0,1,3.748,2.286,11.046,11.046,0,0,1,2.116,3.63l-2.02-1.167c-1.011-1.768-2.971-3.85-4.948-4.062a2.616,2.616,0,0,0-1.563.281l1.148-.662" transform="translate(-53.033 -66.908)" fill="#b5a4e8"/>
        <path id="Trazado_160861" data-name="Trazado 160861" d="M173.129,219.749l.019-.011a2.61,2.61,0,0,1,1.563-.28c1.949.208,3.912,2.249,4.948,4.062q-3.266-1.885-6.53-3.77" transform="translate(-53.024 -67.208)" fill="#b5a4e8"/>
        <path id="Trazado_160862" data-name="Trazado 160862" d="M167.2,228.478a1.859,1.859,0,0,1-.169.872,1.892,1.892,0,0,1-.805-.372c.324-.169.65-.334.974-.5" transform="translate(-50.911 -69.976)" fill="#ef529c"/>
        <path id="Trazado_160863" data-name="Trazado 160863" d="M165.75,229.2a1.881,1.881,0,0,0,.805.372c-.329.664-1.094.787-1.893.185q.543-.28,1.088-.557" transform="translate(-50.431 -70.197)" fill="#e59e41"/>
        <path id="Trazado_160864" data-name="Trazado 160864" d="M164.911,198.528c.155,3.641.333,7.788.528,12.2q-1.3-.75-2.6-1.5c0-.076,0,.732.014-5.488.214-1.068-.1-.216,2.062-5.206" transform="translate(-49.872 -60.803)" fill="#d2448d"/>
        <path id="Trazado_160865" data-name="Trazado 160865" d="M165.2,224.418l-.974.5a1.9,1.9,0,0,1,.167-.871,1.752,1.752,0,0,1,.807.372" transform="translate(-50.299 -68.619)" fill="#ef529c"/>
        <path id="Trazado_160866" data-name="Trazado 160866" d="M163.916,224.039a1.914,1.914,0,0,0-.166.871l-1.088.557c-.015-.861.409-1.562,1.255-1.428" transform="translate(-49.818 -68.611)" fill="#e59e41"/>
        <path id="Trazado_160867" data-name="Trazado 160867" d="M166.109,228.8a1.94,1.94,0,0,0,.92-1.764c.123-2.616-2.432-5.583-4.2-4.789.343-.178.683-.352,1.026-.528,1.675-.857,4.4,1.985,4.265,4.76a1.974,1.974,0,0,1-.921,1.764c-.11.049-.98.5-1.088.558Z" transform="translate(-49.869 -67.857)" fill="#e59e41"/>
        <path id="Trazado_160868" data-name="Trazado 160868" d="M161.4,210.946q.5-2.459,1.006-4.914-.006,2.744-.014,5.487c-.33-.189-.662-.381-.992-.572" transform="translate(-49.433 -63.102)" fill="#d2448d"/>
        <path id="Trazado_160869" data-name="Trazado 160869" d="M162.277,224.956l-.775.4c-.223-1.077-.1-2.413.889-2.868,1.775-.8,4.325,2.176,4.2,4.79-.1,2.214-2.067,2.559-3.7.783.258-.135.518-.267.775-.4,1.1.83,2.1.264,2.062-1.057-.026-1.681-1.659-3.526-2.792-3.013a1.356,1.356,0,0,0-.658,1.366" transform="translate(-49.435 -68.101)" fill="#ebd863"/>
        <path id="Trazado_160870" data-name="Trazado 160870" d="M183.816,221.054l-2.824,1.526h0c-.579.29-.887.325-1.083.253-.287-.1-.408-.653-.441-.959-.1-.951-.17-.077,4.074-21.417.019-.1,1.715-8.363,1.6-8.483.6-6.309-2.447-13.716-7.916-16.813h0c-1.094-.622-.293-.157-2.977-1.761-5.955-3.551-12.4-.278-13.929,7.286l-5.431,26.545c-.949,4.678,2.3,7.254,5.879,5.434h0c.105-.053,2.8-1.437,2.917-1.5a3.72,3.72,0,0,0-1.387-2.7c-2.975,1.516-3.235,1.727-3.763,1.744-.3.009-.485-.1-.628-.469a3.725,3.725,0,0,1-.033-1.951c.983-4.8,2.6-12.7,3.881-18.971h0q.773-3.788,1.55-7.575h0c1.084-5.257,5.105-7.818,9.425-5.212.1.1,2.937,1.736,3.036,1.793h0c4.147,2.382,6.624,8.186,6.4,13.191-.056,1.276-.05,1.106-1.449,8.1-1.158,5.972-4.139,20.689-4.139,20.8-.931,4.712,2.315,7.243,5.827,5.353h0c.114-.077,2.7-1.461,2.805-1.516a3.7,3.7,0,0,0-1.387-2.7" transform="translate(-47.384 -52.668)" fill="#a68efe"/>
        <path id="Trazado_160871" data-name="Trazado 160871" d="M155.049,204.751c-.06.3-.121.591-.182.887l-5.135.742,4.457,2.573c-.073.352-.145.706-.216,1.057h0l-7.07-4.083Z" transform="translate(-44.992 -62.709)" fill="#ff73b5"/>
        <path id="Trazado_160872" data-name="Trazado 160872" d="M156.116,206.03q-.338,1.658-.678,3.315l-4.457-2.573,5.135-.742" transform="translate(-46.241 -63.101)" fill="#d2448d"/>
        <path id="Trazado_160873" data-name="Trazado 160873" d="M228.747,133.019a55.365,55.365,0,0,0-10.579,2.678,22.944,22.944,0,0,0-2.81,1.3,10.835,10.835,0,0,1-1.4,8.1,19.809,19.809,0,0,1-2.282,3.156,24.262,24.262,0,0,0-3.483,2.345c-2.8,2.338-5.3,5.952-7.818,9-.5.6-.992,1.172-1.492,1.714-2.49,2.706-5.057,4.523-8.013,3.746a4.176,4.176,0,0,1-1.79-2.081l-.042-.125a5.3,5.3,0,0,1,.555-4.447,13.511,13.511,0,0,1,2.491-2.872c2.275-2.144,5.446-4.592,8.054-7.756a8.422,8.422,0,0,0,2.1-3.094c.021-.049.042-.1.062-.16a10.831,10.831,0,0,0,.506-1.942c-5.106.68-15.914,5.231-18.349,9.442a30.552,30.552,0,0,0-1.963,5.411,41.741,41.741,0,0,0-1.089,4.613c1.693,6.32,3.822,6.521,2.49,8.831a3.162,3.162,0,0,1-4.218,1.054c-1.332-.77-3.4-4.96-4.093-6.355-1.117-3.781-.569-4.516.43-13.451,3.517-6.348,4.343-5.626,6.958-8.1a33.951,33.951,0,0,0,2.588-2.941c.166-.347.326-.687.506-1.027,4.19-2.678,16.934-11.682,27.083-14.062,1.582-.694,3.156-1.436,4.787-2,3.711-1.29,7.492-2.262,11.134-3.663a10.5,10.5,0,0,1,2.532,2.872,11.684,11.684,0,0,1,1.394,3.566,5.251,5.251,0,0,1-4.246,6.237" transform="translate(-53.585 -36.858)" fill="#e6a57a"/>
        <path id="Trazado_160874" data-name="Trazado 160874" d="M206.12,152.4a8.706,8.706,0,0,1-2.66,5.2c.182-.219.36-.442.536-.669-4.672-1.116-11.483,1.972-17.115,7.09-.395,1.078-.755,2.153-1.073,3.237a30.637,30.637,0,0,1,1.969-5.415c2.432-4.212,13.245-8.761,18.344-9.442" transform="translate(-56.908 -46.676)" fill="#d49063"/>
        <path id="Trazado_160875" data-name="Trazado 160875" d="M182.866,194.061c1.464,3.186,1.768,5.736-1.507,7.182a1.861,1.861,0,0,1-.875-.228c-.7-.4-1.065-1.346-1.731-2.919h0a62.741,62.741,0,0,0,.168-6.732,7.33,7.33,0,0,0,1.916,2.325,3.133,3.133,0,0,0,2.031.37Z" transform="translate(-54.746 -58.609)" fill="#d49063"/>
        <g id="Grupo_84059" data-name="Grupo 84059" transform="translate(104.74 120.925)" style="mix-blend-mode: multiply;isolation: isolate">
          <g id="Grupo_84058" data-name="Grupo 84058">
            <g id="Grupo_84057" data-name="Grupo 84057" clip-path="url(#clip-path-23)">
              <path id="Trazado_160876" data-name="Trazado 160876" d="M246.745,380.975a15.153,15.153,0,0,0,2.784,1.333c-11.116.385-23.456.879-25.934,1.057a3.184,3.184,0,0,1-1.866-.474c-10.237-5.924-45.136-26.043-47.476-27.455,4.769-1.174,9.359-2.31,11.748-2.823a2.425,2.425,0,0,0,1.56-1.086c1.333-1.876,2.715-3.722,4.018-5.618a2.032,2.032,0,0,1,2.053-.977c.573.04,35.225,1.6,35.363,1.569,1.935-.345,3.475.543,5.045,1.491,2.567,1.56,5.213,3,7.789,4.531a1.438,1.438,0,0,0,1.678.03,21.684,21.684,0,0,1,8-2.735,7.229,7.229,0,0,1,2.923.247c1.036.286,1.994.543,2.892.789v1.876c-1.254-.345-2.656-.721-4.245-1.165a3.192,3.192,0,0,0-1.461-.079A19.193,19.193,0,0,0,245.2,354.1c2.478,1.787.187.543,11.541,7a5.71,5.71,0,0,0,.553.266v2.31s2.774,21.422-10.554,17.3" transform="translate(-158.108 -226.564)" fill="#b0a7c2"/>
              <path id="Trazado_160877" data-name="Trazado 160877" d="M222.12,276.744l-12.731,3.076-5.326,7.35c.111-6.536,2.746-62,2.855-60.535,0,0,1.731-4.159,2.164-5.167a2.349,2.349,0,0,0-1.92,1.163L206.135,225s-1.152-.6-1.675-.885l2.063-3.016c-3.005-.921-4.552-3.223-5.776-5.97l2.542.449c-.254-1.986-.459-3.762-.716-5.53-.284-1.954-.985-3.725-.315-5.043a2.021,2.021,0,0,0-.173-2.284,16.007,16.007,0,0,0-4.757-5c.556,2.113,1.045,3.97,1.551,5.893-2.088,1.036-2.345,2.832-2.2,4.767-1.321-.035-1.321-.035-4.259-2.452a4.192,4.192,0,0,0-.169,2.963c.339.958,1.043,2.194,1.309,3.248a4.084,4.084,0,0,0-2.289,3.732c-1.217,2.289-.746,2.49-1.4,4.919-.126.47-.553,3.211-.619,3.7-.13.951-.272,1.58.5,2.176a2.1,2.1,0,0,0,3.068-.046,13.142,13.142,0,0,1,1.224-.871,1.568,1.568,0,0,1,.405,1.738,2.867,2.867,0,0,0,.2,1.862c1.012-.472.931-1.532.822-2.769-.046-.524.638-.956,1.263-1.038a28.5,28.5,0,0,1,.647,4.676,1.817,1.817,0,0,1-.388,1.263,1.419,1.419,0,0,0-.2,1.469A41.318,41.318,0,0,0,198.445,238c-.328-5.491-.656-10.981-.991-16.587l2.058-.259a16.662,16.662,0,0,0,.422-2.22c.047-.745.694-1.242,1.539-1.466.516,1.734.717,3.583,1.284,5.485a7.1,7.1,0,0,0-1.394-.416,6.752,6.752,0,0,0-1.376.18c0,5.029-.154.708.48,10.486.1,1.53.62,9.891.654,11.431a2.49,2.49,0,0,1-.712,1.909c-2.31-.864-4.83-11.344-5.483-13.727a2.231,2.231,0,0,0-.7-1.252,3.782,3.782,0,0,1-1.6-2.789c-.006-.18-.325-.117-.453-.4-2.171,1.125-4.307.93-5.59-1.507.714-1.983.516-.463,2.459-9.915q2.223-10.819,4.392-21.648a16.872,16.872,0,0,0,.356-6.127,1.663,1.663,0,0,1,.083-.761c.011.934.7,1.238,1.325,1.637,5.39,3.445,9.066,11.448,11.148,17.5.065.191.1.392.185.738l-1.335.556a3.488,3.488,0,0,0,.3,3.235,9.959,9.959,0,0,0,.3-1.5c.037-.735.381-1.129,1.206-1.292a42.2,42.2,0,0,1,1.969,7.962c.814-.436,1.068-1.208,1.525-1.78.486-.61.911-1.269,1.414-1.98l1.007.81a3.791,3.791,0,0,0,.465-5.056c-.453-.685-.029.542-6.366-22.546a3.816,3.816,0,0,1,.038-2.53,11.536,11.536,0,0,0,.4-2.038c1.691,2.052,2.035,3.362,7.974,25.29a7.978,7.978,0,0,1-.712,5.831,29.429,29.429,0,0,1-1.757,2.615l6.3,3.639Zm-25.5-79.958a6.576,6.576,0,0,0-2.053-2.287l-1.629,8.466a2.251,2.251,0,0,0,2.014-1.579c1.091-3.1.508-3.988,1.668-4.6" transform="translate(-161.885 -176.706)" fill="#b0a7c2"/>
              <path id="Trazado_160878" data-name="Trazado 160878" d="M160.425,194.549c.5-1.1,1.664-2.117,2.264-3.438,3.508,7.458,3.028,7.271,3.847,8.974a1.152,1.152,0,0,1-.053,1.36c-.666.884-1.176,1.615-1.9,2.651-1.668-.946-3.84-2.2-5.587-3.195-1.117,4.8-.991,4.5-1.693,7.568-.377,1.644.416,2.674,1.68,3.481a1.876,1.876,0,0,0,1.886-.093c.672-.309,1.329-.649,2.031-.995.815,1.031-.45,2.31.555,3.326,1.092-.86,1.005-2.555.931-3.743.261-.124.676-.532,1.033-.7.923,1.494.632,3.868.564,5.5a2.1,2.1,0,0,1-.312,1.152,1.509,1.509,0,0,0-.208,1.487c1.191,4.369,1.014,4.332,1.5,4.642q-.444-8.029-.887-16.04c1.464-.723,2.722-.178,3.872.708-.746.169-.7.347-1.486.518.462,9.834.908,16.781,1.155,21.517a3.223,3.223,0,0,1-.558,2.12,2.955,2.955,0,0,1-1.588-1.718,74.5,74.5,0,0,1-3.978-12.167,1.855,1.855,0,0,0-.4-.87,4.557,4.557,0,0,1-1.893-3.746c-2.3,1.02-3.486,1.714-5.052.011a2.573,2.573,0,0,1-.5-2c1.171-2.638.486-2.015,5.733-27.617.521-2.542.765-6.977,5.213-8.334a22.907,22.907,0,0,1,2.792-.6l.077.8s-4.033.391-5.447,3.172c-1.156,2.133-1.317,3.656-3.678,15.292a7.893,7.893,0,0,0-.08.927l.171.05" transform="translate(-152.39 -174.311)" fill="#b0a7c2"/>
              <path id="Trazado_160879" data-name="Trazado 160879" d="M150.981,206.773l5.135-.741-.678,3.314Z" transform="translate(-150.981 -184.026)" fill="#b0a7c2"/>
              <path id="Trazado_160880" data-name="Trazado 160880" d="M189.183,180.919c1.991,1.308,3.531,4.894,2.144,5.638-.563-2.173-1.8-4.413-2.144-5.638" transform="translate(-162.681 -176.335)" fill="#b0a7c2"/>
              <path id="Trazado_160881" data-name="Trazado 160881" d="M195.284,242.828l-1.829.658c-.274-.418-.022-.72.291-.9a1.308,1.308,0,0,1,1.538.241" transform="translate(-163.954 -195.173)" fill="#b0a7c2"/>
              <path id="Trazado_160882" data-name="Trazado 160882" d="M161.82,225.081c.532-1.237.735-1.3,1.861-.685l-1.861.685" transform="translate(-154.301 -189.534)" fill="#b0a7c2"/>
            </g>
          </g>
        </g>
        <path id="Trazado_160883" data-name="Trazado 160883" d="M226.87,120.029c-3.587,1.36-7.3,2.317-10.947,3.587-1.63.562-3.205,1.3-4.787,2-10.149,2.379-22.893,11.384-27.083,14.062-.18.34-.34.68-.506,1.027a33.949,33.949,0,0,1-2.588,2.941c-2.608,2.463-3.441,1.741-6.958,8.1-1,8.935-1.547,9.671-.43,13.451.687,1.387,1.45,2.844,2.178,4.031a44.67,44.67,0,0,1-.652,10c-1.422,1.887-3.025,2.393-4.738.791l-.007-.007-.014-.014c-.319-1.561-.9-4.37-1.936-9.331.361-3.469.888-6.882,1.408-10.316-.007-.111-.1-.909-.1-1.013a23.912,23.912,0,0,1,2.123-6.216c.007-.007.007-.014.014-.021,5.7-9.823,6.826-9.025,7.8-12.279.61-.624,1.214-1.256,1.8-1.894,6.84-3.753,16.684-9.143,20.271-11.009,2.074-1.561.59-2.442,17.031-7.659,1.519-.479,3.08-.812,4.627-1.186a6.77,6.77,0,0,1,3.489.964" transform="translate(-51.577 -36.466)" fill="#e6a57a"/>
        <path id="Trazado_160884" data-name="Trazado 160884" d="M180.128,150.411c-.989,3.283-2.075,2.405-7.808,12.284a.148.148,0,0,0-.011.021,23.968,23.968,0,0,0-2.123,6.214c-.092-.905-.173-1.809-.221-2.72,2.457-4.72,1.38-3.407,7.882-13.478.758-.775,1.523-1.544,2.281-2.321" transform="translate(-52.055 -46.067)" fill="#f1bc98"/>
        <g id="Grupo_84062" data-name="Grupo 84062" transform="translate(138.892 47.337)" opacity="0.69">
          <g id="Grupo_84061" data-name="Grupo 84061">
            <g id="Grupo_84060" data-name="Grupo 84060" clip-path="url(#clip-path-10)">
              <path id="Trazado_160885" data-name="Trazado 160885" d="M212.718,79.039,202.482,73.13a4.712,4.712,0,0,1-2.271-3.583c0-1.255,1.017-1.684,2.271-.96L212.718,74.5a4.71,4.71,0,0,1,2.272,3.583c0,1.255-1.017,1.684-2.272.96" transform="translate(-200.211 -68.235)" fill="#fcfcfc"/>
            </g>
          </g>
        </g>
        <g id="Grupo_84065" data-name="Grupo 84065" transform="translate(138.892 53.719)" opacity="0.69">
          <g id="Grupo_84064" data-name="Grupo 84064">
            <g id="Grupo_84063" data-name="Grupo 84063" clip-path="url(#clip-path-10)">
              <path id="Trazado_160886" data-name="Trazado 160886" d="M212.718,88.239,202.482,82.33a4.712,4.712,0,0,1-2.271-3.583c0-1.255,1.017-1.684,2.271-.96L212.718,83.7a4.71,4.71,0,0,1,2.272,3.583c0,1.255-1.017,1.684-2.272.96" transform="translate(-200.211 -77.435)" fill="#fcfcfc"/>
            </g>
          </g>
        </g>
        <g id="Grupo_84068" data-name="Grupo 84068" transform="translate(138.762 33.146)" opacity="0.69">
          <g id="Grupo_84067" data-name="Grupo 84067">
            <g id="Grupo_84066" data-name="Grupo 84066" clip-path="url(#clip-path-12)">
              <path id="Trazado_160887" data-name="Trazado 160887" d="M254.383,86.542,204.7,57.859c-2.583-1.492-4.678-4.8-4.678-7.378s2.094-3.469,4.678-1.977l49.681,28.683c2.583,1.492,4.678,4.8,4.678,7.379s-2.094,3.469-4.678,1.977" transform="translate(-200.024 -47.779)" fill="#fcfcfc"/>
            </g>
          </g>
        </g>
        <path id="Trazado_160888" data-name="Trazado 160888" d="M166.014,26.918v12a14.56,14.56,0,0,1-6.588,11.413l-1.539.888-3.657,8.8-3.657-4.579q-.77.441-1.539.888c-3.661,2.112-6.591.37-6.591-3.805v-12a14.567,14.567,0,0,1,6.591-11.415l10.391-6c1.784-1.03,3.4-1.147,4.588-.5.022.011.049.026.071.04,1.193.687,1.929,2.164,1.929,4.264" transform="translate(-43.626 -6.804)" fill="#8140ff"/>
        <path id="Trazado_160889" data-name="Trazado 160889" d="M136.671,52.342c-1.193-.688-1.93-2.167-1.93-4.264v-12a14.563,14.563,0,0,1,6.588-11.413q5.194-3,10.391-6c1.821-1.05,3.468-1.147,4.658-.459q2.642,1.519,5.275,3.045c-1.184-.645-2.8-.528-4.587.5l-10.391,6a14.567,14.567,0,0,0-6.591,11.415v12c0,2.049.7,3.505,1.844,4.213q-2.629-1.516-5.258-3.034" transform="translate(-41.267 -5.441)" fill="#a68efe"/>
        <path id="Trazado_160890" data-name="Trazado 160890" d="M153.288,70.113l3.657,4.579L151.6,71.606l-.291-.368c.362-.177.412-.226,1.981-1.125" transform="translate(-46.341 -21.474)" fill="#a68efe"/>
        <path id="Trazado_160891" data-name="Trazado 160891" d="M158.27,35.5a1.252,1.252,0,0,0-.413.409l-8.348,13.168c-.226.357-.226.731,0,.826L154,51.8c.225.1.6-.12.826-.477l8.348-13.168c.226-.356.226-.731,0-.826l-4.494-1.9a.481.481,0,0,0-.412.068m0,.583,4.494,1.9c0,.072.586-.923-8.348,13.17l-4.494-1.9ZM157.8,38.1c-1.167.674-1.166,2.425,0,1.752s1.165-2.425,0-1.752m0,.583c.122-.07.176-.066.219-.042a.18.18,0,0,1,.073.165c0,.336-.384.574-.511.5s-.114-.434.219-.626m2.037-.888a.631.631,0,0,0-.2.205l-7.006,11.051c-.16.244-.1.491.128.418a.563.563,0,0,0,.284-.244l7.006-11.051c.19-.294.054-.54-.212-.379m-3.789,3.067c-1.171.676-1.164,2.424,0,1.752s1.164-2.423,0-1.752m0,.584c.122-.071.176-.066.219-.042a.18.18,0,0,1,.073.166c0,.335-.384.574-.511.5s-.114-.434.219-.626m4.087-2.359c-1.17.676-1.163,2.423,0,1.752s1.165-2.424,0-1.752m0,.583c.122-.07.176-.066.219-.042a.179.179,0,0,1,.073.165c0,.336-.384.573-.511.5s-.115-.433.219-.626M154.3,43.628c-1.17.676-1.164,2.424,0,1.752s1.165-2.424,0-1.752m0,.584c.122-.071.176-.067.219-.042a.18.18,0,0,1,.073.165c0,.336-.385.573-.511.5s-.114-.434.219-.626m4.087-2.36c-1.17.676-1.165,2.425,0,1.752s1.164-2.424,0-1.752m0,.584c.121-.071.176-.066.219-.042a.18.18,0,0,1,.073.166c0,.334-.382.574-.511.5s-.114-.434.219-.626m-5.839,3.955c-1.169.675-1.164,2.423,0,1.751s1.165-2.424,0-1.751m0,.583c.122-.07.176-.066.219-.042a.178.178,0,0,1,.073.165c0,.334-.383.574-.511.5s-.114-.434.219-.626m4.087-2.359c-1.167.674-1.166,2.425,0,1.752s1.164-2.424,0-1.752m0,.583c.122-.07.176-.066.219-.042a.18.18,0,0,1,.074.165c0,.336-.385.573-.511.5s-.114-.434.219-.626m-1.752,2.179c-1.171.676-1.164,2.424,0,1.752s1.164-2.423,0-1.752m0,.584c.122-.071.176-.066.219-.042a.179.179,0,0,1,.074.166c0,.334-.384.574-.511.5s-.114-.434.219-.626" transform="translate(-45.738 -10.844)" fill="#dcd3fe"/>
        <path id="Trazado_160892" data-name="Trazado 160892" d="M290.575,49.541l.753,3.11c.032.131.028.307-.087.375q-1.16.664-2.316,1.335a.342.342,0,0,0,.068-.363l-.834-3.44c-.04-.16-.019-.351.132-.391l2.181-.57a.159.159,0,0,0,.044-.02l.028-.016.032-.02" transform="translate(-88.249 -15.173)" fill="#f2a305"/>
        <path id="Trazado_160893" data-name="Trazado 160893" d="M291.812,44.613q-1.143.658-2.276,1.312v0l0-.008v0c.135-.18-.028-.642-.311-.805l-2.7-1.559a.8.8,0,0,1-.343-.483l-.834-3.444a.753.753,0,0,0-.45-.53.2.2,0,0,0-.148.019c.77-.446,1.547-.893,2.316-1.335a.193.193,0,0,0,.02-.012.206.206,0,0,1,.148-.02c.2.032.4.323.45.531l.833,3.44a.816.816,0,0,0,.343.486l2.7,1.559c.315.18.483.734.255.853Z" transform="translate(-87.21 -11.557)" fill="#f2a305"/>
        <path id="Trazado_160894" data-name="Trazado 160894" d="M281.007,39.347a.263.263,0,0,1,.255.028l1.383.8-.678,2.017c-.044.127-.171.187-.343.087l-2.7-1.555a.252.252,0,0,0-.247-.032q1.165-.67,2.328-1.344" transform="translate(-85.351 -12.044)" fill="#f2a305"/>
        <path id="Trazado_160895" data-name="Trazado 160895" d="M278.878,40.831l2.7,1.555c.171.1.3.04.343-.087l.678-2.017.155-.463a.206.206,0,0,1,.087-.115.2.2,0,0,1,.148-.02.754.754,0,0,1,.45.53l.834,3.444a.8.8,0,0,0,.343.483l2.7,1.559c.283.164.447.626.311.805v0a.1.1,0,0,1-.016.019h0s0,.008-.008.012l-.028.016a.157.157,0,0,1-.044.019l-2.181.57c-.151.04-.171.231-.131.391l.833,3.441a.342.342,0,0,1-.068.363l-.019.012c-.116.064-.307,0-.467-.227l-2.185-3.09a.692.692,0,0,0-.08-.1.41.41,0,0,0-.343-.148l-2.181.57c-.283.076-.662-.466-.558-.785l.833-2.48a.663.663,0,0,0-.128-.542l-2.185-3.09c-.191-.271-.183-.57-.044-.658,0,0,0,0,.008,0a.252.252,0,0,1,.247.032" transform="translate(-85.303 -12.152)" fill="#f6ba28"/>
        <path id="Trazado_160896" data-name="Trazado 160896" d="M274.237,40.11l.753,3.11c.032.131.028.3-.092.37-.769.447-1.543.893-2.312,1.335.076-.055.112-.179.067-.359l-.833-3.444c-.035-.139-.024-.311.088-.371a.174.174,0,0,1,.04-.019l2.185-.57a.382.382,0,0,0,.068-.032.169.169,0,0,0,.036-.02" transform="translate(-83.246 -12.285)" fill="#f2a305"/>
        <path id="Trazado_160897" data-name="Trazado 160897" d="M269.008,30.182c-.052-.2-.251-.495-.45-.53a.254.254,0,0,0-.148.019c.769-.443,1.547-.889,2.316-1.335l.02-.012a.2.2,0,0,1,.147-.02c.2.036.4.327.451.531l.833,3.444a.8.8,0,0,0,.343.486l2.7,1.555c.323.187.49.742.255.862q-1.136.651-2.273,1.311l0-.016c.136-.179-.028-.642-.311-.805l-2.7-1.559a.818.818,0,0,1-.343-.486Z" transform="translate(-82.206 -8.667)" fill="#f2a305"/>
        <path id="Trazado_160898" data-name="Trazado 160898" d="M264.933,29.94l1.383.8-.678,2.017c-.044.132-.171.191-.343.092l-2.7-1.559a.277.277,0,0,0-.227-.04c.773-.447,1.539-.889,2.308-1.331a.258.258,0,0,1,.255.024" transform="translate(-80.356 -9.155)" fill="#f2a305"/>
        <path id="Trazado_160899" data-name="Trazado 160899" d="M266.414,30.383a.2.2,0,0,1,.087-.116.256.256,0,0,1,.148-.019c.2.035.4.327.451.53l.833,3.444a.815.815,0,0,0,.343.486l2.7,1.559c.283.164.446.626.311.805a.3.3,0,0,1-.032.036.383.383,0,0,1-.068.032l-2.185.57a.193.193,0,0,0-.04.019c-.112.06-.123.232-.087.371l.833,3.444c.044.18.008.3-.068.359l-.019.012c-.116.068-.307,0-.471-.228l-2.18-3.09a1.1,1.1,0,0,0-.08-.1.408.408,0,0,0-.343-.144l-2.185.57c-.279.071-.662-.467-.554-.786l.833-2.484a.661.661,0,0,0-.132-.538l-2.181-3.09c-.191-.271-.187-.574-.044-.658l.028-.016a.281.281,0,0,1,.228.04l2.7,1.559c.171.1.3.04.343-.092l.678-2.017Z" transform="translate(-80.298 -9.263)" fill="#f6ba28"/>
        <path id="Trazado_160900" data-name="Trazado 160900" d="M257.9,30.674l.749,3.11c.032.131.032.307-.087.375l-2.316,1.335a.35.35,0,0,0,.072-.363l-.837-3.441c-.036-.159-.02-.35.131-.391l2.185-.57a.077.077,0,0,0,.04-.02.093.093,0,0,0,.032-.02c.012,0,.02-.012.032-.016" transform="translate(-78.24 -9.395)" fill="#f2a305"/>
        <path id="Trazado_160901" data-name="Trazado 160901" d="M252.071,20.24q1.154-.67,2.316-1.335a.193.193,0,0,1,.02-.012.2.2,0,0,1,.147-.02c.2.032.4.323.451.53l.833,3.441a.787.787,0,0,0,.343.486l2.7,1.559c.319.183.482.737.255.857-.758.438-1.511.877-2.273,1.308l0-.012c.136-.179-.028-.642-.315-.805l-2.7-1.559a.792.792,0,0,1-.343-.482l-.833-3.444c-.052-.2-.251-.495-.45-.531a.187.187,0,0,0-.148.024Z" transform="translate(-77.202 -5.778)" fill="#f2a305"/>
        <path id="Trazado_160902" data-name="Trazado 160902" d="M246,21.824c.773-.447,1.555-.893,2.328-1.344a.261.261,0,0,1,.255.028l1.383.8-.678,2.017c-.044.128-.171.191-.343.087l-2.7-1.555a.252.252,0,0,0-.247-.032" transform="translate(-75.343 -6.266)" fill="#f2a305"/>
        <path id="Trazado_160903" data-name="Trazado 160903" d="M245.988,22.594c-.2-.271-.187-.57-.044-.658,0,0,0,0,.008,0a.253.253,0,0,1,.248.032l2.7,1.555c.171.1.3.04.343-.087l.678-2.017.156-.463a.161.161,0,0,1,.087-.112.187.187,0,0,1,.148-.024c.2.036.4.327.45.53l.833,3.445a.792.792,0,0,0,.343.482l2.7,1.559c.287.164.451.626.315.805a.038.038,0,0,1-.019.024s-.008.008-.008.008l-.032.02a.076.076,0,0,1-.04.019l-2.185.57c-.151.04-.167.231-.131.391l.837,3.441a.349.349,0,0,1-.071.363l-.02.012c-.115.064-.307,0-.466-.228l-2.181-3.089a.854.854,0,0,0-.08-.1.413.413,0,0,0-.343-.148l-2.185.57c-.279.076-.662-.466-.554-.785l.833-2.48a.678.678,0,0,0-.131-.542Z" transform="translate(-75.293 -6.374)" fill="#f6ba28"/>
        <path id="Trazado_160904" data-name="Trazado 160904" d="M241.555,21.243l.753,3.11c.032.131.028.3-.087.37q-1.154.67-2.316,1.335c.076-.056.112-.179.068-.359l-.834-3.444c-.035-.155-.019-.351.132-.391l2.181-.57a.276.276,0,0,0,.067-.032.156.156,0,0,0,.036-.02" transform="translate(-73.237 -6.506)" fill="#f2a305"/>
        <path id="Trazado_160905" data-name="Trazado 160905" d="M238.049,9.469l.02-.012a.227.227,0,0,1,.147-.02c.2.036.4.327.451.53l.833,3.445a.8.8,0,0,0,.343.486l2.7,1.555c.315.184.482.737.255.857v0q-1.136.652-2.277,1.312l0-.016c.139-.183-.024-.642-.311-.805l-2.7-1.559a.8.8,0,0,1-.343-.486l-.833-3.444c-.052-.2-.251-.495-.45-.53a.212.212,0,0,0-.144.024l0,0,2.316-1.335" transform="translate(-72.198 -2.889)" fill="#f2a305"/>
        <path id="Trazado_160906" data-name="Trazado 160906" d="M229.861,12.528l2.7,1.559a.235.235,0,0,0,.251.024c.008,0,.019-.012.028-.015a.22.22,0,0,0,.064-.1l.678-2.017.155-.463a.166.166,0,0,1,.092-.112.214.214,0,0,1,.144-.024c.2.036.4.327.451.53l.833,3.444a.8.8,0,0,0,.343.487l2.7,1.559c.287.163.45.622.311.805a.245.245,0,0,1-.032.035.238.238,0,0,1-.068.032l-2.18.57c-.152.04-.168.235-.132.391l.833,3.445c.044.179.008.3-.067.359l-.02.012c-.116.068-.307,0-.467-.227l-2.18-3.09a.667.667,0,0,0-.084-.1.4.4,0,0,0-.343-.144l-2.181.57c-.279.071-.662-.466-.554-.785l.833-2.48a.681.681,0,0,0-.132-.542l-2.181-3.09c-.191-.271-.187-.574-.044-.658l.028-.016a.278.278,0,0,1,.228.04" transform="translate(-70.29 -3.484)" fill="#f6ba28"/>
        <path id="Trazado_160907" data-name="Trazado 160907" d="M229.92,12.42a.278.278,0,0,0-.228-.04q1.155-.67,2.309-1.332a.254.254,0,0,1,.255.024l1.383.8-.678,2.017a.22.22,0,0,1-.064.1c-.008,0-.02.012-.028.015a.235.235,0,0,1-.251-.024Z" transform="translate(-70.348 -3.376)" fill="#f2a305"/>
        <path id="Trazado_160908" data-name="Trazado 160908" d="M225.113,11.862a.14.14,0,0,0,.044-.02l.028-.016.032-.02.753,3.11c.032.132.028.307-.088.375-.769.443-1.547.889-2.316,1.336a.342.342,0,0,0,.068-.363l-.833-3.441c-.036-.16-.02-.351.132-.391Z" transform="translate(-68.232 -3.616)" fill="#f2a305"/>
        <path id="Trazado_160909" data-name="Trazado 160909" d="M224.174,8.175c.135-.18-.028-.642-.311-.805l-2.7-1.555a.815.815,0,0,1-.343-.486l-.834-3.445c-.051-.2-.251-.494-.45-.53a.206.206,0,0,0-.148.02c.773-.447,1.547-.9,2.321-1.34,0,0,.008,0,.012-.008a.2.2,0,0,1,.148-.019c.2.032.4.323.45.53l.834,3.441a.8.8,0,0,0,.347.486L226.2,6.022c.315.183.483.737.255.857-.758.438-1.519.878-2.276,1.312l0-.012Z" transform="translate(-67.194 0)" fill="#f2a305"/>
        <path id="Trazado_160910" data-name="Trazado 160910" d="M215.91,1.641l1.379.8-.677,2.017c-.044.128-.168.187-.343.088l-2.7-1.555a.269.269,0,0,0-.243-.035c.774-.443,1.547-.894,2.324-1.34a.26.26,0,0,1,.255.028" transform="translate(-65.337 -0.487)" fill="#f2a305"/>
        <path id="Trazado_160911" data-name="Trazado 160911" d="M213.523,3.1l2.7,1.555c.176.1.3.04.343-.087l.678-2.017.155-.463a.2.2,0,0,1,.092-.115.206.206,0,0,1,.148-.02c.2.036.4.327.45.53l.834,3.445a.815.815,0,0,0,.343.486l2.7,1.555c.283.164.446.626.311.805v0a.123.123,0,0,1-.028.032c-.008,0-.02.012-.028.016a.152.152,0,0,1-.044.019l-2.18.57c-.152.04-.168.231-.132.391l.833,3.441a.341.341,0,0,1-.068.363l-.019.012c-.116.064-.307,0-.467-.227l-2.18-3.09a.967.967,0,0,0-.084-.1.409.409,0,0,0-.343-.148l-2.181.57c-.283.076-.662-.466-.554-.785l.833-2.48a.681.681,0,0,0-.132-.542l-2.181-3.09c-.195-.271-.187-.578-.044-.658,0,0,.008,0,.012-.008a.272.272,0,0,1,.243.036" transform="translate(-65.285 -0.595)" fill="#f6ba28"/>
        <g id="Grupo_84071" data-name="Grupo 84071" transform="translate(126.683 104.086)" style="mix-blend-mode: multiply;isolation: isolate">
          <g id="Grupo_84070" data-name="Grupo 84070">
            <g id="Grupo_84069" data-name="Grupo 84069" clip-path="url(#clip-path-27)">
              <path id="Trazado_160912" data-name="Trazado 160912" d="M205.145,151.68c-.11,1.977-2.036,4.62-2.036,4.62-.9-.593-3.861-.448-6.26.289-4.137,1.271-8.1,4.215-10.946,6.709a20.03,20.03,0,0,0-1.07,3.236,41.737,41.737,0,0,0-1.089,4.613c1.693,6.32,3.822,6.521,2.49,8.831-2.47-1.485-4.19-6.757-3.448-13.292s1.145-9.338,9.3-14.249,13.063-.756,13.063-.756" transform="translate(-182.612 -150.038)" fill="#b0a7c2"/>
            </g>
          </g>
        </g>
        <g id="Grupo_84074" data-name="Grupo 84074" transform="translate(148.71 105.728)" style="mix-blend-mode: multiply;isolation: isolate">
          <g id="Grupo_84073" data-name="Grupo 84073">
            <g id="Grupo_84072" data-name="Grupo 84072" clip-path="url(#clip-path-28)">
              <path id="Trazado_160913" data-name="Trazado 160913" d="M214.363,154.347a10.829,10.829,0,0,0,.506-1.942,7.338,7.338,0,0,1-.506,1.942" transform="translate(-214.363 -152.405)" fill="#b0a7c2"/>
            </g>
          </g>
        </g>
        <g id="Grupo_84077" data-name="Grupo 84077" transform="translate(135.453 118.687)" style="mix-blend-mode: multiply;isolation: isolate">
          <g id="Grupo_84076" data-name="Grupo 84076">
            <g id="Grupo_84075" data-name="Grupo 84075" clip-path="url(#clip-path-29)">
              <path id="Trazado_160914" data-name="Trazado 160914" d="M205.1,176.857c-2.49,2.706-5.057,4.523-8.013,3.746a4.176,4.176,0,0,1-1.79-2.081l-.042-.125s3.6,4.167,7.818-1.881c1.246-1.788-4.626-5.23-4.765-5.431a20.072,20.072,0,0,1,4.478,3.053,19.271,19.271,0,0,1,2.314,2.719" transform="translate(-195.253 -171.085)" fill="#b0a7c2"/>
            </g>
          </g>
        </g>
        <path id="Trazado_160915" data-name="Trazado 160915" d="M209.824,174.874h-2.1v2.271a26.99,26.99,0,0,0-7.838-7.483c-.139-.083-1.057-.625-1.155-.681v-3.515c.04.024,2.566,1.495,2.665,1.55v.01a29.8,29.8,0,0,1,8.431,7.848" transform="translate(-60.865 -50.677)" fill="#8140ff"/>
        <g id="Grupo_84080" data-name="Grupo 84080" transform="translate(144.471 86.659)" style="mix-blend-mode: multiply;isolation: isolate">
          <g id="Grupo_84079" data-name="Grupo 84079">
            <g id="Grupo_84078" data-name="Grupo 84078" clip-path="url(#clip-path-30)">
              <path id="Trazado_160916" data-name="Trazado 160916" d="M241.965,124.917c.848,3.835-10.934,4.825-16.063,7.535a2.734,2.734,0,0,0-1.316,2.969l-.031-.009-1.27,7.5-3.059,3.968c-3.066,3.968-5.2,3.781-6.674,4.932a64.711,64.711,0,0,0-5.3,5.744L210.57,161c2.518-3.045,5.016-6.66,7.818-9a24.262,24.262,0,0,1,3.483-2.345,19.809,19.809,0,0,0,2.282-3.156,10.835,10.835,0,0,0,1.4-8.1h0s12.27,30.906,12.695,31.7,11.37,18.1,17.421-2.292-13.707-42.893-13.707-42.893" transform="translate(-208.253 -124.917)" fill="#b0a7c2"/>
            </g>
          </g>
        </g>
        <g id="Grupo_84083" data-name="Grupo 84083" transform="translate(118.782 115.273)" style="mix-blend-mode: multiply;isolation: isolate">
          <g id="Grupo_84082" data-name="Grupo 84082">
            <g id="Grupo_84081" data-name="Grupo 84081" clip-path="url(#clip-path-31)">
              <path id="Trazado_160917" data-name="Trazado 160917" d="M175.961,193.644c-1.422,1.887-3.025,2.393-4.738.791.18.139,1.568,1.1,2.227-1.79.715-3.1-1.949-23.018,1.415-26.48-1,8.935-1.547,9.671-.43,13.451.687,1.387,1.45,2.844,2.178,4.031a44.671,44.671,0,0,1-.652,10" transform="translate(-171.223 -166.165)" fill="#b0a7c2"/>
            </g>
          </g>
        </g>
        <path id="Trazado_160918" data-name="Trazado 160918" d="M136.471,328.685,81.6,360.361,41.4,337.149C54.5,329.59,88.774,309.8,96.271,305.473c6.008,3.47,16.638,9.612,40.2,23.212" transform="translate(-12.681 -93.558)" fill="#a68efe"/>
        <path id="Trazado_160919" data-name="Trazado 160919" d="M165.969,327.633l-2.6,2.6-14.181-8.183Z" transform="translate(-45.691 -98.633)" fill="#ff73b5"/>
        <path id="Trazado_160920" data-name="Trazado 160920" d="M169.627,332.694l2.6-2.6v.835L170.155,333Z" transform="translate(-51.952 -101.1)" fill="#d2448d"/>
        <path id="Trazado_160921" data-name="Trazado 160921" d="M131.381,360.766l-17.522,17.522-8.142-2.7Z" transform="translate(-32.378 -110.492)" fill="#ff73b5"/>
        <path id="Trazado_160922" data-name="Trazado 160922" d="M117.453,377.787l17.522-17.522,1.965-1.136-19.488,19.494Z" transform="translate(-35.972 -109.991)" fill="#d2448d"/>
        <path id="Trazado_160923" data-name="Trazado 160923" d="M102.75,308.851,79.976,322l15.55-15.557Z" transform="translate(-24.494 -93.854)" fill="#ff73b5"/>
        <path id="Trazado_160924" data-name="Trazado 160924" d="M99.351,370.609l54.867-31.676v.836L99.351,371.444Z" transform="translate(-30.428 -103.805)" fill="#8140ff"/>
        <path id="Trazado_160925" data-name="Trazado 160925" d="M66.679,367.725l-20.213-6.738,3.122-3.122Z" transform="translate(-14.231 -109.604)" fill="#ff73b5"/>
        <path id="Trazado_160926" data-name="Trazado 160926" d="M46.466,362.365,66.679,369.1l3.4,1.972L46.466,363.2Z" transform="translate(-14.231 -110.982)" fill="#d2448d"/>
        <path id="Trazado_160927" data-name="Trazado 160927" d="M41.4,351.133l40.2,23.212v.835L41.4,351.968Z" transform="translate(-12.681 -107.542)" fill="#8140ff"/>
        <path id="Trazado_160928" data-name="Trazado 160928" d="M95.456,351.659a6.906,6.906,0,0,0-6.261,0c-1.732,1-1.732,2.614,0,3.614a6.906,6.906,0,0,0,6.261,0c1.732-1,1.732-2.615,0-3.614M94.2,354.55a4.132,4.132,0,0,1-3.757,0,1.142,1.142,0,0,1,0-2.169,4.127,4.127,0,0,1,3.757,0,1.142,1.142,0,0,1,0,2.169" transform="translate(-26.92 -107.473)" fill="#fbfafc"/>
        <path id="Trazado_160929" data-name="Trazado 160929" d="M115.814,335.526a3.84,3.84,0,0,0-1.732-.446,1.393,1.393,0,0,0-.772-1,4.117,4.117,0,0,0-3.715,0l-8.576,4.951a.623.623,0,0,0-.067.058l-5.358,3.075-6.19-3.574-.013,0-.5-.287a3.7,3.7,0,0,0-3.339,0,1.019,1.019,0,0,0,0,1.928l11.279,6.512h0l8.337,4.813a3.7,3.7,0,0,0,3.339,0,1.019,1.019,0,0,0,0-1.927l-6.678-3.856,6.511-3.759,7.471-4.314a1.142,1.142,0,0,0,0-2.169m-1.251,1.421-7.454,4.327-7.154,4.13c-.355.2-.355.518,0,.723l7.3,4.217a.255.255,0,0,1,0,.482.926.926,0,0,1-.835,0l-4.273-2.467L86.806,339.5a.255.255,0,0,1,0-.482.926.926,0,0,1,.835,0l1.252.723.012,0,6.063,3.5a1.35,1.35,0,0,0,1.251,0l7.555-4.337a.593.593,0,0,0,.088-.075l6.985-4.033a1.337,1.337,0,0,1,1.21,0,.369.369,0,0,1,0,.7l-8.7,5.024c-.355.205-.355.518,0,.723a1.35,1.35,0,0,0,1.252,0l8.7-5.024a1.352,1.352,0,0,1,1.252,0c.355.2.355.518,0,.723" transform="translate(-25.992 -102.183)" fill="#fbfafc"/>
      </g>
    </g>
  </g>
</svg>
