<svg xmlns="http://www.w3.org/2000/svg" xmlns:xlink="http://www.w3.org/1999/xlink" width="400" height="274.5" viewBox="0 0 400 274.5">
  <defs>
    <clipPath id="clip-path">
      <rect id="Rectángulo_35291" data-name="Rectángulo 35291" width="274.5" height="274.5" fill="#e5dff9"/>
    </clipPath>
    <clipPath id="clip-path-2">
      <rect id="Rectángulo_35264" data-name="Rectángulo 35264" width="274.5" height="274.5" fill="none"/>
    </clipPath>
    <clipPath id="clip-path-4">
      <path id="Trazado_160698" data-name="Trazado 160698" d="M22.93,102.129a78.852,78.852,0,1,0,78.852-78.852A78.852,78.852,0,0,0,22.93,102.129" transform="translate(-22.93 -23.277)" fill="none"/>
    </clipPath>
    <clipPath id="clip-path-5">
      <rect id="Rectángulo_35278" data-name="Rectángulo 35278" width="12.104" height="16.966" fill="none"/>
    </clipPath>
    <clipPath id="clip-path-7">
      <path id="Trazado_160723" data-name="Trazado 160723" d="M183.8,256.19a78.852,78.852,0,1,0,78.851-78.852A78.851,78.851,0,0,0,183.8,256.19" transform="translate(-183.8 -177.338)" fill="none"/>
    </clipPath>
    <clipPath id="clip-path-8">
      <rect id="Rectángulo_35280" data-name="Rectángulo 35280" width="10.65" height="14.928" fill="none"/>
    </clipPath>
  </defs>
  <g id="Grupo_83996" data-name="Grupo 83996" transform="translate(-1020 -2573.5)">
    <path id="Rectángulo_35259" data-name="Rectángulo 35259" d="M54,0H400a0,0,0,0,1,0,0V109a0,0,0,0,1,0,0H0a0,0,0,0,1,0,0V54A54,54,0,0,1,54,0Z" transform="translate(1020 2739)" fill="#00bcd4" opacity="0.2"/>
    <g id="Grupo_83995" data-name="Grupo 83995" transform="translate(1080.5 2573.5)">
      <g id="Grupo_83994" data-name="Grupo 83994" clip-path="url(#clip-path)">
        <g id="Grupo_83975" data-name="Grupo 83975">
          <g id="Grupo_83974" data-name="Grupo 83974" clip-path="url(#clip-path-2)">
            <path id="Trazado_160663" data-name="Trazado 160663" d="M274.5,137.25A137.25,137.25,0,1,1,137.25,0,137.25,137.25,0,0,1,274.5,137.25" transform="translate(0 0)" fill="#e5dff9"/>
          </g>
        </g>
        <g id="Grupo_83977" data-name="Grupo 83977">
          <g id="Grupo_83976" data-name="Grupo 83976" clip-path="url(#clip-path-2)">
            <path id="Trazado_160664" data-name="Trazado 160664" d="M26.29,365.627H136.33a6.227,6.227,0,0,0,6.227-6.226V282H20.064v77.4a6.226,6.226,0,0,0,6.226,6.226" transform="translate(-8.569 -120.44)" fill="#3459cc"/>
            <path id="Trazado_160665" data-name="Trazado 160665" d="M26.29,363.2H136.33a6.227,6.227,0,0,0,6.227-6.227v-77.4H20.064v77.4A6.226,6.226,0,0,0,26.29,363.2" transform="translate(-8.569 -119.402)" fill="#8ea6ff"/>
            <path id="Trazado_160666" data-name="Trazado 160666" d="M20.064,273.216H142.557v-2.3a6.227,6.227,0,0,0-6.226-6.227H26.29a6.227,6.227,0,0,0-6.226,6.227Z" transform="translate(-8.569 -113.044)" fill="#3459cc"/>
            <path id="Trazado_160667" data-name="Trazado 160667" d="M37.257,270.293a2.78,2.78,0,1,1-2.78-2.78,2.781,2.781,0,0,1,2.78,2.78" transform="translate(-13.537 -114.251)" fill="#fdffff"/>
            <path id="Trazado_160668" data-name="Trazado 160668" d="M50.43,270.293a2.78,2.78,0,1,1-2.78-2.78,2.781,2.781,0,0,1,2.78,2.78" transform="translate(-19.163 -114.251)" fill="#e2654d"/>
            <path id="Trazado_160669" data-name="Trazado 160669" d="M63.6,270.293a2.78,2.78,0,1,1-2.78-2.78,2.781,2.781,0,0,1,2.78,2.78" transform="translate(-24.789 -114.251)" fill="#8ea6ff"/>
            <rect id="Rectángulo_35265" data-name="Rectángulo 35265" width="38.058" height="70.972" transform="translate(19.118 165.581)" fill="#3459cc"/>
            <rect id="Rectángulo_35266" data-name="Rectángulo 35266" width="64.457" height="41.143" transform="translate(63.004 195.41)" fill="#fdffff"/>
            <rect id="Rectángulo_35267" data-name="Rectángulo 35267" width="64.457" height="2.215" transform="translate(63.004 165.581)" fill="#fdffff"/>
            <rect id="Rectángulo_35268" data-name="Rectángulo 35268" width="64.457" height="2.215" transform="translate(63.004 170.195)" fill="#fdffff"/>
            <rect id="Rectángulo_35269" data-name="Rectángulo 35269" width="64.457" height="2.215" transform="translate(63.004 174.808)" fill="#fdffff"/>
            <rect id="Rectángulo_35270" data-name="Rectángulo 35270" width="64.457" height="2.215" transform="translate(63.004 179.422)" fill="#fdffff"/>
            <rect id="Rectángulo_35271" data-name="Rectángulo 35271" width="64.457" height="2.215" transform="translate(63.004 184.036)" fill="#fdffff"/>
            <rect id="Rectángulo_35272" data-name="Rectángulo 35272" width="64.457" height="2.215" transform="translate(63.004 188.649)" fill="#fdffff"/>
            <rect id="Rectángulo_35273" data-name="Rectángulo 35273" width="79.757" height="40.555" transform="translate(71.018 228.738) rotate(-10.818)" fill="#81d4fa"/>
            <path id="Trazado_160670" data-name="Trazado 160670" d="M202.3,373.125l-78.34,14.969,42.975,12.432Z" transform="translate(-52.942 -159.356)" fill="#b29eee"/>
            <rect id="Rectángulo_35274" data-name="Rectángulo 35274" width="24.075" height="2.229" transform="translate(83.659 260.5) rotate(-10.818)" fill="#b29eee"/>
            <rect id="Rectángulo_35275" data-name="Rectángulo 35275" width="24.075" height="2.229" transform="translate(82.78 255.902) rotate(-10.818)" fill="#b29eee"/>
            <rect id="Rectángulo_35276" data-name="Rectángulo 35276" width="24.075" height="2.229" transform="translate(81.902 251.304) rotate(-10.818)" fill="#b29eee"/>
            <path id="Trazado_160671" data-name="Trazado 160671" d="M202.3,373.125l-35.364,27.4L123.96,388.095l43.945,16.248Z" transform="translate(-52.942 -159.356)" fill="#47b1e2"/>
            <path id="Trazado_160672" data-name="Trazado 160672" d="M180.633,102.129a78.852,78.852,0,1,1-78.851-78.851,78.851,78.851,0,0,1,78.851,78.851" transform="translate(-9.793 -9.942)" fill="#7e5ee3"/>
          </g>
        </g>
        <g id="Grupo_83982" data-name="Grupo 83982" transform="translate(13.137 13.336)">
          <g id="Grupo_83981" data-name="Grupo 83981" clip-path="url(#clip-path-4)">
            <path id="Trazado_160673" data-name="Trazado 160673" d="M207.008,177.6a3.8,3.8,0,0,1-.667,1.72,1.655,1.655,0,0,1-1.639.649,2.319,2.319,0,0,1-1.255-1.162,12.961,12.961,0,0,1-1.826-5.684c-.1-1.216-.405-4.061,1.191-4.406,1.563-.337,2.928,1.805,3.474,2.922a9.719,9.719,0,0,1,.722,5.961" transform="translate(-99.208 -85.378)" fill="#e2654d"/>
            <path id="Trazado_160674" data-name="Trazado 160674" d="M133.756,91.236l40.423,8.071a27.93,27.93,0,0,1,1.852,6.35,55.813,55.813,0,0,1,.541,8.389c.021,1.448.2,4.8.221,6.244l8.047,12.1a11.165,11.165,0,0,1-9.03,3.152s-.092,1.612-.5,5.126c-1.794.553-7.479-3.763-7.479-3.763s-.42,7.455,6.511,9.871c-1.064,5.647-2.811,11.061-6.137,13.2-6.859,4.421-19.662-1.067-19.662-1.067a63.15,63.15,0,0,0-1.825,9.085c-9.1-1.9-18.733-1.064-27.166-4.965,2.655-12.71,14.207-71.793,14.207-71.793" transform="translate(-64.195 -52.301)" fill="#e8bbc7"/>
            <path id="Trazado_160675" data-name="Trazado 160675" d="M118.541,209.972a122.455,122.455,0,0,0,26.411,8.733c-.5,3.507-.722,6.77-.163,8.334.873,2.444,4.544,7.737,7.866,13.389a92.1,92.1,0,0,1-37.236-22.261,25.926,25.926,0,0,0,2.7-6.217c.091-.4.236-1.07.426-1.978" transform="translate(-62.431 -103.012)" fill="#e8bbc7"/>
            <path id="Trazado_160676" data-name="Trazado 160676" d="M114,224.275a92.1,92.1,0,0,0,37.236,22.262c.874,1.486,1.722,3,2.49,4.486a92.015,92.015,0,0,1-41.63-23.459c.686-1.149,1.327-2.246,1.9-3.289" transform="translate(-61.012 -109.12)" fill="#fdffff"/>
            <path id="Trazado_160677" data-name="Trazado 160677" d="M146.9,277.21H79.687s3.2-17.528,8.535-29.264c3.067-6.748,6.99-12.839,10.032-17.929a92.012,92.012,0,0,0,41.63,23.459c5.387,10.209,7.019,23.735,7.019,23.735" transform="translate(-47.17 -111.572)" fill="#0e1165"/>
            <path id="Trazado_160678" data-name="Trazado 160678" d="M205.067,139.566a3.475,3.475,0,1,1-3.475-3.475,3.475,3.475,0,0,1,3.475,3.475" transform="translate(-97.75 -71.458)" fill="#0e1165"/>
            <path id="Trazado_160679" data-name="Trazado 160679" d="M190.618,130.541a13.679,13.679,0,0,1,5.324-7.291,7.777,7.777,0,0,1,4.607-1.632,5.513,5.513,0,0,1,4.367,2.147l-.132.257a25.378,25.378,0,0,0-4.059.481,21.163,21.163,0,0,0-3.672.775,15.325,15.325,0,0,0-6.177,5.392l-.258-.129" transform="translate(-94.547 -65.273)" fill="#0e1165"/>
            <path id="Trazado_160680" data-name="Trazado 160680" d="M160.35,197.421A42.555,42.555,0,0,1,147.2,181.407a77.251,77.251,0,0,0,11.716,21.988" transform="translate(-76.004 -90.812)" fill="#0e1165"/>
            <path id="Trazado_160681" data-name="Trazado 160681" d="M146.869,289.415a.848.848,0,0,1-.844-.775,45.5,45.5,0,0,0-5.041-17.743,32.763,32.763,0,0,0-12.562-13.168.848.848,0,0,1,.834-1.477,34.451,34.451,0,0,1,13.222,13.841,47.158,47.158,0,0,1,5.237,18.4.847.847,0,0,1-.772.918c-.025,0-.05,0-.074,0" transform="translate(-67.8 -122.73)" fill="#fdffff"/>
            <path id="Trazado_160682" data-name="Trazado 160682" d="M111.989,106.932c5.287-1.335,13.992-5.362,15.822-10.5s1.669-10.791.7-16.157a18.366,18.366,0,0,0,6.135,5.417c.731.384,1.834.613,2.212-.121a1.573,1.573,0,0,0-.056-1.2,13.972,13.972,0,0,0-3.23-5.266,24.4,24.4,0,0,0,12.664,4.7,68.483,68.483,0,0,0,13.259-.222,19.452,19.452,0,0,1,1.137,5.912c6.812-4.531,11.1-14.467,7.736-21.927a24.372,24.372,0,0,0-6.912-8.528A44.64,44.64,0,0,0,138.031,49.4a57.657,57.657,0,0,0-25.286,3.122c.976-.937,4.386-5.564-.237-5.8s-8.56,6.288-10.022,9.021c-.225-.952-9.135-2.168-13.38.4-.539.326-1.132.81-1.055,1.435a1.626,1.626,0,0,0,.688.973,13.716,13.716,0,0,0,6.924,2.985c-6.945,3.311-11.155,10.79-12.505,18.364A36.721,36.721,0,0,0,87.1,103.817a13.959,13.959,0,0,0,4.422,5.239,1.152,1.152,0,0,0,1,.238c.422-.168.513-.715.541-1.169l.165-2.688c1.162,9.614,4.178,22.241,12.683,26.873" transform="translate(-48.416 -33.284)" fill="#0e1165"/>
            <path id="Trazado_160683" data-name="Trazado 160683" d="M122.214,139.415a15.071,15.071,0,0,0,6.6,10.7,8.385,8.385,0,0,0,3.822,1.513c3.138.285,6.069-2.132,7.132-5s.62-6.037-.229-8.949c-1.1-3.764-3.322-7.737-7.259-8.716-6.347-1.578-10.657,5.162-10.064,10.448" transform="translate(-65.31 -68.316)" fill="#e8bbc7"/>
            <g id="Grupo_83980" data-name="Grupo 83980" transform="translate(59.052 63.264)" style="mix-blend-mode: multiply;isolation: isolate">
              <g id="Grupo_83979" data-name="Grupo 83979">
                <g id="Grupo_83978" data-name="Grupo 83978" clip-path="url(#clip-path-5)">
                  <path id="Trazado_160684" data-name="Trazado 160684" d="M138.107,150.142a7.638,7.638,0,0,1-3.492-2.3,1.476,1.476,0,0,1-.395-.725c-.07-.526.37-.98.774-1.346l2.456-2.221a1.283,1.283,0,0,0,.4-.509,1.219,1.219,0,0,0-.049-.7c-.793-2.9-1.743-6.023-4.261-7.776a4.45,4.45,0,0,0-2.318-.863,4.394,4.394,0,0,0-3.286,1.532,11.23,11.23,0,0,0-1.86,3.143s-.884,6.149,3.432,9.956a8.157,8.157,0,0,0,8.6,1.807" transform="translate(-126.003 -133.701)" fill="#e8bbc7"/>
                </g>
              </g>
            </g>
            <path id="Trazado_160685" data-name="Trazado 160685" d="M126.133,137.992c2.026-7.468,8.635-6.39,11.221.07a28.971,28.971,0,0,1,1.164,3.7,1.666,1.666,0,0,1-.178,1.475,26.544,26.544,0,0,1-2.245,1.963,8.058,8.058,0,0,0-1.274,1.159.475.475,0,0,0-.07.492,7.74,7.74,0,0,0,3.412,2.9c-1.392-.2-5.114-2-4.182-3.841a6.919,6.919,0,0,1,1.354-1.551c.449-.446.9-.889,1.36-1.323a6.43,6.43,0,0,0,.57-.572.934.934,0,0,0-.072-.341c-.687-2.305-1.373-4.737-2.989-6.518-3.195-3.564-6.253-1.075-8.07,2.384" transform="translate(-67.006 -70.051)" fill="#0e1165"/>
            <path id="Trazado_160686" data-name="Trazado 160686" d="M115.994,134.235c.962,10.141,8.684,17.7,17.247,16.891s14.726-9.691,13.764-19.832-8.684-17.7-17.247-16.891-14.726,9.691-13.764,19.832" transform="translate(-62.634 -62.17)" fill="#fdffff"/>
            <path id="Trazado_160687" data-name="Trazado 160687" d="M111.83,134.034c.962,10.141,8.684,17.7,17.247,16.891s14.726-9.691,13.764-19.832-8.684-17.7-17.247-16.891-14.726,9.691-13.764,19.832" transform="translate(-60.856 -62.084)" fill="#8ea6ff"/>
            <path id="Trazado_160688" data-name="Trazado 160688" d="M118.81,136.965c.716,7.549,6.464,13.178,12.838,12.573s10.962-7.214,10.246-14.763S135.431,121.6,129.056,122.2s-10.962,7.214-10.246,14.763" transform="translate(-63.848 -65.507)" fill="#0e1165"/>
            <path id="Trazado_160689" data-name="Trazado 160689" d="M116.783,137.157c.716,7.549,6.464,13.178,12.838,12.573s10.962-7.214,10.246-14.763-6.464-13.178-12.838-12.573-10.962,7.214-10.246,14.763" transform="translate(-62.982 -65.589)" fill="#e8bbc7"/>
            <path id="Trazado_160690" data-name="Trazado 160690" d="M119.334,138.113c.6,6.349,5.437,11.084,10.8,10.575s9.22-6.068,8.618-12.417-5.437-11.084-10.8-10.575-9.22,6.068-8.618,12.417" transform="translate(-64.076 -67.003)" fill="#0e1165"/>
            <path id="Trazado_160691" data-name="Trazado 160691" d="M184.929,187.946a56.5,56.5,0,0,1-9.394-.69c-4.6-.775-11.086-2.735-15.85-7.675a41.444,41.444,0,0,1-4.8-6.461l1.875-1.212a39.82,39.82,0,0,0,4.532,6.123c4.343,4.5,10.345,6.3,14.614,7.024,5.562.937,11.34.673,16.928.419l.1,2.23c-2.637.12-5.316.242-8.006.242" transform="translate(-79.286 -86.755)" fill="#fdffff"/>
            <path id="Trazado_160692" data-name="Trazado 160692" d="M208.731,195.023c0,1.917,2.646,3.471,5.911,3.471s5.911-1.554,5.911-3.471-2.646-3.471-5.911-3.471-5.911,1.554-5.911,3.471" transform="translate(-102.283 -95.145)" fill="#3459cc"/>
            <path id="Trazado_160693" data-name="Trazado 160693" d="M137.2,87.017a1.116,1.116,0,0,1-1.113-1.043,40.687,40.687,0,0,1,5.071-23A31.364,31.364,0,0,1,159.605,48.4a1.116,1.116,0,1,1,.587,2.153,29.118,29.118,0,0,0-17.1,13.548,38.434,38.434,0,0,0-4.77,21.729,1.116,1.116,0,0,1-1.041,1.187l-.074,0" transform="translate(-71.219 -33.989)" fill="#fdffff"/>
            <path id="Trazado_160694" data-name="Trazado 160694" d="M177.543,84.908a46.916,46.916,0,0,1-39.514-21.373.349.349,0,0,1,.586-.38,46.285,46.285,0,0,0,46.343,20.455.349.349,0,0,1,.113.689,46.405,46.405,0,0,1-7.528.61" transform="translate(-72.063 -40.24)" fill="#fff"/>
            <path id="Trazado_160695" data-name="Trazado 160695" d="M179.159,70.749a44.982,44.982,0,0,1-13.4-1.848,28.914,28.914,0,0,1-14.644-9.842.349.349,0,1,1,.558-.419,28.21,28.21,0,0,0,14.292,9.594,48.2,48.2,0,0,0,17.414,1.679.349.349,0,0,1,.044.7q-2.2.14-4.268.14" transform="translate(-77.648 -38.32)" fill="#fff"/>
            <path id="Trazado_160696" data-name="Trazado 160696" d="M102.245,110.58a.35.35,0,0,1-.343-.284,26.446,26.446,0,0,1,.768-12.728,7.779,7.779,0,0,1-1.549,1.183,2.524,2.524,0,0,1-1.464.418c-1.4-.135-1.9-1.795-1.771-3.38A27.22,27.22,0,0,1,105.314,79.2a.349.349,0,1,1,.5.482,26.52,26.52,0,0,0-7.237,16.166c-.069.865.081,2.528,1.143,2.63a1.9,1.9,0,0,0,1.047-.327,7.191,7.191,0,0,0,2.733-2.85l.631.3a25.691,25.691,0,0,0-1.548,14.573.349.349,0,0,1-.278.408.36.36,0,0,1-.065.006" transform="translate(-54.934 -47.113)" fill="#fff"/>
            <path id="Trazado_160697" data-name="Trazado 160697" d="M123.018,94.87a.348.348,0,0,1-.348-.339,30.092,30.092,0,0,1,3.784-15.5.349.349,0,1,1,.61.339,29.4,29.4,0,0,0-3.7,15.137.349.349,0,0,1-.339.359h-.01" transform="translate(-65.522 -47.014)" fill="#fff"/>
          </g>
        </g>
        <g id="Grupo_83984" data-name="Grupo 83984">
          <g id="Grupo_83983" data-name="Grupo 83983" clip-path="url(#clip-path-2)">
            <path id="Trazado_160699" data-name="Trazado 160699" d="M105.788,179.613a73.479,73.479,0,1,1,73.479-73.479,73.562,73.562,0,0,1-73.479,73.479m0-145.827a72.348,72.348,0,1,0,72.348,72.348,72.43,72.43,0,0,0-72.348-72.348" transform="translate(-13.799 -13.946)" fill="#fdffff"/>
            <path id="Trazado_160700" data-name="Trazado 160700" d="M341.5,256.19a78.852,78.852,0,1,1-78.851-78.851A78.851,78.851,0,0,1,341.5,256.19" transform="translate(-78.498 -75.739)" fill="#00bcd4"/>
          </g>
        </g>
        <g id="Grupo_83989" data-name="Grupo 83989" transform="translate(105.302 101.6)">
          <g id="Grupo_83988" data-name="Grupo 83988" clip-path="url(#clip-path-7)">
            <path id="Trazado_160701" data-name="Trazado 160701" d="M265.223,409.31s-2.835-37.53-3.348-39.571-.529-6.98-6-11.681a138.7,138.7,0,0,1-10.237-9.468c-2.266-2.343-4.685-6.107-6.037-5.03s-1.306,4.39.477,6.9,3.883,4.37,4.8,5.75,3.042,4.936,3.042,4.936-7.886-5.4-11.3-9.509-3.429-5.723-4.274-8.22-.866-7.711-1.961-8.109-1.449.422-1.449.422.121-1.675-.973-1.536-2.419,9.014-1.282,15.787,6.678,12.619,9.536,14.722,10.86,7.91,11.687,9.571-1.462,34.884-1.462,34.884Z" transform="translate(-201.926 -244.326)" fill="#d18491"/>
            <path id="Trazado_160702" data-name="Trazado 160702" d="M239.369,360.947a.315.315,0,0,1-.176-.054,20.75,20.75,0,0,1-7.1-8.709,28.976,28.976,0,0,1-2.392-11,24.061,24.061,0,0,1,.528-5.334.313.313,0,0,1,.609.144,23.338,23.338,0,0,0-.512,5.17,28.357,28.357,0,0,0,2.337,10.762,20.118,20.118,0,0,0,6.88,8.448.313.313,0,0,1-.177.571" transform="translate(-203.402 -244.934)" fill="#0e1165"/>
            <path id="Trazado_160703" data-name="Trazado 160703" d="M265.549,385.111a.313.313,0,0,1-.289-.193c-.988-2.384-2.783-5.746-2.8-5.78a.313.313,0,0,1,.552-.3c.018.034,1.828,3.423,2.827,5.836a.313.313,0,0,1-.289.433" transform="translate(-217.378 -263.327)" fill="#0e1165"/>
            <path id="Trazado_160704" data-name="Trazado 160704" d="M312.212,255.571l-35.568,7.1a24.562,24.562,0,0,0-1.629,5.587,49.166,49.166,0,0,0-.476,7.382q-.027,1.911-.054,3.822c-2.307,3.353-7.631,8.245-5.773,11.717s4.03,3.422,6.5,3.372c0,0,.081,1.419.442,4.511a16.347,16.347,0,0,1,5.515,2.85,1.125,1.125,0,0,1,.432.833c-.04.423-.5.661-.9.8a26.2,26.2,0,0,1-4.323.345c.936,4.969,2.6,10.278,5.523,12.164,6.035,3.889,17.3-.939,17.3-.939s1.507,5.974,2.27,11.309a107.761,107.761,0,0,0,23.239-7.684c-2.336-11.183-12.5-63.171-12.5-63.171" transform="translate(-219.899 -210.75)" fill="#d18491"/>
            <path id="Trazado_160705" data-name="Trazado 160705" d="M344.371,365.833a107.706,107.706,0,0,1-23.239,7.684c.442,3.086.635,5.958.143,7.334-.768,2.15-4,6.808-6.921,11.781a81.024,81.024,0,0,0,32.764-19.587,22.835,22.835,0,0,1-2.372-5.471c-.08-.348-.208-.941-.375-1.74" transform="translate(-239.558 -257.841)" fill="#d18491"/>
            <path id="Trazado_160706" data-name="Trazado 160706" d="M345.484,378.419a81.034,81.034,0,0,1-32.764,19.588c-.768,1.307-1.515,2.636-2.191,3.947a80.963,80.963,0,0,0,36.63-20.642c-.6-1.011-1.168-1.977-1.675-2.894" transform="translate(-237.924 -263.217)" fill="#88f2ff"/>
            <path id="Trazado_160707" data-name="Trazado 160707" d="M299.749,425h59.144s-2.816-15.423-7.51-25.75a156.77,156.77,0,0,0-8.828-15.777,80.957,80.957,0,0,1-36.63,20.642c-4.739,8.982-6.176,20.884-6.176,20.884" transform="translate(-233.32 -265.374)" fill="#fdffff"/>
            <path id="Trazado_160708" data-name="Trazado 160708" d="M286.941,296.618A3.058,3.058,0,1,0,290,293.56a3.058,3.058,0,0,0-3.058,3.058" transform="translate(-227.85 -226.975)" fill="#0e1165"/>
            <path id="Trazado_160709" data-name="Trazado 160709" d="M294.607,288.8a13.422,13.422,0,0,0-5.435-4.745,18.532,18.532,0,0,0-3.231-.682,22.294,22.294,0,0,0-3.572-.424l-.116-.226a4.85,4.85,0,0,1,3.842-1.888c2.843,0,5.394,2.133,6.991,4.314a13.955,13.955,0,0,1,1.748,3.538Z" transform="translate(-225.848 -221.538)" fill="#0e1165"/>
            <path id="Trazado_160710" data-name="Trazado 160710" d="M322.221,349a37.438,37.438,0,0,0,11.569-14.09,67.979,67.979,0,0,1-10.308,19.347" transform="translate(-242.918 -244.636)" fill="#0e1165"/>
            <path id="Trazado_160711" data-name="Trazado 160711" d="M327.146,287.079c.271.488.957.506,1.509.427a13.35,13.35,0,0,0,7.855-4.145,8.913,8.913,0,0,0,2.08-3.49,5.948,5.948,0,0,0-.579-4.154A13.709,13.709,0,0,0,348,261.242c-.2-2.118-1.013-4.652-2.679-5.974a12.784,12.784,0,0,0,6.175-10.541c.04-4.253-2.865-8.076-6.74-9.829a11.264,11.264,0,0,0-2.337-16.178,7.874,7.874,0,0,0-7.064-.73,10.952,10.952,0,0,0-5.134-11.445,10.334,10.334,0,0,0-12.254,1.974,10.761,10.761,0,0,0-3.652-4.6,8.191,8.191,0,0,0-5.631-1.466,11.2,11.2,0,0,0-5.022,2.256,7.984,7.984,0,0,0-2.545,3.134,9,9,0,0,0-6.357-5.568,10.717,10.717,0,0,0-8.395,1.665c-2.426,1.655-3.912,4.815-4.788,7.618a12.617,12.617,0,0,0-11.419,6.356c-2.281,3.985-2.015,9.133-.15,13.329a10.451,10.451,0,0,0-2.787,9.68c.812,3.415,3.629,5.8,6.972,6.869a45.45,45.45,0,0,1,1.2-5.9c1.74.816,3.637-.05,5.21-1.154a4.883,4.883,0,0,0,4.634,2.405,10.482,10.482,0,0,0,5.1-1.953c.71-.464,1.2-.606,1.412-1.427.861,1.59,1.845,3.293,3.516,3.984a6.909,6.909,0,0,0,3.492.249c.814-.1,2,0,2.644-.5q.455,9.649,1.777,19.23a108.96,108.96,0,0,0,11.478-.219c.378,3.976,1.322,7.564,2.08,11.485.994,5.135,2.4,10.389,5.719,14.432a2.681,2.681,0,0,0,2.867.477c.834-.4,1.645-.911,1.817-1.821" transform="translate(-219.316 -187.876)" fill="#0e1165"/>
            <path id="Trazado_160712" data-name="Trazado 160712" d="M352.443,297.964a13.263,13.263,0,0,1-5.806,9.419,7.384,7.384,0,0,1-3.363,1.331c-2.76.251-5.34-1.876-6.276-4.4a12.612,12.612,0,0,1,.2-7.874c.965-3.312,2.923-6.808,6.387-7.67,5.585-1.389,9.377,4.542,8.856,9.193" transform="translate(-248.994 -224.841)" fill="#d18491"/>
            <g id="Grupo_83987" data-name="Grupo 83987" transform="translate(90.909 66.228)" style="mix-blend-mode: multiply;isolation: isolate">
              <g id="Grupo_83986" data-name="Grupo 83986">
                <g id="Grupo_83985" data-name="Grupo 83985" clip-path="url(#clip-path-8)">
                  <path id="Trazado_160713" data-name="Trazado 160713" d="M342.478,307.4a6.726,6.726,0,0,0,3.073-2.025,1.3,1.3,0,0,0,.347-.638c.062-.463-.325-.862-.681-1.184l-2.161-1.954a1.138,1.138,0,0,1-.353-.449,1.073,1.073,0,0,1,.044-.612c.7-2.55,1.534-5.3,3.749-6.842a3.485,3.485,0,0,1,4.931.588,9.9,9.9,0,0,1,1.637,2.765s.777,5.411-3.02,8.76a7.179,7.179,0,0,1-7.565,1.59" transform="translate(-342.478 -292.937)" fill="#d18491"/>
                </g>
              </g>
            </g>
            <path id="Trazado_160714" data-name="Trazado 160714" d="M352.764,296.7c-1.58-3.033-4.313-5.234-7.1-2.1-1.468,1.629-2.1,3.892-2.7,6,0,.044-.019-.008,0,.04.458.5,1.2,1.144,1.7,1.667.509.548,1.315,1.085,1.328,1.946a1.878,1.878,0,0,1-.781,1.28,6.322,6.322,0,0,1-3.035,1.519,6.8,6.8,0,0,0,3-2.553.417.417,0,0,0-.061-.434A7.06,7.06,0,0,0,344,303.039c-.43-.353-.858-.709-1.278-1.074-.333-.272-1-.785-.94-1.394a13.359,13.359,0,0,1,3.008-6.8c3.384-3.426,6.972-1.137,7.974,2.928" transform="translate(-251.27 -226.351)" fill="#0e1165"/>
            <path id="Trazado_160715" data-name="Trazado 160715" d="M293.421,244.335a.32.32,0,0,1-.052,0c-1.986-.341-2.991-2.552-3.248-4.342a5.885,5.885,0,0,1,.2-2.989,3.254,3.254,0,0,1,1.828-1.9,6.283,6.283,0,0,1,2.35-9,.307.307,0,1,1,.284.544,5.671,5.671,0,0,0-1.887,8.455l.308.406-.5.083a2.5,2.5,0,0,0-1.806,1.638,5.3,5.3,0,0,0-.168,2.684c.228,1.585,1.083,3.539,2.744,3.824a.307.307,0,0,1-.052.61" transform="translate(-229.167 -198.145)" fill="#fff"/>
            <path id="Trazado_160716" data-name="Trazado 160716" d="M335.2,231a.307.307,0,0,1-.273-.165,7.268,7.268,0,0,0-7.833-3.625,2.323,2.323,0,0,0-1.679,1.078l-.259.588-.294-.571a6.105,6.105,0,0,0-9.538-1.71.307.307,0,0,1-.414-.454,6.718,6.718,0,0,1,10.24,1.431,3.26,3.26,0,0,1,1.809-.961,7.9,7.9,0,0,1,8.514,3.939.308.308,0,0,1-.272.449" transform="translate(-239.753 -197.433)" fill="#fff"/>
            <path id="Trazado_160717" data-name="Trazado 160717" d="M327.891,259.919a.32.32,0,0,1-.052,0,.307.307,0,0,1-.25-.355,6.737,6.737,0,0,0-1.557-5.481,4.191,4.191,0,0,0-2.068-1.362,2.355,2.355,0,0,0-2.217.529l-.512.519-.013-.729a3.5,3.5,0,0,0-1.865-2.692,7.185,7.185,0,0,0-6.107-.646.307.307,0,1,1-.209-.577,7.808,7.808,0,0,1,6.641.7,4.364,4.364,0,0,1,2.086,2.631,3.11,3.11,0,0,1,2.343-.333,4.8,4.8,0,0,1,2.382,1.552,7.265,7.265,0,0,1,1.7,5.992.307.307,0,0,1-.3.255" transform="translate(-238.91 -207.808)" fill="#fff"/>
            <path id="Trazado_160718" data-name="Trazado 160718" d="M359.833,265.666a.307.307,0,0,1-.174-.561c.847-.579,1.263-1.747,1.273-3.571a5.387,5.387,0,0,0-.278-2.034,1.934,1.934,0,0,0-1.325-1.22l-.461-.085.262-.388a4.619,4.619,0,0,0-3.213-7.163.307.307,0,0,1,.083-.608,5.232,5.232,0,0,1,3.854,7.766,2.664,2.664,0,0,1,1.369,1.468,5.9,5.9,0,0,1,.323,2.268c-.011,2.04-.515,3.373-1.541,4.075a.3.3,0,0,1-.173.054" transform="translate(-257.196 -208.385)" fill="#fff"/>
            <path id="Trazado_160719" data-name="Trazado 160719" d="M383.986,260.494a.308.308,0,0,1-.3-.39,7.049,7.049,0,0,0-3.14-7.78l-.264-.154.153-.265a6.934,6.934,0,0,0-5.025-10.334.307.307,0,0,1-.261-.347.3.3,0,0,1,.347-.261,7.547,7.547,0,0,1,5.614,10.988,7.69,7.69,0,0,1,3.165,8.318.307.307,0,0,1-.3.225" transform="translate(-265.523 -204.51)" fill="#fff"/>
            <path id="Trazado_160720" data-name="Trazado 160720" d="M375.8,300.257a.307.307,0,0,1-.115-.592,3.494,3.494,0,0,0,.519-6.215l-.376-.231.347-.272a10.3,10.3,0,0,0,3.357-3.676,5.076,5.076,0,0,0-1.694-5.967.307.307,0,0,1,.353-.5,5.709,5.709,0,0,1,1.906,6.712,10,10,0,0,1-3.216,3.661,4.106,4.106,0,0,1-.965,7.06.314.314,0,0,1-.115.022" transform="translate(-265.67 -222.356)" fill="#fff"/>
            <path id="Trazado_160721" data-name="Trazado 160721" d="M370.1,324.452a6.3,6.3,0,0,1-1.736-.241.307.307,0,0,1,.169-.59,5.774,5.774,0,0,0,7.325-4.887l.034-.294.3.023a6.048,6.048,0,0,0,6.5-6.58.307.307,0,0,1,.612-.056,6.662,6.662,0,0,1-6.873,7.265,6.372,6.372,0,0,1-6.327,5.36" transform="translate(-262.531 -234.657)" fill="#fff"/>
            <path id="Trazado_160722" data-name="Trazado 160722" d="M330.884,435.751l-.071,0a.808.808,0,0,1-.734-.874,41.548,41.548,0,0,1,4.615-16.214,30.371,30.371,0,0,1,11.658-12.2.807.807,0,0,1,.793,1.406,28.759,28.759,0,0,0-11.03,11.562,39.978,39.978,0,0,0-4.429,15.588.806.806,0,0,1-.8.737" transform="translate(-246.272 -275.147)" fill="#88f2ff"/>
          </g>
        </g>
        <g id="Grupo_83991" data-name="Grupo 83991">
          <g id="Grupo_83990" data-name="Grupo 83990" clip-path="url(#clip-path-2)">
            <path id="Trazado_160724" data-name="Trazado 160724" d="M266.8,333.625a73.288,73.288,0,1,1,73.288-73.288A73.371,73.371,0,0,1,266.8,333.625m0-145.445a72.157,72.157,0,1,0,72.157,72.157A72.238,72.238,0,0,0,266.8,188.18" transform="translate(-82.646 -79.885)" fill="#fdffff"/>
            <path id="Trazado_160725" data-name="Trazado 160725" d="M359,43.573H270.17a12.4,12.4,0,0,1,0-24.791H359a12.4,12.4,0,0,1,0,24.791" transform="translate(-110.092 -8.022)" fill="#81d4fa"/>
            <path id="Trazado_160726" data-name="Trazado 160726" d="M284.3,33.951a8.676,8.676,0,1,1-8.676-8.676,8.676,8.676,0,0,1,8.676,8.676" transform="translate(-114.009 -10.795)" fill="#ff9d00"/>
            <g id="Grupo_83997" data-name="Grupo 83997">
              <rect id="Rectángulo_35281" data-name="Rectángulo 35281" width="72.879" height="1.81" transform="translate(178.231 15.313)" fill="#fff"/>
              <rect id="Rectángulo_35282" data-name="Rectángulo 35282" width="72.879" height="1.81" transform="translate(178.231 19.938)" fill="#fff"/>
              <rect id="Rectángulo_35283" data-name="Rectángulo 35283" width="72.879" height="1.81" transform="translate(178.231 24.563)" fill="#fff"/>
              <rect id="Rectángulo_35284" data-name="Rectángulo 35284" width="72.879" height="1.81" transform="translate(178.231 29.189)" fill="#fff"/>
            </g>
            <path id="Trazado_160727" data-name="Trazado 160727" d="M276.3,39.564l-5-5a1.413,1.413,0,0,1,2-2l3,3,10.312-10.312a1.413,1.413,0,0,1,2,2Z" transform="translate(-115.691 -10.608)" fill="#fdffff"/>
            <path id="Trazado_160728" data-name="Trazado 160728" d="M359,94.6H270.17a12.4,12.4,0,0,1,0-24.791H359A12.4,12.4,0,0,1,359,94.6" transform="translate(-110.092 -29.813)" fill="#81d4fa"/>
            <path id="Trazado_160729" data-name="Trazado 160729" d="M284.3,84.973a8.676,8.676,0,1,1-8.676-8.675,8.676,8.676,0,0,1,8.676,8.675" transform="translate(-114.009 -32.586)" fill="#ff9d00"/>
            <g id="Grupo_83998" data-name="Grupo 83998">
              <rect id="Rectángulo_35285" data-name="Rectángulo 35285" width="72.879" height="1.81" transform="translate(178.231 44.544)" fill="#fff"/>
              <rect id="Rectángulo_35286" data-name="Rectángulo 35286" width="72.879" height="1.81" transform="translate(178.231 49.17)" fill="#fff"/>
              <rect id="Rectángulo_35287" data-name="Rectángulo 35287" width="72.879" height="1.81" transform="translate(178.231 53.796)" fill="#fff"/>
              <rect id="Rectángulo_35288" data-name="Rectángulo 35288" width="72.879" height="1.81" transform="translate(178.231 58.421)" fill="#fff"/>
            </g>
            <path id="Trazado_160730" data-name="Trazado 160730" d="M276.3,90.586l-5-5a1.413,1.413,0,0,1,2-2l3,3,10.312-10.312a1.414,1.414,0,0,1,2,2Z" transform="translate(-115.691 -32.399)" fill="#fdffff"/>
            <path id="Trazado_160731" data-name="Trazado 160731" d="M355.008,135.332A15.737,15.737,0,1,1,339.27,119.6a15.737,15.737,0,0,1,15.737,15.737" transform="translate(-138.176 -51.077)" fill="#ff9d00"/>
            <path id="Trazado_160732" data-name="Trazado 160732" d="M343,128.789l3.316,6.719,7.415-.725v1.8l-5.365,5.23,1.267,5.582v1.8L343,145.714,336.37,149.2v-1.8l1.267-5.582-5.365-5.23v-1.8l7.415.725Z" transform="translate(-141.908 -55.004)" fill="#0e1165"/>
            <path id="Trazado_160733" data-name="Trazado 160733" d="M343,125.643l3.316,6.719,7.415,1.077-5.365,5.23,1.267,7.385L343,142.568l-6.632,3.487,1.267-7.385-5.365-5.23,7.415-1.077Z" transform="translate(-141.908 -53.66)" fill="#fdffff"/>
            <path id="Trazado_160734" data-name="Trazado 160734" d="M436.788,116.458c-3.505,10.938-16.233,8.606-21.706,20.493l-12.371-3.965c3.259-12.764,14.3-15.3,16.192-18.6,1.057-1.741.043-2.731-3.427-3.843l-15.614-5,2.959-10.53c6.647.8,9.879.837,20.591,4.269,11.616,3.723,15.938,9.184,13.376,17.179m-23.482,29.407-.991,3.093c-1.33,4.148-3.023,5.02-7.171,3.691l-3.545-1.137c-4.149-1.33-5.02-3.023-3.691-7.171l.991-3.093c1.33-4.149,3.023-5.021,7.172-3.691l3.545,1.136c4.149,1.33,5.02,3.023,3.69,7.172" transform="translate(-169.695 -40.577)" fill="#0e1165"/>
            <path id="Trazado_160735" data-name="Trazado 160735" d="M430.5,114.442c-3.505,10.938-16.233,8.606-21.706,20.493l-12.371-3.965c3.259-12.764,14.3-15.3,16.192-18.6,1.057-1.741.043-2.731-3.427-3.843l-15.614-5,2.959-10.53c6.648.8,9.88.837,20.591,4.27,11.616,3.723,15.938,9.183,13.376,17.179m-23.481,29.407-.991,3.093c-1.33,4.148-3.023,5.02-7.171,3.69l-3.545-1.136c-4.149-1.329-5.02-3.023-3.691-7.171l.991-3.093c1.33-4.149,3.023-5.021,7.172-3.691l3.545,1.136c4.149,1.33,5.02,3.023,3.69,7.172" transform="translate(-167.009 -39.716)" fill="#7e5ee3"/>
          </g>
        </g>
        <g id="Grupo_83993" data-name="Grupo 83993">
          <g id="Grupo_83992" data-name="Grupo 83992" clip-path="url(#clip-path-2)">
            <path id="Trazado_160736" data-name="Trazado 160736" d="M56.5,319.892a8.1,8.1,0,0,1-3.25-3.028,8.871,8.871,0,0,1,0-8.83A8.1,8.1,0,0,1,56.5,305a9.907,9.907,0,0,1,4.66-1.083,10.219,10.219,0,0,1,4.24.839,7.871,7.871,0,0,1,3.075,2.422L65,310.282a4.455,4.455,0,0,0-3.565-1.911,3.642,3.642,0,0,0-2.772,1.106,4.733,4.733,0,0,0,0,5.941,3.641,3.641,0,0,0,2.772,1.107A4.453,4.453,0,0,0,65,314.614l3.471,3.1a7.864,7.864,0,0,1-3.075,2.423,10.229,10.229,0,0,1-4.24.839,9.907,9.907,0,0,1-4.66-1.083" transform="translate(-22.239 -129.8)" fill="#fdffff"/>
            <path id="Trazado_160737" data-name="Trazado 160737" d="M60.181,349.021H58.69v4.1h-5.5V336.813h7.851a9.635,9.635,0,0,1,3.938.745,6.028,6.028,0,0,1,2.7,8.457,5.587,5.587,0,0,1-2.282,2.073l3.424,5.033H62.954Zm2.19-7.467a2.447,2.447,0,0,0-1.677-.5h-2v3.821h2a2.447,2.447,0,0,0,1.677-.5,2.056,2.056,0,0,0,0-2.819" transform="translate(-22.718 -143.848)" fill="#fdffff"/>
            <path id="Trazado_160738" data-name="Trazado 160738" d="M63.5,385.362l-.046-7.432-3.541,5.965H57.492l-3.541-5.708v7.176H48.942V369.053h4.52l5.312,8.69,5.172-8.69h4.52l.046,16.309Z" transform="translate(-20.902 -157.617)" fill="#fdffff"/>
          </g>
        </g>
      </g>
    </g>
  </g>
</svg>
