<svg id="Grupo_85468" data-name="Grupo 85468" xmlns="http://www.w3.org/2000/svg" xmlns:xlink="http://www.w3.org/1999/xlink" width="44.333" height="49.748" viewBox="0 0 44.333 49.748">
  <defs>
    <clipPath id="clip-path">
      <rect id="Rectángulo_35900" data-name="Rectángulo 35900" width="44.333" height="49.748" fill="none"/>
    </clipPath>
    <clipPath id="clip-path-2">
      <path id="Trazado_161927" data-name="Trazado 161927" d="M7.945,0A7.945,7.945,0,0,0,0,7.945V36.388a7.945,7.945,0,0,0,7.945,7.945h8.729l4.6,5.023a1.2,1.2,0,0,0,.886.392h.01a1.2,1.2,0,0,0,.883-.389l4.634-5.026h8.7a7.945,7.945,0,0,0,7.945-7.945V7.945A7.945,7.945,0,0,0,36.388,0Z" fill="none"/>
    </clipPath>
    <linearGradient id="linear-gradient" x1="0.166" y1="0.873" x2="0.17" y2="0.873" gradientUnits="objectBoundingBox">
      <stop offset="0" stop-color="#ff36ab"/>
      <stop offset="0.44" stop-color="#ff4ebb"/>
      <stop offset="1" stop-color="#ff74d4"/>
    </linearGradient>
    <clipPath id="clip-path-4">
      <rect id="Rectángulo_35898" data-name="Rectángulo 35898" width="26.499" height="23.506" fill="none"/>
    </clipPath>
    <clipPath id="clip-path-6">
      <rect id="Rectángulo_35847" data-name="Rectángulo 35847" width="26.421" height="23.43" fill="none"/>
    </clipPath>
    <clipPath id="clip-path-7">
      <rect id="Rectángulo_35848" data-name="Rectángulo 35848" width="26.342" height="23.355" fill="none"/>
    </clipPath>
    <clipPath id="clip-path-8">
      <rect id="Rectángulo_35849" data-name="Rectángulo 35849" width="26.263" height="23.28" fill="none"/>
    </clipPath>
    <clipPath id="clip-path-9">
      <rect id="Rectángulo_35850" data-name="Rectángulo 35850" width="26.185" height="23.206" fill="none"/>
    </clipPath>
    <clipPath id="clip-path-10">
      <rect id="Rectángulo_35851" data-name="Rectángulo 35851" width="26.106" height="23.132" fill="none"/>
    </clipPath>
    <clipPath id="clip-path-11">
      <rect id="Rectángulo_35852" data-name="Rectángulo 35852" width="26.028" height="23.059" fill="none"/>
    </clipPath>
    <clipPath id="clip-path-12">
      <rect id="Rectángulo_35853" data-name="Rectángulo 35853" width="25.95" height="22.986" fill="none"/>
    </clipPath>
    <clipPath id="clip-path-13">
      <rect id="Rectángulo_35854" data-name="Rectángulo 35854" width="25.871" height="22.914" fill="none"/>
    </clipPath>
    <clipPath id="clip-path-14">
      <rect id="Rectángulo_35855" data-name="Rectángulo 35855" width="25.793" height="22.842" fill="none"/>
    </clipPath>
    <clipPath id="clip-path-15">
      <rect id="Rectángulo_35856" data-name="Rectángulo 35856" width="25.715" height="22.772" fill="none"/>
    </clipPath>
    <clipPath id="clip-path-16">
      <rect id="Rectángulo_35857" data-name="Rectángulo 35857" width="25.637" height="22.701" fill="none"/>
    </clipPath>
    <clipPath id="clip-path-17">
      <rect id="Rectángulo_35858" data-name="Rectángulo 35858" width="25.56" height="22.632" fill="none"/>
    </clipPath>
    <clipPath id="clip-path-18">
      <rect id="Rectángulo_35859" data-name="Rectángulo 35859" width="25.482" height="22.563" fill="none"/>
    </clipPath>
    <clipPath id="clip-path-19">
      <rect id="Rectángulo_35860" data-name="Rectángulo 35860" width="25.404" height="22.495" fill="none"/>
    </clipPath>
    <clipPath id="clip-path-20">
      <rect id="Rectángulo_35861" data-name="Rectángulo 35861" width="25.326" height="22.428" fill="none"/>
    </clipPath>
    <clipPath id="clip-path-21">
      <rect id="Rectángulo_35862" data-name="Rectángulo 35862" width="25.249" height="22.362" fill="none"/>
    </clipPath>
    <clipPath id="clip-path-22">
      <rect id="Rectángulo_35863" data-name="Rectángulo 35863" width="25.172" height="22.297" fill="none"/>
    </clipPath>
    <clipPath id="clip-path-23">
      <rect id="Rectángulo_35864" data-name="Rectángulo 35864" width="25.095" height="22.232" fill="none"/>
    </clipPath>
    <clipPath id="clip-path-24">
      <rect id="Rectángulo_35865" data-name="Rectángulo 35865" width="25.018" height="22.169" fill="none"/>
    </clipPath>
    <clipPath id="clip-path-25">
      <rect id="Rectángulo_35866" data-name="Rectángulo 35866" width="24.941" height="22.107" fill="none"/>
    </clipPath>
    <clipPath id="clip-path-26">
      <rect id="Rectángulo_35867" data-name="Rectángulo 35867" width="24.865" height="22.047" fill="none"/>
    </clipPath>
    <clipPath id="clip-path-27">
      <rect id="Rectángulo_35868" data-name="Rectángulo 35868" width="24.789" height="21.987" fill="none"/>
    </clipPath>
    <clipPath id="clip-path-28">
      <rect id="Rectángulo_35869" data-name="Rectángulo 35869" width="24.713" height="21.929" fill="none"/>
    </clipPath>
    <clipPath id="clip-path-29">
      <rect id="Rectángulo_35870" data-name="Rectángulo 35870" width="24.638" height="21.873" fill="none"/>
    </clipPath>
    <clipPath id="clip-path-30">
      <rect id="Rectángulo_35871" data-name="Rectángulo 35871" width="24.563" height="21.818" fill="none"/>
    </clipPath>
    <clipPath id="clip-path-31">
      <rect id="Rectángulo_35872" data-name="Rectángulo 35872" width="24.488" height="21.763" fill="none"/>
    </clipPath>
    <clipPath id="clip-path-32">
      <rect id="Rectángulo_35873" data-name="Rectángulo 35873" width="24.414" height="21.709" fill="none"/>
    </clipPath>
    <clipPath id="clip-path-33">
      <rect id="Rectángulo_35874" data-name="Rectángulo 35874" width="24.34" height="21.655" fill="none"/>
    </clipPath>
    <clipPath id="clip-path-34">
      <rect id="Rectángulo_35875" data-name="Rectángulo 35875" width="24.267" height="21.601" fill="none"/>
    </clipPath>
    <clipPath id="clip-path-35">
      <rect id="Rectángulo_35876" data-name="Rectángulo 35876" width="24.195" height="21.548" fill="none"/>
    </clipPath>
    <clipPath id="clip-path-36">
      <rect id="Rectángulo_35877" data-name="Rectángulo 35877" width="24.123" height="21.496" fill="none"/>
    </clipPath>
    <clipPath id="clip-path-37">
      <rect id="Rectángulo_35878" data-name="Rectángulo 35878" width="24.052" height="21.443" fill="none"/>
    </clipPath>
    <clipPath id="clip-path-38">
      <rect id="Rectángulo_35879" data-name="Rectángulo 35879" width="23.982" height="21.391" fill="none"/>
    </clipPath>
    <clipPath id="clip-path-39">
      <rect id="Rectángulo_35880" data-name="Rectángulo 35880" width="23.913" height="21.34" fill="none"/>
    </clipPath>
    <clipPath id="clip-path-40">
      <rect id="Rectángulo_35881" data-name="Rectángulo 35881" width="23.845" height="21.288" fill="none"/>
    </clipPath>
    <clipPath id="clip-path-41">
      <rect id="Rectángulo_35882" data-name="Rectángulo 35882" width="23.779" height="21.237" fill="none"/>
    </clipPath>
    <clipPath id="clip-path-42">
      <rect id="Rectángulo_35883" data-name="Rectángulo 35883" width="23.715" height="21.186" fill="none"/>
    </clipPath>
    <clipPath id="clip-path-43">
      <rect id="Rectángulo_35884" data-name="Rectángulo 35884" width="23.653" height="21.136" fill="none"/>
    </clipPath>
    <clipPath id="clip-path-44">
      <rect id="Rectángulo_35885" data-name="Rectángulo 35885" width="23.593" height="21.085" fill="none"/>
    </clipPath>
    <clipPath id="clip-path-45">
      <rect id="Rectángulo_35886" data-name="Rectángulo 35886" width="23.536" height="21.035" fill="none"/>
    </clipPath>
    <clipPath id="clip-path-46">
      <rect id="Rectángulo_35887" data-name="Rectángulo 35887" width="23.484" height="20.986" fill="none"/>
    </clipPath>
    <clipPath id="clip-path-47">
      <rect id="Rectángulo_35888" data-name="Rectángulo 35888" width="23.435" height="20.936" fill="none"/>
    </clipPath>
    <clipPath id="clip-path-48">
      <rect id="Rectángulo_35889" data-name="Rectángulo 35889" width="23.393" height="20.887" fill="none"/>
    </clipPath>
    <clipPath id="clip-path-49">
      <rect id="Rectángulo_35890" data-name="Rectángulo 35890" width="23.357" height="20.838" fill="none"/>
    </clipPath>
    <clipPath id="clip-path-50">
      <rect id="Rectángulo_35891" data-name="Rectángulo 35891" width="23.33" height="20.789" fill="none"/>
    </clipPath>
    <clipPath id="clip-path-51">
      <rect id="Rectángulo_35892" data-name="Rectángulo 35892" width="23.242" height="20.74" fill="none"/>
    </clipPath>
    <clipPath id="clip-path-52">
      <rect id="Rectángulo_35893" data-name="Rectángulo 35893" width="23.247" height="20.692" fill="none"/>
    </clipPath>
    <clipPath id="clip-path-53">
      <rect id="Rectángulo_35894" data-name="Rectángulo 35894" width="23.276" height="20.644" fill="none"/>
    </clipPath>
    <clipPath id="clip-path-54">
      <rect id="Rectángulo_35895" data-name="Rectángulo 35895" width="23.331" height="20.596" fill="none"/>
    </clipPath>
    <clipPath id="clip-path-55">
      <rect id="Rectángulo_35896" data-name="Rectángulo 35896" width="23.406" height="20.548" fill="none"/>
    </clipPath>
    <clipPath id="clip-path-56">
      <rect id="Rectángulo_35897" data-name="Rectángulo 35897" width="23.494" height="20.5" fill="none"/>
    </clipPath>
  </defs>
  <g id="Grupo_85458" data-name="Grupo 85458" clip-path="url(#clip-path)">
    <g id="Grupo_85296" data-name="Grupo 85296">
      <g id="Grupo_85295" data-name="Grupo 85295" clip-path="url(#clip-path-2)">
        <rect id="Rectángulo_35845" data-name="Rectángulo 35845" width="66.462" height="66.574" transform="translate(-24.863 24.143) rotate(-44.157)" fill="url(#linear-gradient)"/>
      </g>
    </g>
    <g id="Grupo_85457" data-name="Grupo 85457">
      <g id="Grupo_85456" data-name="Grupo 85456" clip-path="url(#clip-path)">
        <path id="Trazado_161928" data-name="Trazado 161928" d="M96,177.414l-4.56,4.945a1.166,1.166,0,0,0,.112-.106l4.463-4.84Z" transform="translate(-68.494 -132.895)" fill="#ff86cd"/>
        <path id="Trazado_161929" data-name="Trazado 161929" d="M43.063,0H14.619A7.92,7.92,0,0,0,8.911,2.422,7.916,7.916,0,0,1,14.434.186H42.877A7.945,7.945,0,0,1,50.822,8.13V36.574A7.916,7.916,0,0,1,48.586,42.1a7.919,7.919,0,0,0,2.422-5.708V7.945A7.945,7.945,0,0,0,43.063,0" transform="translate(-6.675)" fill="#ff86cd"/>
        <path id="Trazado_161930" data-name="Trazado 161930" d="M.372,36.388V7.945A7.945,7.945,0,0,1,8.316,0H7.945A7.945,7.945,0,0,0,0,7.945V36.388a7.945,7.945,0,0,0,7.945,7.945h.372A7.945,7.945,0,0,1,.372,36.388" fill="#bf2980"/>
        <path id="Trazado_161931" data-name="Trazado 161931" d="M71.424,181.7l-4.6-5.023h-.372l4.6,5.023a1.2,1.2,0,0,0,1.076.376,1.2,1.2,0,0,1-.7-.376" transform="translate(-49.774 -132.34)" fill="#bf2980"/>
        <g id="Grupo_85455" data-name="Grupo 85455" transform="translate(8.342 12.106)" opacity="0.3" style="mix-blend-mode: multiply;isolation: isolate">
          <g id="Grupo_85454" data-name="Grupo 85454">
            <g id="Grupo_85453" data-name="Grupo 85453" clip-path="url(#clip-path-4)">
              <g id="Grupo_85299" data-name="Grupo 85299" opacity="0">
                <g id="Grupo_85298" data-name="Grupo 85298">
                  <g id="Grupo_85297" data-name="Grupo 85297" clip-path="url(#clip-path-4)">
                    <path id="Trazado_161932" data-name="Trazado 161932" d="M59.688,55.066a7.777,7.777,0,0,0-7.366-6.813,7.69,7.69,0,0,0-5.828,2.318,7.726,7.726,0,0,0-13.25,5.408c0,2.08,1.068,3.768,2.165,5.356,1.844,2.671,7.472,7.81,9.909,9.985A1.706,1.706,0,0,0,47.6,71.31c2.535-2.3,8.589-7.887,10.64-10.763a7.768,7.768,0,0,0,1.449-5.482" transform="translate(-33.243 -48.246)" fill="#fff"/>
                  </g>
                </g>
              </g>
              <g id="Grupo_85302" data-name="Grupo 85302" transform="translate(0.049 0.035)" opacity="0.02">
                <g id="Grupo_85301" data-name="Grupo 85301">
                  <g id="Grupo_85300" data-name="Grupo 85300" clip-path="url(#clip-path-6)">
                    <path id="Trazado_161933" data-name="Trazado 161933" d="M41,48.5a7.671,7.671,0,0,1,3.941.913A7.309,7.309,0,0,1,46.619,50.7a7.678,7.678,0,0,1,1.195-.959,7.83,7.83,0,0,1,1.367-.748,7.634,7.634,0,0,1,3.249-.6,7.555,7.555,0,0,1,1.688.249c.084.022.167.045.249.071a7.686,7.686,0,0,1,3.995,11.924C56.319,63.5,50.291,69.071,47.753,71.37a1.717,1.717,0,0,1-1.987.234,1.573,1.573,0,0,1-.283-.2c-2.484-2.217-8.073-7.326-9.9-9.98a9.4,9.4,0,0,1-2.139-5.277A7.668,7.668,0,0,1,41,48.5" transform="translate(-33.44 -48.388)" fill="#fbfbfb"/>
                  </g>
                </g>
              </g>
              <g id="Grupo_85305" data-name="Grupo 85305" transform="translate(0.099 0.071)" opacity="0.039">
                <g id="Grupo_85304" data-name="Grupo 85304">
                  <g id="Grupo_85303" data-name="Grupo 85303" clip-path="url(#clip-path-7)">
                    <path id="Trazado_161934" data-name="Trazado 161934" d="M41.026,48.76a7.64,7.64,0,0,1,3.987.77,6.953,6.953,0,0,1,1.732,1.293,7.571,7.571,0,0,1,1.192-.918A7.983,7.983,0,0,1,49.3,49.15a7.628,7.628,0,0,1,4.927-.38q.126.033.249.07a7.653,7.653,0,0,1,4.01,11.884c-2.036,2.855-8.037,8.4-10.578,10.7a1.729,1.729,0,0,1-1.974.254,1.414,1.414,0,0,1-.147-.09,1.433,1.433,0,0,1-.136-.107c-2.531-2.259-8.081-7.339-9.9-9.975a9.3,9.3,0,0,1-2.115-5.2,7.609,7.609,0,0,1,7.39-7.552" transform="translate(-33.636 -48.527)" fill="#f6f6f6"/>
                  </g>
                </g>
              </g>
              <g id="Grupo_85308" data-name="Grupo 85308" transform="translate(0.148 0.105)" opacity="0.059">
                <g id="Grupo_85307" data-name="Grupo 85307">
                  <g id="Grupo_85306" data-name="Grupo 85306" clip-path="url(#clip-path-8)">
                    <path id="Trazado_161935" data-name="Trazado 161935" d="M41.05,49.016a7.58,7.58,0,0,1,4.032.627,6.669,6.669,0,0,1,1.787,1.3,7.469,7.469,0,0,1,1.19-.877,8.119,8.119,0,0,1,1.356-.762,7.585,7.585,0,0,1,4.917-.41q.125.032.249.068A7.62,7.62,0,0,1,58.607,60.81c-2.029,2.845-8,8.371-10.547,10.676a1.742,1.742,0,0,1-1.961.274,1.3,1.3,0,0,1-.147-.087,1.314,1.314,0,0,1-.136-.106c-2.578-2.3-8.088-7.351-9.9-9.969a9.214,9.214,0,0,1-2.09-5.121,7.554,7.554,0,0,1,7.219-7.462" transform="translate(-33.831 -48.666)" fill="#f2f2f2"/>
                  </g>
                </g>
              </g>
              <g id="Grupo_85311" data-name="Grupo 85311" transform="translate(0.197 0.14)" opacity="0.078">
                <g id="Grupo_85310" data-name="Grupo 85310">
                  <g id="Grupo_85309" data-name="Grupo 85309" clip-path="url(#clip-path-9)">
                    <path id="Trazado_161936" data-name="Trazado 161936" d="M41.075,49.271a7.469,7.469,0,0,1,4.078.484A6.385,6.385,0,0,1,47,51.071a7.373,7.373,0,0,1,1.187-.836,8.255,8.255,0,0,1,1.35-.769,7.546,7.546,0,0,1,4.907-.441q.126.031.25.067a7.587,7.587,0,0,1,4.04,11.8c-2.021,2.835-7.97,8.338-10.516,10.647a1.757,1.757,0,0,1-1.949.295,1.172,1.172,0,0,1-.147-.084,1.206,1.206,0,0,1-.136-.1c-2.625-2.343-8.1-7.364-9.891-9.964a9.122,9.122,0,0,1-2.064-5.042c-.047-4.017,3.135-6.93,7.047-7.372" transform="translate(-34.027 -48.804)" fill="#eeedee"/>
                  </g>
                </g>
              </g>
              <g id="Grupo_85314" data-name="Grupo 85314" transform="translate(0.246 0.174)" opacity="0.098">
                <g id="Grupo_85313" data-name="Grupo 85313">
                  <g id="Grupo_85312" data-name="Grupo 85312" clip-path="url(#clip-path-10)">
                    <path id="Trazado_161937" data-name="Trazado 161937" d="M41.1,49.525a7.368,7.368,0,0,1,4.124.341,6.183,6.183,0,0,1,1.9,1.328,7.3,7.3,0,0,1,1.185-.795,8.448,8.448,0,0,1,1.344-.775,7.506,7.506,0,0,1,4.9-.471q.125.031.25.065a7.554,7.554,0,0,1,4.055,11.764c-2.013,2.824-7.936,8.306-10.485,10.617a1.773,1.773,0,0,1-1.936.315,1.075,1.075,0,0,1-.146-.081,1.1,1.1,0,0,1-.136-.1c-2.672-2.385-8.1-7.376-9.886-9.959a9.032,9.032,0,0,1-2.039-4.964c-.059-3.953,3.061-6.734,6.876-7.282" transform="translate(-34.222 -48.941)" fill="#e9e9e9"/>
                  </g>
                </g>
              </g>
              <g id="Grupo_85317" data-name="Grupo 85317" transform="translate(0.295 0.209)" opacity="0.118">
                <g id="Grupo_85316" data-name="Grupo 85316">
                  <g id="Grupo_85315" data-name="Grupo 85315" clip-path="url(#clip-path-11)">
                    <path id="Trazado_161938" data-name="Trazado 161938" d="M41.124,49.778a7.256,7.256,0,0,1,4.17.2,6.02,6.02,0,0,1,1.954,1.34,7.234,7.234,0,0,1,1.182-.754,8.605,8.605,0,0,1,1.338-.782,7.463,7.463,0,0,1,4.887-.5q.126.03.25.064a7.521,7.521,0,0,1,4.07,11.724c-2.006,2.814-7.9,8.273-10.455,10.589a1.791,1.791,0,0,1-1.924.335,1,1,0,0,1-.146-.078,1.023,1.023,0,0,1-.135-.1C43.6,69.382,38.2,64.42,36.433,61.855a8.941,8.941,0,0,1-2.014-4.886c-.071-3.889,2.989-6.542,6.7-7.192" transform="translate(-34.418 -49.077)" fill="#e5e5e5"/>
                  </g>
                </g>
              </g>
              <g id="Grupo_85320" data-name="Grupo 85320" transform="translate(0.344 0.242)" opacity="0.137">
                <g id="Grupo_85319" data-name="Grupo 85319">
                  <g id="Grupo_85318" data-name="Grupo 85318" clip-path="url(#clip-path-12)">
                    <path id="Trazado_161939" data-name="Trazado 161939" d="M41.147,50.032a7.138,7.138,0,0,1,4.216.055,5.887,5.887,0,0,1,2.009,1.352,7.161,7.161,0,0,1,1.18-.712,8.776,8.776,0,0,1,1.332-.789,7.333,7.333,0,0,1,3.193-.724,7.412,7.412,0,0,1,1.685.192q.125.029.25.063A7.489,7.489,0,0,1,59.1,61.152c-2,2.8-7.869,8.241-10.424,10.559a1.81,1.81,0,0,1-1.911.355.945.945,0,0,1-.146-.075.976.976,0,0,1-.136-.1c-2.766-2.469-8.118-7.4-9.877-9.948a8.851,8.851,0,0,1-1.989-4.807c-.082-3.825,2.921-6.354,6.533-7.1" transform="translate(-34.612 -49.213)" fill="#e1e0e0"/>
                  </g>
                </g>
              </g>
              <g id="Grupo_85323" data-name="Grupo 85323" transform="translate(0.392 0.276)" opacity="0.157">
                <g id="Grupo_85322" data-name="Grupo 85322">
                  <g id="Grupo_85321" data-name="Grupo 85321" clip-path="url(#clip-path-13)">
                    <path id="Trazado_161940" data-name="Trazado 161940" d="M41.17,50.283a5.624,5.624,0,0,1,4.261-.087A5.766,5.766,0,0,1,47.5,51.559a7.134,7.134,0,0,1,1.178-.671,8.958,8.958,0,0,1,1.326-.8,7.289,7.289,0,0,1,3.184-.745,7.38,7.38,0,0,1,1.684.183q.126.029.25.061a7.457,7.457,0,0,1,4.1,11.644c-1.991,2.793-7.836,8.209-10.393,10.53a1.832,1.832,0,0,1-1.9.375.856.856,0,0,1-.146-.072.894.894,0,0,1-.136-.1c-2.813-2.511-8.126-7.414-9.872-9.943A8.765,8.765,0,0,1,34.809,57.3a6.77,6.77,0,0,1,6.361-7.012" transform="translate(-34.807 -49.346)" fill="#dcdcdc"/>
                  </g>
                </g>
              </g>
              <g id="Grupo_85326" data-name="Grupo 85326" transform="translate(0.441 0.309)" opacity="0.176">
                <g id="Grupo_85325" data-name="Grupo 85325">
                  <g id="Grupo_85324" data-name="Grupo 85324" clip-path="url(#clip-path-14)">
                    <path id="Trazado_161941" data-name="Trazado 161941" d="M41.193,50.534A5.449,5.449,0,0,1,45.5,50.3a5.671,5.671,0,0,1,2.119,1.375c.3-.306.82-.389,1.175-.63a9.149,9.149,0,0,1,1.32-.8,7.244,7.244,0,0,1,3.174-.766,7.367,7.367,0,0,1,1.684.173q.125.028.25.06a7.425,7.425,0,0,1,4.116,11.6c-1.984,2.783-7.8,8.176-10.362,10.5a1.854,1.854,0,0,1-1.886.4.8.8,0,0,1-.146-.069.858.858,0,0,1-.136-.1c-2.86-2.553-8.134-7.426-9.867-9.938A8.676,8.676,0,0,1,35,57.456a6.653,6.653,0,0,1,6.19-6.922" transform="translate(-35 -49.479)" fill="#d8d7d8"/>
                  </g>
                </g>
              </g>
              <g id="Grupo_85329" data-name="Grupo 85329" transform="translate(0.49 0.342)" opacity="0.196">
                <g id="Grupo_85328" data-name="Grupo 85328">
                  <g id="Grupo_85327" data-name="Grupo 85327" clip-path="url(#clip-path-15)">
                    <path id="Trazado_161942" data-name="Trazado 161942" d="M41.216,50.784a5.3,5.3,0,0,1,4.353-.373A5.591,5.591,0,0,1,47.744,51.8c.293-.3.826-.354,1.173-.589a9.365,9.365,0,0,1,1.315-.811,7.2,7.2,0,0,1,3.165-.787,7.335,7.335,0,0,1,1.683.164q.126.027.25.059A7.393,7.393,0,0,1,59.46,61.4c-1.977,2.773-7.769,8.144-10.331,10.472a1.88,1.88,0,0,1-1.873.415.749.749,0,0,1-.145-.066.8.8,0,0,1-.136-.1c-2.907-2.595-8.141-7.438-9.863-9.933A8.587,8.587,0,0,1,35.2,57.616a6.536,6.536,0,0,1,6.018-6.832" transform="translate(-35.194 -49.61)" fill="#d4d3d3"/>
                  </g>
                </g>
              </g>
              <g id="Grupo_85332" data-name="Grupo 85332" transform="translate(0.538 0.375)" opacity="0.216">
                <g id="Grupo_85331" data-name="Grupo 85331">
                  <g id="Grupo_85330" data-name="Grupo 85330" clip-path="url(#clip-path-16)">
                    <path id="Trazado_161943" data-name="Trazado 161943" d="M41.239,51.034a5.164,5.164,0,0,1,4.4-.516,5.529,5.529,0,0,1,2.23,1.4c.286-.292.832-.318,1.17-.548a9.636,9.636,0,0,1,1.309-.818,7.154,7.154,0,0,1,3.155-.808,7.3,7.3,0,0,1,1.683.154c.084.018.167.037.25.057a7.361,7.361,0,0,1,4.146,11.524c-1.969,2.762-7.735,8.111-10.3,10.443a1.908,1.908,0,0,1-1.861.435.694.694,0,0,1-.146-.063.752.752,0,0,1-.136-.1c-2.954-2.637-8.149-7.451-9.858-9.927a8.5,8.5,0,0,1-1.889-4.494,6.42,6.42,0,0,1,5.847-6.742" transform="translate(-35.388 -49.741)" fill="#d0cfcf"/>
                  </g>
                </g>
              </g>
              <g id="Grupo_85335" data-name="Grupo 85335" transform="translate(0.586 0.408)" opacity="0.235">
                <g id="Grupo_85334" data-name="Grupo 85334">
                  <g id="Grupo_85333" data-name="Grupo 85333" clip-path="url(#clip-path-17)">
                    <path id="Trazado_161944" data-name="Trazado 161944" d="M41.261,51.282a5.048,5.048,0,0,1,4.445-.659,5.475,5.475,0,0,1,2.285,1.411c.279-.285.838-.283,1.168-.507a9.8,9.8,0,0,1,1.3-.825,7.112,7.112,0,0,1,3.146-.829,7.275,7.275,0,0,1,1.682.145q.126.026.25.056A7.329,7.329,0,0,1,59.7,61.558C57.739,64.31,52,69.638,49.431,71.973a1.937,1.937,0,0,1-1.848.455.659.659,0,0,1-.145-.06.714.714,0,0,1-.136-.1c-3-2.679-8.156-7.463-9.854-9.922a8.417,8.417,0,0,1-1.864-4.415,6.306,6.306,0,0,1,5.675-6.652" transform="translate(-35.58 -49.871)" fill="#cbcacb"/>
                  </g>
                </g>
              </g>
              <g id="Grupo_85338" data-name="Grupo 85338" transform="translate(0.635 0.44)" opacity="0.255">
                <g id="Grupo_85337" data-name="Grupo 85337">
                  <g id="Grupo_85336" data-name="Grupo 85336" clip-path="url(#clip-path-18)">
                    <path id="Trazado_161945" data-name="Trazado 161945" d="M41.283,51.531a4.95,4.95,0,0,1,4.49-.8,5.43,5.43,0,0,1,2.34,1.423c.272-.277.844-.247,1.166-.465a10.051,10.051,0,0,1,1.3-.832A7.073,7.073,0,0,1,53.713,50a7.249,7.249,0,0,1,1.681.136q.125.025.25.055a7.3,7.3,0,0,1,4.177,11.443c-1.955,2.742-7.668,8.047-10.239,10.385a1.97,1.97,0,0,1-1.836.476.632.632,0,0,1-.145-.058.67.67,0,0,1-.136-.095c-3.049-2.721-8.164-7.476-9.849-9.917a8.33,8.33,0,0,1-1.839-4.337,6.192,6.192,0,0,1,5.5-6.562" transform="translate(-35.772 -50)" fill="#c7c6c6"/>
                  </g>
                </g>
              </g>
              <g id="Grupo_85341" data-name="Grupo 85341" transform="translate(0.683 0.472)" opacity="0.275">
                <g id="Grupo_85340" data-name="Grupo 85340">
                  <g id="Grupo_85339" data-name="Grupo 85339" clip-path="url(#clip-path-19)">
                    <path id="Trazado_161946" data-name="Trazado 161946" d="M41.305,51.778a4.868,4.868,0,0,1,4.536-.944,5.394,5.394,0,0,1,2.4,1.435c.264-.27.85-.212,1.163-.424a10.349,10.349,0,0,1,1.291-.839,7.03,7.03,0,0,1,3.127-.871,7.2,7.2,0,0,1,1.681.126q.126.024.25.053a7.267,7.267,0,0,1,4.192,11.4c-1.947,2.731-7.634,8.015-10.208,10.356a2.006,2.006,0,0,1-1.823.5.6.6,0,0,1-.145-.055.645.645,0,0,1-.136-.094c-3.1-2.763-8.172-7.488-9.844-9.912a8.278,8.278,0,0,1-1.813-4.259,6.084,6.084,0,0,1,5.332-6.472" transform="translate(-35.966 -50.128)" fill="#c3c2c2"/>
                  </g>
                </g>
              </g>
              <g id="Grupo_85344" data-name="Grupo 85344" transform="translate(0.731 0.504)" opacity="0.294">
                <g id="Grupo_85343" data-name="Grupo 85343">
                  <g id="Grupo_85342" data-name="Grupo 85342" clip-path="url(#clip-path-20)">
                    <path id="Trazado_161947" data-name="Trazado 161947" d="M41.327,52.025a4.8,4.8,0,0,1,4.582-1.087,5.361,5.361,0,0,1,2.451,1.446c.257-.263.856-.177,1.161-.383a10.607,10.607,0,0,1,1.285-.846,6.994,6.994,0,0,1,3.118-.892,7.187,7.187,0,0,1,1.68.116c.084.016.167.033.25.052a7.236,7.236,0,0,1,4.207,11.363c-1.94,2.721-7.6,7.982-10.177,10.327a2.044,2.044,0,0,1-1.811.516.554.554,0,0,1-.144-.052.614.614,0,0,1-.136-.092c-3.142-2.8-8.179-7.5-9.84-9.906a8.2,8.2,0,0,1-1.788-4.18,5.972,5.972,0,0,1,5.161-6.382" transform="translate(-36.157 -50.255)" fill="#bebdbd"/>
                  </g>
                </g>
              </g>
              <g id="Grupo_85347" data-name="Grupo 85347" transform="translate(0.779 0.535)" opacity="0.314">
                <g id="Grupo_85346" data-name="Grupo 85346">
                  <g id="Grupo_85345" data-name="Grupo 85345" clip-path="url(#clip-path-21)">
                    <path id="Trazado_161948" data-name="Trazado 161948" d="M41.347,52.271a4.743,4.743,0,0,1,4.628-1.23A5.342,5.342,0,0,1,48.481,52.5c.25-.255.862-.141,1.159-.342a10.847,10.847,0,0,1,1.279-.853,6.956,6.956,0,0,1,3.109-.913,7.171,7.171,0,0,1,1.68.107q.126.023.251.051A7.2,7.2,0,0,1,60.18,61.872c-1.932,2.711-7.567,7.95-10.146,10.3a2.086,2.086,0,0,1-1.8.536.529.529,0,0,1-.145-.049.59.59,0,0,1-.135-.091c-3.19-2.847-8.187-7.513-9.835-9.9a8.119,8.119,0,0,1-1.763-4.1,5.862,5.862,0,0,1,4.989-6.292" transform="translate(-36.348 -50.38)" fill="#bab9b9"/>
                  </g>
                </g>
              </g>
              <g id="Grupo_85350" data-name="Grupo 85350" transform="translate(0.827 0.567)" opacity="0.333">
                <g id="Grupo_85349" data-name="Grupo 85349">
                  <g id="Grupo_85348" data-name="Grupo 85348" clip-path="url(#clip-path-22)">
                    <path id="Trazado_161949" data-name="Trazado 161949" d="M41.368,52.515a4.7,4.7,0,0,1,4.673-1.373,5.328,5.328,0,0,1,2.562,1.47c.243-.248.868-.106,1.156-.3a11.167,11.167,0,0,1,1.273-.86,6.918,6.918,0,0,1,3.1-.934,7.155,7.155,0,0,1,1.679.1c.084.015.167.032.25.05a7.211,7.211,0,0,1,5.6,6.152,7.287,7.287,0,0,1-1.36,5.131c-1.925,2.7-7.534,7.917-10.115,10.269a2.131,2.131,0,0,1-1.785.556.5.5,0,0,1-.144-.046.565.565,0,0,1-.135-.09c-3.237-2.889-8.194-7.526-9.831-9.9a8.042,8.042,0,0,1-1.738-4.023,5.753,5.753,0,0,1,4.818-6.2" transform="translate(-36.538 -50.505)" fill="#b6b4b5"/>
                  </g>
                </g>
              </g>
              <g id="Grupo_85353" data-name="Grupo 85353" transform="translate(0.874 0.598)" opacity="0.353">
                <g id="Grupo_85352" data-name="Grupo 85352">
                  <g id="Grupo_85351" data-name="Grupo 85351" clip-path="url(#clip-path-23)">
                    <path id="Trazado_161950" data-name="Trazado 161950" d="M41.388,52.76a4.668,4.668,0,0,1,4.719-1.516,5.317,5.317,0,0,1,2.617,1.482c.236-.241.874-.07,1.154-.26a11.542,11.542,0,0,1,1.268-.866,6.881,6.881,0,0,1,3.09-.955,7.11,7.11,0,0,1,1.678.088c.084.015.167.031.251.048a7.179,7.179,0,0,1,5.607,6.133,7.26,7.26,0,0,1-1.355,5.11c-1.918,2.69-7.5,7.885-10.084,10.24a2.179,2.179,0,0,1-1.773.576.475.475,0,0,1-.144-.043.535.535,0,0,1-.136-.089c-3.284-2.931-8.2-7.538-9.826-9.891a7.965,7.965,0,0,1-1.713-3.945,5.645,5.645,0,0,1,4.646-6.112" transform="translate(-36.728 -50.629)" fill="#b1b0b0"/>
                  </g>
                </g>
              </g>
              <g id="Grupo_85356" data-name="Grupo 85356" transform="translate(0.922 0.629)" opacity="0.373">
                <g id="Grupo_85355" data-name="Grupo 85355">
                  <g id="Grupo_85354" data-name="Grupo 85354" clip-path="url(#clip-path-24)">
                    <path id="Trazado_161951" data-name="Trazado 161951" d="M41.406,53a4.646,4.646,0,0,1,4.765-1.658,5.311,5.311,0,0,1,2.672,1.494c.229-.233.88-.035,1.151-.219a11.885,11.885,0,0,1,1.262-.873,6.846,6.846,0,0,1,3.08-.976,7.082,7.082,0,0,1,1.678.079c.084.014.167.03.251.047a7.148,7.148,0,0,1,5.617,6.113,7.23,7.23,0,0,1-1.349,5.09c-1.91,2.679-7.467,7.853-10.054,10.211a2.233,2.233,0,0,1-1.76.6.454.454,0,0,1-.144-.04.507.507,0,0,1-.136-.088c-3.331-2.973-8.21-7.551-9.821-9.885a7.891,7.891,0,0,1-1.688-3.867A5.539,5.539,0,0,1,41.406,53" transform="translate(-36.916 -50.753)" fill="#adacac"/>
                  </g>
                </g>
              </g>
              <g id="Grupo_85359" data-name="Grupo 85359" transform="translate(0.969 0.659)" opacity="0.392">
                <g id="Grupo_85358" data-name="Grupo 85358">
                  <g id="Grupo_85357" data-name="Grupo 85357" clip-path="url(#clip-path-25)">
                    <path id="Trazado_161952" data-name="Trazado 161952" d="M41.425,53.247a4.632,4.632,0,0,1,4.811-1.8,5.31,5.31,0,0,1,2.728,1.505c.221-.226.886,0,1.149-.177a12.287,12.287,0,0,1,1.256-.881,6.814,6.814,0,0,1,3.071-1,7.063,7.063,0,0,1,1.677.069c.084.014.168.029.251.046A7.116,7.116,0,0,1,61.994,57.1a7.2,7.2,0,0,1-1.344,5.069c-1.9,2.669-7.433,7.82-10.023,10.181a2.29,2.29,0,0,1-1.748.617.431.431,0,0,1-.144-.037.491.491,0,0,1-.135-.087c-3.378-3.015-8.217-7.563-9.816-9.88a7.817,7.817,0,0,1-1.663-3.789,5.434,5.434,0,0,1,4.3-5.932" transform="translate(-37.103 -50.874)" fill="#a9a7a8"/>
                  </g>
                </g>
              </g>
              <g id="Grupo_85362" data-name="Grupo 85362" transform="translate(1.015 0.69)" opacity="0.412">
                <g id="Grupo_85361" data-name="Grupo 85361">
                  <g id="Grupo_85360" data-name="Grupo 85360" clip-path="url(#clip-path-26)">
                    <path id="Trazado_161953" data-name="Trazado 161953" d="M41.442,53.489A4.627,4.627,0,0,1,46.3,51.545a5.309,5.309,0,0,1,2.783,1.517c.214-.219.892.036,1.146-.136a12.637,12.637,0,0,1,1.25-.888A6.778,6.778,0,0,1,54.54,51.02a7.034,7.034,0,0,1,1.677.06q.126.02.251.044A7.086,7.086,0,0,1,62.1,57.2a7.171,7.171,0,0,1-1.339,5.048c-1.9,2.659-7.4,7.788-9.992,10.152a2.353,2.353,0,0,1-1.735.637A.414.414,0,0,1,48.9,73a.482.482,0,0,1-.135-.086c-3.425-3.057-8.225-7.576-9.812-9.875a7.748,7.748,0,0,1-1.638-3.71,5.331,5.331,0,0,1,4.132-5.842" transform="translate(-37.29 -50.995)" fill="#a4a3a3"/>
                  </g>
                </g>
              </g>
              <g id="Grupo_85365" data-name="Grupo 85365" transform="translate(1.062 0.72)" opacity="0.431">
                <g id="Grupo_85364" data-name="Grupo 85364">
                  <g id="Grupo_85363" data-name="Grupo 85363" clip-path="url(#clip-path-27)">
                    <path id="Trazado_161954" data-name="Trazado 161954" d="M41.458,53.731a4.63,4.63,0,0,1,4.9-2.087A5.316,5.316,0,0,1,49.2,53.173c.207-.212.9.072,1.144-.1a13.056,13.056,0,0,1,1.244-.895,6.742,6.742,0,0,1,3.052-1.039,7,7,0,0,1,1.676.05q.126.02.251.043a7.055,7.055,0,0,1,5.646,6.055A7.144,7.144,0,0,1,60.88,62.32c-1.888,2.648-7.366,7.756-9.961,10.123A2.422,2.422,0,0,1,49.2,73.1a.391.391,0,0,1-.143-.031.449.449,0,0,1-.135-.084c-3.472-3.1-8.233-7.588-9.807-9.87A7.682,7.682,0,0,1,37.5,59.483a5.231,5.231,0,0,1,3.96-5.752" transform="translate(-37.475 -51.116)" fill="#a09e9f"/>
                  </g>
                </g>
              </g>
              <g id="Grupo_85368" data-name="Grupo 85368" transform="translate(1.108 0.75)" opacity="0.451">
                <g id="Grupo_85367" data-name="Grupo 85367">
                  <g id="Grupo_85366" data-name="Grupo 85366" clip-path="url(#clip-path-28)">
                    <path id="Trazado_161955" data-name="Trazado 161955" d="M41.476,53.972a4.639,4.639,0,0,1,4.948-2.23,5.325,5.325,0,0,1,2.894,1.541c.2-.2.9.107,1.141-.054a13.538,13.538,0,0,1,1.239-.9,6.713,6.713,0,0,1,3.043-1.06,6.975,6.975,0,0,1,1.676.041c.084.013.168.026.251.042a7.025,7.025,0,0,1,5.657,6.035A7.115,7.115,0,0,1,61,62.392c-1.881,2.638-7.333,7.723-9.93,10.094a2.5,2.5,0,0,1-1.71.677.377.377,0,0,1-.143-.028.436.436,0,0,1-.135-.083c-3.519-3.141-8.24-7.6-9.8-9.864a7.616,7.616,0,0,1-1.588-3.553,5.131,5.131,0,0,1,3.789-5.662" transform="translate(-37.66 -51.235)" fill="#9c9a9a"/>
                  </g>
                </g>
              </g>
              <g id="Grupo_85371" data-name="Grupo 85371" transform="translate(1.154 0.78)" opacity="0.471">
                <g id="Grupo_85370" data-name="Grupo 85370">
                  <g id="Grupo_85369" data-name="Grupo 85369" clip-path="url(#clip-path-29)">
                    <path id="Trazado_161956" data-name="Trazado 161956" d="M41.49,54.212a4.654,4.654,0,0,1,4.994-2.373,5.334,5.334,0,0,1,2.949,1.553c.193-.2.911.142,1.139-.013a14.018,14.018,0,0,1,1.233-.909,6.684,6.684,0,0,1,3.034-1.082,6.959,6.959,0,0,1,1.676.031c.084.012.167.026.251.041a7,7,0,0,1,5.666,6.016,7.086,7.086,0,0,1-1.323,4.987c-1.873,2.628-7.3,7.691-9.9,10.065a2.579,2.579,0,0,1-1.7.7.36.36,0,0,1-.143-.025.421.421,0,0,1-.135-.082c-3.566-3.183-8.248-7.613-9.8-9.859a7.549,7.549,0,0,1-1.563-3.475,5.035,5.035,0,0,1,3.617-5.572" transform="translate(-37.843 -51.353)" fill="#979696"/>
                  </g>
                </g>
              </g>
              <g id="Grupo_85374" data-name="Grupo 85374" transform="translate(1.2 0.809)" opacity="0.49">
                <g id="Grupo_85373" data-name="Grupo 85373">
                  <g id="Grupo_85372" data-name="Grupo 85372" clip-path="url(#clip-path-30)">
                    <path id="Trazado_161957" data-name="Trazado 161957" d="M41.5,54.452a4.674,4.674,0,0,1,5.04-2.515,5.348,5.348,0,0,1,3,1.565c.186-.19.917.178,1.137.028a14.52,14.52,0,0,1,1.227-.915,6.653,6.653,0,0,1,3.024-1.1,6.915,6.915,0,0,1,1.675.022q.126.017.251.039a6.966,6.966,0,0,1,5.676,6,7.057,7.057,0,0,1-1.318,4.966c-1.866,2.617-7.265,7.658-9.868,10.036a2.669,2.669,0,0,1-1.685.717.349.349,0,0,1-.143-.022.405.405,0,0,1-.135-.081c-3.613-3.225-8.255-7.626-9.794-9.854a7.487,7.487,0,0,1-1.537-3.4A4.94,4.94,0,0,1,41.5,54.452" transform="translate(-38.025 -51.471)" fill="#939192"/>
                  </g>
                </g>
              </g>
              <g id="Grupo_85377" data-name="Grupo 85377" transform="translate(1.245 0.838)" opacity="0.51">
                <g id="Grupo_85376" data-name="Grupo 85376">
                  <g id="Grupo_85375" data-name="Grupo 85375" clip-path="url(#clip-path-31)">
                    <path id="Trazado_161958" data-name="Trazado 161958" d="M41.517,54.691A4.7,4.7,0,0,1,46.6,52.033a5.365,5.365,0,0,1,3.059,1.576c.179-.182.923.213,1.134.07a15.083,15.083,0,0,1,1.221-.922,6.625,6.625,0,0,1,3.015-1.124,6.873,6.873,0,0,1,1.674.013c.084.011.168.024.251.038a6.936,6.936,0,0,1,5.686,5.977,7.027,7.027,0,0,1-1.312,4.945c-1.858,2.607-7.232,7.626-9.838,10.007a2.765,2.765,0,0,1-1.672.737.331.331,0,0,1-.143-.02.388.388,0,0,1-.135-.08c-3.66-3.267-8.263-7.638-9.789-9.849a7.431,7.431,0,0,1-1.513-3.318,4.849,4.849,0,0,1,3.274-5.392" transform="translate(-38.205 -51.587)" fill="#8f8d8d"/>
                  </g>
                </g>
              </g>
              <g id="Grupo_85380" data-name="Grupo 85380" transform="translate(1.29 0.867)" opacity="0.529">
                <g id="Grupo_85379" data-name="Grupo 85379">
                  <g id="Grupo_85378" data-name="Grupo 85378" clip-path="url(#clip-path-32)">
                    <path id="Trazado_161959" data-name="Trazado 161959" d="M41.528,54.929a4.731,4.731,0,0,1,5.131-2.8,5.384,5.384,0,0,1,3.115,1.588c.171-.175.929.248,1.132.111s.987-.835,1.215-.93a6.6,6.6,0,0,1,3.006-1.145,6.868,6.868,0,0,1,1.674,0c.084.011.168.023.251.037a6.907,6.907,0,0,1,5.7,5.958,7,7,0,0,1-1.307,4.925c-1.851,2.6-7.2,7.594-9.807,9.978a2.872,2.872,0,0,1-1.66.758.322.322,0,0,1-.142-.017.374.374,0,0,1-.135-.079c-3.707-3.309-8.27-7.65-9.784-9.843a7.379,7.379,0,0,1-1.487-3.24,4.761,4.761,0,0,1,3.1-5.3" transform="translate(-38.383 -51.703)" fill="#8b8889"/>
                  </g>
                </g>
              </g>
              <g id="Grupo_85383" data-name="Grupo 85383" transform="translate(1.334 0.896)" opacity="0.549">
                <g id="Grupo_85382" data-name="Grupo 85382">
                  <g id="Grupo_85381" data-name="Grupo 85381" clip-path="url(#clip-path-33)">
                    <path id="Trazado_161960" data-name="Trazado 161960" d="M41.538,55.166a4.766,4.766,0,0,1,5.177-2.944,5.4,5.4,0,0,1,3.17,1.6c.164-.168.935.284,1.129.152s.991-.846,1.209-.936a6.573,6.573,0,0,1,3-1.166,6.839,6.839,0,0,1,1.673-.006q.126.015.251.035a6.878,6.878,0,0,1,5.706,5.938,6.97,6.97,0,0,1-1.3,4.9c-1.844,2.586-7.165,7.561-9.776,9.949a2.992,2.992,0,0,1-1.647.778.311.311,0,0,1-.142-.014.365.365,0,0,1-.135-.078c-3.754-3.351-8.278-7.663-9.78-9.838a7.329,7.329,0,0,1-1.462-3.162,4.676,4.676,0,0,1,2.931-5.212" transform="translate(-38.56 -51.818)" fill="#868485"/>
                  </g>
                </g>
              </g>
              <g id="Grupo_85386" data-name="Grupo 85386" transform="translate(1.378 0.925)" opacity="0.569">
                <g id="Grupo_85385" data-name="Grupo 85385">
                  <g id="Grupo_85384" data-name="Grupo 85384" clip-path="url(#clip-path-34)">
                    <path id="Trazado_161961" data-name="Trazado 161961" d="M41.547,55.4a4.8,4.8,0,0,1,5.223-3.087A5.423,5.423,0,0,1,50,53.929c.157-.161.941.319,1.127.193s.994-.857,1.2-.944a6.544,6.544,0,0,1,2.987-1.187,6.8,6.8,0,0,1,1.673-.016c.084.01.168.021.251.034a6.849,6.849,0,0,1,5.716,5.919,6.941,6.941,0,0,1-1.3,4.883c-1.836,2.576-7.131,7.529-9.745,9.92a3.12,3.12,0,0,1-1.635.8.3.3,0,0,1-.142-.011A.35.35,0,0,1,50,73.442c-3.8-3.393-8.286-7.675-9.775-9.833a7.282,7.282,0,0,1-1.437-3.083,4.6,4.6,0,0,1,2.76-5.123" transform="translate(-38.735 -51.932)" fill="#828080"/>
                  </g>
                </g>
              </g>
              <g id="Grupo_85389" data-name="Grupo 85389" transform="translate(1.421 0.953)" opacity="0.588">
                <g id="Grupo_85388" data-name="Grupo 85388">
                  <g id="Grupo_85387" data-name="Grupo 85387" clip-path="url(#clip-path-35)">
                    <path id="Trazado_161962" data-name="Trazado 161962" d="M41.553,55.639a4.847,4.847,0,0,1,5.269-3.229,5.446,5.446,0,0,1,3.28,1.624c.15-.153.947.355,1.125.234s1-.868,1.2-.951A6.521,6.521,0,0,1,55.4,52.109a6.78,6.78,0,0,1,1.672-.025c.084.009.168.02.251.033a6.821,6.821,0,0,1,5.726,5.9,6.91,6.91,0,0,1-1.291,4.863c-1.829,2.566-7.1,7.5-9.714,9.891a3.267,3.267,0,0,1-1.622.818.288.288,0,0,1-.142-.008.339.339,0,0,1-.135-.075c-3.849-3.435-8.293-7.688-9.77-9.828a7.242,7.242,0,0,1-1.412-3,4.518,4.518,0,0,1,2.588-5.032" transform="translate(-38.906 -52.044)" fill="#7e7b7c"/>
                  </g>
                </g>
              </g>
              <g id="Grupo_85392" data-name="Grupo 85392" transform="translate(1.463 0.981)" opacity="0.608">
                <g id="Grupo_85391" data-name="Grupo 85391">
                  <g id="Grupo_85390" data-name="Grupo 85390" clip-path="url(#clip-path-36)">
                    <path id="Trazado_161963" data-name="Trazado 161963" d="M41.557,55.876A4.893,4.893,0,0,1,46.871,52.5a5.471,5.471,0,0,1,3.336,1.636c.143-.146.953.39,1.122.275s1-.879,1.192-.958a6.5,6.5,0,0,1,2.968-1.229,6.748,6.748,0,0,1,1.672-.035c.084.009.168.019.252.031a6.793,6.793,0,0,1,5.735,5.88,6.88,6.88,0,0,1-1.286,4.842c-1.822,2.555-7.064,7.464-9.683,9.862a3.425,3.425,0,0,1-1.609.838.28.28,0,0,1-.142,0,.331.331,0,0,1-.135-.074c-3.9-3.477-8.3-7.7-9.766-9.823a7.21,7.21,0,0,1-1.387-2.926,4.446,4.446,0,0,1,2.417-4.943" transform="translate(-39.074 -52.157)" fill="#797777"/>
                  </g>
                </g>
              </g>
              <g id="Grupo_85395" data-name="Grupo 85395" transform="translate(1.505 1.009)" opacity="0.627">
                <g id="Grupo_85394" data-name="Grupo 85394">
                  <g id="Grupo_85393" data-name="Grupo 85393" clip-path="url(#clip-path-37)">
                    <path id="Trazado_161964" data-name="Trazado 161964" d="M41.559,56.111a4.942,4.942,0,0,1,5.36-3.515,5.5,5.5,0,0,1,3.391,1.648c.136-.139.959.425,1.12.316s1.005-.89,1.186-.964a6.467,6.467,0,0,1,2.959-1.25,6.722,6.722,0,0,1,1.671-.044q.126.013.252.03a6.765,6.765,0,0,1,5.745,5.86,6.853,6.853,0,0,1-1.281,4.822c-1.814,2.545-7.031,7.432-9.653,9.833a3.606,3.606,0,0,1-1.6.858.276.276,0,0,1-.141,0,.321.321,0,0,1-.135-.073c-3.943-3.519-8.308-7.713-9.761-9.817a7.178,7.178,0,0,1-1.362-2.848,4.379,4.379,0,0,1,2.245-4.853" transform="translate(-39.239 -52.268)" fill="#757273"/>
                  </g>
                </g>
              </g>
              <g id="Grupo_85398" data-name="Grupo 85398" transform="translate(1.545 1.037)" opacity="0.647">
                <g id="Grupo_85397" data-name="Grupo 85397">
                  <g id="Grupo_85396" data-name="Grupo 85396" clip-path="url(#clip-path-38)">
                    <path id="Trazado_161965" data-name="Trazado 161965" d="M41.557,56.345a4.994,4.994,0,0,1,5.406-3.658,5.525,5.525,0,0,1,3.447,1.659c.128-.131.965.461,1.117.357s1.009-.9,1.18-.971a6.448,6.448,0,0,1,2.949-1.271,6.69,6.69,0,0,1,1.671-.054q.126.012.252.029a6.737,6.737,0,0,1,5.755,5.841,6.822,6.822,0,0,1-1.275,4.8c-1.807,2.534-7,7.4-9.622,9.8a3.805,3.805,0,0,1-1.584.879.266.266,0,0,1-.141,0,.307.307,0,0,1-.135-.072c-3.99-3.561-8.316-7.725-9.757-9.812a7.158,7.158,0,0,1-1.337-2.77,4.319,4.319,0,0,1,2.074-4.762" transform="translate(-39.401 -52.379)" fill="#716e6f"/>
                  </g>
                </g>
              </g>
              <g id="Grupo_85401" data-name="Grupo 85401" transform="translate(1.585 1.064)" opacity="0.667">
                <g id="Grupo_85400" data-name="Grupo 85400">
                  <g id="Grupo_85399" data-name="Grupo 85399" clip-path="url(#clip-path-39)">
                    <path id="Trazado_161966" data-name="Trazado 161966" d="M41.553,56.578A5.048,5.048,0,0,1,47,52.778a5.555,5.555,0,0,1,3.5,1.671c.121-.124.971.5,1.115.4s1.013-.912,1.174-.978a6.427,6.427,0,0,1,2.94-1.292,6.661,6.661,0,0,1,1.67-.063c.084.008.168.017.252.027a6.71,6.71,0,0,1,5.765,5.822,6.792,6.792,0,0,1-1.27,4.78c-1.8,2.524-6.963,7.367-9.591,9.775a4.034,4.034,0,0,1-1.572.9.258.258,0,0,1-.141,0,.3.3,0,0,1-.135-.071c-4.036-3.6-8.324-7.738-9.752-9.807a7.145,7.145,0,0,1-1.312-2.691,4.266,4.266,0,0,1,1.9-4.673" transform="translate(-39.558 -52.488)" fill="#6c6a6a"/>
                  </g>
                </g>
              </g>
              <g id="Grupo_85404" data-name="Grupo 85404" transform="translate(1.623 1.092)" opacity="0.686">
                <g id="Grupo_85403" data-name="Grupo 85403">
                  <g id="Grupo_85402" data-name="Grupo 85402" clip-path="url(#clip-path-40)">
                    <path id="Trazado_161967" data-name="Trazado 161967" d="M41.545,56.811a5.1,5.1,0,0,1,5.5-3.944A5.585,5.585,0,0,1,50.6,54.55c.114-.117.977.532,1.112.44s1.016-.922,1.168-.985a6.41,6.41,0,0,1,2.931-1.313,6.644,6.644,0,0,1,1.67-.073c.084.007.168.016.252.026a6.683,6.683,0,0,1,5.775,5.8,6.763,6.763,0,0,1-1.265,4.76c-1.792,2.514-6.93,7.335-9.56,9.745a4.286,4.286,0,0,1-1.559.919.254.254,0,0,1-.141.007.3.3,0,0,1-.135-.07c-4.084-3.645-8.331-7.75-9.747-9.8a7.15,7.15,0,0,1-1.287-2.613,4.22,4.22,0,0,1,1.731-4.583" transform="translate(-39.71 -52.597)" fill="#686566"/>
                  </g>
                </g>
              </g>
              <g id="Grupo_85407" data-name="Grupo 85407" transform="translate(1.659 1.119)" opacity="0.706">
                <g id="Grupo_85406" data-name="Grupo 85406">
                  <g id="Grupo_85405" data-name="Grupo 85405" clip-path="url(#clip-path-41)">
                    <path id="Trazado_161968" data-name="Trazado 161968" d="M41.532,57.044a5.168,5.168,0,0,1,5.543-4.086,5.627,5.627,0,0,1,3.612,1.695c.107-.109.983.567,1.11.481s1.02-.933,1.163-.992a6.386,6.386,0,0,1,2.921-1.334,6.6,6.6,0,0,1,1.669-.082q.126.01.252.025a6.656,6.656,0,0,1,5.785,5.783,6.734,6.734,0,0,1-1.26,4.739c-1.785,2.5-6.9,7.3-9.529,9.716a4.578,4.578,0,0,1-1.546.939.245.245,0,0,1-.141.01.283.283,0,0,1-.135-.069c-4.131-3.687-8.339-7.762-9.743-9.8a7.164,7.164,0,0,1-1.262-2.535,4.183,4.183,0,0,1,1.56-4.493" transform="translate(-39.856 -52.705)" fill="#646162"/>
                  </g>
                </g>
              </g>
              <g id="Grupo_85410" data-name="Grupo 85410" transform="translate(1.694 1.146)" opacity="0.725">
                <g id="Grupo_85409" data-name="Grupo 85409">
                  <g id="Grupo_85408" data-name="Grupo 85408" clip-path="url(#clip-path-42)">
                    <path id="Trazado_161969" data-name="Trazado 161969" d="M41.514,57.276A5.229,5.229,0,0,1,47.1,53.047a5.659,5.659,0,0,1,3.668,1.707c.1-.1.989.6,1.108.522s1.024-.945,1.157-1a6.367,6.367,0,0,1,2.912-1.355,6.585,6.585,0,0,1,1.668-.092c.084.006.168.014.252.024a6.629,6.629,0,0,1,5.795,5.763,6.7,6.7,0,0,1-1.254,4.718c-1.777,2.493-6.863,7.27-9.5,9.687a4.914,4.914,0,0,1-1.534.959.241.241,0,0,1-.14.013.276.276,0,0,1-.135-.067c-4.178-3.729-8.346-7.775-9.738-9.791a7.184,7.184,0,0,1-1.237-2.456,4.157,4.157,0,0,1,1.388-4.4" transform="translate(-39.995 -52.813)" fill="#5f5c5d"/>
                  </g>
                </g>
              </g>
              <g id="Grupo_85413" data-name="Grupo 85413" transform="translate(1.727 1.173)" opacity="0.745">
                <g id="Grupo_85412" data-name="Grupo 85412">
                  <g id="Grupo_85411" data-name="Grupo 85411" clip-path="url(#clip-path-43)">
                    <path id="Trazado_161970" data-name="Trazado 161970" d="M41.489,57.508a5.292,5.292,0,0,1,5.635-4.372,5.691,5.691,0,0,1,3.723,1.718c.093-.095,1,.638,1.105.563s1.027-.955,1.151-1.006a6.353,6.353,0,0,1,2.9-1.376,6.57,6.57,0,0,1,1.668-.1q.126.009.252.022a6.6,6.6,0,0,1,5.8,5.744,6.675,6.675,0,0,1-1.249,4.7c-1.77,2.483-6.829,7.238-9.467,9.658a5.3,5.3,0,0,1-1.522.979.235.235,0,0,1-.14.016.269.269,0,0,1-.135-.066c-4.225-3.771-8.354-7.787-9.733-9.786a7.231,7.231,0,0,1-1.212-2.378,4.143,4.143,0,0,1,1.217-4.313" transform="translate(-40.125 -52.919)" fill="#5b5859"/>
                  </g>
                </g>
              </g>
              <g id="Grupo_85416" data-name="Grupo 85416" transform="translate(1.757 1.199)" opacity="0.765">
                <g id="Grupo_85415" data-name="Grupo 85415">
                  <g id="Grupo_85414" data-name="Grupo 85414" clip-path="url(#clip-path-44)">
                    <path id="Trazado_161971" data-name="Trazado 161971" d="M41.457,57.739a5.356,5.356,0,0,1,5.681-4.515,5.723,5.723,0,0,1,3.778,1.73c.086-.088,1,.673,1.1.6s1.031-.966,1.145-1.014a6.334,6.334,0,0,1,2.894-1.4,6.529,6.529,0,0,1,1.667-.11c.084.005.168.012.252.021a6.577,6.577,0,0,1,5.814,5.725,6.643,6.643,0,0,1-1.244,4.677c-1.763,2.472-6.8,7.206-9.437,9.629a5.757,5.757,0,0,1-1.509,1,.232.232,0,0,1-.14.019.263.263,0,0,1-.135-.065c-4.272-3.813-8.362-7.8-9.729-9.781a7.29,7.29,0,0,1-1.186-2.3,4.143,4.143,0,0,1,1.045-4.223" transform="translate(-40.246 -53.025)" fill="#575454"/>
                  </g>
                </g>
              </g>
              <g id="Grupo_85419" data-name="Grupo 85419" transform="translate(1.784 1.226)" opacity="0.784">
                <g id="Grupo_85418" data-name="Grupo 85418">
                  <g id="Grupo_85417" data-name="Grupo 85417" clip-path="url(#clip-path-45)">
                    <path id="Trazado_161972" data-name="Trazado 161972" d="M41.417,57.968a5.422,5.422,0,0,1,5.727-4.658,5.756,5.756,0,0,1,3.834,1.742c.078-.08,1.007.709,1.1.646s1.034-.977,1.139-1.021A6.32,6.32,0,0,1,56.1,53.26a6.512,6.512,0,0,1,1.667-.12c.084.005.168.012.252.02a6.51,6.51,0,0,1,4.586,10.361c-1.755,2.462-6.762,7.173-9.405,9.6a6.289,6.289,0,0,1-1.5,1.019.225.225,0,0,1-.14.021.255.255,0,0,1-.135-.064c-4.319-3.855-8.369-7.812-9.724-9.775A7.393,7.393,0,0,1,40.543,62.1a4.159,4.159,0,0,1,.874-4.133" transform="translate(-40.354 -53.13)" fill="#524f50"/>
                  </g>
                </g>
              </g>
              <g id="Grupo_85422" data-name="Grupo 85422" transform="translate(1.808 1.252)" opacity="0.804">
                <g id="Grupo_85421" data-name="Grupo 85421">
                  <g id="Grupo_85420" data-name="Grupo 85420" clip-path="url(#clip-path-46)">
                    <path id="Trazado_161973" data-name="Trazado 161973" d="M41.365,58.2a5.49,5.49,0,0,1,5.772-4.8,5.79,5.79,0,0,1,3.889,1.754c.071-.073,1.013.744,1.1.687s1.038-.988,1.133-1.028a6.305,6.305,0,0,1,2.875-1.439,6.484,6.484,0,0,1,1.666-.129c.084,0,.168.011.252.018a6.483,6.483,0,0,1,4.6,10.321c-1.748,2.452-6.729,7.141-9.375,9.571a6.93,6.93,0,0,1-1.484,1.039.222.222,0,0,1-.14.024.247.247,0,0,1-.135-.063c-4.366-3.9-8.377-7.825-9.719-9.77a7.5,7.5,0,0,1-1.136-2.143,4.192,4.192,0,0,1,.7-4.043" transform="translate(-40.448 -53.234)" fill="#4e4b4c"/>
                  </g>
                </g>
              </g>
              <g id="Grupo_85425" data-name="Grupo 85425" transform="translate(1.827 1.277)" opacity="0.824">
                <g id="Grupo_85424" data-name="Grupo 85424">
                  <g id="Grupo_85423" data-name="Grupo 85423" clip-path="url(#clip-path-47)">
                    <path id="Trazado_161974" data-name="Trazado 161974" d="M41.3,58.427a5.559,5.559,0,0,1,5.818-4.943,5.825,5.825,0,0,1,3.944,1.766c.064-.066,1.019.78,1.1.728s1.042-1,1.127-1.035a6.284,6.284,0,0,1,2.865-1.46,6.455,6.455,0,0,1,1.666-.139c.084,0,.168.01.252.017a6.456,6.456,0,0,1,4.616,10.281c-1.74,2.441-6.7,7.108-9.344,9.542a7.7,7.7,0,0,1-1.471,1.06.219.219,0,0,1-.139.027.243.243,0,0,1-.135-.062c-4.413-3.939-8.384-7.837-9.715-9.765a7.673,7.673,0,0,1-1.111-2.064,4.247,4.247,0,0,1,.53-3.953" transform="translate(-40.523 -53.337)" fill="#4a4747"/>
                  </g>
                </g>
              </g>
              <g id="Grupo_85428" data-name="Grupo 85428" transform="translate(1.84 1.303)" opacity="0.843">
                <g id="Grupo_85427" data-name="Grupo 85427">
                  <g id="Grupo_85426" data-name="Grupo 85426" clip-path="url(#clip-path-48)">
                    <path id="Trazado_161975" data-name="Trazado 161975" d="M41.216,58.656A5.631,5.631,0,0,1,47.08,53.57a5.861,5.861,0,0,1,4,1.778c.057-.058,1.026.815,1.093.769s1.045-1.01,1.121-1.042a6.274,6.274,0,0,1,2.856-1.481,6.428,6.428,0,0,1,1.665-.148q.126.005.253.016A6.429,6.429,0,0,1,62.7,63.7c-1.733,2.431-6.662,7.076-9.313,9.513a8.685,8.685,0,0,1-1.459,1.08.214.214,0,0,1-.139.03.236.236,0,0,1-.135-.06c-4.46-3.981-8.392-7.85-9.71-9.76a7.9,7.9,0,0,1-1.086-1.986,4.328,4.328,0,0,1,.359-3.863" transform="translate(-40.576 -53.44)" fill="#464243"/>
                  </g>
                </g>
              </g>
              <g id="Grupo_85431" data-name="Grupo 85431" transform="translate(1.846 1.329)" opacity="0.863">
                <g id="Grupo_85430" data-name="Grupo 85430">
                  <g id="Grupo_85429" data-name="Grupo 85429" clip-path="url(#clip-path-49)">
                    <path id="Trazado_161976" data-name="Trazado 161976" d="M41.112,58.884a5.7,5.7,0,0,1,5.91-5.229,5.9,5.9,0,0,1,4.055,1.789c.05-.051,1.032.85,1.091.81s1.049-1.021,1.116-1.049a6.261,6.261,0,0,1,2.847-1.5,6.4,6.4,0,0,1,1.665-.158q.126,0,.253.014a6.4,6.4,0,0,1,4.646,10.2c-1.726,2.421-6.628,7.043-9.282,9.484a9.931,9.931,0,0,1-1.446,1.1.213.213,0,0,1-.139.033.23.23,0,0,1-.135-.059c-4.507-4.023-8.4-7.862-9.706-9.754a8.2,8.2,0,0,1-1.061-1.908,4.435,4.435,0,0,1,.187-3.773" transform="translate(-40.601 -53.542)" fill="#413e3f"/>
                  </g>
                </g>
              </g>
              <g id="Grupo_85434" data-name="Grupo 85434" transform="translate(1.844 1.354)" opacity="0.882">
                <g id="Grupo_85433" data-name="Grupo 85433">
                  <g id="Grupo_85432" data-name="Grupo 85432" clip-path="url(#clip-path-50)">
                    <path id="Trazado_161977" data-name="Trazado 161977" d="M40.983,59.111a5.776,5.776,0,0,1,5.956-5.372,5.934,5.934,0,0,1,4.11,1.8c.043-.044,1.038.886,1.089.851s1.053-1.032,1.11-1.056a6.252,6.252,0,0,1,2.837-1.523,6.385,6.385,0,0,1,1.664-.167q.126,0,.253.013A6.376,6.376,0,0,1,62.662,63.82c-1.718,2.41-6.594,7.011-9.251,9.455a11.6,11.6,0,0,1-1.434,1.12.211.211,0,0,1-.139.036.225.225,0,0,1-.135-.058C47.149,70.308,43.3,66.5,42,64.623a8.6,8.6,0,0,1-1.036-1.83,4.574,4.574,0,0,1,.016-3.683" transform="translate(-40.591 -53.643)" fill="#3d393a"/>
                  </g>
                </g>
              </g>
              <g id="Grupo_85437" data-name="Grupo 85437" transform="translate(1.902 1.379)" opacity="0.902">
                <g id="Grupo_85436" data-name="Grupo 85436">
                  <g id="Grupo_85435" data-name="Grupo 85435" clip-path="url(#clip-path-51)">
                    <path id="Trazado_161978" data-name="Trazado 161978" d="M41.035,59.338c.672-3.027,2.79-5.58,6-5.515A5.971,5.971,0,0,1,51.2,55.636c.036-.037,1.044.921,1.086.892s1.056-1.043,1.1-1.062a6.235,6.235,0,0,1,2.828-1.544,6.348,6.348,0,0,1,1.664-.177q.126,0,.253.012a6.35,6.35,0,0,1,4.677,10.121c-1.711,2.4-6.561,6.979-9.221,9.426a13.891,13.891,0,0,1-1.421,1.14.21.21,0,0,1-.139.039.221.221,0,0,1-.135-.057c-4.6-4.107-8.415-7.887-9.7-9.744a9.148,9.148,0,0,1-1.011-1.751,5.8,5.8,0,0,1-.155-3.593" transform="translate(-40.824 -53.743)" fill="#393536"/>
                  </g>
                </g>
              </g>
              <g id="Grupo_85440" data-name="Grupo 85440" transform="translate(1.868 1.404)" opacity="0.922">
                <g id="Grupo_85439" data-name="Grupo 85439">
                  <g id="Grupo_85438" data-name="Grupo 85438" clip-path="url(#clip-path-52)">
                    <path id="Trazado_161979" data-name="Trazado 161979" d="M40.811,59.564c.549-3.119,2.792-5.71,6.047-5.658a6.009,6.009,0,0,1,4.221,1.825c.029-.029,1.05.957,1.084.933s1.06-1.054,1.1-1.069a6.229,6.229,0,0,1,2.818-1.565,6.328,6.328,0,0,1,1.663-.186q.126,0,.253.01a6.324,6.324,0,0,1,4.692,10.081c-1.7,2.389-6.527,6.946-9.19,9.4a17.1,17.1,0,0,1-1.408,1.16.205.205,0,0,1-.138.042.214.214,0,0,1-.135-.056c-4.648-4.149-8.422-7.9-9.692-9.739a9.915,9.915,0,0,1-.986-1.673,5.9,5.9,0,0,1-.327-3.5" transform="translate(-40.687 -53.843)" fill="#343131"/>
                  </g>
                </g>
              </g>
              <g id="Grupo_85443" data-name="Grupo 85443" transform="translate(1.809 1.429)" opacity="0.941">
                <g id="Grupo_85442" data-name="Grupo 85442">
                  <g id="Grupo_85441" data-name="Grupo 85441" clip-path="url(#clip-path-53)">
                    <path id="Trazado_161980" data-name="Trazado 161980" d="M40.512,59.79c.418-3.207,2.792-5.84,6.093-5.8a6.048,6.048,0,0,1,4.276,1.837c.021-.022,1.056.992,1.081.975s1.064-1.065,1.092-1.077a6.22,6.22,0,0,1,2.809-1.586,6.3,6.3,0,0,1,1.663-.2c.084,0,.168,0,.253.009a6.3,6.3,0,0,1,4.707,10.041c-1.7,2.379-6.494,6.914-9.159,9.368-.557.513-1.05.911-1.4,1.18a.2.2,0,0,1-.138.045.211.211,0,0,1-.135-.055c-4.7-4.191-8.43-7.912-9.687-9.733a11.1,11.1,0,0,1-.961-1.594,5.994,5.994,0,0,1-.5-3.413" transform="translate(-40.451 -53.942)" fill="#302c2d"/>
                  </g>
                </g>
              </g>
              <g id="Grupo_85446" data-name="Grupo 85446" transform="translate(1.725 1.454)" opacity="0.961">
                <g id="Grupo_85445" data-name="Grupo 85445">
                  <g id="Grupo_85444" data-name="Grupo 85444" clip-path="url(#clip-path-54)">
                    <path id="Trazado_161981" data-name="Trazado 161981" d="M40.139,60.016a6.239,6.239,0,0,1,6.139-5.943,6.088,6.088,0,0,1,4.331,1.848c.014-.015,1.062,1.028,1.079,1.016s1.067-1.076,1.087-1.084a6.21,6.21,0,0,1,2.8-1.607,6.285,6.285,0,0,1,1.662-.2c.084,0,.169,0,.253.008a6.272,6.272,0,0,1,4.722,10c-1.689,2.369-6.46,6.882-9.128,9.338-.557.513-1.042.92-1.383,1.2a.2.2,0,0,1-.138.048.207.207,0,0,1-.135-.054c-4.742-4.233-8.437-7.924-9.682-9.728a12.938,12.938,0,0,1-.936-1.516,6.076,6.076,0,0,1-.67-3.323" transform="translate(-40.116 -54.042)" fill="#2c2829"/>
                  </g>
                </g>
              </g>
              <g id="Grupo_85449" data-name="Grupo 85449" transform="translate(1.62 1.478)" opacity="0.98">
                <g id="Grupo_85448" data-name="Grupo 85448">
                  <g id="Grupo_85447" data-name="Grupo 85447" clip-path="url(#clip-path-55)">
                    <path id="Trazado_161982" data-name="Trazado 161982" d="M39.705,60.24a6.234,6.234,0,0,1,6.184-6.086,6.126,6.126,0,0,1,4.387,1.86c.007-.007,1.068,1.063,1.077,1.057s1.071-1.087,1.08-1.091a6.191,6.191,0,0,1,4.452-1.842c.084,0,.168,0,.253.006a6.246,6.246,0,0,1,4.737,9.961c-1.681,2.358-6.426,6.849-9.1,9.309-.557.513-1.033.93-1.371,1.221a.2.2,0,0,1-.138.051.2.2,0,0,1-.135-.053c-4.789-4.275-8.445-7.937-9.678-9.723a16,16,0,0,1-.911-1.438,6.106,6.106,0,0,1-.841-3.233" transform="translate(-39.7 -54.139)" fill="#272324"/>
                  </g>
                </g>
              </g>
              <g id="Grupo_85452" data-name="Grupo 85452" transform="translate(1.503 1.503)">
                <g id="Grupo_85451" data-name="Grupo 85451">
                  <g id="Grupo_85450" data-name="Grupo 85450" clip-path="url(#clip-path-56)">
                    <path id="Trazado_161983" data-name="Trazado 161983" d="M50.939,74.735a.2.2,0,0,1-.135-.052c-4.836-4.317-8.453-7.949-9.673-9.718-1.039-1.5-1.9-2.882-1.9-4.5a6.237,6.237,0,0,1,6.23-6.229,6.167,6.167,0,0,1,4.442,1.872l1.074,1.1,1.074-1.1A6.172,6.172,0,0,1,56.5,54.235q.126,0,.253.005A6.221,6.221,0,0,1,61.5,64.161C59.479,67,53.011,72.931,51.077,74.682a.2.2,0,0,1-.138.054" transform="translate(-39.233 -54.235)" fill="#231f20"/>
                  </g>
                </g>
              </g>
            </g>
          </g>
        </g>
        <path id="Trazado_161984" data-name="Trazado 161984" d="M65.348,57.366a6.782,6.782,0,0,0-6.425-5.942,6.706,6.706,0,0,0-5.083,2.022,6.738,6.738,0,0,0-11.556,4.716,8.277,8.277,0,0,0,1.888,4.671c1.608,2.33,6.517,6.812,8.642,8.708a1.487,1.487,0,0,0,1.99-.008c2.211-2,7.491-6.878,9.279-9.387a6.776,6.776,0,0,0,1.264-4.781" transform="translate(-31.674 -38.516)" fill="#fff"/>
        <path id="Trazado_161985" data-name="Trazado 161985" d="M99.454,57.369a6.782,6.782,0,0,0-6.424-5.942c-.14-.006-.278-.006-.415,0,.076,0,.152,0,.229,0A6.736,6.736,0,0,1,98,62.149c-1.788,2.509-7.068,7.385-9.279,9.387a1.486,1.486,0,0,1-.909.382,1.487,1.487,0,0,0,1.1-.382c2.211-2,7.491-6.878,9.279-9.387a6.775,6.775,0,0,0,1.264-4.781" transform="translate(-65.779 -38.519)" fill="#ff86cd"/>
        <path id="Trazado_161986" data-name="Trazado 161986" d="M53.374,72.135c-2.125-1.9-7.034-6.379-8.642-8.708a8.277,8.277,0,0,1-1.888-4.671,6.743,6.743,0,0,1,4.329-6.3,6.743,6.743,0,0,0-4.887,6.482,8.277,8.277,0,0,0,1.888,4.671c1.608,2.33,6.517,6.812,8.642,8.708a1.486,1.486,0,0,0,1.73.179,1.483,1.483,0,0,1-1.173-.365" transform="translate(-31.675 -39.295)" fill="#bf2980"/>
      </g>
    </g>
  </g>
</svg>
