<svg xmlns="http://www.w3.org/2000/svg" xmlns:xlink="http://www.w3.org/1999/xlink" width="139.667" height="129.187" viewBox="0 0 139.667 129.187">
  <defs>
    <clipPath id="clip-path">
      <rect id="Rectángulo_35671" data-name="Rectángulo 35671" width="139.667" height="129.187" fill="none"/>
    </clipPath>
    <clipPath id="clip-path-2">
      <path id="Trazado_161754" data-name="Trazado 161754" d="M192.927,92.367c.02.021.041.041.061.061q.323.331.633.674c.039.042.076.086.114.129.167.187.333.376.5.569.074.088.146.179.218.268.121.148.242.3.359.446.079.1.154.2.232.3.109.144.217.288.323.434.078.108.154.218.231.327.1.144.2.287.3.432q.114.17.225.344.141.218.28.439.109.177.216.355c.09.149.177.3.264.452q.1.181.205.364.128.232.25.467c.064.122.128.244.191.367.086.17.169.342.252.514.057.118.114.235.17.354.085.184.168.372.25.559.048.109.1.218.144.328q.172.409.334.827c.013.033.027.065.039.1.12.312.233.628.343.947.031.09.059.183.09.274.08.24.158.481.232.725.037.122.072.245.108.369q.1.326.184.658c.034.127.067.254.1.382q.1.384.186.775c.025.11.052.221.075.332q.12.551.223,1.113c0,.021.007.044.011.065.069.386.13.778.186,1.172.016.118.032.237.048.355q.067.507.12,1.022c.009.087.019.172.028.259.048.5.083,1,.112,1.515.005.1.011.209.015.314.024.512.039,1.03.042,1.553,0,.119,0,.24,0,.359,0,.27,0,.54-.009.813,0,.151-.009.3-.014.453q-.013.381-.033.765c-.008.156-.016.312-.027.469-.016.261-.036.525-.057.788-.012.149-.024.3-.037.449-.027.3-.06.6-.094.908-.013.114-.023.226-.037.341q-.072.6-.161,1.214c-.073.5-.158,1.007-.248,1.51-.022.119-.043.239-.065.358-.093.5-.191.993-.3,1.488-.011.049-.023.1-.034.147q-.152.688-.325,1.375c-.029.115-.057.23-.087.345q-.189.736-.4,1.469c-.022.077-.046.154-.069.231q-.192.652-.4,1.3c-.035.108-.068.215-.1.322q-.237.726-.5,1.447c-.034.1-.069.189-.1.284q-.23.634-.477,1.265c-.037.095-.072.189-.11.284q-.284.716-.588,1.427c-.055.128-.111.256-.167.384q-.175.4-.355.8-.1.213-.195.426-.188.406-.382.81c-.061.127-.121.254-.183.381q-.262.536-.534,1.068l-.052.1q-.3.582-.612,1.157c-.042.077-.084.153-.126.23q-.457.835-.937,1.661l-.011.019c-.323.551-.657,1.1-1,1.64-.047.075-.093.151-.141.226q-.414.656-.844,1.3l-.192.285q-.378.562-.766,1.116l-.172.247q-.414.585-.84,1.162c-.061.083-.124.165-.186.248q-.345.462-.7.919l-.273.352q-.309.395-.624.785c-.079.1-.157.2-.237.3q-.431.529-.873,1.05l-.061.071q-.864,1.014-1.766,1.995l-.168.183q-.852.921-1.737,1.811l-.118.12q-.919.92-1.871,1.8l-.075.069q-.911.844-1.851,1.651l-.184.157q-.9.772-1.832,1.509l-.193.154q-.98.773-1.985,1.507l-.079.059q-1.054.765-2.133,1.484l-.315.207q-.366.242-.736.478l-.4.252q-.359.225-.72.445l-.386.234q-.511.3-1.026.6l-.135.078q-.583.332-1.171.647l-.309.164q-.5.266-1,.521l-.344.173q-.635.316-1.274.617l-.1.044c-.462.215-.926.421-1.391.621l-.3.13q-.72.3-1.445.588l-.226.087q-.933.358-1.874.68l-.21.07q-.943.316-1.893.594l-.217.061c-.6.173-1.21.335-1.817.483l-.141.033c-.636.153-1.273.294-1.912.418-10.906,2.126-20.191-.294-26.543-5.968l11.931,10.66c4.8,4.288,11.277,6.718,18.862,6.731h.132a39.848,39.848,0,0,0,7.549-.763c.638-.125,1.275-.265,1.911-.418l.141-.033c.608-.148,1.213-.31,1.817-.483.047-.014.094-.024.141-.037l.076-.024q.95-.277,1.893-.594l.21-.07q.94-.32,1.873-.679c.044-.017.088-.032.133-.048l.1-.039q.725-.282,1.443-.588l.3-.131c.465-.2.928-.406,1.389-.62l.077-.035.024-.012c.426-.2.85-.4,1.272-.615l.347-.176q.5-.254,1-.519c.069-.037.14-.071.209-.109l.1-.056c.391-.211.781-.426,1.168-.646l.139-.08q.514-.294,1.025-.6l.137-.08.247-.152q.361-.22.72-.445l.4-.253q.37-.236.737-.478c.085-.056.17-.109.254-.165.02-.013.04-.028.06-.042q1.078-.719,2.133-1.484l.026-.018.055-.042q1-.732,1.984-1.506c.029-.023.059-.043.087-.066s.07-.059.105-.087q.928-.738,1.832-1.51l.1-.086c.027-.023.052-.048.079-.071q.939-.808,1.851-1.651l.051-.046.024-.023q.951-.883,1.871-1.8l.045-.043c.025-.025.048-.051.073-.076q.884-.889,1.737-1.811c.029-.032.06-.061.089-.093s.053-.061.08-.09q.9-.979,1.764-1.993l.037-.042.027-.032q.442-.52.872-1.049c.08-.1.158-.2.237-.294q.316-.392.626-.788c.045-.058.091-.114.137-.171s.09-.12.135-.178q.353-.457.7-.919c.062-.083.125-.165.187-.249q.426-.576.839-1.16l.058-.079c.04-.057.077-.115.117-.172q.388-.554.764-1.115l.191-.284q.429-.648.844-1.3c.018-.029.037-.056.055-.085.029-.047.057-.1.087-.142q.509-.814.995-1.638l.014-.024q.481-.823.935-1.656c.026-.047.053-.093.079-.139l.048-.092q.312-.577.612-1.158l.045-.091q.276-.537.54-1.078c.062-.128.122-.256.184-.384.128-.268.256-.536.38-.806q.1-.215.2-.43.18-.4.354-.8c.039-.09.08-.178.119-.268.017-.039.032-.077.048-.116q.3-.711.588-1.427c.037-.094.074-.189.11-.284q.247-.631.478-1.266c.034-.094.069-.188.1-.282q.258-.722.5-1.448c.035-.107.069-.215.1-.322q.208-.649.4-1.3c.022-.077.046-.154.069-.231q.212-.733.4-1.469c.029-.115.058-.23.087-.345q.172-.686.325-1.375c.011-.049.023-.1.034-.147.108-.5.206-.992.3-1.489.022-.119.044-.239.065-.359.09-.5.175-1.006.248-1.509q.089-.612.16-1.215c0-.02.005-.04.008-.06.011-.094.019-.187.029-.281.034-.3.066-.607.093-.908.014-.151.025-.3.037-.45.021-.264.041-.527.058-.788.01-.156.019-.313.027-.469q.02-.385.032-.766c.005-.151.011-.3.014-.453.006-.272.008-.541.009-.809,0-.1,0-.2,0-.3,0-.022,0-.044,0-.067,0-.524-.019-1.04-.042-1.553-.005-.1-.01-.208-.016-.312-.028-.511-.064-1.016-.112-1.515,0-.021,0-.043,0-.064-.007-.066-.016-.13-.023-.2q-.053-.515-.12-1.023c-.016-.119-.032-.237-.049-.355-.056-.393-.117-.783-.186-1.169,0-.019-.005-.039-.009-.058a.1.1,0,0,1,0-.012c-.068-.375-.143-.746-.222-1.113-.024-.111-.051-.22-.075-.33q-.088-.391-.186-.775c-.016-.062-.029-.126-.045-.188s-.037-.129-.055-.194q-.088-.332-.184-.66c-.036-.122-.07-.245-.108-.366-.074-.244-.152-.485-.232-.726-.025-.074-.047-.15-.072-.224-.006-.017-.012-.034-.019-.051q-.164-.479-.342-.947c-.012-.032-.025-.062-.038-.094-.108-.28-.219-.557-.335-.831-.008-.021-.016-.042-.025-.063-.038-.09-.08-.177-.119-.266-.082-.187-.164-.374-.25-.559-.055-.119-.112-.236-.169-.354-.083-.173-.166-.345-.253-.515-.023-.046-.045-.093-.068-.139-.039-.076-.082-.151-.122-.226-.083-.157-.166-.313-.251-.468q-.1-.183-.2-.364-.131-.228-.265-.453c-.038-.063-.073-.127-.112-.19s-.07-.109-.1-.164c-.092-.149-.186-.3-.28-.442-.075-.115-.149-.229-.224-.342-.1-.146-.2-.291-.3-.434-.052-.074-.1-.151-.154-.224-.025-.035-.051-.067-.075-.1-.106-.147-.216-.291-.324-.435-.077-.1-.153-.2-.231-.3-.117-.15-.238-.3-.359-.445-.061-.076-.12-.153-.182-.227l-.037-.042c-.162-.193-.327-.382-.5-.569-.038-.043-.074-.087-.113-.13q-.31-.343-.632-.672l-.021-.023c-.013-.014-.028-.026-.041-.04q-.569-.58-1.174-1.123h0l-11.932-10.66q.606.542,1.176,1.124" transform="translate(-126.204 -91.243)" fill="none"/>
    </clipPath>
    <linearGradient id="linear-gradient" x1="-0.271" y1="0.865" x2="-0.268" y2="0.865" gradientUnits="objectBoundingBox">
      <stop offset="0" stop-color="#bf287f"/>
      <stop offset="0.329" stop-color="#d13d97"/>
      <stop offset="1" stop-color="#ff74d4"/>
    </linearGradient>
    <clipPath id="clip-path-4">
      <path id="Trazado_161757" data-name="Trazado 161757" d="M161.334,93.163c-19.018,3.707-36.757,22.614-39.621,42.229S131.944,167.9,150.962,164.2s36.76-22.615,39.624-42.23c2.533-17.347-7.42-29.439-22.909-29.44a33.112,33.112,0,0,0-6.344.635" transform="translate(-121.32 -92.528)" fill="none"/>
    </clipPath>
    <linearGradient id="linear-gradient-2" x1="-0.313" y1="0.999" x2="-0.309" y2="0.999" gradientUnits="objectBoundingBox">
      <stop offset="0" stop-color="#ff36ab"/>
      <stop offset="0.44" stop-color="#ff4ebb"/>
      <stop offset="1" stop-color="#ff74d4"/>
    </linearGradient>
    <clipPath id="clip-path-6">
      <path id="Trazado_161759" data-name="Trazado 161759" d="M176.7,123.813c-12.18,2.374-23.542,14.483-25.376,27.046s6.553,20.823,18.734,18.449,23.543-14.484,25.377-27.047c1.622-11.11-4.752-18.854-14.672-18.855a21.216,21.216,0,0,0-4.063.407" transform="translate(-151.068 -123.406)" fill="none"/>
    </clipPath>
    <linearGradient id="linear-gradient-3" x1="-0.775" y1="1.291" x2="-0.769" y2="1.291" xlink:href="#linear-gradient-2"/>
    <clipPath id="clip-path-8">
      <path id="Trazado_161761" data-name="Trazado 161761" d="M191.7,153.741c-5.5,1.073-10.637,6.544-11.466,12.221s2.961,9.409,8.464,8.336,10.638-6.545,11.467-12.221c.733-5.02-2.147-8.519-6.629-8.52a9.586,9.586,0,0,0-1.836.184" transform="translate(-180.117 -153.557)" fill="none"/>
    </clipPath>
    <linearGradient id="linear-gradient-4" x1="-2.305" y1="2.252" x2="-2.291" y2="2.252" xlink:href="#linear-gradient-2"/>
    <clipPath id="clip-path-10">
      <rect id="Rectángulo_35665" data-name="Rectángulo 35665" width="78.91" height="64.311" fill="none"/>
    </clipPath>
    <clipPath id="clip-path-11">
      <path id="Trazado_161763" data-name="Trazado 161763" d="M97.659,93.863a1.85,1.85,0,0,1-.914-.4L21.555,32.878a1.86,1.86,0,1,1,2.335-2.9l75.19,60.589a1.861,1.861,0,0,1-1.42,3.292" transform="translate(-20.862 -29.569)" fill="none"/>
    </clipPath>
    <linearGradient id="linear-gradient-5" x1="0.016" y1="1.328" x2="0.02" y2="1.328" gradientUnits="objectBoundingBox">
      <stop offset="0" stop-color="#1d1d1b"/>
      <stop offset="0.043" stop-color="#333331"/>
      <stop offset="0.156" stop-color="#686867"/>
      <stop offset="0.27" stop-color="#969695"/>
      <stop offset="0.383" stop-color="#bcbcbb"/>
      <stop offset="0.494" stop-color="#d9d9d9"/>
      <stop offset="0.605" stop-color="#eee"/>
      <stop offset="0.712" stop-color="#fafafa"/>
      <stop offset="0.815" stop-color="#fff"/>
      <stop offset="1" stop-color="#fff"/>
    </linearGradient>
    <clipPath id="clip-path-12">
      <rect id="Rectángulo_35667" data-name="Rectángulo 35667" width="32.889" height="19.518" fill="none"/>
    </clipPath>
    <clipPath id="clip-path-13">
      <path id="Trazado_161767" data-name="Trazado 161767" d="M13.045,40.678,0,43.5,20.209,60.2l12.68-3.528Z" transform="translate(0 -40.678)" fill="none"/>
    </clipPath>
    <linearGradient id="linear-gradient-6" x1="0.032" y1="3.188" x2="0.044" y2="3.188" xlink:href="#linear-gradient-5"/>
    <clipPath id="clip-path-14">
      <rect id="Rectángulo_35669" data-name="Rectángulo 35669" width="20.797" height="30.836" fill="none"/>
    </clipPath>
    <clipPath id="clip-path-15">
      <path id="Trazado_161769" data-name="Trazado 161769" d="M31.682,0l20.6,14.648.2,16.188L32.635,14.846Z" transform="translate(-31.682)" fill="none"/>
    </clipPath>
    <linearGradient id="linear-gradient-7" x1="-0.138" y1="3.775" x2="-0.127" y2="3.775" gradientUnits="objectBoundingBox">
      <stop offset="0" stop-color="#1d1d1b"/>
      <stop offset="0.815" stop-color="#fff"/>
      <stop offset="1" stop-color="#fff"/>
    </linearGradient>
  </defs>
  <g id="Grupo_85464" data-name="Grupo 85464" transform="translate(41 122)">
    <g id="Grupo_84803" data-name="Grupo 84803" transform="translate(-41 -122)" clip-path="url(#clip-path)">
      <g id="Grupo_84773" data-name="Grupo 84773" transform="translate(53.126 38.409)">
        <g id="Grupo_84772" data-name="Grupo 84772" clip-path="url(#clip-path-2)">
          <rect id="Rectángulo_35657" data-name="Rectángulo 35657" width="125.036" height="124.425" transform="translate(-44.445 54.596) rotate(-50.852)" fill="url(#linear-gradient)"/>
        </g>
      </g>
      <g id="Grupo_84775" data-name="Grupo 84775">
        <g id="Grupo_84774" data-name="Grupo 84774" clip-path="url(#clip-path)">
          <path id="Trazado_161755" data-name="Trazado 161755" d="M152.739,76.013c-22.844,4.453-44.152,27.163-47.592,50.725s12.289,39.052,35.133,34.6,44.155-27.164,47.6-50.726-12.293-39.052-35.137-34.6" transform="translate(-60.612 -43.574)" fill="#fffcfb"/>
          <path id="Trazado_161756" data-name="Trazado 161756" d="M188.61,116.924a37.435,37.435,0,0,1,1.1,16.859c-3.44,23.562-24.751,46.273-47.6,50.726-16.368,3.19-29.082-3.859-33.711-16.778,4.333,13.528,17.269,21.006,34.038,17.738,22.844-4.453,44.155-27.164,47.6-50.725a36.885,36.885,0,0,0-1.423-17.819" transform="translate(-62.769 -67.705)" fill="#ff74d4"/>
        </g>
      </g>
      <g id="Grupo_84777" data-name="Grupo 84777" transform="translate(51.07 38.95)">
        <g id="Grupo_84776" data-name="Grupo 84776" clip-path="url(#clip-path-4)">
          <rect id="Rectángulo_35659" data-name="Rectángulo 35659" width="105.431" height="105.285" transform="translate(-39.508 44.668) rotate(-50.336)" fill="url(#linear-gradient-2)"/>
        </g>
      </g>
      <g id="Grupo_84779" data-name="Grupo 84779">
        <g id="Grupo_84778" data-name="Grupo 84778" clip-path="url(#clip-path)">
          <path id="Trazado_161758" data-name="Trazado 161758" d="M169.268,108.992c-15.487,3.019-29.932,18.414-32.264,34.388s8.331,26.475,23.818,23.456,29.934-18.415,32.267-34.388-8.334-26.474-23.82-23.456" transform="translate(-79.147 -62.813)" fill="#fffcfb"/>
        </g>
      </g>
      <g id="Grupo_84781" data-name="Grupo 84781" transform="translate(63.592 51.948)">
        <g id="Grupo_84780" data-name="Grupo 84780" clip-path="url(#clip-path-6)">
          <rect id="Rectángulo_35661" data-name="Rectángulo 35661" width="67.277" height="67.148" transform="matrix(0.611, -0.792, 0.792, 0.611, -24.927, 30.276)" fill="url(#linear-gradient-3)"/>
        </g>
      </g>
      <g id="Grupo_84783" data-name="Grupo 84783">
        <g id="Grupo_84782" data-name="Grupo 84782" clip-path="url(#clip-path)">
          <path id="Trazado_161760" data-name="Trazado 161760" d="M184.305,138.995c-8.793,1.714-17,10.456-18.319,19.525s4.731,15.032,13.523,13.318,17-10.456,18.321-19.525-4.732-15.032-13.525-13.318" transform="translate(-96.009 -80.315)" fill="#fffcfb"/>
        </g>
      </g>
      <g id="Grupo_84785" data-name="Grupo 84785" transform="translate(75.82 64.64)">
        <g id="Grupo_84784" data-name="Grupo 84784" clip-path="url(#clip-path-8)">
          <rect id="Rectángulo_35663" data-name="Rectángulo 35663" width="30.607" height="30.619" transform="matrix(0.724, -0.689, 0.689, 0.724, -11.608, 10.369)" fill="url(#linear-gradient-4)"/>
        </g>
      </g>
      <g id="Grupo_84802" data-name="Grupo 84802">
        <g id="Grupo_84801" data-name="Grupo 84801" clip-path="url(#clip-path)">
          <path id="Trazado_161762" data-name="Trazado 161762" d="M97.659,93.863a1.856,1.856,0,0,1-.915-.395l-75.19-60.59a1.86,1.86,0,1,1,2.335-2.9l75.19,60.59a1.861,1.861,0,0,1-1.42,3.292" transform="translate(-12.08 -17.122)" fill="#fff"/>
          <g id="Grupo_84790" data-name="Grupo 84790" transform="translate(8.782 12.447)" opacity="0.5" style="mix-blend-mode: multiply;isolation: isolate">
            <g id="Grupo_84789" data-name="Grupo 84789">
              <g id="Grupo_84788" data-name="Grupo 84788" clip-path="url(#clip-path-10)">
                <g id="Grupo_84787" data-name="Grupo 84787" transform="translate(0 0)">
                  <g id="Grupo_84786" data-name="Grupo 84786" clip-path="url(#clip-path-11)">
                    <rect id="Rectángulo_35664" data-name="Rectángulo 35664" width="99.677" height="102.318" transform="matrix(0.612, -0.791, 0.791, 0.612, -31.505, 40.179)" fill="url(#linear-gradient-5)"/>
                  </g>
                </g>
              </g>
            </g>
          </g>
          <path id="Trazado_161764" data-name="Trazado 161764" d="M52.479,30.836l-.2-16.188L31.682,0l.953,14.846Z" transform="translate(-18.345 0)" fill="#4361ee"/>
          <path id="Trazado_161765" data-name="Trazado 161765" d="M51.861,14.967l.191,15.525.427.344-.2-16.188L31.682,0l.041.646Z" transform="translate(-18.345 0)" fill="#6981f1"/>
          <path id="Trazado_161766" data-name="Trazado 161766" d="M13.045,40.678,0,43.5,20.209,60.2l12.68-3.527Z" transform="translate(0 -23.554)" fill="#4361ee"/>
          <g id="Grupo_84795" data-name="Grupo 84795" transform="translate(0 17.123)" opacity="0.5" style="mix-blend-mode: multiply;isolation: isolate">
            <g id="Grupo_84794" data-name="Grupo 84794">
              <g id="Grupo_84793" data-name="Grupo 84793" clip-path="url(#clip-path-12)">
                <g id="Grupo_84792" data-name="Grupo 84792">
                  <g id="Grupo_84791" data-name="Grupo 84791" clip-path="url(#clip-path-13)">
                    <rect id="Rectángulo_35666" data-name="Rectángulo 35666" width="35.166" height="38.07" transform="translate(-9.299 12.721) rotate(-53.835)" fill="url(#linear-gradient-6)"/>
                  </g>
                </g>
              </g>
            </g>
          </g>
          <path id="Trazado_161768" data-name="Trazado 161768" d="M20.259,63.589.394,47.174,0,47.259l20.209,16.7,12.68-3.528-.327-.264Z" transform="translate(0 -27.316)" fill="#6981f1"/>
          <g id="Grupo_84800" data-name="Grupo 84800" transform="translate(13.336)" opacity="0.5" style="mix-blend-mode: multiply;isolation: isolate">
            <g id="Grupo_84799" data-name="Grupo 84799">
              <g id="Grupo_84798" data-name="Grupo 84798" clip-path="url(#clip-path-14)">
                <g id="Grupo_84797" data-name="Grupo 84797" transform="translate(0)">
                  <g id="Grupo_84796" data-name="Grupo 84796" clip-path="url(#clip-path-15)">
                    <rect id="Rectángulo_35668" data-name="Rectángulo 35668" width="37.188" height="34.742" transform="translate(-14.503 20.65) rotate(-54.919)" fill="url(#linear-gradient-7)"/>
                  </g>
                </g>
              </g>
            </g>
          </g>
        </g>
      </g>
    </g>
  </g>
</svg>
