<svg xmlns="http://www.w3.org/2000/svg" width="31.798" height="27.823" viewBox="0 0 31.798 27.823">
  <g id="Grupo_70244" data-name="Grupo 70244" transform="translate(-202.093)">
    <path id="Icon_awesome-quote-right" data-name="Icon awesome-quote-right" d="M28.817,2.25h-7.95a2.982,2.982,0,0,0-2.981,2.981v7.95a2.982,2.982,0,0,0,2.981,2.981h4.968v3.975a3.978,3.978,0,0,1-3.975,3.975h-.5A1.487,1.487,0,0,0,19.874,25.6v2.981a1.487,1.487,0,0,0,1.491,1.491h.5A9.934,9.934,0,0,0,31.8,20.136V5.231A2.982,2.982,0,0,0,28.817,2.25Zm-17.886,0H2.981A2.982,2.982,0,0,0,0,5.231v7.95a2.982,2.982,0,0,0,2.981,2.981H7.95v3.975a3.978,3.978,0,0,1-3.975,3.975h-.5A1.487,1.487,0,0,0,1.987,25.6v2.981a1.487,1.487,0,0,0,1.491,1.491h.5a9.934,9.934,0,0,0,9.937-9.937V5.231A2.982,2.982,0,0,0,10.931,2.25Z" transform="translate(202.093 -2.25)" fill="#00bcd4"/>
  </g>
</svg>
