<svg xmlns="http://www.w3.org/2000/svg" width="262" height="46.892" viewBox="0 0 262 46.892">
  <g id="Grupo_85463" data-name="Grupo 85463" transform="translate(-1053.5 -3566.468)">
    <path id="Trazado_162001" data-name="Trazado 162001" d="M4.063-10.664l-.086.383a.973.973,0,0,0-.535.2.882.882,0,0,0-.27.457,3.16,3.16,0,0,0-.078.785q0,.117.023.7l.219,5.719v.625h.078L6.8-7.891a7.725,7.725,0,0,0,.445-.926A1.944,1.944,0,0,0,7.391-9.5q0-.656-.781-.781l.086-.383h3.2l-.086.383a.969.969,0,0,0-.4.16,2.066,2.066,0,0,0-.43.43,11.374,11.374,0,0,0-.738,1.16l-5,8.656H2.2L1.672-8.586a5.567,5.567,0,0,0-.113-.871,1.286,1.286,0,0,0-.258-.566.874.874,0,0,0-.559-.258l.086-.383ZM16.547-1.555A5.939,5.939,0,0,1,15.012-.3,3.733,3.733,0,0,1,13.2.125a2.236,2.236,0,0,1-1.754-.691,2.78,2.78,0,0,1-.621-1.926,6,6,0,0,1,.3-1.793A5.239,5.239,0,0,1,12.039-6,4.254,4.254,0,0,1,13.5-7.184,4.06,4.06,0,0,1,15.313-7.6a2.22,2.22,0,0,1,1.418.383,1.448,1.448,0,0,1,.473,1.2,2.135,2.135,0,0,1-1.246,1.992,8.1,8.1,0,0,1-3.7.664,5.18,5.18,0,0,0-.094,1.016,1.806,1.806,0,0,0,.32,1.191,1.316,1.316,0,0,0,1.047.371,2.706,2.706,0,0,0,1.3-.312,5.434,5.434,0,0,0,1.23-.961ZM12.391-4.031a8.37,8.37,0,0,0,1.891-.2,2.53,2.53,0,0,0,1.211-.609,1.518,1.518,0,0,0,.422-1.129,1.138,1.138,0,0,0-.223-.746.807.807,0,0,0-.66-.27,2.084,2.084,0,0,0-1.52.8A5.309,5.309,0,0,0,12.391-4.031Zm7.688-.922a5.6,5.6,0,0,0,.172-1.156.787.787,0,0,0-.1-.453.368.368,0,0,0-.32-.141.874.874,0,0,0-.512.2,5.607,5.607,0,0,0-.738.723l-.445-.437a7.756,7.756,0,0,1,1.2-1.066A1.905,1.905,0,0,1,20.406-7.6a.982.982,0,0,1,.777.324,1.236,1.236,0,0,1,.285.848,2.689,2.689,0,0,1-.187.922l.094.031a7.228,7.228,0,0,1,1.457-1.6,2.348,2.348,0,0,1,1.426-.52,1.454,1.454,0,0,1,1.117.418,1.633,1.633,0,0,1,.391,1.16,6.238,6.238,0,0,1-.227,1.4L25.031-2.57a5.873,5.873,0,0,0-.211,1.2.787.787,0,0,0,.1.453.368.368,0,0,0,.32.141.869.869,0,0,0,.5-.191,5.49,5.49,0,0,0,.75-.73l.445.438A7.067,7.067,0,0,1,25.766-.207a2.015,2.015,0,0,1-1.141.332,1.007,1.007,0,0,1-.812-.363,1.391,1.391,0,0,1-.3-.926,6.463,6.463,0,0,1,.258-1.492l.344-1.352q.188-.734.246-1.086a3.628,3.628,0,0,0,.059-.57,1.31,1.31,0,0,0-.18-.777.687.687,0,0,0-.586-.238,1.266,1.266,0,0,0-.707.262,4.031,4.031,0,0,0-.8.789,6.193,6.193,0,0,0-.684,1.023,5.1,5.1,0,0,0-.422,1.223L20.289,0H18.938ZM32.555-1.477A5.646,5.646,0,0,1,31.246-.266,2.458,2.458,0,0,1,29.93.125,1.45,1.45,0,0,1,28.3-1.523a4.923,4.923,0,0,1,.133-1.1l.922-4.055H28.039l.117-.539a3.154,3.154,0,0,0,.7-.07,1.277,1.277,0,0,0,.4-.172,1.1,1.1,0,0,0,.293-.312,2.919,2.919,0,0,0,.258-.52q.125-.316.375-1.105h1.078l-.43,1.93H33.2l-.172.789H30.656l-.7,3.031q-.2.883-.258,1.27a4.658,4.658,0,0,0-.055.621q0,.969.8.969a1.319,1.319,0,0,0,.73-.262,4.9,4.9,0,0,0,.918-.895Zm7.594-5.609.719-.516.5.125L40.219-2.523a5.5,5.5,0,0,0-.172,1.156.787.787,0,0,0,.1.453.368.368,0,0,0,.32.141.869.869,0,0,0,.5-.191,5.49,5.49,0,0,0,.75-.73l.445.438a6.8,6.8,0,0,1-1.2,1.066,1.96,1.96,0,0,1-1.074.316.991.991,0,0,1-.773-.32,1.223,1.223,0,0,1-.289-.852,2.632,2.632,0,0,1,.18-.914l-.1-.031a6.889,6.889,0,0,1-1.422,1.6,2.32,2.32,0,0,1-1.422.508A1.552,1.552,0,0,1,34.73-.531a3.046,3.046,0,0,1-.473-1.82,6.524,6.524,0,0,1,.527-2.582,4.776,4.776,0,0,1,1.449-1.953A3.271,3.271,0,0,1,38.289-7.6a3.809,3.809,0,0,1,.949.113A3.318,3.318,0,0,1,40.148-7.086Zm-.687,2.328a4.931,4.931,0,0,0,.094-.555q.023-.234.023-.508A1.277,1.277,0,0,0,39.32-6.7a1.145,1.145,0,0,0-.875-.281A1.985,1.985,0,0,0,37-6.336,4.377,4.377,0,0,0,36-4.6a6.913,6.913,0,0,0-.359,2.176,2.585,2.585,0,0,0,.223,1.215.784.784,0,0,0,.746.4,1.515,1.515,0,0,0,1.012-.445,6.2,6.2,0,0,0,1.023-1.27,5.537,5.537,0,0,0,.746-1.9Zm8.781-.812a1.71,1.71,0,0,0-.457-1.055,1.629,1.629,0,0,0-1.168-.359,1.519,1.519,0,0,0-1,.316,1.027,1.027,0,0,0-.383.832,1.188,1.188,0,0,0,.1.5,1.5,1.5,0,0,0,.395.473,6.87,6.87,0,0,0,.922.633,6.6,6.6,0,0,1,.789.543,2.618,2.618,0,0,1,.469.488,1.7,1.7,0,0,1,.25.512,2.368,2.368,0,0,1,.078.652,1.933,1.933,0,0,1-.371,1.191,2.2,2.2,0,0,1-1.008.738,4.055,4.055,0,0,1-1.449.242,8.237,8.237,0,0,1-1.273-.1A10.165,10.165,0,0,1,42.742-.3L43.117-2h.609a1.618,1.618,0,0,0,.422,1.133,1.722,1.722,0,0,0,1.242.383,1.82,1.82,0,0,0,1.16-.332,1.133,1.133,0,0,0,.418-.941,1.435,1.435,0,0,0-.117-.605,1.5,1.5,0,0,0-.383-.488,6.286,6.286,0,0,0-.844-.586,6.85,6.85,0,0,1-.949-.664,2.093,2.093,0,0,1-.512-.645,1.784,1.784,0,0,1-.172-.8,1.813,1.813,0,0,1,.332-1.082,2.1,2.1,0,0,1,.949-.715,3.811,3.811,0,0,1,1.438-.25,9.348,9.348,0,0,1,1.324.086,6.181,6.181,0,0,1,1.191.3L48.875-5.57Zm7.555.617a5.6,5.6,0,0,0,.172-1.156.787.787,0,0,0-.1-.453.368.368,0,0,0-.32-.141.874.874,0,0,0-.512.2,5.607,5.607,0,0,0-.738.723l-.445-.437a7.756,7.756,0,0,1,1.2-1.066A1.905,1.905,0,0,1,56.125-7.6a.982.982,0,0,1,.777.324,1.236,1.236,0,0,1,.285.848A2.689,2.689,0,0,1,57-5.508l.094.031a7.228,7.228,0,0,1,1.457-1.6,2.348,2.348,0,0,1,1.426-.52,1.454,1.454,0,0,1,1.117.418,1.633,1.633,0,0,1,.391,1.16,6.238,6.238,0,0,1-.227,1.4L60.75-2.57a5.873,5.873,0,0,0-.211,1.2.787.787,0,0,0,.1.453.368.368,0,0,0,.32.141.869.869,0,0,0,.5-.191,5.49,5.49,0,0,0,.75-.73l.445.438A7.068,7.068,0,0,1,61.484-.207a2.015,2.015,0,0,1-1.141.332,1.007,1.007,0,0,1-.812-.363,1.391,1.391,0,0,1-.3-.926,6.463,6.463,0,0,1,.258-1.492l.344-1.352q.188-.734.246-1.086a3.628,3.628,0,0,0,.059-.57,1.31,1.31,0,0,0-.18-.777.687.687,0,0,0-.586-.238,1.266,1.266,0,0,0-.707.262,4.031,4.031,0,0,0-.8.789,6.192,6.192,0,0,0-.684,1.023,5.1,5.1,0,0,0-.422,1.223L56.008,0H54.656Zm13.586,3.4A5.939,5.939,0,0,1,67.848-.3a3.733,3.733,0,0,1-1.809.422,2.236,2.236,0,0,1-1.754-.691,2.78,2.78,0,0,1-.621-1.926,6,6,0,0,1,.3-1.793A5.239,5.239,0,0,1,64.875-6a4.254,4.254,0,0,1,1.461-1.18A4.06,4.06,0,0,1,68.148-7.6a2.22,2.22,0,0,1,1.418.383,1.448,1.448,0,0,1,.473,1.2,2.135,2.135,0,0,1-1.246,1.992,8.1,8.1,0,0,1-3.7.664A5.18,5.18,0,0,0,65-2.352a1.806,1.806,0,0,0,.32,1.191,1.316,1.316,0,0,0,1.047.371,2.706,2.706,0,0,0,1.3-.312,5.434,5.434,0,0,0,1.23-.961ZM65.227-4.031a8.37,8.37,0,0,0,1.891-.2,2.53,2.53,0,0,0,1.211-.609,1.518,1.518,0,0,0,.422-1.129,1.138,1.138,0,0,0-.223-.746.807.807,0,0,0-.66-.27,2.084,2.084,0,0,0-1.52.8A5.309,5.309,0,0,0,65.227-4.031ZM76.211-1.477A5.646,5.646,0,0,1,74.9-.266a2.458,2.458,0,0,1-1.316.391,1.45,1.45,0,0,1-1.633-1.648,4.923,4.923,0,0,1,.133-1.1l.922-4.055H71.7l.117-.539a3.154,3.154,0,0,0,.7-.07,1.277,1.277,0,0,0,.4-.172,1.1,1.1,0,0,0,.293-.312,2.919,2.919,0,0,0,.258-.52q.125-.316.375-1.105h1.078l-.43,1.93h2.375l-.172.789H74.313l-.7,3.031q-.2.883-.258,1.27a4.658,4.658,0,0,0-.055.621q0,.969.8.969a1.319,1.319,0,0,0,.73-.262,4.9,4.9,0,0,0,.918-.895ZM83.8-7.086l.719-.516.5.125L83.875-2.523A5.5,5.5,0,0,0,83.7-1.367a.787.787,0,0,0,.1.453.368.368,0,0,0,.32.141.869.869,0,0,0,.5-.191,5.49,5.49,0,0,0,.75-.73l.445.438a6.8,6.8,0,0,1-1.2,1.066,1.96,1.96,0,0,1-1.074.316.991.991,0,0,1-.773-.32,1.223,1.223,0,0,1-.289-.852,2.633,2.633,0,0,1,.18-.914l-.1-.031a6.889,6.889,0,0,1-1.422,1.6,2.32,2.32,0,0,1-1.422.508,1.552,1.552,0,0,1-1.332-.648,3.046,3.046,0,0,1-.473-1.82,6.524,6.524,0,0,1,.527-2.582,4.776,4.776,0,0,1,1.449-1.953A3.271,3.271,0,0,1,81.945-7.6a3.809,3.809,0,0,1,.949.113A3.318,3.318,0,0,1,83.8-7.086Zm-.687,2.328a4.931,4.931,0,0,0,.094-.555q.023-.234.023-.508a1.277,1.277,0,0,0-.258-.883,1.145,1.145,0,0,0-.875-.281,1.985,1.985,0,0,0-1.445.648,4.377,4.377,0,0,0-1,1.738A6.913,6.913,0,0,0,79.3-2.422a2.585,2.585,0,0,0,.223,1.215.784.784,0,0,0,.746.4,1.515,1.515,0,0,0,1.012-.445A6.2,6.2,0,0,0,82.3-2.52a5.537,5.537,0,0,0,.746-1.9ZM91.9-5.57a1.71,1.71,0,0,0-.457-1.055,1.629,1.629,0,0,0-1.168-.359,1.519,1.519,0,0,0-1,.316,1.027,1.027,0,0,0-.383.832,1.188,1.188,0,0,0,.1.5,1.5,1.5,0,0,0,.395.473,6.87,6.87,0,0,0,.922.633,6.6,6.6,0,0,1,.789.543,2.619,2.619,0,0,1,.469.488,1.7,1.7,0,0,1,.25.512,2.367,2.367,0,0,1,.078.652A1.933,1.933,0,0,1,91.52-.848a2.2,2.2,0,0,1-1.008.738,4.055,4.055,0,0,1-1.449.242,8.237,8.237,0,0,1-1.273-.1A10.165,10.165,0,0,1,86.4-.3L86.773-2h.609A1.618,1.618,0,0,0,87.8-.867a1.722,1.722,0,0,0,1.242.383,1.82,1.82,0,0,0,1.16-.332,1.133,1.133,0,0,0,.418-.941,1.435,1.435,0,0,0-.117-.605,1.5,1.5,0,0,0-.383-.488,6.286,6.286,0,0,0-.844-.586,6.85,6.85,0,0,1-.949-.664,2.093,2.093,0,0,1-.512-.645,1.784,1.784,0,0,1-.172-.8,1.813,1.813,0,0,1,.332-1.082,2.1,2.1,0,0,1,.949-.715,3.811,3.811,0,0,1,1.438-.25,9.348,9.348,0,0,1,1.324.086,6.181,6.181,0,0,1,1.191.3L92.531-5.57Zm7.563.641a5.526,5.526,0,0,0,.164-1.18.787.787,0,0,0-.1-.453A.368.368,0,0,0,99.2-6.7a.874.874,0,0,0-.512.2,5.607,5.607,0,0,0-.738.723l-.445-.437A7.627,7.627,0,0,1,98.7-7.277,1.914,1.914,0,0,1,99.781-7.6a.979.979,0,0,1,.77.32,1.233,1.233,0,0,1,.285.852,2.651,2.651,0,0,1-.18.922l.094.031q1.445-2.117,2.875-2.117a1.544,1.544,0,0,1,1.324.648,3.061,3.061,0,0,1,.473,1.828,6.533,6.533,0,0,1-.52,2.535,4.83,4.83,0,0,1-1.441,1.977,3.238,3.238,0,0,1-2.062.73,3.075,3.075,0,0,1-1.727-.453l-.359,1.711A4.6,4.6,0,0,0,99.2,2.3a.6.6,0,0,0,.176.488,1.339,1.339,0,0,0,.684.191l-.062.383H97.578Zm.789,2.211q-.078.414-.1.633t-.02.43a1.262,1.262,0,0,0,.262.887,1.207,1.207,0,0,0,.9.277,1.72,1.72,0,0,0,.734-.156,2.277,2.277,0,0,0,.637-.453,3.334,3.334,0,0,0,.543-.719,5.647,5.647,0,0,0,.434-.98,7.128,7.128,0,0,0,.289-1.148,6.788,6.788,0,0,0,.1-1.105,2.531,2.531,0,0,0-.23-1.223.781.781,0,0,0-.73-.4,1.361,1.361,0,0,0-.785.27,4.166,4.166,0,0,0-.848.863,5.738,5.738,0,0,0-.719,1.172,6.233,6.233,0,0,0-.406,1.328Zm9.461-2.867a6.511,6.511,0,0,1,1.473-1.523,2.515,2.515,0,0,1,1.434-.484,4.445,4.445,0,0,1,.953.086l-.375,1.75h-.8a1.808,1.808,0,0,0-.133-.508.563.563,0,0,0-.2-.25.569.569,0,0,0-.3-.07,1.067,1.067,0,0,0-.613.242,4.2,4.2,0,0,0-.746.758,6.006,6.006,0,0,0-.66.992,5.079,5.079,0,0,0-.41,1.211L108.586,0h-1.352l1.133-4.953a7.316,7.316,0,0,0,.141-.727,3.686,3.686,0,0,0,.031-.43.787.787,0,0,0-.1-.453.368.368,0,0,0-.32-.141.874.874,0,0,0-.512.2,5.607,5.607,0,0,0-.738.723l-.445-.437a7.51,7.51,0,0,1,1.2-1.066A1.916,1.916,0,0,1,108.7-7.6a.982.982,0,0,1,.777.324,1.236,1.236,0,0,1,.285.848,2.378,2.378,0,0,1-.148.8Zm10.68,4.031A5.939,5.939,0,0,1,118.855-.3a3.733,3.733,0,0,1-1.809.422,2.236,2.236,0,0,1-1.754-.691,2.78,2.78,0,0,1-.621-1.926,6,6,0,0,1,.3-1.793A5.239,5.239,0,0,1,115.883-6a4.254,4.254,0,0,1,1.461-1.18,4.06,4.06,0,0,1,1.813-.418,2.22,2.22,0,0,1,1.418.383,1.448,1.448,0,0,1,.473,1.2A2.135,2.135,0,0,1,119.8-4.031a8.1,8.1,0,0,1-3.7.664,5.18,5.18,0,0,0-.094,1.016,1.806,1.806,0,0,0,.32,1.191,1.316,1.316,0,0,0,1.047.371,2.706,2.706,0,0,0,1.3-.312,5.434,5.434,0,0,0,1.23-.961Zm-4.156-2.477a8.37,8.37,0,0,0,1.891-.2,2.53,2.53,0,0,0,1.211-.609,1.518,1.518,0,0,0,.422-1.129,1.138,1.138,0,0,0-.223-.746.807.807,0,0,0-.66-.27,2.084,2.084,0,0,0-1.52.8A5.309,5.309,0,0,0,116.234-4.031ZM127.68-5.57a1.71,1.71,0,0,0-.457-1.055,1.629,1.629,0,0,0-1.168-.359,1.519,1.519,0,0,0-1,.316,1.027,1.027,0,0,0-.383.832,1.188,1.188,0,0,0,.1.5,1.5,1.5,0,0,0,.395.473,6.87,6.87,0,0,0,.922.633,6.6,6.6,0,0,1,.789.543,2.619,2.619,0,0,1,.469.488,1.7,1.7,0,0,1,.25.512,2.367,2.367,0,0,1,.078.652A1.933,1.933,0,0,1,127.3-.848a2.2,2.2,0,0,1-1.008.738,4.055,4.055,0,0,1-1.449.242,8.237,8.237,0,0,1-1.273-.1A10.165,10.165,0,0,1,122.18-.3l.375-1.7h.609a1.618,1.618,0,0,0,.422,1.133,1.722,1.722,0,0,0,1.242.383,1.82,1.82,0,0,0,1.16-.332,1.133,1.133,0,0,0,.418-.941,1.435,1.435,0,0,0-.117-.605,1.5,1.5,0,0,0-.383-.488,6.286,6.286,0,0,0-.844-.586,6.85,6.85,0,0,1-.949-.664,2.093,2.093,0,0,1-.512-.645,1.784,1.784,0,0,1-.172-.8,1.813,1.813,0,0,1,.332-1.082,2.1,2.1,0,0,1,.949-.715,3.811,3.811,0,0,1,1.438-.25,9.348,9.348,0,0,1,1.324.086,6.181,6.181,0,0,1,1.191.3l-.352,1.641Zm8.547,3.047a5.6,5.6,0,0,0-.172,1.156.787.787,0,0,0,.1.453.368.368,0,0,0,.32.141.869.869,0,0,0,.5-.191,5.49,5.49,0,0,0,.75-.73l.445.438a6.626,6.626,0,0,1-1.211,1.07A1.971,1.971,0,0,1,135.9.125a.991.991,0,0,1-.773-.32,1.223,1.223,0,0,1-.289-.852,2.643,2.643,0,0,1,.188-.922L134.93-2a7.215,7.215,0,0,1-1.465,1.6,2.349,2.349,0,0,1-1.418.516A1.454,1.454,0,0,1,130.93-.3a1.633,1.633,0,0,1-.391-1.16,6.237,6.237,0,0,1,.227-1.4l.508-2.047a5.872,5.872,0,0,0,.211-1.2.787.787,0,0,0-.1-.453.368.368,0,0,0-.32-.141.874.874,0,0,0-.512.2,5.607,5.607,0,0,0-.738.723l-.445-.437a10.153,10.153,0,0,1,1-.922,2.394,2.394,0,0,1,.645-.355A2.129,2.129,0,0,1,131.7-7.6a.987.987,0,0,1,.789.336,1.342,1.342,0,0,1,.289.906,6.275,6.275,0,0,1-.242,1.539L132.2-3.469q-.133.516-.191.8t-.086.5a2.823,2.823,0,0,0-.027.352,1.31,1.31,0,0,0,.18.777.687.687,0,0,0,.586.238,1.266,1.266,0,0,0,.707-.262,4.031,4.031,0,0,0,.8-.789,6.192,6.192,0,0,0,.684-1.023,5.1,5.1,0,0,0,.422-1.223l.742-3.383h1.352ZM140.5-4.93a5.526,5.526,0,0,0,.164-1.18.787.787,0,0,0-.1-.453.368.368,0,0,0-.32-.141.874.874,0,0,0-.512.2,5.607,5.607,0,0,0-.738.723l-.445-.437a7.627,7.627,0,0,1,1.191-1.059A1.914,1.914,0,0,1,140.82-7.6a.979.979,0,0,1,.77.32,1.233,1.233,0,0,1,.285.852,2.651,2.651,0,0,1-.18.922l.094.031q1.445-2.117,2.875-2.117a1.544,1.544,0,0,1,1.324.648,3.061,3.061,0,0,1,.473,1.828,6.533,6.533,0,0,1-.52,2.535A4.83,4.83,0,0,1,144.5-.605a3.238,3.238,0,0,1-2.062.73,3.075,3.075,0,0,1-1.727-.453l-.359,1.711a4.6,4.6,0,0,0-.117.914.6.6,0,0,0,.176.488,1.339,1.339,0,0,0,.684.191l-.062.383h-2.414Zm.789,2.211q-.078.414-.1.633t-.02.43a1.262,1.262,0,0,0,.262.887,1.207,1.207,0,0,0,.9.277,1.72,1.72,0,0,0,.734-.156,2.277,2.277,0,0,0,.637-.453,3.334,3.334,0,0,0,.543-.719,5.649,5.649,0,0,0,.434-.98,7.128,7.128,0,0,0,.289-1.148,6.787,6.787,0,0,0,.1-1.105,2.531,2.531,0,0,0-.23-1.223.781.781,0,0,0-.73-.4,1.361,1.361,0,0,0-.785.27,4.166,4.166,0,0,0-.848.863,5.737,5.737,0,0,0-.719,1.172,6.233,6.233,0,0,0-.406,1.328Zm13.039.2a5.6,5.6,0,0,0-.172,1.156.787.787,0,0,0,.1.453.368.368,0,0,0,.32.141.869.869,0,0,0,.5-.191,5.49,5.49,0,0,0,.75-.73l.445.438a6.626,6.626,0,0,1-1.211,1.07A1.971,1.971,0,0,1,154,.125a.991.991,0,0,1-.773-.32,1.223,1.223,0,0,1-.289-.852,2.643,2.643,0,0,1,.188-.922L153.031-2a7.215,7.215,0,0,1-1.465,1.6,2.349,2.349,0,0,1-1.418.516A1.454,1.454,0,0,1,149.031-.3a1.633,1.633,0,0,1-.391-1.16,6.237,6.237,0,0,1,.227-1.4l.508-2.047a5.872,5.872,0,0,0,.211-1.2.787.787,0,0,0-.1-.453.368.368,0,0,0-.32-.141.874.874,0,0,0-.512.2,5.607,5.607,0,0,0-.738.723l-.445-.437a10.153,10.153,0,0,1,1-.922,2.394,2.394,0,0,1,.645-.355A2.129,2.129,0,0,1,149.8-7.6a.987.987,0,0,1,.789.336,1.342,1.342,0,0,1,.289.906,6.275,6.275,0,0,1-.242,1.539L150.3-3.469q-.133.516-.191.8t-.086.5a2.823,2.823,0,0,0-.027.352,1.31,1.31,0,0,0,.18.777.687.687,0,0,0,.586.238,1.266,1.266,0,0,0,.707-.262,4.031,4.031,0,0,0,.8-.789,6.192,6.192,0,0,0,.684-1.023,5.1,5.1,0,0,0,.422-1.223l.742-3.383h1.352ZM163-1.555A5.939,5.939,0,0,1,161.465-.3a3.733,3.733,0,0,1-1.809.422A2.236,2.236,0,0,1,157.9-.566a2.78,2.78,0,0,1-.621-1.926,6,6,0,0,1,.3-1.793A5.239,5.239,0,0,1,158.492-6a4.254,4.254,0,0,1,1.461-1.18,4.06,4.06,0,0,1,1.813-.418,2.22,2.22,0,0,1,1.418.383,1.448,1.448,0,0,1,.473,1.2,2.135,2.135,0,0,1-1.246,1.992,8.1,8.1,0,0,1-3.7.664,5.18,5.18,0,0,0-.094,1.016,1.806,1.806,0,0,0,.32,1.191,1.316,1.316,0,0,0,1.047.371,2.706,2.706,0,0,0,1.3-.312,5.434,5.434,0,0,0,1.23-.961Zm-4.156-2.477a8.37,8.37,0,0,0,1.891-.2,2.53,2.53,0,0,0,1.211-.609,1.518,1.518,0,0,0,.422-1.129,1.138,1.138,0,0,0-.223-.746.807.807,0,0,0-.66-.27,2.084,2.084,0,0,0-1.52.8A5.309,5.309,0,0,0,158.844-4.031ZM170.289-5.57a1.71,1.71,0,0,0-.457-1.055,1.629,1.629,0,0,0-1.168-.359,1.519,1.519,0,0,0-1,.316,1.027,1.027,0,0,0-.383.832,1.188,1.188,0,0,0,.1.5,1.5,1.5,0,0,0,.395.473,6.87,6.87,0,0,0,.922.633,6.6,6.6,0,0,1,.789.543,2.618,2.618,0,0,1,.469.488,1.7,1.7,0,0,1,.25.512,2.368,2.368,0,0,1,.078.652,1.933,1.933,0,0,1-.371,1.191,2.2,2.2,0,0,1-1.008.738,4.055,4.055,0,0,1-1.449.242,8.237,8.237,0,0,1-1.273-.1A10.165,10.165,0,0,1,164.789-.3l.375-1.7h.609A1.618,1.618,0,0,0,166.2-.867a1.722,1.722,0,0,0,1.242.383,1.82,1.82,0,0,0,1.16-.332,1.133,1.133,0,0,0,.418-.941,1.435,1.435,0,0,0-.117-.605,1.5,1.5,0,0,0-.383-.488,6.285,6.285,0,0,0-.844-.586,6.85,6.85,0,0,1-.949-.664,2.093,2.093,0,0,1-.512-.645,1.785,1.785,0,0,1-.172-.8,1.813,1.813,0,0,1,.332-1.082,2.1,2.1,0,0,1,.949-.715,3.811,3.811,0,0,1,1.438-.25,9.348,9.348,0,0,1,1.324.086,6.181,6.181,0,0,1,1.191.3l-.352,1.641Zm6.93,4.094A5.646,5.646,0,0,1,175.91-.266a2.458,2.458,0,0,1-1.316.391,1.45,1.45,0,0,1-1.633-1.648,4.923,4.923,0,0,1,.133-1.1l.922-4.055H172.7l.117-.539a3.154,3.154,0,0,0,.7-.07,1.277,1.277,0,0,0,.4-.172,1.1,1.1,0,0,0,.293-.312,2.918,2.918,0,0,0,.258-.52q.125-.316.375-1.105h1.078l-.43,1.93h2.375l-.172.789H175.32l-.7,3.031q-.2.883-.258,1.27a4.659,4.659,0,0,0-.055.621q0,.969.8.969a1.319,1.319,0,0,0,.73-.262,4.9,4.9,0,0,0,.918-.895Zm7.594-5.609.719-.516.5.125-1.148,4.953a5.5,5.5,0,0,0-.172,1.156.787.787,0,0,0,.1.453.368.368,0,0,0,.32.141.869.869,0,0,0,.5-.191,5.49,5.49,0,0,0,.75-.73l.445.438a6.8,6.8,0,0,1-1.2,1.066,1.96,1.96,0,0,1-1.074.316.991.991,0,0,1-.773-.32,1.223,1.223,0,0,1-.289-.852,2.632,2.632,0,0,1,.18-.914l-.1-.031a6.889,6.889,0,0,1-1.422,1.6,2.32,2.32,0,0,1-1.422.508,1.552,1.552,0,0,1-1.332-.648,3.046,3.046,0,0,1-.473-1.82,6.524,6.524,0,0,1,.527-2.582A4.776,4.776,0,0,1,180.9-6.887a3.271,3.271,0,0,1,2.055-.715,3.809,3.809,0,0,1,.949.113A3.318,3.318,0,0,1,184.813-7.086Zm-.687,2.328a4.931,4.931,0,0,0,.094-.555q.023-.234.023-.508a1.277,1.277,0,0,0-.258-.883,1.145,1.145,0,0,0-.875-.281,1.985,1.985,0,0,0-1.445.648,4.377,4.377,0,0,0-1,1.738,6.913,6.913,0,0,0-.359,2.176,2.585,2.585,0,0,0,.223,1.215.784.784,0,0,0,.746.4,1.515,1.515,0,0,0,1.012-.445,6.2,6.2,0,0,0,1.023-1.27,5.537,5.537,0,0,0,.746-1.9Zm8.359,2.766a6.889,6.889,0,0,1-1.422,1.6,2.32,2.32,0,0,1-1.422.508,1.552,1.552,0,0,1-1.332-.648,3.046,3.046,0,0,1-.473-1.82,6.524,6.524,0,0,1,.527-2.582,4.776,4.776,0,0,1,1.449-1.953,3.271,3.271,0,0,1,2.055-.715,3.723,3.723,0,0,1,.879.1,3.16,3.16,0,0,1,.824.34l.406-1.8q.063-.258.109-.57a3.747,3.747,0,0,0,.047-.547.612.612,0,0,0-.086-.355.482.482,0,0,0-.246-.176,2.467,2.467,0,0,0-.574-.078l.094-.406,1.961-.07h.461L193.8-2.523a5.793,5.793,0,0,0-.172,1.156.787.787,0,0,0,.1.453.368.368,0,0,0,.32.141.869.869,0,0,0,.5-.191,5.49,5.49,0,0,0,.75-.73l.445.438a6.99,6.99,0,0,1-1.211,1.07,1.946,1.946,0,0,1-1.062.313A.991.991,0,0,1,192.7-.2a1.223,1.223,0,0,1-.289-.852,2.632,2.632,0,0,1,.18-.914Zm.523-2.766a5.219,5.219,0,0,0,.117-1.062,1.275,1.275,0,0,0-.258-.887,1.131,1.131,0,0,0-.859-.277,1.957,1.957,0,0,0-1.43.645,4.429,4.429,0,0,0-1,1.738,6.881,6.881,0,0,0-.363,2.18,2.585,2.585,0,0,0,.223,1.215.784.784,0,0,0,.746.4,1.26,1.26,0,0,0,.492-.105,1.985,1.985,0,0,0,.52-.34,4.055,4.055,0,0,0,.531-.57q.262-.336.48-.676a4.82,4.82,0,0,0,.406-.8,6.443,6.443,0,0,0,.32-1.121ZM203-7.086l.719-.516.5.125L203.07-2.523a5.5,5.5,0,0,0-.172,1.156.787.787,0,0,0,.1.453.368.368,0,0,0,.32.141.869.869,0,0,0,.5-.191,5.49,5.49,0,0,0,.75-.73l.445.438a6.8,6.8,0,0,1-1.2,1.066,1.96,1.96,0,0,1-1.074.316.991.991,0,0,1-.773-.32,1.223,1.223,0,0,1-.289-.852,2.632,2.632,0,0,1,.18-.914l-.1-.031a6.889,6.889,0,0,1-1.422,1.6,2.32,2.32,0,0,1-1.422.508,1.552,1.552,0,0,1-1.332-.648,3.046,3.046,0,0,1-.473-1.82,6.524,6.524,0,0,1,.527-2.582,4.776,4.776,0,0,1,1.449-1.953,3.271,3.271,0,0,1,2.055-.715,3.809,3.809,0,0,1,.949.113A3.318,3.318,0,0,1,203-7.086Zm-.687,2.328a4.931,4.931,0,0,0,.094-.555q.023-.234.023-.508a1.277,1.277,0,0,0-.258-.883,1.145,1.145,0,0,0-.875-.281,1.985,1.985,0,0,0-1.445.648,4.377,4.377,0,0,0-1,1.738,6.913,6.913,0,0,0-.359,2.176,2.585,2.585,0,0,0,.223,1.215.784.784,0,0,0,.746.4,1.515,1.515,0,0,0,1.012-.445A6.2,6.2,0,0,0,201.5-2.52a5.537,5.537,0,0,0,.746-1.9Zm8.781-.812a1.71,1.71,0,0,0-.457-1.055,1.629,1.629,0,0,0-1.168-.359,1.519,1.519,0,0,0-1,.316,1.027,1.027,0,0,0-.383.832,1.188,1.188,0,0,0,.1.5,1.5,1.5,0,0,0,.395.473,6.87,6.87,0,0,0,.922.633,6.6,6.6,0,0,1,.789.543,2.618,2.618,0,0,1,.469.488,1.7,1.7,0,0,1,.25.512,2.368,2.368,0,0,1,.078.652,1.933,1.933,0,0,1-.371,1.191,2.2,2.2,0,0,1-1.008.738,4.055,4.055,0,0,1-1.449.242,8.237,8.237,0,0,1-1.273-.1A10.165,10.165,0,0,1,205.594-.3l.375-1.7h.609A1.618,1.618,0,0,0,207-.867a1.722,1.722,0,0,0,1.242.383,1.82,1.82,0,0,0,1.16-.332,1.133,1.133,0,0,0,.418-.941,1.435,1.435,0,0,0-.117-.605,1.5,1.5,0,0,0-.383-.488,6.285,6.285,0,0,0-.844-.586,6.85,6.85,0,0,1-.949-.664,2.093,2.093,0,0,1-.512-.645,1.785,1.785,0,0,1-.172-.8,1.813,1.813,0,0,1,.332-1.082,2.1,2.1,0,0,1,.949-.715,3.811,3.811,0,0,1,1.438-.25,9.348,9.348,0,0,1,1.324.086,6.181,6.181,0,0,1,1.191.3l-.352,1.641Z" transform="translate(1077 3610)" fill="#12263f"/>
    <path id="Trazado_162002" data-name="Trazado 162002" d="M9.133-3.625a4.535,4.535,0,0,1-1.6,2.8A4.476,4.476,0,0,1,4.492.156a3.544,3.544,0,0,1-1.844-.52,3.283,3.283,0,0,1-1.227-1.43A5.34,5.34,0,0,1,.938-3.859a6.623,6.623,0,0,1,.055-1.25l.133-.937a7.076,7.076,0,0,1,1.8-4.043,4.544,4.544,0,0,1,3.488-1.441A3.4,3.4,0,0,1,8.953-10.5a4.117,4.117,0,0,1,.992,2.785H8.484q-.1-2.391-1.875-2.578L6.352-10.3a3.019,3.019,0,0,0-2.465,1.1A5.942,5.942,0,0,0,2.609-6.1l-.172,1.18-.047.688A3.867,3.867,0,0,0,2.9-1.949a1.929,1.929,0,0,0,1.66.879,2.924,2.924,0,0,0,1.965-.57A3.8,3.8,0,0,0,7.711-3.6ZM13.586.133a2.515,2.515,0,0,1-1.879-.68A2.671,2.671,0,0,1,11.039-2.5a6.588,6.588,0,0,1,.188-1.445,5.411,5.411,0,0,1,.813-1.937,3.916,3.916,0,0,1,1.406-1.27,3.871,3.871,0,0,1,1.836-.441,2.521,2.521,0,0,1,1.906.684,2.715,2.715,0,0,1,.656,1.957,6.62,6.62,0,0,1-.316,1.938,5.308,5.308,0,0,1-.867,1.734A3.568,3.568,0,0,1,15.344-.223,4.131,4.131,0,0,1,13.586.133Zm-1.18-2.3a1.9,1.9,0,0,0,.355,1.27,1.345,1.345,0,0,0,1.074.41A1.761,1.761,0,0,0,15.2-1.172,4.943,4.943,0,0,0,16.133-3.1a8.276,8.276,0,0,0,.344-2.176,2.059,2.059,0,0,0-.328-1.27,1.21,1.21,0,0,0-1.023-.426,1.846,1.846,0,0,0-1.418.68,4.814,4.814,0,0,0-.953,1.945A8.426,8.426,0,0,0,12.406-2.164ZM24.594-5.57a1.71,1.71,0,0,0-.457-1.055,1.629,1.629,0,0,0-1.168-.359,1.519,1.519,0,0,0-1,.316,1.027,1.027,0,0,0-.383.832,1.188,1.188,0,0,0,.1.5,1.5,1.5,0,0,0,.395.473A6.87,6.87,0,0,0,23-4.234a6.6,6.6,0,0,1,.789.543,2.619,2.619,0,0,1,.469.488,1.7,1.7,0,0,1,.25.512,2.368,2.368,0,0,1,.078.652,1.933,1.933,0,0,1-.371,1.191,2.2,2.2,0,0,1-1.008.738,4.055,4.055,0,0,1-1.449.242,8.237,8.237,0,0,1-1.273-.1A10.165,10.165,0,0,1,19.094-.3L19.469-2h.609A1.618,1.618,0,0,0,20.5-.867a1.722,1.722,0,0,0,1.242.383A1.82,1.82,0,0,0,22.9-.816a1.133,1.133,0,0,0,.418-.941,1.435,1.435,0,0,0-.117-.605,1.5,1.5,0,0,0-.383-.488,6.286,6.286,0,0,0-.844-.586,6.85,6.85,0,0,1-.949-.664,2.093,2.093,0,0,1-.512-.645,1.784,1.784,0,0,1-.172-.8,1.813,1.813,0,0,1,.332-1.082,2.1,2.1,0,0,1,.949-.715,3.811,3.811,0,0,1,1.438-.25,9.348,9.348,0,0,1,1.324.086,6.181,6.181,0,0,1,1.191.3L25.227-5.57Zm6.93,4.094A5.646,5.646,0,0,1,30.215-.266,2.458,2.458,0,0,1,28.9.125a1.45,1.45,0,0,1-1.633-1.648,4.923,4.923,0,0,1,.133-1.1L28.32-6.68H27.008l.117-.539a3.154,3.154,0,0,0,.7-.07,1.277,1.277,0,0,0,.4-.172,1.1,1.1,0,0,0,.293-.312,2.919,2.919,0,0,0,.258-.52q.125-.316.375-1.105h1.078l-.43,1.93h2.375L32-6.68H29.625l-.7,3.031q-.2.883-.258,1.27a4.658,4.658,0,0,0-.055.621q0,.969.8.969a1.319,1.319,0,0,0,.73-.262,4.9,4.9,0,0,0,.918-.895ZM35.813.133a2.515,2.515,0,0,1-1.879-.68A2.671,2.671,0,0,1,33.266-2.5a6.588,6.588,0,0,1,.188-1.445,5.411,5.411,0,0,1,.813-1.937,3.916,3.916,0,0,1,1.406-1.27,3.871,3.871,0,0,1,1.836-.441,2.521,2.521,0,0,1,1.906.684,2.715,2.715,0,0,1,.656,1.957,6.62,6.62,0,0,1-.316,1.938,5.308,5.308,0,0,1-.867,1.734A3.568,3.568,0,0,1,37.57-.223,4.131,4.131,0,0,1,35.813.133Zm-1.18-2.3a1.9,1.9,0,0,0,.355,1.27,1.345,1.345,0,0,0,1.074.41,1.761,1.761,0,0,0,1.359-.687A4.943,4.943,0,0,0,38.359-3.1,8.276,8.276,0,0,0,38.7-5.273a2.059,2.059,0,0,0-.328-1.27,1.21,1.21,0,0,0-1.023-.426,1.846,1.846,0,0,0-1.418.68,4.814,4.814,0,0,0-.953,1.945A8.426,8.426,0,0,0,34.633-2.164Zm15.688.172A6.889,6.889,0,0,1,48.9-.391a2.32,2.32,0,0,1-1.422.508,1.552,1.552,0,0,1-1.332-.648,3.046,3.046,0,0,1-.473-1.82A6.524,6.524,0,0,1,46.2-4.934a4.776,4.776,0,0,1,1.449-1.953A3.271,3.271,0,0,1,49.7-7.6a3.723,3.723,0,0,1,.879.1,3.16,3.16,0,0,1,.824.34l.406-1.8q.063-.258.109-.57a3.747,3.747,0,0,0,.047-.547.612.612,0,0,0-.086-.355.482.482,0,0,0-.246-.176,2.467,2.467,0,0,0-.574-.078l.094-.406,1.961-.07h.461L51.633-2.523a5.792,5.792,0,0,0-.172,1.156.787.787,0,0,0,.1.453.368.368,0,0,0,.32.141.869.869,0,0,0,.5-.191,5.49,5.49,0,0,0,.75-.73l.445.438a6.989,6.989,0,0,1-1.211,1.07A1.946,1.946,0,0,1,51.3.125a.991.991,0,0,1-.773-.32,1.223,1.223,0,0,1-.289-.852,2.632,2.632,0,0,1,.18-.914Zm.523-2.766a5.219,5.219,0,0,0,.117-1.062,1.275,1.275,0,0,0-.258-.887,1.131,1.131,0,0,0-.859-.277,1.957,1.957,0,0,0-1.43.645,4.429,4.429,0,0,0-1,1.738,6.881,6.881,0,0,0-.363,2.18,2.585,2.585,0,0,0,.223,1.215.784.784,0,0,0,.746.4,1.26,1.26,0,0,0,.492-.105,1.985,1.985,0,0,0,.52-.34,4.055,4.055,0,0,0,.531-.57q.262-.336.48-.676a4.82,4.82,0,0,0,.406-.8,6.443,6.443,0,0,0,.32-1.121Zm9.82,3.2A5.939,5.939,0,0,1,59.129-.3,3.733,3.733,0,0,1,57.32.125a2.236,2.236,0,0,1-1.754-.691,2.78,2.78,0,0,1-.621-1.926,6,6,0,0,1,.3-1.793A5.239,5.239,0,0,1,56.156-6a4.254,4.254,0,0,1,1.461-1.18A4.06,4.06,0,0,1,59.43-7.6a2.22,2.22,0,0,1,1.418.383,1.448,1.448,0,0,1,.473,1.2,2.135,2.135,0,0,1-1.246,1.992,8.1,8.1,0,0,1-3.7.664,5.18,5.18,0,0,0-.094,1.016A1.806,1.806,0,0,0,56.6-1.16a1.316,1.316,0,0,0,1.047.371,2.706,2.706,0,0,0,1.3-.312,5.434,5.434,0,0,0,1.23-.961ZM56.508-4.031a8.37,8.37,0,0,0,1.891-.2,2.53,2.53,0,0,0,1.211-.609,1.518,1.518,0,0,0,.422-1.129,1.138,1.138,0,0,0-.223-.746.807.807,0,0,0-.66-.27,2.084,2.084,0,0,0-1.52.8A5.309,5.309,0,0,0,56.508-4.031Zm11.617-.9a5.526,5.526,0,0,0,.164-1.18.787.787,0,0,0-.1-.453.368.368,0,0,0-.32-.141.874.874,0,0,0-.512.2,5.607,5.607,0,0,0-.738.723l-.445-.437a7.627,7.627,0,0,1,1.191-1.059A1.914,1.914,0,0,1,68.445-7.6a.979.979,0,0,1,.77.32,1.233,1.233,0,0,1,.285.852,2.651,2.651,0,0,1-.18.922l.094.031q1.445-2.117,2.875-2.117a1.544,1.544,0,0,1,1.324.648,3.061,3.061,0,0,1,.473,1.828,6.533,6.533,0,0,1-.52,2.535A4.83,4.83,0,0,1,72.125-.605a3.238,3.238,0,0,1-2.062.73,3.075,3.075,0,0,1-1.727-.453l-.359,1.711a4.6,4.6,0,0,0-.117.914.6.6,0,0,0,.176.488,1.339,1.339,0,0,0,.684.191l-.062.383H66.242Zm.789,2.211q-.078.414-.1.633t-.02.43a1.262,1.262,0,0,0,.262.887,1.207,1.207,0,0,0,.9.277A1.72,1.72,0,0,0,70.7-.648a2.277,2.277,0,0,0,.637-.453,3.334,3.334,0,0,0,.543-.719,5.647,5.647,0,0,0,.434-.98A7.128,7.128,0,0,0,72.6-3.949a6.788,6.788,0,0,0,.1-1.105,2.531,2.531,0,0,0-.23-1.223.781.781,0,0,0-.73-.4,1.361,1.361,0,0,0-.785.27,4.166,4.166,0,0,0-.848.863,5.738,5.738,0,0,0-.719,1.172,6.233,6.233,0,0,0-.406,1.328ZM77.6-8.969q.094-.414.133-.66a2.928,2.928,0,0,0,.039-.457.612.612,0,0,0-.086-.355.482.482,0,0,0-.246-.176,2.467,2.467,0,0,0-.574-.078l.094-.406,1.969-.07h.461L77.469-2.523A5.9,5.9,0,0,0,77.3-1.367a.787.787,0,0,0,.1.453.368.368,0,0,0,.32.141.869.869,0,0,0,.5-.191,5.49,5.49,0,0,0,.75-.73l.445.438a6.814,6.814,0,0,1-1.238,1.09A2.023,2.023,0,0,1,77.1.125a1,1,0,0,1-.812-.371,1.447,1.447,0,0,1-.3-.949A7.655,7.655,0,0,1,76.2-2.711Zm9.07,1.883.719-.516.5.125L86.742-2.523a5.5,5.5,0,0,0-.172,1.156.787.787,0,0,0,.1.453.368.368,0,0,0,.32.141.869.869,0,0,0,.5-.191,5.49,5.49,0,0,0,.75-.73l.445.438a6.8,6.8,0,0,1-1.2,1.066,1.96,1.96,0,0,1-1.074.316.991.991,0,0,1-.773-.32,1.223,1.223,0,0,1-.289-.852,2.633,2.633,0,0,1,.18-.914l-.1-.031a6.889,6.889,0,0,1-1.422,1.6,2.32,2.32,0,0,1-1.422.508,1.552,1.552,0,0,1-1.332-.648,3.046,3.046,0,0,1-.473-1.82,6.524,6.524,0,0,1,.527-2.582,4.776,4.776,0,0,1,1.449-1.953A3.271,3.271,0,0,1,84.813-7.6a3.809,3.809,0,0,1,.949.113A3.318,3.318,0,0,1,86.672-7.086Zm-.687,2.328a4.931,4.931,0,0,0,.094-.555q.023-.234.023-.508a1.277,1.277,0,0,0-.258-.883,1.145,1.145,0,0,0-.875-.281,1.985,1.985,0,0,0-1.445.648,4.377,4.377,0,0,0-1,1.738,6.913,6.913,0,0,0-.359,2.176,2.585,2.585,0,0,0,.223,1.215.784.784,0,0,0,.746.4,1.515,1.515,0,0,0,1.012-.445,6.2,6.2,0,0,0,1.023-1.27,5.537,5.537,0,0,0,.746-1.9Zm5.023-.2a5.6,5.6,0,0,0,.172-1.156.787.787,0,0,0-.1-.453.368.368,0,0,0-.32-.141.874.874,0,0,0-.512.2,5.607,5.607,0,0,0-.738.723l-.445-.437a7.756,7.756,0,0,1,1.2-1.066A1.905,1.905,0,0,1,91.336-7.6a.982.982,0,0,1,.777.324,1.236,1.236,0,0,1,.285.848,2.689,2.689,0,0,1-.187.922l.094.031a7.228,7.228,0,0,1,1.457-1.6,2.348,2.348,0,0,1,1.426-.52,1.454,1.454,0,0,1,1.117.418,1.633,1.633,0,0,1,.391,1.16,6.238,6.238,0,0,1-.227,1.4L95.961-2.57a5.873,5.873,0,0,0-.211,1.2.787.787,0,0,0,.1.453.368.368,0,0,0,.32.141.869.869,0,0,0,.5-.191,5.49,5.49,0,0,0,.75-.73l.445.438A7.067,7.067,0,0,1,96.7-.207a2.015,2.015,0,0,1-1.141.332,1.007,1.007,0,0,1-.812-.363,1.391,1.391,0,0,1-.3-.926A6.463,6.463,0,0,1,94.7-2.656l.344-1.352q.188-.734.246-1.086a3.628,3.628,0,0,0,.059-.57,1.31,1.31,0,0,0-.18-.777.687.687,0,0,0-.586-.238,1.266,1.266,0,0,0-.707.262,4.031,4.031,0,0,0-.8.789,6.193,6.193,0,0,0-.684,1.023,5.1,5.1,0,0,0-.422,1.223L91.219,0H89.867Zm16.438,2.961a6.889,6.889,0,0,1-1.422,1.6A2.32,2.32,0,0,1,104.6.117a1.552,1.552,0,0,1-1.332-.648,3.046,3.046,0,0,1-.473-1.82,6.524,6.524,0,0,1,.527-2.582,4.776,4.776,0,0,1,1.449-1.953,3.271,3.271,0,0,1,2.055-.715,3.723,3.723,0,0,1,.879.1,3.16,3.16,0,0,1,.824.34l.406-1.8q.062-.258.109-.57a3.747,3.747,0,0,0,.047-.547.612.612,0,0,0-.086-.355.482.482,0,0,0-.246-.176,2.467,2.467,0,0,0-.574-.078l.094-.406,1.961-.07h.461l-1.945,8.648a5.792,5.792,0,0,0-.172,1.156.787.787,0,0,0,.1.453.368.368,0,0,0,.32.141.869.869,0,0,0,.5-.191,5.49,5.49,0,0,0,.75-.73l.445.438a6.989,6.989,0,0,1-1.211,1.07,1.946,1.946,0,0,1-1.062.313.991.991,0,0,1-.773-.32,1.223,1.223,0,0,1-.289-.852,2.633,2.633,0,0,1,.18-.914Zm.523-2.766a5.219,5.219,0,0,0,.117-1.062,1.275,1.275,0,0,0-.258-.887,1.131,1.131,0,0,0-.859-.277,1.957,1.957,0,0,0-1.43.645,4.429,4.429,0,0,0-1,1.738,6.881,6.881,0,0,0-.363,2.18,2.585,2.585,0,0,0,.223,1.215.784.784,0,0,0,.746.4,1.26,1.26,0,0,0,.492-.105,1.985,1.985,0,0,0,.52-.34,4.054,4.054,0,0,0,.531-.57q.262-.336.48-.676a4.82,4.82,0,0,0,.406-.8,6.442,6.442,0,0,0,.32-1.121Zm9.82,3.2A5.939,5.939,0,0,1,116.254-.3a3.733,3.733,0,0,1-1.809.422,2.236,2.236,0,0,1-1.754-.691,2.78,2.78,0,0,1-.621-1.926,6,6,0,0,1,.3-1.793A5.239,5.239,0,0,1,113.281-6a4.254,4.254,0,0,1,1.461-1.18,4.06,4.06,0,0,1,1.813-.418,2.22,2.22,0,0,1,1.418.383,1.448,1.448,0,0,1,.473,1.2A2.135,2.135,0,0,1,117.2-4.031a8.1,8.1,0,0,1-3.7.664,5.18,5.18,0,0,0-.094,1.016,1.806,1.806,0,0,0,.32,1.191,1.316,1.316,0,0,0,1.047.371,2.706,2.706,0,0,0,1.3-.312,5.434,5.434,0,0,0,1.23-.961Zm-4.156-2.477a8.37,8.37,0,0,0,1.891-.2,2.53,2.53,0,0,0,1.211-.609,1.518,1.518,0,0,0,.422-1.129,1.138,1.138,0,0,0-.223-.746.807.807,0,0,0-.66-.27,2.084,2.084,0,0,0-1.52.8A5.309,5.309,0,0,0,113.633-4.031Zm12.914-1.453a6.293,6.293,0,0,1,1.43-1.59,2.421,2.421,0,0,1,1.438-.52,1.471,1.471,0,0,1,1.141.426,1.758,1.758,0,0,1,.391,1.23v.109a.949.949,0,0,1-.008.117,5.717,5.717,0,0,1,1.34-1.418,2.4,2.4,0,0,1,1.387-.465,1.452,1.452,0,0,1,1.109.414,1.63,1.63,0,0,1,.391,1.164,6.237,6.237,0,0,1-.227,1.4L134.43-2.57a5.873,5.873,0,0,0-.211,1.2.787.787,0,0,0,.1.453.368.368,0,0,0,.32.141.869.869,0,0,0,.5-.191,5.49,5.49,0,0,0,.75-.73l.445.438a7.389,7.389,0,0,1-1.172,1.047,2,2,0,0,1-1.141.336,1.007,1.007,0,0,1-.812-.363,1.391,1.391,0,0,1-.3-.926,6.463,6.463,0,0,1,.258-1.492l.344-1.352q.188-.734.246-1.086a3.628,3.628,0,0,0,.059-.57,1.31,1.31,0,0,0-.18-.777.687.687,0,0,0-.586-.238,1.3,1.3,0,0,0-.7.246,3.562,3.562,0,0,0-.789.766,6.35,6.35,0,0,0-.676,1.023,4.923,4.923,0,0,0-.418,1.23L129.75,0H128.4l.9-3.969q.164-.727.223-1.074a3.675,3.675,0,0,0,.059-.6,1.257,1.257,0,0,0-.2-.8.764.764,0,0,0-.621-.238,1.283,1.283,0,0,0-.676.246,3.586,3.586,0,0,0-.809.789A5.727,5.727,0,0,0,126.6-4.6a5.748,5.748,0,0,0-.406,1.219L125.453,0H124.1l1.141-4.953a5.6,5.6,0,0,0,.172-1.156.787.787,0,0,0-.1-.453.368.368,0,0,0-.32-.141.874.874,0,0,0-.512.2,5.607,5.607,0,0,0-.738.723l-.445-.437A7.624,7.624,0,0,1,124.48-7.27a1.919,1.919,0,0,1,1.09-.332.982.982,0,0,1,.777.324,1.236,1.236,0,0,1,.285.848,2.633,2.633,0,0,1-.18.914Zm16.688-1.6.719-.516.5.125L143.3-2.523a5.5,5.5,0,0,0-.172,1.156.787.787,0,0,0,.1.453.368.368,0,0,0,.32.141.869.869,0,0,0,.5-.191,5.49,5.49,0,0,0,.75-.73l.445.438a6.8,6.8,0,0,1-1.2,1.066,1.96,1.96,0,0,1-1.074.316A.991.991,0,0,1,142.2-.2a1.223,1.223,0,0,1-.289-.852,2.632,2.632,0,0,1,.18-.914l-.1-.031a6.889,6.889,0,0,1-1.422,1.6,2.32,2.32,0,0,1-1.422.508,1.552,1.552,0,0,1-1.332-.648,3.046,3.046,0,0,1-.473-1.82,6.524,6.524,0,0,1,.527-2.582,4.776,4.776,0,0,1,1.449-1.953,3.271,3.271,0,0,1,2.055-.715,3.809,3.809,0,0,1,.949.113A3.318,3.318,0,0,1,143.234-7.086Zm-.687,2.328a4.931,4.931,0,0,0,.094-.555q.023-.234.023-.508a1.277,1.277,0,0,0-.258-.883,1.145,1.145,0,0,0-.875-.281,1.985,1.985,0,0,0-1.445.648,4.377,4.377,0,0,0-1,1.738,6.913,6.913,0,0,0-.359,2.176,2.585,2.585,0,0,0,.223,1.215.784.784,0,0,0,.746.4,1.515,1.515,0,0,0,1.012-.445,6.2,6.2,0,0,0,1.023-1.27,5.537,5.537,0,0,0,.746-1.9Zm6.359-.828a6.511,6.511,0,0,1,1.473-1.523,2.515,2.515,0,0,1,1.434-.484,4.445,4.445,0,0,1,.953.086l-.375,1.75h-.8a1.808,1.808,0,0,0-.133-.508.563.563,0,0,0-.2-.25.569.569,0,0,0-.3-.07,1.067,1.067,0,0,0-.613.242,4.2,4.2,0,0,0-.746.758,6.005,6.005,0,0,0-.66.992,5.079,5.079,0,0,0-.41,1.211L147.781,0H146.43l1.133-4.953a7.312,7.312,0,0,0,.141-.727,3.687,3.687,0,0,0,.031-.43.787.787,0,0,0-.1-.453.368.368,0,0,0-.32-.141.874.874,0,0,0-.512.2,5.607,5.607,0,0,0-.738.723l-.445-.437a7.51,7.51,0,0,1,1.2-1.066,1.916,1.916,0,0,1,1.07-.316.982.982,0,0,1,.777.324,1.236,1.236,0,0,1,.285.848,2.378,2.378,0,0,1-.148.8Zm8.258,2.375a1.5,1.5,0,0,0-.156-.422.389.389,0,0,0-.18-.156,1.129,1.129,0,0,0-.359-.039h-.539L155.117,0h-1.352l2.008-8.93q.1-.453.145-.707a2.73,2.73,0,0,0,.043-.449.513.513,0,0,0-.2-.461,1.455,1.455,0,0,0-.715-.148l.094-.406,1.977-.07h.453l-1.531,6.82h.25a2.373,2.373,0,0,0,1.316-.512,8.848,8.848,0,0,0,1.168-.949,1.238,1.238,0,0,0,.438-.844q0-.383-.531-.43l.086-.383H161.3l.148.383q-.648.586-1.375,1.148l-1.937,1.5.766,2.82a3.384,3.384,0,0,0,.168.52.648.648,0,0,0,.172.238.407.407,0,0,0,.262.078A.847.847,0,0,0,159.984-1a4.779,4.779,0,0,0,.641-.633l.445.438a6.633,6.633,0,0,1-1.164,1.031,1.679,1.679,0,0,1-.891.289,1.166,1.166,0,0,1-.844-.3,2.109,2.109,0,0,1-.492-1Zm11.25,1.656A5.939,5.939,0,0,1,166.879-.3a3.733,3.733,0,0,1-1.809.422,2.236,2.236,0,0,1-1.754-.691,2.78,2.78,0,0,1-.621-1.926,6,6,0,0,1,.3-1.793A5.239,5.239,0,0,1,163.906-6a4.254,4.254,0,0,1,1.461-1.18A4.06,4.06,0,0,1,167.18-7.6a2.22,2.22,0,0,1,1.418.383,1.448,1.448,0,0,1,.473,1.2,2.135,2.135,0,0,1-1.246,1.992,8.1,8.1,0,0,1-3.7.664,5.18,5.18,0,0,0-.094,1.016,1.806,1.806,0,0,0,.32,1.191,1.316,1.316,0,0,0,1.047.371,2.706,2.706,0,0,0,1.3-.312,5.434,5.434,0,0,0,1.23-.961Zm-4.156-2.477a8.37,8.37,0,0,0,1.891-.2,2.53,2.53,0,0,0,1.211-.609,1.518,1.518,0,0,0,.422-1.129,1.138,1.138,0,0,0-.223-.746.807.807,0,0,0-.66-.27,2.084,2.084,0,0,0-1.52.8A5.309,5.309,0,0,0,164.258-4.031Zm10.984,2.555a5.646,5.646,0,0,1-1.309,1.211,2.458,2.458,0,0,1-1.316.391,1.45,1.45,0,0,1-1.633-1.648,4.923,4.923,0,0,1,.133-1.1l.922-4.055h-1.312l.117-.539a3.154,3.154,0,0,0,.7-.07,1.277,1.277,0,0,0,.4-.172,1.1,1.1,0,0,0,.293-.312,2.918,2.918,0,0,0,.258-.52q.125-.316.375-1.105h1.078l-.43,1.93h2.375l-.172.789h-2.375l-.7,3.031q-.2.883-.258,1.27a4.659,4.659,0,0,0-.055.621q0,.969.8.969a1.319,1.319,0,0,0,.73-.262,4.9,4.9,0,0,0,.918-.895Zm5.3-9.055-.359,1.516H178.8l.359-1.516Zm-2.516,5.266a5.77,5.77,0,0,0,.18-1.172.563.563,0,0,0-.168-.477,1.267,1.267,0,0,0-.66-.141l.086-.414,1.906-.07h.461L178.7-2.523a5.793,5.793,0,0,0-.172,1.156.787.787,0,0,0,.1.453.368.368,0,0,0,.32.141.869.869,0,0,0,.5-.191,5.49,5.49,0,0,0,.75-.73l.445.438a6.817,6.817,0,0,1-1.242,1.094,2.023,2.023,0,0,1-1.07.289,1,1,0,0,1-.812-.371,1.447,1.447,0,0,1-.3-.949,6.841,6.841,0,0,1,.219-1.516Zm5.3.313a5.6,5.6,0,0,0,.172-1.156.787.787,0,0,0-.1-.453.368.368,0,0,0-.32-.141.874.874,0,0,0-.512.2,5.607,5.607,0,0,0-.738.723l-.445-.437a7.756,7.756,0,0,1,1.2-1.066,1.905,1.905,0,0,1,1.078-.316.982.982,0,0,1,.777.324,1.236,1.236,0,0,1,.285.848,2.689,2.689,0,0,1-.187.922l.094.031a7.228,7.228,0,0,1,1.457-1.6,2.348,2.348,0,0,1,1.426-.52,1.454,1.454,0,0,1,1.117.418,1.633,1.633,0,0,1,.391,1.16,6.237,6.237,0,0,1-.227,1.4l-.508,2.047a5.873,5.873,0,0,0-.211,1.2.787.787,0,0,0,.1.453.368.368,0,0,0,.32.141.869.869,0,0,0,.5-.191,5.49,5.49,0,0,0,.75-.73l.445.438a7.068,7.068,0,0,1-1.172,1.051,2.015,2.015,0,0,1-1.141.332,1.007,1.007,0,0,1-.812-.363,1.391,1.391,0,0,1-.3-.926,6.463,6.463,0,0,1,.258-1.492l.344-1.352q.188-.734.246-1.086a3.628,3.628,0,0,0,.059-.57,1.31,1.31,0,0,0-.18-.777.687.687,0,0,0-.586-.238,1.266,1.266,0,0,0-.707.262,4.031,4.031,0,0,0-.8.789,6.192,6.192,0,0,0-.684,1.023,5.1,5.1,0,0,0-.422,1.223L183.539,0h-1.352ZM192.289.672a2.618,2.618,0,0,0-.25.355,1.386,1.386,0,0,0-.145.34,1.557,1.557,0,0,0-.043.391.94.94,0,0,0,.422.855,2.4,2.4,0,0,0,1.273.27,2.521,2.521,0,0,0,1.543-.434,3.339,3.339,0,0,0,1-1.395,15.588,15.588,0,0,0,.8-2.906l-.109-.023a7.008,7.008,0,0,1-1.406,1.516,2.315,2.315,0,0,1-1.4.477,1.551,1.551,0,0,1-1.324-.641,3.039,3.039,0,0,1-.473-1.828,6.491,6.491,0,0,1,.523-2.566,4.814,4.814,0,0,1,1.453-1.957,3.281,3.281,0,0,1,2.07-.727,3.58,3.58,0,0,1,.93.117,3.219,3.219,0,0,1,.883.4l.719-.516.5.125-.8,3.641q-.086.383-.391,1.93-.32,1.641-.52,2.32a6.569,6.569,0,0,1-.5,1.238,3.441,3.441,0,0,1-.766.973,3.289,3.289,0,0,1-1.137.641,4.939,4.939,0,0,1-1.582.227q-2.953,0-2.953-1.719a1.31,1.31,0,0,1,.266-.8,3.511,3.511,0,0,1,.852-.758ZM194.531-.8a1.383,1.383,0,0,0,.793-.273,3.949,3.949,0,0,0,.844-.867,6.291,6.291,0,0,0,.7-1.133,6.555,6.555,0,0,0,.426-1.344,6.68,6.68,0,0,0,.176-1.4,1.275,1.275,0,0,0-.258-.887,1.131,1.131,0,0,0-.859-.277,1.957,1.957,0,0,0-1.43.645,4.429,4.429,0,0,0-1,1.738,6.881,6.881,0,0,0-.363,2.18,2.474,2.474,0,0,0,.234,1.215A.789.789,0,0,0,194.531-.8Z" transform="translate(1084 3578)" fill="#12263f"/>
    <path id="Trazado_162000" data-name="Trazado 162000" d="M0,0H262" transform="translate(1053.5 3588.5)" fill="none" stroke="#707070" stroke-width="1"/>
  </g>
</svg>
