<svg xmlns="http://www.w3.org/2000/svg" xmlns:xlink="http://www.w3.org/1999/xlink" width="189" height="196.983" viewBox="0 0 189 196.983">
  <defs>
    <clipPath id="clip-path">
      <rect id="Rectángulo_35377" data-name="Rectángulo 35377" width="188.134" height="187.983" fill="none"/>
    </clipPath>
    <clipPath id="clip-path-2">
      <path id="Trazado_160984" data-name="Trazado 160984" d="M.033,101.51c0,1.352.886,2.7,2.65,3.724L114.248,170a14.323,14.323,0,0,0,12.951,0l58.243-33.626c1.8-1.038,2.695-2.407,2.691-3.776l-.032-8.281c0,1.368-.9,2.74-2.693,3.777l-58.242,33.625a14.326,14.326,0,0,1-12.952,0L2.651,96.954C.887,95.929,0,94.581,0,93.229Z" transform="translate(0 -93.229)" fill="none"/>
    </clipPath>
    <linearGradient id="linear-gradient" y1="0.993" x2="0.006" y2="0.993" gradientUnits="objectBoundingBox">
      <stop offset="0" stop-color="#9c82f0"/>
      <stop offset="0.065" stop-color="#9c82f0"/>
      <stop offset="0.62" stop-color="#9c82f0"/>
      <stop offset="0.63" stop-color="#aa93f5"/>
      <stop offset="0.644" stop-color="#bda9fc"/>
      <stop offset="0.654" stop-color="#c4b2ff"/>
      <stop offset="0.656" stop-color="#bfadfd"/>
      <stop offset="0.665" stop-color="#b49ff9"/>
      <stop offset="0.677" stop-color="#ad98f6"/>
      <stop offset="0.7" stop-color="#ac96f6"/>
      <stop offset="0.989" stop-color="#ac96f6"/>
      <stop offset="1" stop-color="#c2b0fe"/>
    </linearGradient>
    <clipPath id="clip-path-4">
      <path id="Trazado_161002" data-name="Trazado 161002" d="M84.719,15.212,82.852,16.3a2.674,2.674,0,0,1,2.695.263l1.866-1.085a3.457,3.457,0,0,0-1.7-.519,1.954,1.954,0,0,0-1,.255" transform="translate(-82.852 -14.957)" fill="none"/>
    </clipPath>
    <linearGradient id="linear-gradient-2" x1="-21.37" y1="106.271" x2="-21.112" y2="106.271" gradientUnits="objectBoundingBox">
      <stop offset="0" stop-color="#aabbd6"/>
      <stop offset="0.137" stop-color="#aabbd6"/>
      <stop offset="0.192" stop-color="#adbcd7"/>
      <stop offset="0.708" stop-color="#cbcce7"/>
      <stop offset="1" stop-color="#d7d3ee"/>
    </linearGradient>
    <clipPath id="clip-path-5">
      <path id="Trazado_161003" data-name="Trazado 161003" d="M85.143,16.483a8.315,8.315,0,0,1,3.772,6.537,2.65,2.65,0,0,1-1.1,2.428l1.864-1.083a2.656,2.656,0,0,0,1.106-2.429A8.323,8.323,0,0,0,87.009,15.4Z" transform="translate(-85.143 -15.398)" fill="none"/>
    </clipPath>
    <linearGradient id="linear-gradient-3" x1="-9.888" y1="14.803" x2="-9.769" y2="14.803" xlink:href="#linear-gradient-2"/>
    <clipPath id="clip-path-6">
      <path id="Trazado_161004" data-name="Trazado 161004" d="M81.913,18.562A8.324,8.324,0,0,0,85.687,25.1c2.093,1.207,3.792.238,3.8-2.164A8.315,8.315,0,0,0,85.713,16.4a3.433,3.433,0,0,0-1.7-.519c-1.24,0-2.1.982-2.1,2.683" transform="translate(-81.913 -15.879)" fill="none"/>
    </clipPath>
    <linearGradient id="linear-gradient-4" x1="-7.998" y1="13.294" x2="-7.899" y2="13.294" xlink:href="#linear-gradient-2"/>
    <clipPath id="clip-path-7">
      <path id="Trazado_161005" data-name="Trazado 161005" d="M82.6,19.021a6.164,6.164,0,0,0,2.8,4.846c1.549.9,2.81.176,2.816-1.6a6.167,6.167,0,0,0-2.8-4.846,2.551,2.551,0,0,0-1.26-.386c-.92,0-1.554.728-1.557,1.99" transform="translate(-82.602 -17.031)" fill="none"/>
    </clipPath>
    <linearGradient id="linear-gradient-5" x1="-17.273" y1="21.711" x2="-17.064" y2="21.711" xlink:href="#linear-gradient-2"/>
    <clipPath id="clip-path-9">
      <path id="Trazado_161010" data-name="Trazado 161010" d="M82.533,15.923l-1.12.651a2.884,2.884,0,0,1,2.909.285A8.982,8.982,0,0,1,88.4,23.918a2.861,2.861,0,0,1-1.193,2.622l1.119-.651a2.862,2.862,0,0,0,1.194-2.622,8.987,8.987,0,0,0-4.075-7.059,3.726,3.726,0,0,0-1.836-.561,2.107,2.107,0,0,0-1.074.276" transform="translate(-81.413 -15.647)" fill="none"/>
    </clipPath>
    <linearGradient id="linear-gradient-6" x1="-7.504" y1="12.659" x2="-7.41" y2="12.659" gradientUnits="objectBoundingBox">
      <stop offset="0" stop-color="#5a545e"/>
      <stop offset="0.165" stop-color="#5a545e"/>
      <stop offset="0.451" stop-color="#615a65"/>
      <stop offset="0.786" stop-color="#706875"/>
      <stop offset="1" stop-color="#706875"/>
    </linearGradient>
    <clipPath id="clip-path-11">
      <path id="Trazado_161036" data-name="Trazado 161036" d="M68.21,24.446l-1.12.649A2.886,2.886,0,0,1,70,25.38a8.989,8.989,0,0,1,4.076,7.06,2.867,2.867,0,0,1-1.193,2.622L74,34.411a2.862,2.862,0,0,0,1.192-2.622,8.978,8.978,0,0,0-4.075-7.058,3.718,3.718,0,0,0-1.834-.561,2.1,2.1,0,0,0-1.075.276" transform="translate(-67.09 -24.17)" fill="none"/>
    </clipPath>
    <linearGradient id="linear-gradient-7" x1="-6.154" y1="11.917" x2="-6.059" y2="11.917" xlink:href="#linear-gradient-6"/>
    <clipPath id="clip-path-13">
      <path id="Trazado_161038" data-name="Trazado 161038" d="M67.671,26.68a8.314,8.314,0,0,1,3.774,6.536,2.649,2.649,0,0,1-1.1,2.428l1.867-1.083a2.651,2.651,0,0,0,1.1-2.429,8.318,8.318,0,0,0-3.774-6.537Z" transform="translate(-67.671 -25.594)" fill="none"/>
    </clipPath>
    <linearGradient id="linear-gradient-8" x1="-7.814" y1="13.762" x2="-7.695" y2="13.762" xlink:href="#linear-gradient-2"/>
    <clipPath id="clip-path-14">
      <path id="Trazado_161039" data-name="Trazado 161039" d="M64.442,28.759A8.317,8.317,0,0,0,68.216,35.3c2.091,1.207,3.791.239,3.8-2.164a8.314,8.314,0,0,0-3.774-6.536,3.448,3.448,0,0,0-1.7-.52c-1.241,0-2.1.983-2.1,2.684" transform="translate(-64.442 -26.075)" fill="none"/>
    </clipPath>
    <linearGradient id="linear-gradient-9" x1="-6.255" y1="12.36" x2="-6.155" y2="12.36" gradientUnits="objectBoundingBox">
      <stop offset="0" stop-color="#d8dced"/>
      <stop offset="0.816" stop-color="#edeafb"/>
      <stop offset="1" stop-color="#edeafb"/>
    </linearGradient>
    <clipPath id="clip-path-16">
      <path id="Trazado_161041" data-name="Trazado 161041" d="M76.683,9.1l2.474,1.436A7.865,7.865,0,0,1,85.208,9.4a4.636,4.636,0,0,1,1,.434L83.737,8.394a4.682,4.682,0,0,0-1-.433,5.478,5.478,0,0,0-1.57-.22A9.139,9.139,0,0,0,76.683,9.1" transform="translate(-76.683 -7.741)" fill="none"/>
    </clipPath>
    <linearGradient id="linear-gradient-10" x1="-12.716" y1="18.887" x2="-12.553" y2="18.887" gradientUnits="objectBoundingBox">
      <stop offset="0" stop-color="#eeebfc"/>
      <stop offset="0.291" stop-color="#eeebfc"/>
      <stop offset="1" stop-color="#eae8fa"/>
    </linearGradient>
    <clipPath id="clip-path-18">
      <path id="Trazado_161043" data-name="Trazado 161043" d="M68.263,30.864l-.008,0c0,.051,0,.056.008,0m3.728-17.638a22.223,22.223,0,0,0-4.055,5.925,19.6,19.6,0,0,0-1.862,6.56c-.124,1.441-.339,4.092-.285,3.714l2.466,1.434c.011-.322.186-2.467.293-3.71a19.623,19.623,0,0,1,1.861-6.56,22.276,22.276,0,0,1,4.055-5.926A16.312,16.312,0,0,1,78,11.846l-2.473-1.437a16.255,16.255,0,0,0-3.534,2.817" transform="translate(-65.781 -10.409)" fill="none"/>
    </clipPath>
    <linearGradient id="linear-gradient-11" x1="-2.994" y1="8.431" x2="-2.944" y2="8.431" gradientUnits="objectBoundingBox">
      <stop offset="0" stop-color="#eae8fa"/>
      <stop offset="0.709" stop-color="#eeebfc"/>
      <stop offset="1" stop-color="#eeebfc"/>
    </linearGradient>
    <clipPath id="clip-path-20">
      <path id="Trazado_161054" data-name="Trazado 161054" d="M31.715,46.446l2.615,1.52a18.167,18.167,0,0,1-2.591-1.829l-2.615-1.519a18.159,18.159,0,0,0,2.591,1.828" transform="translate(-29.124 -44.618)" fill="none"/>
    </clipPath>
    <clipPath id="clip-path-22">
      <path id="Trazado_161057" data-name="Trazado 161057" d="M38.654,0c-3.931.021-8.513,1.375-13.4,4.2l2.615,1.519C36.007,1.016,43.3.388,48.154,3.21L45.539,1.692A13.34,13.34,0,0,0,38.814,0Z" transform="translate(-25.253)" fill="none"/>
    </clipPath>
    <clipPath id="clip-path-24">
      <path id="Trazado_161060" data-name="Trazado 161060" d="M2.883,44.4C2.9,50.641,5.222,55.031,9.062,57.264l2.615,1.519C7.837,56.551,5.516,52.159,5.5,45.916,5.458,31.78,17.241,13.5,31.812,5.087L29.2,3.568C14.626,11.98,2.843,30.261,2.883,44.4" transform="translate(-2.883 -3.568)" fill="none"/>
    </clipPath>
    <clipPath id="clip-path-26">
      <path id="Trazado_161064" data-name="Trazado 161064" d="M19.491,29.939l1.129.655a2.321,2.321,0,0,1,2.34-.228l-1.129-.655a1.686,1.686,0,0,0-.865-.222,3,3,0,0,0-1.475.451" transform="translate(-19.491 -29.488)" fill="none"/>
    </clipPath>
    <clipPath id="clip-path-28">
      <path id="Trazado_161067" data-name="Trazado 161067" d="M16.706,35.547a2.3,2.3,0,0,0,.96,2.107l1.128.655a2.3,2.3,0,0,1-.96-2.107,7.221,7.221,0,0,1,3.277-5.676l-1.129-.655a7.221,7.221,0,0,0-3.276,5.676" transform="translate(-16.706 -29.871)" fill="none"/>
    </clipPath>
    <clipPath id="clip-path-30">
      <path id="Trazado_161071" data-name="Trazado 161071" d="M28.27,24.871l1.127.655a2.319,2.319,0,0,1,2.34-.228l-1.127-.656a1.7,1.7,0,0,0-.863-.221,3,3,0,0,0-1.476.451" transform="translate(-28.27 -24.42)" fill="none"/>
    </clipPath>
    <clipPath id="clip-path-32">
      <path id="Trazado_161074" data-name="Trazado 161074" d="M25.484,30.479a2.305,2.305,0,0,0,.96,2.109l1.127.655a2.3,2.3,0,0,1-.958-2.109,7.211,7.211,0,0,1,3.275-5.676L28.761,24.8a7.22,7.22,0,0,0-3.277,5.676" transform="translate(-25.484 -24.803)" fill="none"/>
    </clipPath>
    <clipPath id="clip-path-34">
      <path id="Trazado_161078" data-name="Trazado 161078" d="M37.049,19.8l1.127.656a2.32,2.32,0,0,1,2.34-.231l-1.127-.655a1.7,1.7,0,0,0-.865-.221,2.992,2.992,0,0,0-1.475.451" transform="translate(-37.049 -19.352)" fill="none"/>
    </clipPath>
    <clipPath id="clip-path-36">
      <path id="Trazado_161081" data-name="Trazado 161081" d="M34.263,25.41a2.3,2.3,0,0,0,.959,2.109l1.128.655a2.3,2.3,0,0,1-.96-2.108,7.214,7.214,0,0,1,3.277-5.675l-1.127-.656a7.209,7.209,0,0,0-3.277,5.675" transform="translate(-34.263 -19.735)" fill="none"/>
    </clipPath>
  </defs>
  <g id="Grupo_84373" data-name="Grupo 84373" transform="translate(-233 -1165)">
    <circle id="Elipse_4976" data-name="Elipse 4976" cx="94.5" cy="94.5" r="94.5" transform="translate(233 1165)" fill="#7e5ee3"/>
    <g id="Grupo_84192" data-name="Grupo 84192" transform="translate(233.434 1174)">
      <g id="Grupo_84119" data-name="Grupo 84119">
        <g id="Grupo_84118" data-name="Grupo 84118" clip-path="url(#clip-path)">
          <path id="Trazado_160973" data-name="Trazado 160973" d="M72.028,16.409c-2.162-5.1-14.831-2.882-14.291,6.005S55.155,42.949,50.171,43.67c3,3.723,10.088,8.586,20,5.464s1.862-32.725,1.862-32.725" transform="translate(8.846 2.418)" fill="#db6400"/>
          <path id="Trazado_160974" data-name="Trazado 160974" d="M52.925,63.19l.021,7.5a11.461,11.461,0,0,1,10.363,0l-.021-7.5a11.461,11.461,0,0,0-10.363,0" transform="translate(9.332 10.923)" fill="#333"/>
          <path id="Trazado_160975" data-name="Trazado 160975" d="M5,95.552l.021,7.5L61.4,70.5,61.375,63Z" transform="translate(0.881 11.109)" fill="#333"/>
          <path id="Trazado_160976" data-name="Trazado 160976" d="M3.188,99.134c-.014-1.1.7-.127,2.155-.965l-.021-7.5a3.648,3.648,0,0,0-2.155,3.048c.006,2.249.015,3.164.021,5.413" transform="translate(0.558 15.988)" fill="#333"/>
          <path id="Trazado_160977" data-name="Trazado 160977" d="M3.167,93.243,3.2,103.608c0,1.081.71.076,2.121.9l-.032-8.281a3.635,3.635,0,0,1-2.121-2.981" transform="translate(0.558 16.441)" fill="#333"/>
          <path id="Trazado_160978" data-name="Trazado 160978" d="M61.735,63l.021,7.5,109.635,63.641-.021-7.5Z" transform="translate(10.885 11.109)" fill="#333"/>
          <path id="Trazado_160979" data-name="Trazado 160979" d="M154.958,124.6a4.855,4.855,0,0,1,2.131,3.741l-.032-8.281a3.647,3.647,0,0,0-2.121-2.956c.006,2.249.015,5.248.021,7.5" transform="translate(27.319 20.648)" fill="#333"/>
          <path id="Trazado_160980" data-name="Trazado 160980" d="M157.095,127.921l-.033-8.281a3.662,3.662,0,0,1-2.154,3.023l.032,8.281a3.659,3.659,0,0,0,2.155-3.023" transform="translate(27.314 21.095)" fill="#333"/>
          <path id="Trazado_160981" data-name="Trazado 160981" d="M4.97,95.777,5,104.058,114.638,167.7l-.033-8.281Z" transform="translate(0.876 16.888)" fill="#333"/>
          <path id="Trazado_160982" data-name="Trazado 160982" d="M106.982,154.758l.033,8.281,56.375-32.549-.032-8.281Z" transform="translate(18.863 21.548)" fill="#333"/>
          <path id="Trazado_160983" data-name="Trazado 160983" d="M98.172,149.879l.033,8.281a11.458,11.458,0,0,0,10.363,0l-.033-8.281a11.458,11.458,0,0,1-10.363,0" transform="translate(17.31 26.427)" fill="#333"/>
        </g>
      </g>
      <g id="Grupo_84121" data-name="Grupo 84121" transform="translate(0 109.667)">
        <g id="Grupo_84120" data-name="Grupo 84120" clip-path="url(#clip-path-2)">
          <rect id="Rectángulo_35378" data-name="Rectángulo 35378" width="188.138" height="78.834" transform="translate(-0.001 -0.001)" fill="url(#linear-gradient)"/>
        </g>
      </g>
      <g id="Grupo_84123" data-name="Grupo 84123">
        <g id="Grupo_84122" data-name="Grupo 84122" clip-path="url(#clip-path)">
          <path id="Trazado_160985" data-name="Trazado 160985" d="M127.167,167.554a14.326,14.326,0,0,1-12.952,0L2.65,102.793c-3.55-2.063-3.531-5.44.042-7.5L60.935,61.664a14.319,14.319,0,0,1,12.951,0l111.565,64.761c3.55,2.064,3.531,5.439-.041,7.5Z" transform="translate(0 10.6)" fill="#ab94f6"/>
          <path id="Trazado_160986" data-name="Trazado 160986" d="M181.663,132.834c2.858-1.65,2.875-4.352.034-6L72.062,63.188a11.467,11.467,0,0,0-10.365,0L5.322,95.738c-2.86,1.65-2.875,4.351-.034,6l109.635,63.64a11.461,11.461,0,0,0,10.363,0Z" transform="translate(0.558 10.923)" fill="#323b54"/>
          <path id="Trazado_160987" data-name="Trazado 160987" d="M16.644,108.6l-1.5-.861-.278-.159-1.5-.861v.32l1.5.861.278.159,1.5.861Z" transform="translate(2.356 18.816)" fill="#866dde"/>
          <path id="Trazado_160988" data-name="Trazado 160988" d="M14.918,107.867v-1.739l-.278-.16v1.74Z" transform="translate(2.581 18.684)" fill="#866dde"/>
          <path id="Trazado_160989" data-name="Trazado 160989" d="M17.455,111.028c0,.576-.406.814-.9.529L13.665,109.9a2,2,0,0,1-.9-1.564v-3.014c0-.576.407-.813.9-.528l2.888,1.655a2,2,0,0,1,.9,1.565ZM14.971,106.2v1.739l-1.5-.861v.321l1.5.861V110l.278.159v-1.74l1.5.861v-.32l-1.5-.861v-1.74Z" transform="translate(2.25 18.456)" fill="#967de8"/>
          <path id="Trazado_160990" data-name="Trazado 160990" d="M14.64,109.459l.278.159v-1.74l-.278-.159Z" transform="translate(2.581 18.993)" fill="#866dde"/>
          <path id="Trazado_160991" data-name="Trazado 160991" d="M18.011,107.724v3.014a.639.639,0,0,1-.268.59l-.6.34a.634.634,0,0,0,.268-.588v-3.014a2,2,0,0,0-.9-1.563l-2.888-1.656a.634.634,0,0,0-.635-.061l.6-.341a.634.634,0,0,1,.635.06l2.888,1.656a2,2,0,0,1,.9,1.563" transform="translate(2.29 18.405)" fill="#a88ff7"/>
          <path id="Trazado_160992" data-name="Trazado 160992" d="M30.761,118.71c0,.576-.406.813-.9.529l-2.888-1.656a2,2,0,0,1-.9-1.565V113c0-.576.407-.814.9-.529l2.888,1.656a2,2,0,0,1,.9,1.565Z" transform="translate(4.596 19.811)" fill="#967de8"/>
          <path id="Trazado_160993" data-name="Trazado 160993" d="M28.222,113.809v3.8l-.278-.159v-3.8Z" transform="translate(4.927 20.039)" fill="#866dde"/>
          <path id="Trazado_160994" data-name="Trazado 160994" d="M31.315,115.406v3.014a.638.638,0,0,1-.268.589l-.6.341a.64.64,0,0,0,.268-.589v-3.014a2,2,0,0,0-.9-1.563l-2.888-1.656a.632.632,0,0,0-.634-.06l.6-.341a.629.629,0,0,1,.634.06l2.888,1.655a2,2,0,0,1,.9,1.565" transform="translate(4.637 19.76)" fill="#a88ff7"/>
          <path id="Trazado_160995" data-name="Trazado 160995" d="M59.5,132.758v.642a.635.635,0,0,1-.268.587l-.6.342a.637.637,0,0,0,.268-.588V133.1a2,2,0,0,0-.9-1.564l-8.557-4.9a.632.632,0,0,0-.634-.06l.6-.341a.632.632,0,0,1,.634.06l8.557,4.9a2,2,0,0,1,.9,1.564" transform="translate(8.606 22.247)" fill="#a88ff7"/>
          <path id="Trazado_160996" data-name="Trazado 160996" d="M58.943,133.048a1.994,1.994,0,0,0-.9-1.564l-8.557-4.9c-.5-.285-.9-.047-.9.528v.642a1.994,1.994,0,0,0,.9,1.562l8.557,4.9c.5.285.9.047.9-.528Z" transform="translate(8.566 22.298)" fill="#967de8"/>
          <path id="Trazado_160997" data-name="Trazado 160997" d="M90.647,155.966l-.012-8.27.546.318.011,8.268Z" transform="translate(15.981 26.042)" fill="#bba8fc"/>
          <path id="Trazado_160998" data-name="Trazado 160998" d="M8.139,108.078l-.012-8.27.546.318.011,8.268Z" transform="translate(1.433 17.598)" fill="#bba8fc"/>
          <path id="Trazado_160999" data-name="Trazado 160999" d="M4.059,98.592a2.681,2.681,0,0,0,1.6,2.082L77.32,142.269l1.882,1.094,2.376,1.376,12.9,7.493,2.341,1.365.282.165,11.4,6.611,6.787,3.941a9.456,9.456,0,0,0,4.646,1.106,9.583,9.583,0,0,0,4.67-1.106l56.369-32.549a2.74,2.74,0,0,0,1.635-2.106,2.681,2.681,0,0,0-1.6-2.082L71.38,63.938a10.465,10.465,0,0,0-9.316,0L47.206,72.489a2.915,2.915,0,0,0-1.741,2.248,4.948,4.948,0,0,1-2.8,4.07l-11.14,6.423a12.092,12.092,0,0,1-5.987,1.447A10.223,10.223,0,0,0,20.6,87.841l-14.9,8.646a2.74,2.74,0,0,0-1.635,2.106" transform="translate(0.716 11.081)" fill="#90caef"/>
          <path id="Trazado_161000" data-name="Trazado 161000" d="M109.064,119.276c-12.415,7.167-32.6,7.131-45.094-.081s-12.555-18.869-.142-26.036,32.6-7.131,45.094.081,12.555,18.868.142,26.036" transform="translate(9.62 15.482)" fill="#38749c"/>
          <path id="Trazado_161001" data-name="Trazado 161001" d="M108.921,96.75C96.43,89.538,76.241,89.5,63.827,96.668c-5.41,3.123-8.447,7.1-9.122,11.187-.866-5.261,2.17-10.682,9.122-14.7,12.414-7.167,32.6-7.131,45.094.082,7.049,4.069,10.138,9.554,9.264,14.848-.68-4.132-3.768-8.166-9.264-11.339" transform="translate(9.62 15.482)" fill="#669fc4"/>
        </g>
      </g>
      <g id="Grupo_84125" data-name="Grupo 84125" transform="translate(97.461 17.594)">
        <g id="Grupo_84124" data-name="Grupo 84124" clip-path="url(#clip-path-4)">
          <rect id="Rectángulo_35380" data-name="Rectángulo 35380" width="4.561" height="1.603" transform="translate(0 0)" fill="url(#linear-gradient-2)"/>
        </g>
      </g>
      <g id="Grupo_84127" data-name="Grupo 84127" transform="translate(100.156 18.113)">
        <g id="Grupo_84126" data-name="Grupo 84126" clip-path="url(#clip-path-5)">
          <rect id="Rectángulo_35381" data-name="Rectángulo 35381" width="9.914" height="11.526" transform="translate(-4.351 2.512) rotate(-30)" fill="url(#linear-gradient-3)"/>
        </g>
      </g>
      <g id="Grupo_84129" data-name="Grupo 84129" transform="translate(96.356 18.679)">
        <g id="Grupo_84128" data-name="Grupo 84128" clip-path="url(#clip-path-6)">
          <rect id="Rectángulo_35382" data-name="Rectángulo 35382" width="11.784" height="12.824" transform="translate(-4.521 2.606) rotate(-30)" fill="url(#linear-gradient-4)"/>
        </g>
      </g>
      <g id="Grupo_84131" data-name="Grupo 84131" transform="translate(97.166 20.034)">
        <g id="Grupo_84130" data-name="Grupo 84130" clip-path="url(#clip-path-7)">
          <rect id="Rectángulo_35383" data-name="Rectángulo 35383" width="5.625" height="7.733" transform="translate(-0.005 0)" fill="url(#linear-gradient-5)"/>
        </g>
      </g>
      <g id="Grupo_84133" data-name="Grupo 84133">
        <g id="Grupo_84132" data-name="Grupo 84132" clip-path="url(#clip-path)">
          <path id="Trazado_161006" data-name="Trazado 161006" d="M86.046,13.9,83.573,12.46a20.333,20.333,0,0,1,.645,4.262,11.019,11.019,0,0,1,2.474,1.449,20.272,20.272,0,0,0-.646-4.274" transform="translate(14.736 2.197)" fill="#919bbd"/>
          <path id="Trazado_161007" data-name="Trazado 161007" d="M84.267,11.268,81.793,9.831a4.611,4.611,0,0,1,2.093,3.093l2.473,1.437a4.61,4.61,0,0,0-2.091-3.093" transform="translate(14.422 1.733)" fill="#919bbd"/>
          <path id="Trazado_161008" data-name="Trazado 161008" d="M80.855,9.269a6.432,6.432,0,0,1,3.621-.085,5.205,5.205,0,0,1,3.485,4.095,20.406,20.406,0,0,1,.649,4c.007.091.075.081.04.171a4.782,4.782,0,0,0-1.479,1.308,20.1,20.1,0,0,0-.645-4.245,4.37,4.37,0,0,0-5.689-3.482c0-.588,0-1.175.016-1.763" transform="translate(14.253 1.58)" fill="#a5b0d6"/>
          <path id="Trazado_161009" data-name="Trazado 161009" d="M84.5,16.761c-2.257-1.3-4.095-.256-4.1,2.337a8.984,8.984,0,0,0,4.075,7.059c2.259,1.3,4.095.256,4.1-2.337A8.977,8.977,0,0,0,84.5,16.761" transform="translate(14.176 2.856)" fill="#5b545f"/>
        </g>
      </g>
      <g id="Grupo_84135" data-name="Grupo 84135" transform="translate(95.768 18.406)">
        <g id="Grupo_84134" data-name="Grupo 84134" clip-path="url(#clip-path-9)">
          <rect id="Rectángulo_35385" data-name="Rectángulo 35385" width="12.471" height="13.489" transform="matrix(0.866, -0.5, 0.5, 0.866, -4.717, 2.723)" fill="url(#linear-gradient-6)"/>
        </g>
      </g>
      <g id="Grupo_84137" data-name="Grupo 84137">
        <g id="Grupo_84136" data-name="Grupo 84136" clip-path="url(#clip-path)">
          <path id="Trazado_161011" data-name="Trazado 161011" d="M66.715,27.695c-1.652,1.013-3.094,2.262-3.291,6.526s-1.285,8.7,1.381,13.871,5.5,6.543,8.862.114,2.694-14.313,2.694-14.313Z" transform="translate(11.115 4.883)" fill="#202459"/>
          <path id="Trazado_161012" data-name="Trazado 161012" d="M105.236,75.628c-.325,1.583-1.085,2.709-2.515,2.841a.075.075,0,0,1-.032,0c-2.1.168-3.758-.235-7.83-4.3-1.316-1.316-4.591-8.077-7.6-15.466-3.972-9.763-7.478-20.628-5.388-21.471,3.675-1.473,6.905,1.237,9.439,5.3C98.18,53.56,103.1,63.348,104,65.052c.052.094.078.147.078.147.8,2.563,1.788,7.353,1.159,10.429" transform="translate(14.326 6.494)" fill="#584c78"/>
          <path id="Trazado_161013" data-name="Trazado 161013" d="M130.713,44.147c-.447.341-5.933,6.682-5.933,6.682s1.4,1.254,1.4,1.888a8.725,8.725,0,0,0,.047.9,2.972,2.972,0,0,1,.823,1.85l-.012,1s1.112,1.5.482,2.248a9.8,9.8,0,0,1-1.252,1.068,29.859,29.859,0,0,1-4.943,3.182c-1.08.335-1.949.7-1.949.7S108.66,74.115,105.07,75.712s-6.572,1.2-7.286.734-1.639-3.925-1.308-5.644a6.358,6.358,0,0,1,1.781-3.05c1.385-1.7,1.955-3.134,4.083-3.417s10.376-4.382,11.833-5.66,2.553-6.64,3.171-7.18,2.93-.387,3.423-.671,7.508-8.16,9.008-8.427,1.385,1.41.939,1.75" transform="translate(16.999 7.47)" fill="#ffa399"/>
          <path id="Trazado_161014" data-name="Trazado 161014" d="M119.1,61.614l-.079.645c-7.761,8.611-14.186,11.887-17.2,12.583a9.631,9.631,0,0,1-1.693.246.061.061,0,0,1-.032.006c-2.043.1-3.391-.6-3.91-1.766-.566-1.274.068-5.771,1.18-8.265a5.593,5.593,0,0,1,.561-1.018,12.952,12.952,0,0,1,3.48-2.374c4.412-2.421,11.357-5.424,11.766-5.6a1.125,1.125,0,0,1,1.08.193,4.456,4.456,0,0,1-.739.772c-.414.325-.939,1.394,1.666,3.994l.147.1,1.379.922.938.629Z" transform="translate(16.922 9.875)" fill="#5f5382"/>
          <path id="Trazado_161015" data-name="Trazado 161015" d="M120.791,63.266l-.079.645c-7.761,8.611-14.186,11.887-17.2,12.583a9.631,9.631,0,0,1-1.693.246.061.061,0,0,1-.032.006c-2.1.168-3.757-.235-7.83-4.3-1.315-1.316-4.591-8.077-7.6-15.466,1.477-6.892,3.851-11.907,5.046-9.9,2.663,4.486,7.133,16.467,7.652,19.633a1.917,1.917,0,0,1,.036.666c-.346,1.4-.246,4.81,2.578,4.485a11.244,11.244,0,0,0,3.9-1.572,70.42,70.42,0,0,0,11.441-7.511l1.379.922.938.629Z" transform="translate(15.227 8.223)" fill="#534770"/>
          <path id="Trazado_161016" data-name="Trazado 161016" d="M124.223,57.571a9.819,9.819,0,0,1-1.253,1.069l-.918-.948c-.6-.461-2.73.561-3.51.4s-1.022-1.336-1.022-1.336-1.1.56-1.368-.089a7.556,7.556,0,0,1-.393-1.242,1.1,1.1,0,0,1-.6-1.253,4.862,4.862,0,0,1,.76-1.907,41.833,41.833,0,0,1,3.024-3.385c.382-.189,2.536.8,2.536.8s1.394,1.253,1.4,1.887a8.419,8.419,0,0,0,.048.9,2.98,2.98,0,0,1,.822,1.85l-.011,1s1.112,1.5.482,2.248" transform="translate(20.302 8.615)" fill="#ffa399"/>
          <path id="Trazado_161017" data-name="Trazado 161017" d="M117.716,46.532c.392-.74.571-1.44,1-1.465a1.807,1.807,0,0,1,1.265,1.615c-.048.735-1.154,1.876-1.154,1.876a14.827,14.827,0,0,0-1.976,2.323c-.08.418.188.752.3,2.29s.133,3.176-1.043,4.181-1.923,1.535-2.708,1.43-1.121-1.906-1.09-1.972,1.34-6.143,1.6-6.547,3.812-3.732,3.812-3.732" transform="translate(19.801 7.946)" fill="#ffa399"/>
          <path id="Trazado_161018" data-name="Trazado 161018" d="M100.418,116.286c-.975,12.195-2.553,24.239-3.558,25.7-1.577,2.29-10.986,4.109-13.746-.079-1.84-2.783-2.668-13.143-3.318-22.351a54.578,54.578,0,0,0,7.3-.162,46.421,46.421,0,0,0,13.322-3.1" transform="translate(14.07 20.504)" fill="#639cc2"/>
          <path id="Trazado_161019" data-name="Trazado 161019" d="M100.587,122.836a46.421,46.421,0,0,1-13.322,3.1,54.578,54.578,0,0,1-7.3.162c-.325-4.648-.607-9-.953-11.938-.734-6.257,1.058-18.374,2.148-24.816.435-2.589.76-4.261.76-4.261L96.73,79.138c1.509,4.644,3.061,7.8,3.962,13.695a78,78,0,0,1,.76,10.848c.058,5.126-.3,12.169-.865,19.155" transform="translate(13.901 13.954)" fill="#323342"/>
          <path id="Trazado_161020" data-name="Trazado 161020" d="M80.929,140.98l2.341,1.365.282.165,11.4,6.611c.788-4.282,1.6-8.2,2.317-10.857,2.506-9.222-1.553-7.281-2.188-9.963,0,0-6.14-2.941-9.952-.929a4.812,4.812,0,0,0-2.211,2.353,15.475,15.475,0,0,0-.894,3.153v.012c-.412,2.106-.776,4.917-1.094,8.093" transform="translate(14.27 22.334)" fill="#639cc2"/>
          <path id="Trazado_161021" data-name="Trazado 161021" d="M63.089,114.794c.212,1.306.447,2.611.694,3.905.082.435.165.859.247,1.294.129.682.271,1.365.4,2.035.188.941.388,1.859.576,2.753.376,1.788.765,3.47,1.106,4.988.141.565.259,1.106.388,1.623.141.612.282,1.188.412,1.717l1.882,1.094,2.376,1.376,12.9,7.493,2.341,1.365.282.165c.329-2.564.623-6,1.012-10.575.118-1.365.318-2.906.565-4.564.447-3.011,1.07-6.4,1.764-9.811a51.81,51.81,0,0,1-22.421-2.8,36.1,36.1,0,0,1-4.529-2.059" transform="translate(11.124 20.241)" fill="#6aa5cc"/>
          <path id="Trazado_161022" data-name="Trazado 161022" d="M95.03,105.9c-.786,2.606-3.008,11.384-4.785,20.079a51.7,51.7,0,0,1-22.425-2.8,34.855,34.855,0,0,1-4.528-2.06A100.606,100.606,0,0,1,62,110.25a69.826,69.826,0,0,1,1.268-15.937c1.279-6.887,3.213-12.628,4.491-14.6.331-.513,1.158-.754,2.322-.786,6.562-.2,23.851,6.091,23.851,6.091-.036,1.833.011,3.531.109,5.118.461,7.454,2.029,12.313.986,15.765" transform="translate(10.921 13.915)" fill="#363747"/>
          <path id="Trazado_161023" data-name="Trazado 161023" d="M67.82,123.173a34.46,34.46,0,0,1-4.528-2.06A100.572,100.572,0,0,1,62,110.248a69.831,69.831,0,0,1,1.268-15.937c1.279-6.887,3.213-12.625,4.491-14.6.331-.513,1.159-.754,2.322-.786C67.971,83.635,65.99,93.373,65.99,101.4c0,6.378-.388,8.847,1.829,21.776" transform="translate(10.921 13.916)" fill="#333442"/>
          <path id="Trazado_161024" data-name="Trazado 161024" d="M67.939,131.845l2.376,1.376,12.9,7.493,2.341,1.365a57.536,57.536,0,0,0-1.247-9.458v-.012s-11.928-3.717-14.986-4.352c-.459-.094-.718-.118-.718-.059,0,.141-.282,1.541-.671,3.647" transform="translate(11.979 22.599)" fill="#6aa5cc"/>
          <path id="Trazado_161025" data-name="Trazado 161025" d="M63.089,114.794c.212,1.306.447,2.611.694,3.905.082.435.165.859.247,1.294.129.682.271,1.365.4,2.035.188.941.388,1.859.576,2.753.376,1.788.765,3.47,1.106,4.988.141.565.259,1.106.388,1.623.141.612.282,1.188.412,1.717l1.882,1.094,2.376,1.376c-.353-1.753-.682-3.411-.988-4.964-1.106-5.646-1.941-10.116-2.564-13.763a36.1,36.1,0,0,1-4.529-2.059" transform="translate(11.124 20.241)" fill="#669fc4"/>
          <path id="Trazado_161026" data-name="Trazado 161026" d="M103.13,69.627c-.425,1.876-.922,4.161-1.363,7.227-1.576,10.979.2,11.7-1.964,15.676S88.87,100.071,78.75,99.081c-12.243-2.395-12.07-6.42-12.284-9.475-.623-8.842-2.93-13.951-5.686-20.156a30.161,30.161,0,0,1-1.672-5.415A81.346,81.346,0,0,1,57.22,47.761c.142-1.2,7.15-6.022,12.013-7.7s11.136-3.883,12.374-4.167c2.73-.629,6.557,1.327,8.715,2.657S99.414,48.8,102.6,56.949c2.237,5.724,1.635,7.831.534,12.678" transform="translate(10.085 6.307)" fill="#534770"/>
          <path id="Trazado_161027" data-name="Trazado 161027" d="M102.844,65.458c-.425,1.876-.922,4.161-1.363,7.227-1.576,10.979.2,11.7-1.964,15.676S88.583,95.9,78.463,94.911c-12.243-2.395-12.07-6.42-12.284-9.475-.623-8.842-2.93-13.951-5.686-20.156a30.161,30.161,0,0,1-1.672-5.415,5.167,5.167,0,0,1,.513-.414c1.552-.954,8.12,17.754,15.025,17.772,9.508.025,14.235-4.931,16.51-6.09s7.552.152,11.975-5.676" transform="translate(10.371 10.476)" fill="#483e63"/>
          <path id="Trazado_161028" data-name="Trazado 161028" d="M73.514,48.9c8.254,11.989,13.67,16.618,13.67,16.618s3.868-11.377-1.29-22.251c-2.989-6.3-8.513-3.931-8.513-3.931Z" transform="translate(12.962 6.858)" fill="#ebf6ff"/>
          <path id="Trazado_161029" data-name="Trazado 161029" d="M85.417,36.514c-.73.268-1.2,4.695-.865,5.668a39.331,39.331,0,0,1,1.094,4.272c1.047,5.019-4.851,6.013-9.172,5.489S69.146,46.6,69.146,46.6l-2.2-3.414s3.6-3.383,3.834-4.477S69.3,30.058,68.989,27.5s2.454-8.31,2.454-8.31Z" transform="translate(11.804 3.384)" fill="#ffa399"/>
          <path id="Trazado_161030" data-name="Trazado 161030" d="M82.714,40.049c.175,2.161.5,2.226-.775,4.518S79.6,47.123,79.6,47.123l.367,1.5,3.262,3.069a13.346,13.346,0,0,0,1.7-5.585,12.62,12.62,0,0,0-2.616-7.37,6.046,6.046,0,0,0,.394,1.312" transform="translate(14.036 6.83)" fill="#fff"/>
          <path id="Trazado_161031" data-name="Trazado 161031" d="M80.719,46.028a28.066,28.066,0,0,1-6.634-1.086c-.059.479-.12.949-.206,1.389q-.293,1.5-.6,3c1.961,2.35,6.779,2.514,6.779,2.514,0-.1,1.029-4.312,1.029-4.312Z" transform="translate(12.92 7.924)" fill="#fff"/>
          <path id="Trazado_161032" data-name="Trazado 161032" d="M71.205,25.315C71.433,26.8,74.841,37.1,74.841,37.1s6.409,4.888,8.879,5.113,4.5.523,6.126-.6,1.879-8.551,2.068-13.858-.953-10.294-3.409-12.749-7.975-3.15-8.789-3.2-8.511,13.512-8.511,13.512" transform="translate(12.555 2.081)" fill="#ffa399"/>
          <path id="Trazado_161033" data-name="Trazado 161033" d="M84.862,14.842c-.359.467-8.348,8.612-8.348,8.612l-2.37,3.64s2.193,3.961,2.193,6.416-2.123,1.169-2.123,1.169L72.1,38.106s-5.033-3.084-6.746-6.881S63.307,20.2,64.849,15.476s8.494-8.357,14.308-7.152,10.725,4.888,11.469,6a4.716,4.716,0,0,1,.406,2.951,9.516,9.516,0,0,0-3.068-2.31,7.938,7.938,0,0,0-3.1-.125" transform="translate(11.26 1.427)" fill="#e36700"/>
          <path id="Trazado_161034" data-name="Trazado 161034" d="M70.535,24.923c-.9-.694-3-.516-2.742,2.351s2.228,4.188,4.068,5.1,1.829-1.3,1.645-2.108a53.632,53.632,0,0,0-2.97-5.345" transform="translate(11.95 4.334)" fill="#ffa399"/>
          <path id="Trazado_161035" data-name="Trazado 161035" d="M70.178,25.284c-2.259-1.3-4.095-.258-4.1,2.337a8.984,8.984,0,0,0,4.075,7.059c2.259,1.3,4.095.256,4.1-2.337a8.977,8.977,0,0,0-4.075-7.059" transform="translate(11.651 4.359)" fill="#5b545f"/>
        </g>
      </g>
      <g id="Grupo_84139" data-name="Grupo 84139" transform="translate(78.919 28.432)">
        <g id="Grupo_84138" data-name="Grupo 84138" clip-path="url(#clip-path-11)">
          <rect id="Rectángulo_35387" data-name="Rectángulo 35387" width="12.47" height="13.489" transform="matrix(0.866, -0.5, 0.5, 0.866, -4.717, 2.723)" fill="url(#linear-gradient-7)"/>
        </g>
      </g>
      <g id="Grupo_84141" data-name="Grupo 84141">
        <g id="Grupo_84140" data-name="Grupo 84140" clip-path="url(#clip-path)">
          <path id="Trazado_161037" data-name="Trazado 161037" d="M68.075,26.757l1.866-1.085a2.672,2.672,0,0,0-2.694-.263l-1.866,1.085a2.672,2.672,0,0,1,2.694.263" transform="translate(11.528 4.435)" fill="#bfc0e3"/>
        </g>
      </g>
      <g id="Grupo_84143" data-name="Grupo 84143" transform="translate(79.603 30.107)">
        <g id="Grupo_84142" data-name="Grupo 84142" clip-path="url(#clip-path-13)">
          <rect id="Rectángulo_35389" data-name="Rectángulo 35389" width="9.915" height="11.526" transform="translate(-4.351 2.512) rotate(-30)" fill="url(#linear-gradient-8)"/>
        </g>
      </g>
      <g id="Grupo_84145" data-name="Grupo 84145" transform="translate(75.804 30.673)">
        <g id="Grupo_84144" data-name="Grupo 84144" clip-path="url(#clip-path-14)">
          <rect id="Rectángulo_35390" data-name="Rectángulo 35390" width="11.783" height="12.823" transform="translate(-4.522 2.607) rotate(-30)" fill="url(#linear-gradient-9)"/>
        </g>
      </g>
      <g id="Grupo_84147" data-name="Grupo 84147">
        <g id="Grupo_84146" data-name="Grupo 84146" clip-path="url(#clip-path)">
          <path id="Trazado_161040" data-name="Trazado 161040" d="M67.947,27.613c-1.55-.9-2.811-.176-2.816,1.606a6.163,6.163,0,0,0,2.8,4.846c1.55.9,2.811.176,2.816-1.606a6.169,6.169,0,0,0-2.8-4.846" transform="translate(11.484 4.801)" fill="#edeafb"/>
        </g>
      </g>
      <g id="Grupo_84149" data-name="Grupo 84149" transform="translate(90.204 9.106)">
        <g id="Grupo_84148" data-name="Grupo 84148" clip-path="url(#clip-path-16)">
          <rect id="Rectángulo_35392" data-name="Rectángulo 35392" width="7.186" height="9.65" transform="translate(-1.211 2.097) rotate(-60)" fill="url(#linear-gradient-10)"/>
        </g>
      </g>
      <g id="Grupo_84151" data-name="Grupo 84151">
        <g id="Grupo_84150" data-name="Grupo 84150" clip-path="url(#clip-path)">
          <path id="Trazado_161042" data-name="Trazado 161042" d="M79.618,10.334,77.144,8.9l-3.081,1.78,2.473,1.436Z" transform="translate(13.059 1.569)" fill="#eeebfc"/>
        </g>
      </g>
      <g id="Grupo_84153" data-name="Grupo 84153" transform="translate(77.379 12.244)">
        <g id="Grupo_84152" data-name="Grupo 84152" clip-path="url(#clip-path-18)">
          <rect id="Rectángulo_35394" data-name="Rectángulo 35394" width="23.89" height="20.873" transform="translate(-8.925 15.38) rotate(-60)" fill="url(#linear-gradient-11)"/>
        </g>
      </g>
      <g id="Grupo_84155" data-name="Grupo 84155">
        <g id="Grupo_84154" data-name="Grupo 84154" clip-path="url(#clip-path)">
          <path id="Trazado_161044" data-name="Trazado 161044" d="M68.176,27.4a19.612,19.612,0,0,1,1.86-6.56,22.307,22.307,0,0,1,4.056-5.926A16.29,16.29,0,0,1,77.625,12.1l3.081-1.779a7.865,7.865,0,0,1,6.053-1.139A4.749,4.749,0,0,1,89.573,11.5c-2.066-1.793-2.676-.571-3.943-.747a8.663,8.663,0,0,0-4.918,1.262L77.63,13.8a13.784,13.784,0,0,0-2.989,2.382,18.282,18.282,0,0,0-5,10.557c-.041.487-.094,1.114-.147,1.789a4.928,4.928,0,0,1-1.608,2.59c.044-1.566.161-2.273.286-3.714" transform="translate(11.97 1.58)" fill="#a5b0d6"/>
          <path id="Trazado_161045" data-name="Trazado 161045" d="M84.313,43.809l-3.571-.128c-2.275-.2-4.69-1.972-6.324-4.636l-3.324-6.025.692-.382,3.315,6.01c1.473,2.4,3.71,4.075,5.69,4.245l3.5.128c.08-.011.239-.018.414-.026.5-.024,1.659-.076,1.806-.383l.713.34c-.351.734-1.533.789-2.482.833-.162.007-.309.014-.431.025" transform="translate(12.535 5.755)" fill="#dee0f1"/>
          <path id="Trazado_161046" data-name="Trazado 161046" d="M81.919,42.267c-.114-.483,1.39-1.3,2.259-1.652s2.219-.866,2.556.06c.573,1.574-.332,1.721-1.253,1.963s-3.448.112-3.562-.372" transform="translate(14.443 7.08)" fill="#dee0f1"/>
          <path id="Trazado_161047" data-name="Trazado 161047" d="M83.816,80.329a5.735,5.735,0,0,1-.922,2.993,6.8,6.8,0,0,1-3.36,2.773.084.084,0,0,1-.032.011,4.341,4.341,0,0,1-3.983-.452c-3.495-2.368-12.788-12.284-17.19-22.488s-2.61-16.079.728-18.322c2.07-1.4,4.848-2.049,8.988,2.275a16.8,16.8,0,0,1,1.74,2.316c.7,1.063,1.483,2.374,2.311,3.851,2.359,4.209,5.078,9.743,7.306,14.749,2.536,5.7,4.428,10.717,4.412,12.295" transform="translate(9.824 7.721)" fill="#5f5382"/>
          <path id="Trazado_161048" data-name="Trazado 161048" d="M77.295,67.188c-1.808,8.128-4.476,14.323-6.6,9.633-3.124-6.9-2.941-23.846-3.02-28.233.7,1.065,1.483,2.374,2.311,3.852,2.359,4.208,5.078,9.742,7.306,14.748" transform="translate(11.933 8.567)" fill="#584c78"/>
          <path id="Trazado_161049" data-name="Trazado 161049" d="M67.906,28.644c.647-.581,2.45,1.779,2.45,1.779s2.769,5.524,3.108,6.016,4.05,4.958,4.419,6.169-.312,3.77-.207,4.358,2.41,10.929,3.161,14.535,1.666,19.306.922,21.315-2.921,6.006-7.007,3.89S71.74,75.2,72.067,73.6s-.565-9.4-.6-11.933.461-13.11-.013-14-6.047-3.574-6.307-5.936-1.609-10.687-1.635-11.279a2.188,2.188,0,0,1,.591-1.252,5.375,5.375,0,0,1,.1-1.942c.254-.525,1.514,0,1.514,0s1.092-.418,1.342-.281a7.2,7.2,0,0,1,.842,1.664" transform="translate(11.199 4.752)" fill="#ffa399"/>
          <path id="Trazado_161050" data-name="Trazado 161050" d="M81.872,74.75c-.015,3.516.079,6.069-.755,7.96a6.124,6.124,0,0,1-3.935,3.24.084.084,0,0,1-.032.011c-2.841.718-5.618-1.065-7.1-4.408a10.444,10.444,0,0,1-.4-1.038c-1.121-3.36-.372-18.4.1-27.373.178-3.3.314-5.782.308-6.567-.02-2.914,8.077-2.19,8.475-.387,0,0,3.369,22.991,3.343,28.562" transform="translate(12.177 7.866)" fill="#5f5382"/>
          <path id="Trazado_161051" data-name="Trazado 161051" d="M83.47,82.7a6.129,6.129,0,0,1-3.936,3.24.082.082,0,0,1-.032.009A4.337,4.337,0,0,1,75.52,85.5c-3.495-2.368-12.788-12.284-17.19-22.488s-2.61-16.079.728-18.322c-5.508,9.24,1.028,16.4,5.268,24.176,2.83,5.183,5.535,9.748,8.081,12.677a11.22,11.22,0,0,0,3.674,3.045c2.333,1.033,4.555.331,6.813-1.42.188-.147.382-.3.576-.467" transform="translate(9.824 7.879)" fill="#584c78"/>
          <path id="Trazado_161052" data-name="Trazado 161052" d="M34.33,47.965l-2.615-1.52a18.158,18.158,0,0,1-2.591-1.828l2.615,1.52a18.159,18.159,0,0,0,2.591,1.828" transform="translate(5.135 7.867)" fill="#3b8cf7"/>
        </g>
      </g>
      <g id="Grupo_84157" data-name="Grupo 84157" transform="translate(34.259 52.485)">
        <g id="Grupo_84156" data-name="Grupo 84156" clip-path="url(#clip-path-20)">
          <path id="Trazado_161053" data-name="Trazado 161053" d="M34.33,47.965l-2.615-1.52a18.158,18.158,0,0,1-2.591-1.828l2.615,1.52a18.159,18.159,0,0,0,2.591,1.828" transform="translate(-29.124 -44.618)" fill="#3b8cf7"/>
        </g>
      </g>
      <g id="Grupo_84159" data-name="Grupo 84159">
        <g id="Grupo_84158" data-name="Grupo 84158" clip-path="url(#clip-path)">
          <path id="Trazado_161055" data-name="Trazado 161055" d="M45.539,1.691l2.615,1.52C43.3.388,36.007,1.017,27.868,5.717L25.253,4.2c8.14-4.7,15.429-5.328,20.286-2.506" transform="translate(4.453 0)" fill="#3b8cf7"/>
        </g>
      </g>
      <g id="Grupo_84161" data-name="Grupo 84161" transform="translate(29.706)">
        <g id="Grupo_84160" data-name="Grupo 84160" clip-path="url(#clip-path-22)">
          <path id="Trazado_161056" data-name="Trazado 161056" d="M27.868,5.716,25.253,4.2c8.14-4.7,15.429-5.329,20.286-2.506l2.615,1.52C43.3.387,36.007,1.017,27.868,5.716" transform="translate(-25.253 0)" fill="#3b8cf7"/>
        </g>
      </g>
      <g id="Grupo_84163" data-name="Grupo 84163">
        <g id="Grupo_84162" data-name="Grupo 84162" clip-path="url(#clip-path)">
          <path id="Trazado_161058" data-name="Trazado 161058" d="M11.677,58.783l-2.615-1.52C5.222,55.032,2.9,50.641,2.883,44.4,2.843,30.261,14.626,11.981,29.2,3.568l2.615,1.52C17.241,13.5,5.458,31.781,5.5,45.916c.018,6.244,2.339,10.635,6.179,12.868" transform="translate(0.508 0.629)" fill="#3b8cf7"/>
        </g>
      </g>
      <g id="Grupo_84165" data-name="Grupo 84165" transform="translate(3.391 4.197)">
        <g id="Grupo_84164" data-name="Grupo 84164" clip-path="url(#clip-path-24)">
          <path id="Trazado_161059" data-name="Trazado 161059" d="M11.677,58.783l-2.615-1.52C5.222,55.032,2.9,50.641,2.883,44.4,2.843,30.261,14.626,11.981,29.2,3.568l2.615,1.52C17.241,13.5,5.458,31.781,5.5,45.916c.018,6.244,2.339,10.635,6.179,12.868" transform="translate(-2.883 -3.568)" fill="#3b8cf7"/>
        </g>
      </g>
      <g id="Grupo_84167" data-name="Grupo 84167">
        <g id="Grupo_84166" data-name="Grupo 84166" clip-path="url(#clip-path)">
          <path id="Trazado_161061" data-name="Trazado 161061" d="M31.42,5.488C45.995-2.926,57.844,1.711,57.884,15.844,57.905,23.3,54.64,31.9,49.41,39.612l.182,1.454c.838,6.736,3.221,12.143,6.841,15.846l-.426.161c-7.95,2.208-14.949,1-20.034-3.3a46.131,46.131,0,0,1-4.409,2.9C16.994,65.092,5.146,60.456,5.106,46.316S16.849,13.9,31.42,5.488" transform="translate(0.9 0.228)" fill="#61a2f7"/>
          <path id="Trazado_161062" data-name="Trazado 161062" d="M21.831,29.71l1.128.655a2.322,2.322,0,0,0-2.34.229l-1.128-.655a2.322,2.322,0,0,1,2.34-.229" transform="translate(3.437 5.199)" fill="#3b8cf7"/>
        </g>
      </g>
      <g id="Grupo_84169" data-name="Grupo 84169" transform="translate(22.928 34.687)">
        <g id="Grupo_84168" data-name="Grupo 84168" clip-path="url(#clip-path-26)">
          <path id="Trazado_161063" data-name="Trazado 161063" d="M20.62,30.595l-1.129-.655a2.319,2.319,0,0,1,2.34-.229l1.128.655a2.32,2.32,0,0,0-2.339.229" transform="translate(-19.491 -29.488)" fill="#3b8cf7"/>
        </g>
      </g>
      <g id="Grupo_84171" data-name="Grupo 84171">
        <g id="Grupo_84170" data-name="Grupo 84170" clip-path="url(#clip-path)">
          <path id="Trazado_161065" data-name="Trazado 161065" d="M18.794,38.31l-1.128-.655a2.3,2.3,0,0,1-.96-2.107,7.222,7.222,0,0,1,3.277-5.676l1.128.655A7.219,7.219,0,0,0,17.834,36.2a2.3,2.3,0,0,0,.96,2.107" transform="translate(2.946 5.267)" fill="#3b8cf7"/>
        </g>
      </g>
      <g id="Grupo_84173" data-name="Grupo 84173" transform="translate(19.652 35.138)">
        <g id="Grupo_84172" data-name="Grupo 84172" clip-path="url(#clip-path-28)">
          <path id="Trazado_161066" data-name="Trazado 161066" d="M18.794,38.31l-1.128-.655a2.3,2.3,0,0,1-.96-2.107,7.222,7.222,0,0,1,3.277-5.676l1.128.655A7.219,7.219,0,0,0,17.834,36.2a2.3,2.3,0,0,0,.96,2.107" transform="translate(-16.706 -29.871)" fill="#3b8cf7"/>
        </g>
      </g>
      <g id="Grupo_84175" data-name="Grupo 84175">
        <g id="Grupo_84174" data-name="Grupo 84174" clip-path="url(#clip-path)">
          <path id="Trazado_161068" data-name="Trazado 161068" d="M20.942,30.5c1.814-1.047,3.293-.211,3.3,1.88a7.227,7.227,0,0,1-3.276,5.675c-1.814,1.047-3.293.2-3.3-1.879A7.216,7.216,0,0,1,20.942,30.5" transform="translate(3.115 5.298)" fill="#feffff"/>
          <path id="Trazado_161069" data-name="Trazado 161069" d="M30.61,24.641l1.128.655a2.322,2.322,0,0,0-2.34.229l-1.128-.655a2.319,2.319,0,0,1,2.34-.229" transform="translate(4.985 4.306)" fill="#3b8cf7"/>
        </g>
      </g>
      <g id="Grupo_84177" data-name="Grupo 84177" transform="translate(33.255 28.726)">
        <g id="Grupo_84176" data-name="Grupo 84176" clip-path="url(#clip-path-30)">
          <path id="Trazado_161070" data-name="Trazado 161070" d="M29.4,25.526l-1.128-.655a2.319,2.319,0,0,1,2.34-.229l1.128.655a2.322,2.322,0,0,0-2.34.229" transform="translate(-28.27 -24.42)" fill="#3b8cf7"/>
        </g>
      </g>
      <g id="Grupo_84179" data-name="Grupo 84179">
        <g id="Grupo_84178" data-name="Grupo 84178" clip-path="url(#clip-path)">
          <path id="Trazado_161072" data-name="Trazado 161072" d="M27.572,33.243l-1.128-.655a2.3,2.3,0,0,1-.959-2.109A7.212,7.212,0,0,1,28.761,24.8l1.128.655a7.209,7.209,0,0,0-3.276,5.675,2.3,2.3,0,0,0,.959,2.109" transform="translate(4.494 4.373)" fill="#3b8cf7"/>
        </g>
      </g>
      <g id="Grupo_84181" data-name="Grupo 84181" transform="translate(29.977 29.176)">
        <g id="Grupo_84180" data-name="Grupo 84180" clip-path="url(#clip-path-32)">
          <path id="Trazado_161073" data-name="Trazado 161073" d="M27.572,33.243l-1.128-.655a2.3,2.3,0,0,1-.959-2.109A7.212,7.212,0,0,1,28.761,24.8l1.128.655a7.209,7.209,0,0,0-3.276,5.675,2.3,2.3,0,0,0,.959,2.109" transform="translate(-25.484 -24.803)" fill="#3b8cf7"/>
        </g>
      </g>
      <g id="Grupo_84183" data-name="Grupo 84183">
        <g id="Grupo_84182" data-name="Grupo 84182" clip-path="url(#clip-path)">
          <path id="Trazado_161075" data-name="Trazado 161075" d="M29.72,25.428c1.814-1.047,3.293-.211,3.3,1.88a7.228,7.228,0,0,1-3.277,5.675c-1.817,1.05-3.291.2-3.3-1.879a7.211,7.211,0,0,1,3.276-5.676" transform="translate(4.663 4.404)" fill="#feffff"/>
          <path id="Trazado_161076" data-name="Trazado 161076" d="M39.388,19.573l1.128.655a2.322,2.322,0,0,0-2.34.229L37.048,19.8a2.319,2.319,0,0,1,2.34-.229" transform="translate(6.532 3.412)" fill="#3b8cf7"/>
        </g>
      </g>
      <g id="Grupo_84185" data-name="Grupo 84185" transform="translate(43.582 22.764)">
        <g id="Grupo_84184" data-name="Grupo 84184" clip-path="url(#clip-path-34)">
          <path id="Trazado_161077" data-name="Trazado 161077" d="M38.176,20.458,37.048,19.8a2.319,2.319,0,0,1,2.34-.229l1.128.655a2.322,2.322,0,0,0-2.34.229" transform="translate(-37.049 -19.352)" fill="#3b8cf7"/>
        </g>
      </g>
      <g id="Grupo_84187" data-name="Grupo 84187">
        <g id="Grupo_84186" data-name="Grupo 84186" clip-path="url(#clip-path)">
          <path id="Trazado_161079" data-name="Trazado 161079" d="M36.35,28.175l-1.128-.655a2.3,2.3,0,0,1-.959-2.109,7.214,7.214,0,0,1,3.277-5.676l1.127.656a7.209,7.209,0,0,0-3.276,5.675,2.3,2.3,0,0,0,.959,2.109" transform="translate(6.041 3.48)" fill="#3b8cf7"/>
        </g>
      </g>
      <g id="Grupo_84189" data-name="Grupo 84189" transform="translate(40.304 23.215)">
        <g id="Grupo_84188" data-name="Grupo 84188" clip-path="url(#clip-path-36)">
          <path id="Trazado_161080" data-name="Trazado 161080" d="M36.35,28.175l-1.128-.655a2.3,2.3,0,0,1-.959-2.109,7.214,7.214,0,0,1,3.277-5.676l1.127.656a7.209,7.209,0,0,0-3.276,5.675,2.3,2.3,0,0,0,.959,2.109" transform="translate(-34.263 -19.735)" fill="#3b8cf7"/>
        </g>
      </g>
      <g id="Grupo_84191" data-name="Grupo 84191">
        <g id="Grupo_84190" data-name="Grupo 84190" clip-path="url(#clip-path)">
          <path id="Trazado_161082" data-name="Trazado 161082" d="M38.5,20.36c1.814-1.047,3.293-.211,3.3,1.88a7.228,7.228,0,0,1-3.277,5.675c-1.819,1.05-3.293.2-3.3-1.879A7.212,7.212,0,0,1,38.5,20.36" transform="translate(6.21 3.51)" fill="#feffff"/>
        </g>
      </g>
    </g>
  </g>
</svg>
