<svg xmlns="http://www.w3.org/2000/svg" xmlns:xlink="http://www.w3.org/1999/xlink" width="324.844" height="240.043" viewBox="0 0 324.844 240.043">
  <defs>
    <linearGradient id="linear-gradient" x1="0.5" y1="0.449" x2="0.5" y2="1" gradientUnits="objectBoundingBox">
      <stop offset="0" stop-color="#7e5ee3"/>
      <stop offset="1" stop-color="#81d4fa"/>
    </linearGradient>
  </defs>
  <g id="Grupo_85461" data-name="Grupo 85461" transform="translate(-1062.156 -1903.957)">
    <g id="Grupo_83966" data-name="Grupo 83966" transform="translate(106.087 -4335.164)">
      <path id="Trazado_114405" data-name="Trazado 114405" d="M98.519,0c76.153.049,86.565,86.905,86.565,154.445S99.937,255.153,51.189,255.153,0,194.974,0,127.433,22.366-.049,98.519,0Z" transform="translate(1277.682 6259.797) rotate(89)" fill="#81d4fa"/>
      <path id="Trazado_114406" data-name="Trazado 114406" d="M167.778,5.287c47.989,24.954,46.709,46.312,46.709,110.694s-101,122.851-150.365,122.851S-12.02,160.13,5.256,104.463,119.789-19.668,167.778,5.287Z" transform="translate(1044.44 6239.121)" fill="url(#linear-gradient)"/>
      <line id="Línea_162" data-name="Línea 162" x1="23.035" y2="19.195" transform="translate(1231.76 6258.295)" fill="none" stroke="#7e5ee3" stroke-linecap="round" stroke-width="3"/>
      <line id="Línea_163" data-name="Línea 163" x1="23.035" y2="20.475" transform="translate(1195.609 6288.312)" fill="none" stroke="#707070" stroke-linecap="round" stroke-width="3"/>
      <line id="Línea_165" data-name="Línea 165" x1="16.636" y2="16.636" transform="translate(1063.16 6422.681)" fill="none" stroke="#7e5ee3" stroke-linecap="round" stroke-width="3"/>
      <line id="Línea_166" data-name="Línea 166" x1="3.839" y2="4.479" transform="translate(1054.842 6443.156)" fill="none" stroke="#7e5ee3" stroke-linecap="round" stroke-width="3"/>
      <line id="Línea_164" data-name="Línea 164" x1="42.87" y2="42.23" transform="translate(1046.524 6400.925)" fill="none" stroke="#fff" stroke-linecap="round" stroke-width="4"/>
      <ellipse id="Elipse_4912" data-name="Elipse 4912" cx="7.998" cy="8.318" rx="7.998" ry="8.318" transform="translate(1042.684 6392.607)" fill="#ff9d00"/>
      <ellipse id="Elipse_4913" data-name="Elipse 4913" cx="9.278" cy="9.598" rx="9.278" ry="9.598" transform="translate(1245.517 6284.473)" fill="#ff9d00"/>
      <path id="doctor-su-paciente-escogiendo-protesis-mamaria-oficina" d="M-7637.2-5404.446c-23.073,4.714-15.383,7.444-45.154,3.97s-98.5,13.645-79.143,91.8,68.722,96.015,109.411,98.248,108.668-24.562,110.4-81.625-29.027-88.323-43.169-98.247S-7614.124-5409.16-7637.2-5404.446Z" transform="translate(8803.121 11664.037)" fill="#fff"/>
    </g>
    <g id="Medicine-pana" transform="translate(992.548 1862.738)">
      <g id="freepik--background-complete--inject-2" transform="translate(76.4 51.898)">
        <path id="Trazado_160525" data-name="Trazado 160525" d="M394.884,55.55a1.445,1.445,0,0,1-.034.252c-.028.162-.084.4-.129.722a20.922,20.922,0,0,0-.268,2.8,19.692,19.692,0,0,0,.369,4.43,18.213,18.213,0,0,0,2.081,5.482,59.523,59.523,0,0,0,4.117,5.851,29.747,29.747,0,0,1,4.134,7.132,27.492,27.492,0,0,1,1.9,8.9,25.048,25.048,0,0,1-6.55,17.995,23.722,23.722,0,0,1-7.272,5.437c-2.612,1.287-5.213,2.237-7.507,3.356a19.634,19.634,0,0,0-5.767,4.139,19.2,19.2,0,0,0-4.782,9.028c-.151.593-.207,1.119-.291,1.6a9.066,9.066,0,0,0-.112,1.186,5.833,5.833,0,0,1-.039.733,1.724,1.724,0,0,1,0,.252,1.682,1.682,0,0,1,0-.252v-.733c0-.308.056-.722.09-1.2a10.412,10.412,0,0,1,.263-1.611,18.652,18.652,0,0,1,1.421-4.246,19.019,19.019,0,0,1,3.323-4.9,19.623,19.623,0,0,1,5.806-4.212c2.31-1.175,4.911-2.12,7.5-3.4a23.544,23.544,0,0,0,7.154-5.347,24.846,24.846,0,0,0,6.472-17.81,27.324,27.324,0,0,0-1.863-8.815,29.893,29.893,0,0,0-4.078-7.081,59.556,59.556,0,0,1-4.106-5.9,18.1,18.1,0,0,1-2.058-5.554,19.02,19.02,0,0,1-.324-4.475,18.552,18.552,0,0,1,.324-2.8c.056-.319.117-.559.157-.716Z" transform="translate(-219.403 -55.55)" fill="#e0e0e0"/>
        <path id="Trazado_160526" data-name="Trazado 160526" d="M426.333,62.6a32.133,32.133,0,0,1-1.152,3.709,29.322,29.322,0,0,1-1.868,4.156,17.155,17.155,0,0,1-3.686,4.771,11.892,11.892,0,0,1-1.382,1.04c-.5.308-1.029.593-1.572.873l-3.384,1.734c-2.338,1.2-4.85,2.45-7.423,3.916a26.849,26.849,0,0,0-7.1,5.756,23.756,23.756,0,0,0-4.8,8.558,21.759,21.759,0,0,0-.694,9.772,19.477,19.477,0,0,0,3.451,8.441c1.728,2.377,3.764,4.335,5.392,6.41a20.222,20.222,0,0,1,2.12,3.177,18.219,18.219,0,0,1,1.314,3.267,18.912,18.912,0,0,1,.716,5.991,17.554,17.554,0,0,1-.778,4.475,16.72,16.72,0,0,1-1.074,2.674c-.151.28-.274.5-.358.66a1.16,1.16,0,0,1-.134.218s.034-.084.106-.235.19-.386.336-.666a18.785,18.785,0,0,0,1.018-2.679,17.683,17.683,0,0,0,.716-4.475,18.723,18.723,0,0,0-.744-5.873,17.945,17.945,0,0,0-1.32-3.222,19.674,19.674,0,0,0-2.109-3.127c-1.622-2.053-3.664-4-5.42-6.4a19.751,19.751,0,0,1-3.518-8.553,22.078,22.078,0,0,1,.7-9.9,24.119,24.119,0,0,1,4.866-8.664,27.085,27.085,0,0,1,7.193-5.862c2.584-1.438,5.1-2.679,7.445-3.865l3.384-1.723c.559-.274,1.074-.559,1.566-.856a11.913,11.913,0,0,0,1.359-1.012,17.261,17.261,0,0,0,3.681-4.693,30.762,30.762,0,0,0,1.9-4.117c.448-1.163.744-2.086.945-2.713.1-.3.173-.559.224-.716A2.27,2.27,0,0,1,426.333,62.6Z" transform="translate(-227.325 -58.657)" fill="#e0e0e0"/>
        <path id="Trazado_160527" data-name="Trazado 160527" d="M427.548,85.658c0,.078-2.718-.414-6.03-1.119s-5.985-1.3-5.968-1.376a59.909,59.909,0,0,1,6.03,1.119C424.9,84.993,427.548,85.574,427.548,85.658Z" transform="translate(-237.389 -67.714)" fill="#e0e0e0"/>
        <path id="Trazado_160528" data-name="Trazado 160528" d="M429.767,76.439c0,.078-4.178-1.074-9.285-2.567s-9.224-2.8-9.2-2.853,4.178,1.074,9.285,2.573S429.789,76.36,429.767,76.439Z" transform="translate(-235.508 -62.365)" fill="#e0e0e0"/>
        <path id="Trazado_160529" data-name="Trazado 160529" d="M432.233,66.385c0,.073-5.006-1.354-11.126-3.194s-11.081-3.4-11.047-3.474,5,1.354,11.154,3.194S432.255,66.307,432.233,66.385Z" transform="translate(-234.97 -57.385)" fill="#e0e0e0"/>
        <path id="Trazado_160530" data-name="Trazado 160530" d="M406.281,152.2c-.028.078-2.7-.878-5.974-2.137s-5.9-2.338-5.868-2.411,2.7.884,5.974,2.137S406.309,152.132,406.281,152.2Z" transform="translate(-228.087 -96.135)" fill="#e0e0e0"/>
        <path id="Trazado_160531" data-name="Trazado 160531" d="M411.19,139.875a3.914,3.914,0,0,1-.716-.173c-.459-.123-1.119-.324-1.924-.559-1.611-.509-3.826-1.259-6.248-2.165s-4.592-1.784-6.153-2.45c-.778-.336-1.4-.615-1.835-.817a3.977,3.977,0,0,1-.654-.341,3.726,3.726,0,0,1,.7.235l1.868.727c1.572.621,3.748,1.471,6.153,2.377s4.62,1.678,6.214,2.237l1.891.671A4,4,0,0,1,411.19,139.875Z" transform="translate(-227.744 -89.841)" fill="#e0e0e0"/>
        <path id="Trazado_160532" data-name="Trazado 160532" d="M414.959,127.624a4.219,4.219,0,0,1-.772-.291l-2.07-.856c-1.745-.727-4.167-1.712-6.869-2.718s-5.18-1.846-6.975-2.439l-2.131-.7a4.99,4.99,0,0,1-.772-.285,4.112,4.112,0,0,1,.805.179c.515.134,1.247.341,2.159.615,1.812.559,4.3,1.354,7.014,2.36s5.124,2.025,6.852,2.8c.861.386,1.555.71,2.03.945a4.306,4.306,0,0,1,.727.4Z" transform="translate(-228.497 -84.095)" fill="#e0e0e0"/>
        <path id="Trazado_160533" data-name="Trazado 160533" d="M418.351,114.9a2.439,2.439,0,0,1-.615-.173l-1.633-.559c-1.382-.481-3.283-1.119-5.4-1.829s-4.044-1.275-5.443-1.678l-1.678-.509a2.881,2.881,0,0,1-.6-.218,2.534,2.534,0,0,1,.626.112c.4.084.973.229,1.678.414,1.415.375,3.356.929,5.476,1.622s4.022,1.382,5.387,1.913c.677.263,1.225.487,1.6.649A2.8,2.8,0,0,1,418.351,114.9Z" transform="translate(-231.85 -79.512)" fill="#e0e0e0"/>
        <path id="Trazado_160534" data-name="Trazado 160534" d="M422.47,104.733a52.132,52.132,0,0,1-5.208-1.617,50.525,50.525,0,0,1-5.113-1.9,53.17,53.17,0,0,1,5.208,1.617,51.83,51.83,0,0,1,5.112,1.9Z" transform="translate(-235.891 -75.674)" fill="#e0e0e0"/>
        <path id="Trazado_160535" data-name="Trazado 160535" d="M404.156,174.057a2.577,2.577,0,0,1-.559-.151l-1.477-.5-4.855-1.678L392.4,170.1l-1.477-.509a2.4,2.4,0,0,1-.531-.218,2.076,2.076,0,0,1,.559.112c.358.09.873.229,1.5.414,1.264.369,3,.912,4.9,1.561s3.608,1.275,4.833,1.756c.615.241,1.119.442,1.443.559A1.908,1.908,0,0,1,404.156,174.057Z" transform="translate(-226.303 -105.704)" fill="#e0e0e0"/>
        <path id="Trazado_160536" data-name="Trazado 160536" d="M400.7,185.512c-.028.073-4.626-1.415-10.27-3.356s-10.2-3.53-10.175-3.608,4.62,1.415,10.27,3.356S400.727,185.405,400.7,185.512Z" transform="translate(-221.839 -109.747)" fill="#e0e0e0"/>
        <path id="Trazado_160537" data-name="Trazado 160537" d="M398.644,195.251c0,.078-5.157-1.432-11.461-3.356s-11.405-3.569-11.383-3.647,5.157,1.432,11.467,3.356S398.672,195.173,398.644,195.251Z" transform="translate(-219.874 -114.021)" fill="#e0e0e0"/>
        <path id="Trazado_160538" data-name="Trazado 160538" d="M183.047,103.86H182.6l-1.287.05c-1.119.034-2.8.084-4.945.117h-3.58a9.759,9.759,0,0,1-2.047-.19,20.854,20.854,0,0,1-2.008-.934,4.1,4.1,0,0,0-2.271-.3c-.2.028-.4.078-.593.117a1.722,1.722,0,0,0-.52.274,4.145,4.145,0,0,0-.845.917,23.593,23.593,0,0,0-2.355,4.906c-.682,1.8-1.287,3.709-2.008,5.689-.089.246-.19.492-.3.738l-.09.185a.347.347,0,0,1-.062.1.2.2,0,0,1-.168.1c-.2-.05-.173-.151-.224-.213a1.454,1.454,0,0,1-.073-.2,12.175,12.175,0,0,1-.3-1.611c-.145-1.08-.257-2.187-.364-3.311-.408-4.475-.733-9.319-1.169-14.375-.229-2.528-.436-5.129-.878-7.736-.062-.324-.123-.649-.213-.968a2.354,2.354,0,0,0-.162-.436c-.078-.134-.145-.2-.229-.157a1.773,1.773,0,0,0-.559.694,9.461,9.461,0,0,0-.436.895,40.835,40.835,0,0,0-1.415,3.882c-.822,2.635-1.549,5.347-2.237,8.111l-.263,1.04a7.192,7.192,0,0,1-.3,1.057,2.237,2.237,0,0,1-1.784,1.309c-.75.028-1.449.067-2.2.05a10.13,10.13,0,0,1-2.2-.324,11.22,11.22,0,0,1-2.612-1.04,6.208,6.208,0,0,0-1.2-.6,1.052,1.052,0,0,0-1.119.213,3.228,3.228,0,0,0-.559,1.18c-.14.431-.263.867-.386,1.3-.235.873-.459,1.751-.677,2.623-.447,1.745-.873,3.468-1.426,5.168a.621.621,0,0,1-.1.179.246.246,0,0,1-.324.078.7.7,0,0,1-.241-.33,5.178,5.178,0,0,1-.224-.643c-.117-.431-.213-.856-.3-1.287-.179-.856-.33-1.712-.47-2.562-.559-3.4-1.018-6.712-1.51-9.94-.246-1.605-.487-3.194-.811-4.727a6.276,6.276,0,0,0-.319-1.119c-.1-.313-.459.062-.671.336a14.649,14.649,0,0,0-1.169,1.952c-1.382,2.7-2.5,5.4-3.748,7.915a13.009,13.009,0,0,1-1.046,1.812.806.806,0,0,1-.459.347,1.421,1.421,0,0,1-.559,0,1.98,1.98,0,0,1-.861-.6,2.741,2.741,0,0,0-.761-.559,1.723,1.723,0,0,0-.884-.19,3.356,3.356,0,0,0-1.6.889,2.058,2.058,0,0,1-.873.447,1.018,1.018,0,0,1-.515-.045,1.5,1.5,0,0,1-.4-.274,10.442,10.442,0,0,1-1.169-1.4c-.352-.481-.688-.957-1.04-1.4a4.676,4.676,0,0,0-1.18-1.119c-.459-.3-.968.078-1.376.369a10.269,10.269,0,0,0-1.119,1.052,26.179,26.179,0,0,0-1.891,2.237v.034h-.039l-10.219-.039h-3.4a1.863,1.863,0,0,1-.235,0h3.63l10.219-.039-.062.034a26.1,26.1,0,0,1,1.891-2.277,9.732,9.732,0,0,1,1.163-1.074,3.088,3.088,0,0,1,.7-.431,1.236,1.236,0,0,1,.436-.089.929.929,0,0,1,.431.134,4.727,4.727,0,0,1,1.242,1.186c.358.453.7.929,1.052,1.4a9.571,9.571,0,0,0,1.119,1.37,1.409,1.409,0,0,0,.352.241.783.783,0,0,0,.4.028,1.868,1.868,0,0,0,.778-.408,3.529,3.529,0,0,1,1.678-.94,2.366,2.366,0,0,1,1.824.817,1.768,1.768,0,0,0,.761.559,1.147,1.147,0,0,0,.459,0c.1,0,.218-.14.313-.268a12.723,12.723,0,0,0,1.018-1.773c1.236-2.5,2.349-5.208,3.737-7.926a13.984,13.984,0,0,1,1.191-1.991,2.036,2.036,0,0,1,.436-.442.481.481,0,0,1,.364-.112.448.448,0,0,1,.308.252,6.153,6.153,0,0,1,.336,1.068c.33,1.549.559,3.138.822,4.749.5,3.216.956,6.544,1.521,9.934.14.85.291,1.678.47,2.551.09.425.185.845.3,1.264a5.115,5.115,0,0,0,.207.6.632.632,0,0,0,.123.2c-.028,0,0,.084,0,.034h0a.314.314,0,0,0,.05-.106c.559-1.678.973-3.4,1.415-5.135.218-.873.436-1.751.677-2.629.123-.436.246-.878.392-1.314.067-.218.145-.436.224-.654a1.891,1.891,0,0,1,.38-.632,1.119,1.119,0,0,1,.677-.358,1.577,1.577,0,0,1,.744.067,5.918,5.918,0,0,1,1.264.626,10.89,10.89,0,0,0,2.545,1.012,10.264,10.264,0,0,0,2.137.313c.7,0,1.454,0,2.154-.05a1.963,1.963,0,0,0,1.555-1.119,7.327,7.327,0,0,0,.285-1.007l.263-1.04c.7-2.8,1.438-5.487,2.265-8.127.42-1.32.845-2.623,1.387-3.882.14-.313.285-.621.453-.923.09-.151.179-.3.285-.442a1.163,1.163,0,0,1,.436-.375.4.4,0,0,1,.369.045.671.671,0,0,1,.2.241,2.238,2.238,0,0,1,.185.5c.089.33.157.66.218.99.442,2.635.643,5.23.873,7.758.431,5.068.744,9.884,1.119,14.381.106,1.119.213,2.237.352,3.306a11.817,11.817,0,0,0,.285,1.572,1.585,1.585,0,0,0,.062.173.375.375,0,0,0,.034.067h0s-.028,0,0,.045,0-.062-.028-.045h0a.387.387,0,0,0,.039-.073l.084-.173c.106-.235.2-.481.3-.727.716-1.963,1.331-3.882,2.025-5.677a23.572,23.572,0,0,1,2.394-4.945,4.475,4.475,0,0,1,.889-.951,1.734,1.734,0,0,1,.559-.3,5.957,5.957,0,0,1,.615-.117,4.24,4.24,0,0,1,2.355.319c.71.308,1.32.738,1.986.945a10.348,10.348,0,0,0,2.014.19c1.3.034,2.5,0,3.574,0l4.945-.067h1.287A2.061,2.061,0,0,1,183.047,103.86Z" transform="translate(-97.04 -69.163)" fill="#e0e0e0"/>
        <path id="Trazado_160539" data-name="Trazado 160539" d="M.011,0H9.52V59.415a2.17,2.17,0,0,1-2.17,2.17H2.17A2.17,2.17,0,0,1,0,59.415V0Z" transform="translate(272.123 83.934) rotate(11.56)" fill="#e0e0e0"/>
        <path id="Trazado_160540" data-name="Trazado 160540" d="M.011,0H9.52V42.69a2.17,2.17,0,0,1-2.17,2.17H2.17A2.17,2.17,0,0,1,0,42.69V0Z" transform="translate(270.062 94.117) rotate(11.55)" fill="#f5f5f5"/>
        <rect id="Rectángulo_35227" data-name="Rectángulo 35227" width="6.343" height="28.231" transform="translate(274.061 90.451) rotate(11.55)" fill="#fff"/>
        <path id="Trazado_160541" data-name="Trazado 160541" d="M568.961,267.237a2.439,2.439,0,0,0,1.219-.134,2.159,2.159,0,0,0,1.091-.979,3.111,3.111,0,0,0,.274-.912c.067-.341.134-.7.213-1.085.621-3.076,1.51-7.523,2.623-13.05,2.237-11.07,5.381-26.458,8.9-43.77l.112.168L576.2,206.01l-2.126-.436.173-.112c-3.8,18.5-7.221,35.144-9.694,47.182-.621,3-1.186,5.717-1.678,8.105-.123.593-.246,1.169-.358,1.723-.056.274-.117.559-.168.817a3.878,3.878,0,0,0-.123.772,2.148,2.148,0,0,0,.464,1.342,2.114,2.114,0,0,0,1.085.71l3.848.822,1,.218c.224.05.336.084.336.084l-.341-.056-1.007-.19-3.865-.772a2.237,2.237,0,0,1-1.678-2.159,3.919,3.919,0,0,1,.117-.805c.05-.263.106-.559.162-.811.112-.559.224-1.119.347-1.728.481-2.388,1.029-5.107,1.639-8.116,2.45-12.037,5.834-28.689,9.6-47.2v-.14l.14.028,2.131.436L583.4,207.2l.14.028v.14c-3.557,17.312-6.712,32.689-8.994,43.753l-2.707,13.027c-.084.386-.157.744-.229,1.085a3.05,3.05,0,0,1-.3.934,2.181,2.181,0,0,1-1.119.99,2.132,2.132,0,0,1-.923.134A1.593,1.593,0,0,1,568.961,267.237Z" transform="translate(-301.952 -121.519)" fill="#e0e0e0"/>
        <path id="Trazado_160542" data-name="Trazado 160542" d="M1.13,0h9.364a1.119,1.119,0,0,1,1.119,1.119V15.181H0V1.13A1.119,1.119,0,0,1,1.13,0Z" transform="translate(273.702 71.539) rotate(11.55)" fill="#ebebeb"/>
        <path id="Trazado_160543" data-name="Trazado 160543" d="M592.616,209.786c0,.078-2.584-.38-5.739-1.024a57.921,57.921,0,0,1-5.677-1.309c.017-.078,2.584.38,5.739,1.024S592.628,209.707,592.616,209.786Z" transform="translate(-310.382 -122.481)" fill="#e0e0e0"/>
        <path id="Trazado_160544" data-name="Trazado 160544" d="M583.153,197.365c-.084,0,.453-2.953,1.191-6.556s1.4-6.517,1.477-6.5-.459,2.953-1.191,6.556S583.231,197.382,583.153,197.365Z" transform="translate(-311.239 -112.287)" fill="#e0e0e0"/>
        <path id="Trazado_160545" data-name="Trazado 160545" d="M585.884,197.925c-.078,0,.453-2.953,1.191-6.556s1.4-6.517,1.477-6.5-.453,2.953-1.191,6.556S585.946,197.942,585.884,197.925Z" transform="translate(-312.442 -112.534)" fill="#e0e0e0"/>
        <path id="Trazado_160546" data-name="Trazado 160546" d="M588.7,198.5c-.078,0,.453-2.948,1.191-6.556s1.4-6.511,1.477-6.494-.453,2.948-1.191,6.556S588.782,198.517,588.7,198.5Z" transform="translate(-313.685 -112.789)" fill="#e0e0e0"/>
        <path id="Trazado_160547" data-name="Trazado 160547" d="M591.434,199.06c-.078,0,.459-2.948,1.191-6.556s1.4-6.511,1.482-6.494-.459,2.948-1.191,6.556S591.518,199.077,591.434,199.06Z" transform="translate(-314.888 -113.036)" fill="#e0e0e0"/>
        <path id="Trazado_160548" data-name="Trazado 160548" d="M594.254,199.635c-.078,0,.459-2.953,1.191-6.556s1.4-6.517,1.477-6.5-.453,2.953-1.191,6.556S594.332,199.68,594.254,199.635Z" transform="translate(-316.131 -113.287)" fill="#e0e0e0"/>
        <path id="Trazado_160549" data-name="Trazado 160549" d="M596.994,200.2c-.078,0,.453-2.953,1.191-6.556s1.4-6.517,1.477-6.5-.453,2.953-1.191,6.556S597.072,200.212,596.994,200.2Z" transform="translate(-317.338 -113.534)" fill="#e0e0e0"/>
        <path id="Trazado_160550" data-name="Trazado 160550" d="M599.814,200.775c-.078,0,.453-2.953,1.191-6.556s1.4-6.517,1.477-6.5-.453,2.948-1.191,6.556S599.915,200.787,599.814,200.775Z" transform="translate(-318.58 -113.79)" fill="#e0e0e0"/>
        <path id="Trazado_160551" data-name="Trazado 160551" d="M.006,0H7.5V46.326a2.17,2.17,0,0,1-2.17,2.17H2.17A2.17,2.17,0,0,1,0,46.326V0Z" transform="translate(292.439 111.391) rotate(-5.26)" fill="#e0e0e0"/>
        <path id="Trazado_160552" data-name="Trazado 160552" d="M.006,0H7.5V33.153a2.17,2.17,0,0,1-2.17,2.17H2.17A2.17,2.17,0,0,1,0,33.153V0Z" transform="translate(293.191 119.588) rotate(-5.26)" fill="#f5f5f5"/>
        <rect id="Rectángulo_35228" data-name="Rectángulo 35228" width="4.995" height="22.229" transform="translate(295.362 115.912) rotate(-5.26)" fill="#fff"/>
        <path id="Trazado_160553" data-name="Trazado 160553" d="M629.476,301.874a2.623,2.623,0,0,0,.917-.336,2.137,2.137,0,0,0,.778-.867,2.1,2.1,0,0,0,.213-.722,4.182,4.182,0,0,0-.045-.861c-.235-2.484-.559-6.058-1.007-10.5-.833-8.911-1.991-21.284-3.289-35.189l.157.129-5.3.487-2.159.2.129-.157c1.331,14.65,2.528,27.811,3.39,37.326.213,2.372.4,4.52.559,6.4.089.94.151,1.829.241,2.618a2.12,2.12,0,0,0,1.326,1.572,3.792,3.792,0,0,0,1.723.067l1.287-.106.794-.056h.274l-.268.039-.794.084-1.287.134-.822.078a2.17,2.17,0,0,1-.945-.123,2.237,2.237,0,0,1-1.421-1.65c-.1-.817-.168-1.678-.263-2.629-.179-1.885-.386-4.033-.615-6.4-.884-9.509-2.109-22.671-3.479-37.32v-.145h.145l2.159-.2,5.3-.487h.146v.145c1.259,13.911,2.383,26.29,3.194,35.2.386,4.441.7,8.021.917,10.5a4.748,4.748,0,0,1,.034.884,2.237,2.237,0,0,1-1.057,1.622,2.064,2.064,0,0,1-.694.263A1.733,1.733,0,0,1,629.476,301.874Z" transform="translate(-327.289 -142.67)" fill="#e0e0e0"/>
        <path id="Trazado_160554" data-name="Trazado 160554" d="M1.124,0h6.9A1.119,1.119,0,0,1,9.14,1.119V11.937H0V1.124A1.119,1.119,0,0,1,1.124,0Z" transform="translate(290.791 101.747) rotate(-5.26)" fill="#ebebeb"/>
        <path id="Trazado_160555" data-name="Trazado 160555" d="M627.624,255.18a72.063,72.063,0,0,1-9.134.839,36.089,36.089,0,0,1,4.553-.559,34.682,34.682,0,0,1,4.581-.28Z" transform="translate(-326.813 -143.515)" fill="#e0e0e0"/>
        <path id="Trazado_160556" data-name="Trazado 160556" d="M619.242,248.149a45.615,45.615,0,0,1-.626-5.213,45.468,45.468,0,0,1-.336-5.236,48.826,48.826,0,0,1,.627,5.213A48.645,48.645,0,0,1,619.242,248.149Z" transform="translate(-326.721 -135.813)" fill="#e0e0e0"/>
        <path id="Trazado_160557" data-name="Trazado 160557" d="M621.442,247.949a45.587,45.587,0,0,1-.626-5.213,45.44,45.44,0,0,1-.336-5.236,48.028,48.028,0,0,1,.621,5.208A47.931,47.931,0,0,1,621.442,247.949Z" transform="translate(-327.69 -135.725)" fill="#e0e0e0"/>
        <path id="Trazado_160558" data-name="Trazado 160558" d="M623.692,247.769a48.826,48.826,0,0,1-.626-5.213,48.613,48.613,0,0,1-.336-5.236,45.6,45.6,0,0,1,.627,5.213,46.959,46.959,0,0,1,.336,5.236Z" transform="translate(-328.682 -135.646)" fill="#e0e0e0"/>
        <path id="Trazado_160559" data-name="Trazado 160559" d="M625.882,247.539a48.826,48.826,0,0,1-.626-5.213,48.724,48.724,0,0,1-.336-5.236,47.146,47.146,0,0,1,.6,5.208,48.652,48.652,0,0,1,.358,5.241Z" transform="translate(-329.647 -135.544)" fill="#e0e0e0"/>
        <path id="Trazado_160560" data-name="Trazado 160560" d="M628.142,247.329a45.587,45.587,0,0,1-.626-5.213,45.386,45.386,0,0,1-.336-5.236,48.81,48.81,0,0,1,.626,5.213A48.6,48.6,0,0,1,628.142,247.329Z" transform="translate(-330.643 -135.452)" fill="#e0e0e0"/>
        <path id="Trazado_160561" data-name="Trazado 160561" d="M630.345,247.111a45.6,45.6,0,0,1-.61-5.236,45.44,45.44,0,0,1-.336-5.236,89.108,89.108,0,0,1,.945,10.471Z" transform="translate(-331.621 -135.346)" fill="#e0e0e0"/>
        <path id="Trazado_160562" data-name="Trazado 160562" d="M632.582,246.919a48.833,48.833,0,0,1-.627-5.208,48.654,48.654,0,0,1-.336-5.241,45.6,45.6,0,0,1,.626,5.213A45.467,45.467,0,0,1,632.582,246.919Z" transform="translate(-332.599 -135.271)" fill="#e0e0e0"/>
        <path id="Trazado_160563" data-name="Trazado 160563" d="M205.015,175.534c-.984-4.374-5.14-8.127-9.6-7.691a9.78,9.78,0,0,0-6.617,3.983,19.073,19.073,0,0,0-1.549,2.237,19.072,19.072,0,0,0-1.549-2.237,9.844,9.844,0,0,0-6.612-3.994c-4.475-.442-8.614,3.311-9.61,7.68s.654,9.011,3.356,12.591a25.233,25.233,0,0,0,14.773,9.912c5.006-1.152,11.355-6.321,14.051-9.9S206,179.9,205.015,175.534Z" transform="translate(-128.831 -105.011)" fill="#e0e0e0"/>
        <path id="Trazado_160564" data-name="Trazado 160564" d="M205.063,190.534H202.8l-6.125.045.106-.078c-.559,1.98-1.18,4.3-1.879,6.835l-.112.414-.14-.4L191.084,187.1c-.4-1.119-.783-2.265-1.163-3.356l.263.028-4.011,6.813-.034.062h-.078l-10.768-.056-3.048-.039h-.811a.962.962,0,0,1-.274,0h1.085l3.048-.034,10.768-.05-.112.067,3.977-6.835.157-.274.106.3q.571,1.678,1.163,3.356l3.563,10.309h-.257c.722-2.539,1.37-4.85,1.93-6.824v-.078h.078l6.125.05h2.114Z" transform="translate(-129.7 -111.899)" fill="#fafafa"/>
      </g>
      <g id="freepik--character-1--inject-2" transform="translate(69.608 78.76)">
        <path id="Trazado_160565" data-name="Trazado 160565" d="M330.349,132.338l-1.913,49.4-24.735-.8c-.291-2.87-.615-13.984-.615-13.984S292.76,165.832,292.15,155.6c-.3-4.973-.073-15.3.235-24.612a19.018,19.018,0,0,1,19.2-18.375h0a19.018,19.018,0,0,1,18.766,19.729Z" transform="translate(-176.16 -107.554)" fill="#ffbe9d"/>
        <path id="Trazado_160566" data-name="Trazado 160566" d="M311.79,206.27a23.885,23.885,0,0,0,13.184-4.43s-2.8,7.523-13.078,7.087Z" transform="translate(-184.876 -146.873)" fill="#eb996e"/>
        <path id="Trazado_160567" data-name="Trazado 160567" d="M298.69,157.462a1.466,1.466,0,0,0,1.482,1.41,1.4,1.4,0,0,0,1.449-1.387,1.471,1.471,0,0,0-1.482-1.415,1.41,1.41,0,0,0-1.449,1.393Z" transform="translate(-179.103 -126.705)" fill="#263238"/>
        <path id="Trazado_160568" data-name="Trazado 160568" d="M297.039,153.467c.19.185,1.259-.688,2.836-.761s2.769.666,2.931.464c.078-.089-.123-.425-.643-.772a4.033,4.033,0,0,0-2.361-.6,3.86,3.86,0,0,0-2.237.845C297.095,153.026,296.944,153.389,297.039,153.467Z" transform="translate(-178.364 -124.819)" fill="#263238"/>
        <path id="Trazado_160569" data-name="Trazado 160569" d="M325.38,157.38a1.466,1.466,0,0,0,1.466,1.415,1.4,1.4,0,0,0,1.449-1.393,1.46,1.46,0,0,0-1.449-1.4,1.4,1.4,0,0,0-1.466,1.382Z" transform="translate(-190.864 -126.673)" fill="#263238"/>
        <path id="Trazado_160570" data-name="Trazado 160570" d="M324.749,152.678c.19.179,1.259-.694,2.836-.761s2.8.66,2.931.459c.078-.089-.123-.425-.643-.766a4.033,4.033,0,0,0-2.355-.6,3.821,3.821,0,0,0-2.237.845C324.8,152.247,324.654,152.6,324.749,152.678Z" transform="translate(-190.574 -124.471)" fill="#263238"/>
        <path id="Trazado_160571" data-name="Trazado 160571" d="M312.341,165.011a10.459,10.459,0,0,0-2.579-.341c-.4,0-.789-.084-.867-.358a2.013,2.013,0,0,1,.213-1.2c.33-1,.677-2.03,1.04-3.121,1.449-4.441,2.472-8.083,2.293-8.139s-1.516,3.5-2.942,7.915q-.52,1.639-.99,3.132a2.3,2.3,0,0,0-.134,1.589,1.018,1.018,0,0,0,.688.559,2.847,2.847,0,0,0,.688.062A9.753,9.753,0,0,0,312.341,165.011Z" transform="translate(-183.334 -124.845)" fill="#263238"/>
        <path id="Trazado_160572" data-name="Trazado 160572" d="M320.112,176.93c-.252,0-.179,1.678-1.583,2.993s-3.233,1.18-3.239,1.421c0,.106.425.313,1.191.3a4.262,4.262,0,0,0,2.707-1.091,3.675,3.675,0,0,0,1.219-2.5C320.442,177.332,320.229,176.913,320.112,176.93Z" transform="translate(-186.418 -135.897)" fill="#263238"/>
        <path id="Trazado_160573" data-name="Trazado 160573" d="M323.511,141.954c.173.425,1.74.145,3.6.28s3.356.559,3.6.173c.1-.19-.173-.559-.8-.962a6.282,6.282,0,0,0-5.487-.347C323.78,141.4,323.433,141.759,323.511,141.954Z" transform="translate(-190.036 -119.9)" fill="#263238"/>
        <path id="Trazado_160574" data-name="Trazado 160574" d="M297.673,145.2c.3.347,1.359-.078,2.668-.157s2.416.129,2.657-.257c.1-.19-.089-.559-.587-.856a3.882,3.882,0,0,0-4.29.336C297.679,144.659,297.545,145.034,297.673,145.2Z" transform="translate(-178.635 -121.139)" fill="#263238"/>
        <path id="Trazado_160575" data-name="Trazado 160575" d="M339.72,123.842l.062.039a8.105,8.105,0,0,1,3.244,5.073.382.382,0,0,0,.039.207c.559,2.9.6,5.884,1.175,8.782s1.717,5.823,3.971,7.73c.929.789,2.523,1.281,3.211.28a2.562,2.562,0,0,0,.3-1.359c.213-7.087,1.84-13.425,1.482-20.819a6.237,6.237,0,0,0-2.825-4.945c-1.6-1.035-3.541-2.092-5.219-1.2s-3.753,4.218-5.034,5.644" transform="translate(-197.183 -109.619)" fill="#263238"/>
        <path id="Trazado_160576" data-name="Trazado 160576" d="M354.79,156.425c.168-.084,6.942-2.416,7.048,4.6s-6.958,5.677-6.975,5.476S354.79,156.425,354.79,156.425Z" transform="translate(-203.823 -126.669)" fill="#ffbe9d"/>
        <path id="Trazado_160577" data-name="Trazado 160577" d="M358.676,165.6c.034,0,.123.084.33.173a1.242,1.242,0,0,0,.917,0,3.031,3.031,0,0,0,1.359-2.735,4.038,4.038,0,0,0-.369-1.745,1.415,1.415,0,0,0-.934-.929.621.621,0,0,0-.716.347c-.1.2-.045.341-.084.352s-.151-.117-.1-.408a.772.772,0,0,1,.269-.442.939.939,0,0,1,.677-.19,1.712,1.712,0,0,1,1.292,1.068,4.156,4.156,0,0,1,.453,1.952,3.133,3.133,0,0,1-1.734,3.054,1.309,1.309,0,0,1-1.119-.168C358.692,165.759,358.653,165.6,358.676,165.6Z" transform="translate(-205.533 -128.446)" fill="#eb996e"/>
        <path id="Trazado_160578" data-name="Trazado 160578" d="M319.387,113.751c2.025-2.6-2.237-7.121-5.594-8.586s-8.038-.274-11.59.487c-2.237.481-4.5,1.247-6.768.906a15.482,15.482,0,0,1-4.3-1.611,11.456,11.456,0,0,0-4.369-1.37,4.179,4.179,0,0,0-3.916,1.93,2.656,2.656,0,0,0,1.37,3.753,3.444,3.444,0,1,0-1.605,6.248c-.906-.861-2.567.213-2.579,1.466a3.639,3.639,0,0,0,2.1,2.9c2.8,1.594,6.2,1.555,9.324.873s6.086-1.963,9.19-2.724,8.318-2.17,11.187-.783c2.126,1.018,3.356,3.843,4.676,3.39a4.273,4.273,0,0,0,2.551-2.892,12.384,12.384,0,0,0,.3-3.988" transform="translate(-170.351 -103.573)" fill="#263238"/>
        <path id="Trazado_160579" data-name="Trazado 160579" d="M288.076,113.6a2.394,2.394,0,0,0-.352.218,2.086,2.086,0,0,0-.716.912,2.931,2.931,0,0,0-.151,1.812,3.015,3.015,0,0,0,1.4,1.913,5.767,5.767,0,0,0,2.847.777,11.411,11.411,0,0,0,3.4-.5,34.54,34.54,0,0,0,7.149-3.49,20.542,20.542,0,0,1,7.467-2.9,9.23,9.23,0,0,1,3.513.218,8.469,8.469,0,0,1,2.8,1.309,8.821,8.821,0,0,1,2.87,3.356,6.115,6.115,0,0,1,.559,1.527c-.034,0-.168-.559-.643-1.477a9,9,0,0,0-2.886-3.222,8.3,8.3,0,0,0-2.713-1.242,8.994,8.994,0,0,0-3.423-.185,20.649,20.649,0,0,0-7.35,2.886,34.623,34.623,0,0,1-7.216,3.49,11.383,11.383,0,0,1-3.49.481,5.84,5.84,0,0,1-2.948-.85,3.659,3.659,0,0,1-.984-.934,3.1,3.1,0,0,1-.263-3.009,2.087,2.087,0,0,1,.789-.912A1.392,1.392,0,0,1,288.076,113.6Z" transform="translate(-173.809 -107.406)" fill="#455a64"/>
        <path id="Trazado_160580" data-name="Trazado 160580" d="M333.51,108.295a1.348,1.348,0,0,1,.459,0,5.7,5.7,0,0,1,1.219.218,6.858,6.858,0,0,1,4.967,5.957,6.361,6.361,0,0,1,0,1.242,1.293,1.293,0,0,1-.1.442c-.056,0,.039-.643-.106-1.678a7.076,7.076,0,0,0-4.827-5.795C334.153,108.373,333.5,108.35,333.51,108.295Z" transform="translate(-194.446 -105.645)" fill="#455a64"/>
        <path id="Trazado_160581" data-name="Trazado 160581" d="M356.216,132.977a1.214,1.214,0,0,1-.559.157,2.758,2.758,0,0,1-1.583-.341,4.044,4.044,0,0,1-1.678-1.717,11.82,11.82,0,0,1-.962-2.763,11.684,11.684,0,0,0-.934-2.7,3.865,3.865,0,0,0-1.572-1.633,2.842,2.842,0,0,0-1.488-.369,5.207,5.207,0,0,0-.559.067,1.247,1.247,0,0,1,.559-.179,2.752,2.752,0,0,1,1.589.3,3.994,3.994,0,0,1,1.712,1.678,11.136,11.136,0,0,1,.962,2.774,12.391,12.391,0,0,0,.917,2.707,4,4,0,0,0,1.538,1.678,2.908,2.908,0,0,0,1.477.408C356,133.016,356.2,132.949,356.216,132.977Z" transform="translate(-200.338 -112.344)" fill="#455a64"/>
        <path id="Trazado_160582" data-name="Trazado 160582" d="M354.388,139.941a.56.56,0,0,0-.173.045,3.356,3.356,0,0,1-.5.067,6.208,6.208,0,0,1-1.868-.145,8.39,8.39,0,0,1-5.034-3.451,12.468,12.468,0,0,1-2.064-5.778,5.371,5.371,0,0,0-.162-1.029,1.253,1.253,0,0,0-.408-.626,1.119,1.119,0,0,0-.6-.229.7.7,0,0,1,.677.134,1.365,1.365,0,0,1,.487.666,5.12,5.12,0,0,1,.213,1.057,13.039,13.039,0,0,0,2.1,5.638,8.513,8.513,0,0,0,4.822,3.418,9.789,9.789,0,0,0,2.517.235Z" transform="translate(-198.879 -114.67)" fill="#455a64"/>
        <path id="Trazado_160583" data-name="Trazado 160583" d="M218.7,354.975l79.429-.515-8.016-48-1.393-82.533-15.863-4.844-7.831-4.419-25.77,3.261-3.317,4.2s-11.277,3.8-16.154,6.035l-.336.151a19.762,19.762,0,0,0-8.441,7.322l-21.5,33.444-31.436-18.33L147,266.87S185.6,299,192.593,298.345s9.425-.66,11.842-3.949c1.851-2.528,9.129-11.092,12.6-16.814l3.541,39.541Z" transform="translate(-112.262 -152.522)" fill="#ebebeb"/>
        <path id="Trazado_160584" data-name="Trazado 160584" d="M318.161,403.7c-.084,0-.722-17.586-1.421-39.284s-1.214-39.295-1.119-39.295.716,17.581,1.421,39.289S318.239,403.7,318.161,403.7Z" transform="translate(-186.559 -201.196)" fill="#263238"/>
        <path id="Trazado_160585" data-name="Trazado 160585" d="M312.11,217.6l2,60.041,23.65-62.978Z" transform="translate(-185.017 -152.522)" fill="#ffbe9d"/>
        <path id="Trazado_160586" data-name="Trazado 160586" d="M301.058,286.966a.863.863,0,0,1-.078-.185c-.056-.134-.123-.313-.207-.559-.2-.492-.464-1.186-.811-2.075-.722-1.79-1.779-4.38-3.244-7.507-.75-1.561-1.589-3.255-2.584-5.034a27.916,27.916,0,0,0-3.7-5.224,6.86,6.86,0,0,1-2.047-2.886,3.731,3.731,0,0,1,.045-1.857c.151-.6.364-1.186.559-1.773.778-2.366,1.589-4.81,2.411-7.311l.05-.157.151.19-9.509.861v-.28l5.073-10.068c1.561-3.065,2.97-5.767,4.184-7.993s2.237-3.983,2.948-5.163c.364-.593.654-1.046.856-1.348l.229-.336c.056-.078.084-.117.089-.112l-.067.123-.213.352c-.19.33-.464.783-.811,1.37-.7,1.2-1.678,2.959-2.875,5.2s-2.584,4.945-4.128,8.021l-2.428,4.866-1.3,2.607-.677,1.342-.352.677-.185.336-.1.173-.056.084a.33.33,0,0,1-.168.134v-.28l9.509-.873h.218l-.067.213-.05.151c-.828,2.5-1.639,4.945-2.416,7.311-.369,1.169-.906,2.344-.6,3.474a6.724,6.724,0,0,0,1.969,2.763,27.791,27.791,0,0,1,3.731,5.331c1,1.779,1.824,3.485,2.562,5.034,1.443,3.144,2.478,5.75,3.166,7.557.336.906.593,1.611.755,2.092q.129.358.185.559A1.537,1.537,0,0,1,301.058,286.966Z" transform="translate(-171.789 -158.466)" fill="#263238"/>
        <path id="Trazado_160587" data-name="Trazado 160587" d="M315.855,285.165a.743.743,0,0,1,0-.2l.09-.559a12.6,12.6,0,0,1,.587-2.148,38.142,38.142,0,0,1,3.843-7.272c.957-1.454,2.047-3.021,3.283-4.665a59.16,59.16,0,0,1,4.2-5.034,41.07,41.07,0,0,1,5.42-4.911,36.884,36.884,0,0,1,3.239-2.142c1.119-.671,2.293-1.309,3.412-2.053l-.039.2a16.546,16.546,0,0,0-6.013-5.42l-.2-.106.185-.134a26.815,26.815,0,0,1,11.746-4.973l-.106.117,1.214-16.691c.157-2.014.28-3.613.369-4.721.045-.559.078-.951.106-1.247l.034-.319a.306.306,0,0,1,0-.112.562.562,0,0,1,0,.112v.319c0,.3-.039.722-.067,1.253-.067,1.119-.168,2.707-.291,4.727-.274,4.078-.654,9.845-1.119,16.7v.1h-.1a26.631,26.631,0,0,0-11.629,4.945V250.7a16.814,16.814,0,0,1,6.119,5.51l.084.117-.123.084c-1.119.75-2.3,1.393-3.429,2.064a36.273,36.273,0,0,0-3.216,2.114,41.677,41.677,0,0,0-5.381,4.861,58.235,58.235,0,0,0-4.2,5.034c-1.242,1.628-2.344,3.183-3.306,4.631a39.081,39.081,0,0,0-3.916,7.188,13.345,13.345,0,0,0-.638,2.12c-.05.235-.09.425-.117.559a.867.867,0,0,1-.039.185Z" transform="translate(-186.664 -156.1)" fill="#263238"/>
        <rect id="Rectángulo_35229" data-name="Rectángulo 35229" width="16.702" height="3.25" transform="translate(142.571 110.757)" fill="#263238"/>
        <path id="Trazado_160588" data-name="Trazado 160588" d="M351.7,339.752a1.058,1.058,0,0,1-.285.084l-.828.179a24.77,24.77,0,0,1-3.093.442,11.036,11.036,0,0,1-4.6-.559,7.6,7.6,0,0,1-4.251-3.686,12.927,12.927,0,0,1-1.158-5.554c0-1.751.056-3.3.062-4.62s.045-2.377.084-3.116a8.155,8.155,0,0,1,.056-.845.973.973,0,0,1,.045-.3,2.108,2.108,0,0,1,0,.3v8.575a12.865,12.865,0,0,0,1.152,5.431,7.356,7.356,0,0,0,4.078,3.563,11.064,11.064,0,0,0,4.475.6,30.266,30.266,0,0,0,3.082-.347l.839-.123A1.462,1.462,0,0,1,351.7,339.752Z" transform="translate(-196.199 -199.724)" fill="#263238"/>
        <path id="Trazado_160589" data-name="Trazado 160589" d="M354.918,321.061c0,.078-3.8.235-8.491.341s-8.5.134-8.5.05,3.8-.229,8.491-.341S354.918,321.011,354.918,321.061Z" transform="translate(-196.394 -199.391)" fill="#263238"/>
        <path id="Trazado_160590" data-name="Trazado 160590" d="M353.51,315.651v-5.543a1.628,1.628,0,0,1,1.628-1.628h0a1.628,1.628,0,0,1,1.628,1.628v9.134a.561.561,0,1,1-1.119.078V319.1c0-1.393-.157-3.518-.157-3.518Z" transform="translate(-203.259 -193.864)" fill="#7e5ee3"/>
        <path id="Trazado_160591" data-name="Trazado 160591" d="M352.871,332.251a52.777,52.777,0,0,1,0-7.831,52.777,52.777,0,0,1,0,7.831Z" transform="translate(-202.906 -200.887)" fill="#263238"/>
        <path id="Trazado_160592" data-name="Trazado 160592" d="M358.515,341.572c-.078,0-.145-2.8-.145-6.231s.067-6.231.145-6.231.145,2.8.145,6.231S358.6,341.572,358.515,341.572Z" transform="translate(-205.401 -202.954)" fill="#263238"/>
        <path id="Trazado_160593" data-name="Trazado 160593" d="M312.86,239.383l7.769,9.481c5.487-5.538,9.431-11.008,12.865-13.425,0,0-19.052,52.2-19.08,51.332S312.86,239.383,312.86,239.383Z" transform="translate(-185.347 -161.679)" fill="#7e5ee3"/>
        <path id="Trazado_160594" data-name="Trazado 160594" d="M333.949,235.479a1.5,1.5,0,0,1-.2.218l-.6.559c-.526.5-1.275,1.236-2.193,2.154-1.84,1.829-4.285,4.475-6.953,7.384s-5.146,5.538-7.026,7.339c-.94.9-1.712,1.611-2.265,2.086l-.638.559a1.277,1.277,0,0,1-.235.179,2.142,2.142,0,0,1,.2-.218l.6-.559c.531-.5,1.281-1.236,2.2-2.154,1.835-1.829,4.279-4.475,6.953-7.384s5.146-5.538,7.026-7.339c.94-.9,1.712-1.611,2.265-2.086l.632-.559C333.859,235.529,333.938,235.468,333.949,235.479Z" transform="translate(-185.779 -161.696)" fill="#263238"/>
        <path id="Trazado_160595" data-name="Trazado 160595" d="M320.578,251.931c-.062.05-1.84-2.019-3.971-4.626s-3.809-4.766-3.748-4.816,1.84,2.019,3.971,4.631S320.639,251.881,320.578,251.931Z" transform="translate(-185.346 -164.785)" fill="#263238"/>
        <path id="Trazado_160596" data-name="Trazado 160596" d="M267.61,274.91a1.887,1.887,0,0,1,.067.392c.039.285.084.66.14,1.119.117.979.268,2.394.447,4.15.352,3.507.772,8.357,1.208,13.715s.839,10.18,1.119,13.721c.145,1.728.263,3.144.347,4.156.039.47.067.845.089,1.119a2.646,2.646,0,0,1,0,.4,2.081,2.081,0,0,1-.073-.392c-.034-.285-.078-.66-.14-1.119-.117-.979-.268-2.394-.442-4.15-.352-3.507-.778-8.357-1.214-13.715s-.833-10.18-1.119-13.721c-.145-1.728-.263-3.144-.352-4.156-.034-.47-.061-.845-.084-1.119A1.93,1.93,0,0,1,267.61,274.91Z" transform="translate(-165.402 -179.071)" fill="#263238"/>
        <path id="Trazado_160597" data-name="Trazado 160597" d="M353.228,231s12.451,0,15.572,23.952,9.985,67.878-2.495,76.207S296,338.9,296,338.9V315.7l47.445-5.236s-.179-4.318,2.237-4.285l-2.7-54.75S342.427,232.04,353.228,231Z" transform="translate(-177.918 -159.723)" fill="#ebebeb"/>
        <path id="Trazado_160598" data-name="Trazado 160598" d="M343,300.05a6.469,6.469,0,0,0,.05.66c.05.436.062,1.119.112,1.947.09,1.717.224,4.223.4,7.434.33,6.438.805,15.69,1.387,26.961v.117h-.123a1.74,1.74,0,0,0-1.091.419,2.578,2.578,0,0,0-.671,1.068,7.457,7.457,0,0,0-.358,2.674v.117h-.112l-46.684,4.8.129-.145v23.219l-.14-.14c20.2.218,37.813-.559,50.258-2.154,3.116-.4,5.9-.85,8.318-1.326a60.356,60.356,0,0,0,6.1-1.538c.811-.274,1.527-.559,2.142-.778a11.471,11.471,0,0,0,1.516-.688l.884-.5.308-.162s-.1.067-.291.185l-.878.526c-.4.213-.912.431-1.51.716a21.386,21.386,0,0,1-2.142.794,59.046,59.046,0,0,1-6.1,1.589c-2.422.492-5.208.956-8.318,1.365-12.457,1.617-30.082,2.461-50.292,2.237h-.14V345.99h.134l46.684-4.755-.112.129a7.546,7.546,0,0,1,.38-2.8,2.8,2.8,0,0,1,.733-1.158,2.031,2.031,0,0,1,1.247-.481l-.112.123c-.559-11.271-.979-20.523-1.281-26.967-.145-3.211-.263-5.717-.341-7.434-.034-.85-.056-1.5-.078-1.947A5.665,5.665,0,0,1,343,300.05Z" transform="translate(-177.808 -190.149)" fill="#263238"/>
        <path id="Trazado_160599" data-name="Trazado 160599" d="M390.249,371.77c-.05,0-.235-.481-.66-1.208a9.644,9.644,0,0,0-2.12-2.489,9.778,9.778,0,0,0-2.836-1.628c-.789-.285-1.314-.375-1.3-.425a3.973,3.973,0,0,1,1.37.229,8.541,8.541,0,0,1,5.068,4.212,3.915,3.915,0,0,1,.481,1.309Z" transform="translate(-216.399 -219.218)" fill="#263238"/>
        <path id="Trazado_160600" data-name="Trazado 160600" d="M382.9,379.431a13.279,13.279,0,0,0-3.591-5.8,2.706,2.706,0,0,1,.833.6,8.748,8.748,0,0,1,1.589,1.913,8.859,8.859,0,0,1,1.007,2.271A2.579,2.579,0,0,1,382.9,379.431Z" transform="translate(-214.628 -222.571)" fill="#263238"/>
        <path id="Trazado_160601" data-name="Trazado 160601" d="M92.67,262.34l34.009,90.426,72.14,1.46-29.73-91.265Z" transform="translate(-88.322 -173.532)" fill="#7e5ee3"/>
        <g id="Grupo_83962" data-name="Grupo 83962" transform="translate(21.352 88.92)" opacity="0.5">
          <path id="Trazado_160602" data-name="Trazado 160602" d="M151.491,353.016s-17.273-33.164-22.637-55.292c-3.06-12.513-5.784-35.184-5.784-35.184l45.028.4s14.935,23.767,23.532,47.517a235.489,235.489,0,0,1,11.277,43.691l-23.107-.509-7.6-22.162a6.318,6.318,0,0,1-5.633-.375l7.831,22.419Z" transform="translate(-123.07 -262.54)" fill="#fff"/>
        </g>
        <path id="Trazado_160603" data-name="Trazado 160603" d="M185.541,332.168c-.42-1.219-2.237-5.526-1.947-7.674s2.416-4.475,2.534-6.628a43.922,43.922,0,0,0-.369-9.291,50.394,50.394,0,0,0-2.12-6.075s-3.261-5.163-6.539-5.28l-3.988-.145s-2.886.694-1.488,4.262,4.7,9.694,5.174,10.751,2.7,5.141,2.2,7.758-4.313,9.923-3.809,11.7l-2.042-.073a13.692,13.692,0,0,0-4.531-4.648c-2.646-1.382-8.323-7.344-9.509-10.907s-2.517-11.853-3.317-14.364-2.036-4.715-4.111-5.275a11.524,11.524,0,0,0-4.855.145s-3.72,1.281-2.058,6.874,2.6,5.935,4.564,9.207,2.467,4.251,4.027,5.672,5.252,2.993,6.841,6.41,2.411,7.384,5.252,12.272,3.915,6.712,6.153,6.712,2.965-2.534,3.048-4.055a17.768,17.768,0,0,0,0-2.4l2.707.1s3.06,5.717,6.27,6.791,2.987-1.812,3.149-2.931A46.186,46.186,0,0,0,185.541,332.168Zm-15.858,6.6c-.85-.436-2.333-3.3-3.8-5.784-1.119-1.857-1-2.836-.884-3.211a.7.7,0,0,1,.084-.185l-.045.062c.112-.649,1.2-.364,2-.045a7.025,7.025,0,0,1,4.3,5.375c.912,4.05-.777,4.218-1.633,3.787Zm14.029.509c-.559.38-2.444.084-4.318-4s.235-5,.677-5.2a1.725,1.725,0,0,1,2.081.19l-.084-.062a2.073,2.073,0,0,1,.213.19,5.219,5.219,0,0,1,1.326,3.233c.257,2.433.694,5.264.123,5.644Z" transform="translate(-111.088 -188.393)" fill="#fff"/>
        <path id="Trazado_160604" data-name="Trazado 160604" d="M184.027,335.569c.671-.045.2-2.6.2-2.6a19.3,19.3,0,0,0,0-2.886,7.6,7.6,0,0,1,.929-3.418c.431-1.113,0-4.083-.559-5.594s-.168-1.628-.168-1.628c1.723-.559.134-4.145-1.024-7.5s-2.31-3.11-2.31-3.11-.772-.028-1.214,2.7-1.2,3.7-2.853,3.692h-.884c-1.678,0-3.149-1.175-5.5-4.005s-3.116-2.858-3.116-2.858-1.348-.33-.207,3.021,2,6.9,4.156,7.613c0,0,.447.157.956,1.678a18.518,18.518,0,0,0,3.323,5.683,19.513,19.513,0,0,1,3.323,3.569c.7,1.219,2.019,2.959,2.019,2.959s1.605,2.6,2.321,2.691Z" transform="translate(-121.013 -193.812)" fill="#fff"/>
        <path id="Trazado_160605" data-name="Trazado 160605" d="M159.746,263.978s-.878.252-.246,1.723.559,2.338.923,2.735a12.91,12.91,0,0,0,1.231,1.119s-1.007.347-.263,1.919.934,3.121,1.275,3.809,1.063.912,1.4,1.309-1.119-.045-.738,1.32,1.242,2.36,1.236,3.619a4.115,4.115,0,0,0,1.807,3.535c1.2.621.973,1.482,1.007,2.159a11.047,11.047,0,0,0,.559,2.724c.47,1.751,3.16,4.475,4.81,4.324s3.233-2.1,2.836-3.272a17.972,17.972,0,0,0-2.685-4.441c-.7-.7-1.292-.722-1.163-1.488s.99.42.951-.643a5.711,5.711,0,0,0-.817-3.116,28.682,28.682,0,0,1-1.5-3.239c-.638-1.281-1.885-1.516-1.784-1.8s.783-.162.218-1.438-.6-.408-1.2-2.361-.878-3.121-1.466-2.948-.5-.694-.7-2.053.285-.856-.559-2.333S159.746,263.978,159.746,263.978Z" transform="translate(-117.669 -174.242)" fill="#fff"/>
        <path id="Trazado_160606" data-name="Trazado 160606" d="M158.309,345.547l.744-1.779-1.2-3.574s2.014-1.225,4.816,2.841,2.618,6,2.618,6l-3.323-.117a5.375,5.375,0,0,0-.117,3.647c.677,1.835,1.678,1.611,2.567,4.827a25.733,25.733,0,0,1,.99,4.514l10.359,25.093-4.626-.168-11.187-26.586s-1.27-.822-3.356-4.855-4.044-9.274-2.707-10.689S158.309,345.547,158.309,345.547Z" transform="translate(-115.103 -207.762)" fill="#fff"/>
        <path id="Trazado_160607" data-name="Trazado 160607" d="M223.294,347.845l-2-1.852-1.247-3.574s-2.92-1.4-2.97,2.556a10.052,10.052,0,0,0,1.482,5.957l3.323.117a11.116,11.116,0,0,1,2.651,3.748c.576,1.824-.559,1.527.716,4.76a34.182,34.182,0,0,0,2.114,4.553l6.779,24.953,4.631.168L231.8,362.775s.738-.75.05-4.732-2.282-9.2-4.643-10.751A2.8,2.8,0,0,0,223.294,347.845Z" transform="translate(-143.141 -208.712)" fill="#fff"/>
        <path id="Trazado_160608" data-name="Trazado 160608" d="M92.67,262.34l76.419.5h.084l.028.084c8.351,25.607,18.392,56.406,29.193,89.5l.559,1.74.067.2h-.207l-72.157-1.471h-.09l-.034-.084L92.67,262.34c.4,1.08,13.9,36.806,34.121,90.381l-.117-.084,72.157,1.443-.14.19c-.19-.559-.38-1.152-.559-1.74L168.989,263l.112.084Z" transform="translate(-88.322 -173.532)" fill="#263238"/>
        <path id="Trazado_160609" data-name="Trazado 160609" d="M268.93,381.015H261.7a45.712,45.712,0,0,0-4.71-4.078c-1.007-.5-5.952-2-5.952-2l1.907,5.292a7.914,7.914,0,0,1,.878.308c1.264.492.912,1.611-.1,1.611h-7.283s-7.462-3.58-8.569-2.925c-.929.559-1.253,1.538-.3,2.925s7.49,4.648,8.239,4.9l2.137.626-2.008.626-9.509-3.317c-.621-.112-1.471-.213-1.751.145a1.27,1.27,0,0,0,.05,1.835,40.037,40.037,0,0,0,4.3,3.384s-1.516,2.237-.263,3.356,4.9,4.525,4.9,4.525a5.359,5.359,0,0,0,1.51,2.763c1.13.878,13.57.878,14.448.878s5.907-2.886,5.907-2.886l3.289-.347Z" transform="translate(-150.736 -223.149)" fill="#ffbe9d"/>
        <path id="Trazado_160610" data-name="Trazado 160610" d="M251.128,406.077a3.916,3.916,0,0,1-1.359.185,4.268,4.268,0,0,1-1.488-.263,8.108,8.108,0,0,1-1.617-.861c-1.08-.7-2.042-1.348-2.735-1.829a6.315,6.315,0,0,1-1.08-.828,6.377,6.377,0,0,1,1.2.654c.716.436,1.678,1.057,2.8,1.756a9.049,9.049,0,0,0,1.555.856,4.257,4.257,0,0,0,1.4.308C250.6,406.093,251.128,406.026,251.128,406.077Z" transform="translate(-154.498 -235.284)" fill="#eb996e"/>
        <path id="Trazado_160611" data-name="Trazado 160611" d="M253.708,415.451a1.6,1.6,0,0,1-.94.531,3.535,3.535,0,0,1-2.567-.431A10.543,10.543,0,0,1,248.12,414a3.266,3.266,0,0,1-.71-.805,34.787,34.787,0,0,0,2.931,2.1,3.6,3.6,0,0,0,2.383.487,5.894,5.894,0,0,0,.984-.33Z" transform="translate(-156.507 -240.005)" fill="#eb996e"/>
        <path id="Trazado_160612" data-name="Trazado 160612" d="M261.977,398.2a4.967,4.967,0,0,1-1.969-.151,5.034,5.034,0,0,1-1.868-.638,10.6,10.6,0,0,1,1.93.352,10.738,10.738,0,0,1,1.907.436Z" transform="translate(-161.235 -233.05)" fill="#eb996e"/>
        <path id="Trazado_160613" data-name="Trazado 160613" d="M86.426,285.07a3.026,3.026,0,0,1-1.068-4.234,3.317,3.317,0,0,1,1.119-1.214c1.214-.643,11.953-2.657,13.106-2.8s1.365,2.053-.14,3.144-12.988,5.113-12.988,5.113Z" transform="translate(-84.897 -179.912)" fill="#ffbe9d"/>
        <path id="Trazado_160614" data-name="Trazado 160614" d="M90.9,298.912a3.032,3.032,0,0,1-1.068-4.223,3.272,3.272,0,0,1,1.119-1.214c1.214-.643,12.177-3.524,13.106-2.8,1.119.839,1.365,2.047-.14,3.144s-12.988,5.113-12.988,5.113Z" transform="translate(-86.872 -185.968)" fill="#ffbe9d"/>
        <path id="Trazado_160615" data-name="Trazado 160615" d="M93.923,300.611a3.541,3.541,0,0,0-2.366,1.857,2.45,2.45,0,0,0-.218,1.622,4.648,4.648,0,0,0,3.267,3.49c1.963.615,8.357-.822,8.357-.822l-1.477-4.122,4.475-1.466a1.639,1.639,0,0,0-1.253-3.026C103.991,298.323,96.485,299.973,93.923,300.611Z" transform="translate(-87.712 -189.278)" fill="#ffbe9d"/>
        <path id="Trazado_160616" data-name="Trazado 160616" d="M88.8,291.775a3.026,3.026,0,0,1-1.068-4.223,3.317,3.317,0,0,1,1.119-1.214c1.214-.643,10.98-2.383,12.116-2.623s2.355,1.857.85,2.948S88.8,291.775,88.8,291.775Z" transform="translate(-85.945 -182.943)" fill="#ffbe9d"/>
        <path id="Trazado_160617" data-name="Trazado 160617" d="M101.036,291.13a11.077,11.077,0,0,1-1.712.436c-1.063.235-2.534.559-4.162.861a10.723,10.723,0,0,0-3.916,1.438A6.411,6.411,0,0,0,90,295.085a1.816,1.816,0,0,1,.207-.431,3.748,3.748,0,0,1,.895-.957,6.573,6.573,0,0,1,1.678-.917,15.852,15.852,0,0,1,2.271-.638c1.633-.324,3.116-.593,4.19-.777A10.261,10.261,0,0,1,101.036,291.13Z" transform="translate(-87.145 -186.218)" fill="#eb996e"/>
        <path id="Trazado_160618" data-name="Trazado 160618" d="M98.124,284.75a9.608,9.608,0,0,1-1.639.4l-3.988.772a9.637,9.637,0,0,0-3.709,1.449,7.977,7.977,0,0,0-1.119,1.2,1.871,1.871,0,0,1,.2-.414,3.77,3.77,0,0,1,.817-.945,8.879,8.879,0,0,1,3.776-1.566c1.538-.336,2.981-.526,4.011-.694a9.89,9.89,0,0,1,1.656-.2Z" transform="translate(-86.119 -183.407)" fill="#eb996e"/>
        <path id="Trazado_160619" data-name="Trazado 160619" d="M102.068,299.3a9.419,9.419,0,0,1-1.538.47c-.957.257-2.293.6-3.781.845a9.956,9.956,0,0,0-3.63,1.208A6.338,6.338,0,0,0,92,302.891a1.438,1.438,0,0,1,.2-.386,3.6,3.6,0,0,1,.845-.85,9.084,9.084,0,0,1,3.658-1.326c1.493-.246,2.8-.559,3.792-.755a8.575,8.575,0,0,1,1.577-.274Z" transform="translate(-88.027 -189.818)" fill="#eb996e"/>
        <path id="Trazado_160620" data-name="Trazado 160620" d="M107.321,305.72a11.184,11.184,0,0,1-2.333.934,11.152,11.152,0,0,1-2.439.654,10.867,10.867,0,0,1,2.333-.929A11.188,11.188,0,0,1,107.321,305.72Z" transform="translate(-92.676 -192.647)" fill="#eb996e"/>
      </g>
      <g id="freepik--character-2--inject-2" transform="translate(239.514 93.681)">
        <path id="Trazado_160621" data-name="Trazado 160621" d="M511.564,187.593a7.775,7.775,0,1,1,9.459,11.545,5.235,5.235,0,1,1-4.514,9.448,5.077,5.077,0,0,1-5.241,3.294,9,9,0,0,1-5.756-3.1,14.068,14.068,0,0,1-3.4-12.865,12.443,12.443,0,0,1,9.627-8.994" transform="translate(-438.478 -154.024)" fill="#263238"/>
        <path id="Trazado_160622" data-name="Trazado 160622" d="M519.717,184a1.16,1.16,0,0,1,.1.157,4.009,4.009,0,0,1,.213.481,6.908,6.908,0,0,1,.431,1.924,7.769,7.769,0,0,1-.33,2.981,7.517,7.517,0,0,1-2,3.233v-.185a8.194,8.194,0,0,1,1.482,3.563,8.088,8.088,0,0,1-6.36,9.224,5.546,5.546,0,0,1-.766.1,1.456,1.456,0,0,1-.274,0c0-.034.369-.062,1.018-.213a8.619,8.619,0,0,0,2.562-1.119,8,8,0,0,0,2.115-11.394l-.073-.1.089-.084a7.272,7.272,0,0,0,1.958-3.1,7.791,7.791,0,0,0,.386-2.9A9.372,9.372,0,0,0,519.717,184Z" transform="translate(-443.096 -153.933)" fill="#455a64"/>
        <path id="Trazado_160623" data-name="Trazado 160623" d="M548.074,181.22a6.27,6.27,0,0,1-.828.492c-.559.3-1.331.716-2.31,1.219-1.969,1.012-4.71,2.349-7.792,3.725s-5.912,2.517-7.976,3.306c-1.029.392-1.868.7-2.456.906a6.466,6.466,0,0,1-.912.285,5.962,5.962,0,0,1,.873-.392l2.422-.99c2.042-.839,4.855-2.014,7.932-3.356s5.828-2.679,7.831-3.641l2.355-1.119a6.349,6.349,0,0,1,.861-.436Z" transform="translate(-449.084 -152.708)" fill="#7e5ee3"/>
        <path id="Trazado_160624" data-name="Trazado 160624" d="M541.622,168.259c.05.062-3.021,3-6.863,6.556s-7,6.4-7.059,6.343,3.021-2.976,6.88-6.556S541.566,168.2,541.622,168.259Z" transform="translate(-449.921 -146.997)" fill="#7e5ee3"/>
        <path id="Trazado_160625" data-name="Trazado 160625" d="M465.147,139.394c0-6.019-7.193-6.315-10.829-4.81-1.958-2.685-3.356-4.039-7.859-4.318-3.306-.213-8.346,1.449-10.885,4.777a12.009,12.009,0,0,0-1.354,11.9c.559,1.27,1.359,2.545,1.2,3.915-.229,1.991-2.271,3.155-3.591,4.659a7.6,7.6,0,0,0-.358,9.3c1.281,1.678,3.317,2.892,3.994,4.906.559,1.678.034,3.53.14,5.308a8.828,8.828,0,0,0,5.722,7.333,13.817,13.817,0,0,0,9.6-.2" transform="translate(-406.896 -130.248)" fill="#263238"/>
        <path id="Trazado_160626" data-name="Trazado 160626" d="M445.75,212.628l11.282-5.034.386-7.546s-8.48-1.253-10.432-12.25c-.968-5.471-.85-14.471-.52-21.815.3-6.628,7.316-13.363,13.922-12.781l21.457,3.686v3.563l.2,45.442,11.1,5.353-25.171,29.735Z" transform="translate(-413.811 -140.347)" fill="#a36957"/>
        <path id="Trazado_160627" data-name="Trazado 160627" d="M454.2,188.971a1.41,1.41,0,0,0,1.387,1.4,1.359,1.359,0,0,0,1.438-1.3,1.415,1.415,0,0,0-1.387-1.4,1.354,1.354,0,0,0-1.438,1.3Z" transform="translate(-417.534 -155.548)" fill="#263238"/>
        <path id="Trazado_160628" data-name="Trazado 160628" d="M450.651,183.108c.179.179,1.236-.632,2.758-.654s2.651.722,2.8.531c.084-.084-.1-.414-.593-.761a3.916,3.916,0,0,0-2.237-.654,3.72,3.72,0,0,0-2.193.755C450.718,182.688,450.562,183.024,450.651,183.108Z" transform="translate(-415.96 -152.862)" fill="#263238"/>
        <path id="Trazado_160629" data-name="Trazado 160629" d="M479.63,188.971a1.41,1.41,0,0,0,1.387,1.4,1.359,1.359,0,0,0,1.438-1.3,1.421,1.421,0,0,0-1.387-1.4,1.354,1.354,0,0,0-1.438,1.3Z" transform="translate(-428.74 -155.548)" fill="#263238"/>
        <path id="Trazado_160630" data-name="Trazado 160630" d="M477.413,183.142c.179.185,1.242-.632,2.763-.654s2.651.722,2.8.531c.078-.084-.106-.414-.6-.761a3.916,3.916,0,0,0-2.237-.649,3.726,3.726,0,0,0-2.193.75C477.48,182.728,477.329,183.064,477.413,183.142Z" transform="translate(-427.753 -152.879)" fill="#263238"/>
        <path id="Trazado_160631" data-name="Trazado 160631" d="M464.879,194.707a10.621,10.621,0,0,0-2.484-.4c-.392-.034-.761-.1-.828-.364a1.958,1.958,0,0,1,.241-1.158c.347-.951.71-1.941,1.119-2.981,1.521-4.246,2.612-7.73,2.444-7.792s-1.544,3.356-3.065,7.574c-.369,1.046-.716,2.047-1.052,3a2.265,2.265,0,0,0-.173,1.533.979.979,0,0,0,.649.559,2.763,2.763,0,0,0,.66.084A9.95,9.95,0,0,0,464.879,194.707Z" transform="translate(-420.539 -153.056)" fill="#263238"/>
        <path id="Trazado_160632" data-name="Trazado 160632" d="M466.5,233.691a28.063,28.063,0,0,0,14.7-4.2s-3.781,7.775-14.84,6.942Z" transform="translate(-422.892 -173.978)" fill="#7c3b29"/>
        <path id="Trazado_160633" data-name="Trazado 160633" d="M469.071,210.4a2.758,2.758,0,0,1,2.444-1.063,2.539,2.539,0,0,1,1.745.895,1.594,1.594,0,0,1,.151,1.818,1.835,1.835,0,0,1-1.986.559,5.828,5.828,0,0,1-1.969-1.119,1.746,1.746,0,0,1-.442-.442.515.515,0,0,1,0-.559" transform="translate(-424.026 -165.094)" fill="#7c3b29"/>
        <path id="Trazado_160634" data-name="Trazado 160634" d="M472.233,206.45c-.246,0-.224,1.645-1.617,2.842s-3.155,1.046-3.166,1.281c0,.1.4.313,1.119.319a4.117,4.117,0,0,0,2.646-.973,3.58,3.58,0,0,0,1.247-2.383C472.512,206.847,472.322,206.439,472.233,206.45Z" transform="translate(-423.373 -163.825)" fill="#263238"/>
        <path id="Trazado_160635" data-name="Trazado 160635" d="M476.533,172.758c.157.408,1.678.185,3.462.369s3.244.649,3.474.268c.106-.179-.151-.559-.744-.951a6.058,6.058,0,0,0-5.286-.492C476.79,172.233,476.466,172.563,476.533,172.758Z" transform="translate(-427.371 -148.453)" fill="#263238"/>
        <path id="Trazado_160636" data-name="Trazado 160636" d="M451.5,175.149c.274.336,1.32-.039,2.579-.078s2.333.19,2.573-.173c.106-.179-.073-.526-.559-.845a3.742,3.742,0,0,0-4.15.207C451.521,174.623,451.381,174.981,451.5,175.149Z" transform="translate(-416.326 -149.316)" fill="#263238"/>
        <path id="Trazado_160637" data-name="Trazado 160637" d="M441.83,149.863c1.678,3.915,5.532,9.722,9.75,10.236a12.479,12.479,0,0,0,11.187-4.743c.638,3.144,4.128,4.81,7.272,5.331a12.6,12.6,0,0,0,6.712-.453A6.645,6.645,0,0,0,481,155.317c.33-2.237-2.847-7.753-5.079-8.167" transform="translate(-412.083 -137.696)" fill="#263238"/>
        <path id="Trazado_160638" data-name="Trazado 160638" d="M491.574,156.049a6.858,6.858,0,0,0,3.406,9.034,8.235,8.235,0,0,0-1.242,7.076,19.319,19.319,0,0,0,3.412,6.572s-3.792,5.487,3.843,9.509c0,0,5.359-1.678,2.965-9.738a2.394,2.394,0,0,1,.1-1.756,3.02,3.02,0,0,1,1.326-1.046,8.776,8.776,0,0,0,3.462-11.819,5.739,5.739,0,0,1-.744-1.678c-.151-.906-.845-3.272-.559-4.139,1.639-4.525-.47-10.147-5.778-12.938-4.257-2.237-9.587-2.612-12.865.929" transform="translate(-432.824 -136.051)" fill="#263238"/>
        <path id="Trazado_160639" data-name="Trazado 160639" d="M477.04,292.06l7.272-28.443-20.4-11.226-19.689,30.351-17.838-29.512-18.375,8.318a5.532,5.532,0,0,0-2.735,2.718L388.65,309.226l22.464,7.272,2.573-10.421,2.959,17.995L408.1,371.293l73.348-.269-13-48.479,1.807-10.812Z" transform="translate(-388.65 -184.069)" fill="#7e5ee3"/>
        <g id="Grupo_83963" data-name="Grupo 83963" transform="translate(26.81 133.71)" opacity="0.3">
          <path id="Trazado_160640" data-name="Trazado 160640" d="M436.58,380.438c5.034.85,9.565-3.608,14.666-3.647,4.7-.034,8.609,3.653,13.19,4.721,2.019.47,4.223.453,5.968,1.561a12.331,12.331,0,0,1,3.155,3.53,31.509,31.509,0,0,0,18.4,12.1c1.119.252,3.625,1.119,4.313.173l-.727-2.9-.638-8.787-24.578-17.9-28.052,1.376Z" transform="translate(-436.58 -369.29)"/>
        </g>
        <rect id="Rectángulo_35230" data-name="Rectángulo 35230" width="15.175" height="2.512" transform="translate(65.512 103.695)" fill="#263238"/>
        <path id="Trazado_160641" data-name="Trazado 160641" d="M534.471,364.123c6.153,2.181,12.865,1.851,19.287.906a8.821,8.821,0,0,0,4.324-1.488c.4-.319,1.376-1.119,1.359-1.331-.045-.587-1.119-1.37-1.728-1.857a20.663,20.663,0,0,0-16.663-3.915,12.35,12.35,0,0,0-4.352,1.678c-1.3.873-2.12,1.354-2.568,2.858" transform="translate(-452.755 -229.742)" fill="#7e5ee3"/>
        <g id="Grupo_83964" data-name="Grupo 83964" transform="translate(81.375 126.299)" opacity="0.3">
          <path id="Trazado_160642" data-name="Trazado 160642" d="M534.471,364.123c6.153,2.181,12.865,1.851,19.287.906a8.821,8.821,0,0,0,4.324-1.488c.4-.319,1.376-1.119,1.359-1.331-.045-.587-1.119-1.37-1.728-1.857a20.663,20.663,0,0,0-16.663-3.915,12.35,12.35,0,0,0-4.352,1.678c-1.3.873-2.12,1.354-2.568,2.858" transform="translate(-534.13 -356.04)"/>
        </g>
        <path id="Trazado_160643" data-name="Trazado 160643" d="M558.9,325.253s-6.444-38.433-6.841-41.862c-1-8.5-4.2-11.221-4.2-11.221L532.9,317.942l1.035,9.224S538.661,320.051,558.9,325.253Z" transform="translate(-452.213 -192.785)" fill="#7e5ee3"/>
        <path id="Trazado_160644" data-name="Trazado 160644" d="M554.6,311.89a6.461,6.461,0,0,1-.28.951c-.19.61-.509,1.477-.923,2.539a58.439,58.439,0,0,1-3.916,8,55.448,55.448,0,0,1-5.135,7.272c-.733.873-1.348,1.566-1.79,2.025a7.632,7.632,0,0,1-.7.694,6.162,6.162,0,0,1,.621-.772c.414-.481,1.007-1.191,1.717-2.081a64.449,64.449,0,0,0,5.034-7.305,67.2,67.2,0,0,0,3.983-7.909c.436-1.052.783-1.907,1.007-2.5A6.72,6.72,0,0,1,554.6,311.89Z" transform="translate(-456.156 -210.287)" fill="#263238"/>
        <path id="Trazado_160645" data-name="Trazado 160645" d="M431.713,340.19a.368.368,0,0,1-.034-.123,2.566,2.566,0,0,0-.067-.375c-.05-.352-.129-.828-.224-1.432-.213-1.27-.509-3.06-.878-5.258-.772-4.464-1.891-10.561-3.11-17.329s-2.338-12.865-3.149-17.34l-.923-5.258c-.09-.6-.168-1.08-.224-1.432l-.039-.375a.326.326,0,0,1,0-.129.435.435,0,0,1,.034.123,2.5,2.5,0,0,0,.073.369c.067.352.157.828.274,1.426.246,1.264.587,3.043,1.012,5.236.845,4.425,2,10.544,3.239,17.306s2.3,12.893,3.021,17.34c.358,2.237.621,4.027.789,5.275.073.61.129,1.091.173,1.443a1.242,1.242,0,0,0,.034.375A.556.556,0,0,1,431.713,340.19Z" transform="translate(-403.812 -201.144)" fill="#263238"/>
        <path id="Trazado_160646" data-name="Trazado 160646" d="M541.419,296a2.234,2.234,0,0,1-.078.431c-.067.308-.157.716-.274,1.225-.252,1.091-.6,2.623-1.04,4.475-.889,3.8-2.12,9.039-3.423,14.845s-2.439,11.07-3.188,14.9c-.369,1.913-.671,3.462-.856,4.536-.089.515-.168.923-.224,1.236a2.126,2.126,0,0,1-.1.425,2.544,2.544,0,0,1,.039-.436q.067-.47.168-1.242c.151-1.085.419-2.64.766-4.559.7-3.837,1.8-9.112,3.1-14.924s2.567-11.042,3.507-14.829c.47-1.868.856-3.39,1.119-4.475.134-.5.246-.906.324-1.214A2.128,2.128,0,0,1,541.419,296Z" transform="translate(-451.922 -203.285)" fill="#263238"/>
        <path id="Trazado_160647" data-name="Trazado 160647" d="M447.66,255.744a.952.952,0,0,1,.123.173l.347.559c.308.481.744,1.175,1.3,2.064l4.743,7.6,15.662,25.378H469.6l.738-1.046c.8-1.119,1.583-2.237,2.321-3.267v.19L458.2,263.43c-1.812-3.026-3.272-5.471-4.285-7.171l-1.147-1.941-.291-.509a.888.888,0,0,1-.1-.179,1.312,1.312,0,0,1,.117.162l.313.5c.28.447.682,1.119,1.191,1.919,1.035,1.678,2.523,4.111,4.363,7.121l14.543,23.918.045.078-.05.078c-.744,1.04-1.527,2.148-2.321,3.267l-.744,1.046-.129.179-.112-.185L454,266.26c-1.969-3.239-3.563-5.856-4.671-7.686-.559-.895-.962-1.6-1.259-2.092l-.319-.559A.993.993,0,0,1,447.66,255.744Z" transform="translate(-414.652 -184.615)" fill="#263238"/>
        <path id="Trazado_160648" data-name="Trazado 160648" d="M507.527,252.09a.56.56,0,0,1-.084.162l-.285.459-1.119,1.756-4.139,6.461-13.95,21.591v-.157c.615,1.007,1.27,2.081,1.935,3.16l.626,1.024h-.246c2.987-4.475,5.739-8.76,8.262-12.647s4.822-7.361,6.824-10.225,3.675-5.135,4.85-6.712l1.37-1.773.364-.459a1.216,1.216,0,0,1,.129-.145.866.866,0,0,1-.106.168l-.341.47c-.313.425-.755,1.035-1.326,1.807-1.119,1.572-2.8,3.86-4.771,6.712s-4.268,6.354-6.768,10.253-5.241,8.251-8.228,12.725l-.129.19-.117-.2-.626-1.024-1.93-3.16-.05-.073.05-.078,14.029-21.541,4.212-6.41,1.152-1.728.3-.442Z" transform="translate(-432.282 -183.937)" fill="#263238"/>
        <path id="Trazado_160649" data-name="Trazado 160649" d="M446.248,347.964a4.894,4.894,0,0,0-6.2,2.081,5.09,5.09,0,0,0,.671,5.594c1.326,1.41,4.536,2.372,6.03.671Z" transform="translate(-411.059 -226.006)" fill="#ebebeb"/>
        <path id="Trazado_160650" data-name="Trazado 160650" d="M446.139,347.907a4,4,0,0,1,.073.593c.034.436.084,1.007.14,1.706.106,1.527.252,3.613.419,6.063v.056l-.034.039a3.149,3.149,0,0,1-2.612.951,5.812,5.812,0,0,1-2.858-.973,4.329,4.329,0,0,1-1.74-2.3,5.594,5.594,0,0,1-.185-2.685,4.542,4.542,0,0,1,1.035-2.2,5.085,5.085,0,0,1,1.678-1.27,4.822,4.822,0,0,1,3-.352,3.658,3.658,0,0,1,1.052.375,7.752,7.752,0,0,0-1.068-.263,4.85,4.85,0,0,0-2.9.431,4.475,4.475,0,0,0-2.556,3.328,5.258,5.258,0,0,0,.19,2.551,4.055,4.055,0,0,0,1.628,2.148,5.594,5.594,0,0,0,2.713.929,2.886,2.886,0,0,0,2.394-.839l-.034.1c-.123-2.428-.224-4.475-.3-6.007-.028-.71-.05-1.292-.067-1.734a4.741,4.741,0,0,1,.028-.638Z" transform="translate(-410.95 -225.949)" fill="#263238"/>
        <path id="Trazado_160651" data-name="Trazado 160651" d="M444.41,301.638s1.594-32.857,2.416-37.566,2.937-12.306,6.265-16.932c3.183-4.4,3.5-4.71,3.5-4.71l-.213,4.1a57.613,57.613,0,0,0-6.388,17.044c-1.773,9.308-2.993,38.036-2.993,38.036Z" transform="translate(-413.22 -179.68)" fill="#263238"/>
        <path id="Trazado_160652" data-name="Trazado 160652" d="M525.749,334.078a7.272,7.272,0,0,1-2.718-.559l.425-1.035a5.532,5.532,0,0,0,3.619.285,4.1,4.1,0,0,0,2.646-2.405,6.041,6.041,0,0,0,.056-3.5,21.141,21.141,0,0,0-.833-2.5c-.14-.364-.28-.727-.414-1.119-2.349-6.606-1.941-13.984-1.583-20.523l1.119.062c-.352,6.416-.75,13.693,1.527,20.087.129.364.263.716.4,1.074a21.726,21.726,0,0,1,.884,2.635,7.042,7.042,0,0,1-.1,4.167,5.157,5.157,0,0,1-3.356,3.076A5.721,5.721,0,0,1,525.749,334.078Z" transform="translate(-447.864 -206.246)" fill="#e0e0e0"/>
        <path id="Trazado_160653" data-name="Trazado 160653" d="M519.275,335.447a6.216,6.216,0,0,1-4.922-2.635c-1.846-2.271-2.142-7.9-2.4-12.865-.09-1.779-.179-3.457-.336-4.676a48.109,48.109,0,0,0-3.037-10.119l1.024-.442a47.437,47.437,0,0,1,3.121,10.421c.162,1.259.252,2.959.347,4.755.235,4.564.531,10.247,2.148,12.233,2.439,3,5.4,2.976,9.593-.1l.66.906C523.162,334.6,521.121,335.447,519.275,335.447Z" transform="translate(-441.496 -207.123)" fill="#ebebeb"/>
        <path id="Trazado_160654" data-name="Trazado 160654" d="M534.75,353.255a6.54,6.54,0,0,1,.856-1.611,2.237,2.237,0,0,1,1.443-.912,1.4,1.4,0,0,1,1.432.789,1.678,1.678,0,0,1-.257,1.678,2.349,2.349,0,0,1-1.426.794,6.345,6.345,0,0,1-1.628,0" transform="translate(-453.028 -227.398)" fill="#263238"/>
        <path id="Trazado_160655" data-name="Trazado 160655" d="M510.233,256.128a36.258,36.258,0,0,1,7.551,19.522h2.327a36.52,36.52,0,0,0-9.078-22.016,34.437,34.437,0,0,0,1.281-5.689c.515-4.369-4.279-7.014-4.279-7.014v3.311a3.865,3.865,0,0,1,1.958,3.434c-.106,2.355-1.874,7.361-3.6,11.679a25.893,25.893,0,0,0-1.907,11.187c.162,4.894,2.075,7.115,2.075,7.115l2.31-.979s-1.382-1.728-1.98-6.455c-.459-3.613.61-6.438,1.538-9.05C508.9,259.875,509.573,258.085,510.233,256.128Z" transform="translate(-439.675 -179.019)" fill="#263238"/>
        <path id="Trazado_160656" data-name="Trazado 160656" d="M392.776,354.468l-2.8,10.667a10.141,10.141,0,0,0,2.444,9.722c.151.151.308.3.464.442h0a10.544,10.544,0,0,0,10.924,1.941l28.969-11.528L428.5,352.65,406.57,358.9Z" transform="translate(-389.073 -228.248)" fill="#a36957"/>
        <path id="Trazado_160657" data-name="Trazado 160657" d="M437.755,321.78l5.252,27.968a2.5,2.5,0,0,0,2.556,2.042l40.128-1.549a2.512,2.512,0,0,0,2.411-2.59l-.917-26.424a2.5,2.5,0,0,0-2.506-2.416H440.216a2.5,2.5,0,0,0-2.461,2.97Z" transform="translate(-410.268 -213.336)" fill="#455a64"/>
        <path id="Trazado_160658" data-name="Trazado 160658" d="M486.7,344.48h0a3.725,3.725,0,0,0-3.479,2.372c-.559,1.516-1.432,3.283-2.372,3.792-1.74.951-4.749,1.712-6.326.934s-7.909-6.466-9.017-5.834-2.058,2.053-.951,3.323,6.947,5.062,5.829,6.332-13.425-4.307-15.343-3.815-3,1.678-1.9,2.422,9.509,3.915,9.962,5.034c0,0-12.653-3.323-13.128-2.528s-1.264,2.053,0,2.528,12.183,3.323,13.128,3.8a22.932,22.932,0,0,0,4.883,1.421c.341,0,2.8.833,5.1,1.617a11.154,11.154,0,0,0,7.87-.207l1.281-.526a5.034,5.034,0,0,0,3.116-4.95l-.257-4.313,1.382-3.563Z" transform="translate(-415.375 -224.648)" fill="#a36957"/>
        <path id="Trazado_160659" data-name="Trazado 160659" d="M498.05,374.75s23.09,20.9,30.865,20.965c8.195.062,12.809-8.441,11.937-13.727-.47-2.8-1.678-17.558-1.678-17.558-5.487-1.5-13.687-2.17-19.533,1.717l2.131,8.6L506.356,367.3Z" transform="translate(-436.856 -232.918)" fill="#a36957"/>
        <path id="Trazado_160660" data-name="Trazado 160660" d="M559.639,365.307a1.118,1.118,0,0,1-.263-.045l-.75-.179c-.643-.157-1.577-.386-2.735-.649a38.226,38.226,0,0,0-9.173-1.063,32.087,32.087,0,0,0-5.034.559,18.28,18.28,0,0,0-3.971,1.169,9.831,9.831,0,0,0-2.372,1.46c-.5.431-.738.71-.761.694a.913.913,0,0,1,.157-.218,6.163,6.163,0,0,1,.531-.559,9.04,9.04,0,0,1,2.36-1.561,17.185,17.185,0,0,1,4.005-1.247,30.461,30.461,0,0,1,5.1-.6,35.274,35.274,0,0,1,9.224,1.152c1.158.291,2.086.559,2.724.744l.727.229A1.541,1.541,0,0,1,559.639,365.307Z" transform="translate(-452.953 -232.838)" fill="#263238"/>
      </g>
    </g>
  </g>
</svg>
